<svg width="1024" height="768" viewBox="0 0 1024 768" fill="none" xmlns="http://www.w3.org/2000/svg">
<g clip-path="url(#clip0_21_1167)">
<rect width="1024" height="768" fill="#1E1E1E"/>
<path opacity="0.1" d="M792.557 659.188L775.647 662.475L774.738 657.797L780.47 656.682L776.911 638.373L771.179 639.487L770.269 634.809L787.179 631.522L788.089 636.2L782.356 637.314L785.915 655.624L791.648 654.51L792.557 659.188ZM815.863 637.626L819.053 654.037L814.605 654.902L811.758 640.254C811.464 638.74 810.541 637.984 809.333 638.219C808.087 638.461 807.456 639.618 807.758 641.171L810.579 655.685L806.189 656.538L803.342 641.89C803.047 640.376 802.163 639.612 800.916 639.855C799.651 640.101 799.02 641.258 799.322 642.811L802.143 657.324L797.695 658.189L793.585 637.042L798.167 636.151L798.812 639.468L799.368 639.36C799.374 636.832 800.554 635.229 802.644 634.823C804.562 634.45 806.157 635.493 807.041 637.689L807.597 637.581C807.599 635.233 808.818 633.623 810.831 633.232C813.438 632.725 815.211 634.271 815.863 637.626ZM829.857 652.295C825.869 653.071 822.686 651.023 821.944 647.208C821.202 643.393 823.546 640.609 828.69 639.231L833.577 637.963L833.249 636.276C832.892 634.435 831.418 633.607 829.251 634.029C827.43 634.383 826.225 635.452 826.041 636.861L820.941 637.852C820.579 633.943 823.569 630.796 828.592 629.819C834.018 628.765 837.569 630.76 838.467 635.381L841.255 649.722L836.27 650.691L835.722 647.872L835.262 647.962C834.615 650.157 832.618 651.759 829.857 652.295ZM830.843 647.746C833.451 647.24 834.99 645.229 834.531 642.871L834.233 641.337L830.217 642.377C827.793 643.007 826.729 644.189 827.046 645.818C827.352 647.39 828.811 648.141 830.843 647.746ZM857.871 654.749C852.388 655.815 848.352 654.192 847.276 650.501L852.395 649.506C853.024 650.797 854.879 651.331 857.199 650.881C860.247 650.288 861.589 648.595 861.075 645.949L860.266 641.788L859.864 641.867C859.674 644.371 857.529 646.439 854.385 647.05C849.515 647.997 845.945 645.189 844.835 639.476L844.212 636.274C843.09 630.503 845.417 626.608 850.479 625.624C853.546 625.028 856.207 626.123 857.363 628.385L857.746 628.311L857.045 624.706L862.203 623.704L866.31 644.832C867.267 649.759 864.045 653.549 857.871 654.749ZM850.173 638.279C850.732 641.155 852.827 642.618 855.569 642.085C858.329 641.548 859.724 639.407 859.165 636.531L858.572 633.482C858.013 630.607 855.918 629.143 853.157 629.68C850.416 630.213 849.025 632.374 849.58 635.23L850.173 638.279ZM884.618 635.125L889.565 634.163C889.85 637.988 886.63 641.379 881.722 642.333C875.567 643.53 871.369 640.764 870.202 634.763L869.543 631.37C868.466 625.829 871.588 621.422 877.34 620.304C882.938 619.216 887.239 622.2 888.342 627.875L888.909 630.789L875.277 633.439L875.501 634.589C876.037 637.35 878.171 638.805 880.912 638.273C883.021 637.863 884.503 636.58 884.618 635.125ZM878.034 624.387C875.312 624.916 874.036 627.054 874.625 630.084L883.195 628.418C882.606 625.388 880.68 623.873 878.034 624.387ZM897.332 624.476C895.945 617.344 896.9 610.692 900.093 605.415L905.48 604.368C902.558 611.442 901.877 616.847 903.141 623.347C904.4 629.827 907.052 634.564 912.412 640.029L907.025 641.076C902.088 637.38 898.714 631.589 897.332 624.476ZM918.274 619.211C917.477 615.108 920.275 611.898 925.509 610.881C930.628 609.886 934.2 611.579 935.221 615.499L930.275 616.461C929.753 615.11 928.205 614.515 926.25 614.895C924.256 615.283 923.108 616.441 923.369 617.783C923.592 618.934 924.609 619.452 926.742 619.475L930.151 619.509C934.598 619.56 936.85 621.013 937.476 624.233C938.307 628.509 935.343 631.891 929.841 632.96C924.434 634.011 920.647 632.34 919.588 628.427L924.765 627.421C925.374 628.814 926.949 629.344 929.135 628.919C931.282 628.502 932.487 627.332 932.219 625.952C931.988 624.763 931.071 624.344 928.754 624.297L925.46 624.241C921.323 624.15 918.908 622.471 918.274 619.211ZM949.241 636.65C948.34 636.825 947.378 636.993 947.22 637.003L946.386 632.709C946.527 632.721 947.279 632.595 947.566 632.539C949.695 632.125 950.722 631.169 950.897 629.404L950.951 628.558L939.372 608.704L945.162 607.578L953.011 622.985L953.337 622.921L954.844 605.696L960.404 604.615L957.281 627.447C956.518 633.246 954.418 635.644 949.241 636.65ZM966.819 609.775C966.021 605.672 968.82 602.462 974.054 601.445C979.173 600.45 982.745 602.143 983.766 606.063L978.819 607.025C978.298 605.674 976.75 605.079 974.794 605.459C972.8 605.847 971.652 607.005 971.913 608.347C972.137 609.498 973.153 610.016 975.286 610.039L978.695 610.073C983.142 610.124 985.394 611.576 986.02 614.797C986.852 619.073 983.888 622.454 978.385 623.524C972.979 624.575 969.192 622.904 968.133 618.991L973.309 617.985C973.918 619.378 975.494 619.908 977.679 619.483C979.827 619.065 981.032 617.896 980.763 616.516C980.532 615.327 979.615 614.908 977.298 614.861L974.004 614.805C969.868 614.714 967.452 613.035 966.819 609.775ZM992.897 592.032L998.035 591.033L999.25 597.283L1007.13 595.752L1007.95 599.95L1000.16 601.463L1002.13 611.567C1002.44 613.159 1003.74 613.84 1005.75 613.449C1006.25 613.352 1009.91 612.621 1010.14 612.557L1010.94 616.698C1010.74 616.777 1006.57 617.628 1006.15 617.71C1000.39 618.828 997.835 617.435 996.881 612.527L994.928 602.481L989.425 603.55L988.609 599.352L994.112 598.282L992.897 592.032ZM1030.25 606.817L1035.2 605.855C1035.48 609.679 1032.26 613.071 1027.36 614.025C1021.2 615.221 1017 612.456 1015.84 606.455L1015.18 603.062C1014.1 597.521 1017.22 593.113 1022.97 591.995C1028.57 590.907 1032.87 593.891 1033.98 599.566L1034.54 602.481L1020.91 605.13L1021.13 606.281C1021.67 609.042 1023.8 610.497 1026.55 609.964C1028.65 609.554 1030.14 608.271 1030.25 606.817ZM1023.67 596.079C1020.95 596.608 1019.67 598.746 1020.26 601.775L1028.83 600.109C1028.24 597.08 1026.31 595.564 1023.67 596.079ZM1058.59 590.445L1061.78 606.857L1057.33 607.721L1054.48 593.074C1054.19 591.559 1053.26 590.803 1052.06 591.038C1050.81 591.28 1050.18 592.438 1050.48 593.991L1053.3 608.504L1048.91 609.357L1046.06 594.71C1045.77 593.195 1044.89 592.432 1043.64 592.674C1042.37 592.92 1041.74 594.077 1042.04 595.63L1044.87 610.144L1040.42 611.008L1036.31 589.861L1040.89 588.971L1041.53 592.287L1042.09 592.179C1042.1 589.651 1043.28 588.049 1045.37 587.643C1047.28 587.27 1048.88 588.313 1049.76 590.509L1050.32 590.401C1050.32 588.052 1051.54 586.443 1053.55 586.051C1056.16 585.544 1057.93 587.09 1058.59 590.445ZM1070.38 605.183L1065.67 606.1L1060.29 578.434L1065.14 577.492L1078.22 594.029L1078.55 593.966L1074.98 575.58L1079.69 574.663L1085.07 602.329L1080.24 603.268L1067.11 586.619L1066.79 586.682L1070.38 605.183ZM1096.85 600.397C1092.86 601.172 1089.68 599.125 1088.94 595.309C1088.2 591.494 1090.54 588.711 1095.69 587.333L1100.57 586.064L1100.24 584.377C1099.89 582.537 1098.41 581.709 1096.25 582.13C1094.42 582.484 1093.22 583.554 1093.04 584.963L1087.94 585.954C1087.57 582.045 1090.56 578.897 1095.59 577.921C1101.01 576.866 1104.56 578.862 1105.46 583.482L1108.25 597.823L1103.27 598.792L1102.72 595.974L1102.26 596.063C1101.61 598.258 1099.61 599.86 1096.85 600.397ZM1097.84 595.848C1100.45 595.341 1101.98 593.331 1101.53 590.972L1101.23 589.439L1097.21 590.478C1094.79 591.108 1093.72 592.29 1094.04 593.92C1094.35 595.492 1095.81 596.243 1097.84 595.848ZM1131.4 576.291L1134.59 592.703L1130.14 593.567L1127.3 578.92C1127 577.405 1126.08 576.649 1124.87 576.884C1123.63 577.126 1123 578.283 1123.3 579.836L1126.12 594.35L1121.73 595.203L1118.88 580.556C1118.59 579.041 1117.7 578.278 1116.46 578.52C1115.19 578.766 1114.56 579.923 1114.86 581.476L1117.68 595.99L1113.23 596.854L1109.12 575.707L1113.71 574.816L1114.35 578.133L1114.91 578.025C1114.91 575.497 1116.09 573.895 1118.18 573.488C1120.1 573.116 1121.7 574.159 1122.58 576.354L1123.14 576.246C1123.14 573.898 1124.36 572.288 1126.37 571.897C1128.98 571.39 1130.75 572.936 1131.4 576.291ZM1151.61 583.226L1156.56 582.265C1156.85 586.089 1153.62 589.481 1148.72 590.435C1142.56 591.631 1138.36 588.866 1137.2 582.865L1136.54 579.471C1135.46 573.93 1138.58 569.523 1144.33 568.405C1149.93 567.317 1154.23 570.301 1155.34 575.976L1155.9 578.89L1142.27 581.54L1142.5 582.69C1143.03 585.451 1145.17 586.907 1147.91 586.374C1150.02 585.964 1151.5 584.681 1151.61 583.226ZM1145.03 572.488C1142.31 573.018 1141.03 575.156 1141.62 578.185L1150.19 576.519C1149.6 573.49 1147.67 571.974 1145.03 572.488ZM1169.71 571.193C1167.39 571.644 1165.11 570.057 1164.65 567.68C1164.19 565.303 1165.71 562.997 1168.03 562.546C1170.35 562.095 1172.62 563.663 1173.08 566.04C1173.55 568.418 1172.03 570.742 1169.71 571.193ZM1172.53 585.707C1170.21 586.158 1167.93 584.571 1167.47 582.213C1167.01 579.816 1168.53 577.511 1170.85 577.06C1173.17 576.609 1175.44 578.176 1175.91 580.573C1176.37 582.931 1174.85 585.256 1172.53 585.707ZM1223.76 561.025C1225.14 568.137 1224.18 574.77 1220.99 580.047L1215.6 581.094C1218.53 574.02 1219.21 568.634 1217.95 562.154C1216.69 555.654 1214.03 550.898 1208.67 545.433L1214.06 544.386C1219 548.082 1222.37 553.892 1223.76 561.025Z" fill="#00FA92"/>
<path opacity="0.1" d="M83.4716 84.5066L70.2447 82.9996L76.6018 27.2043L57.3668 25.0127L58.6669 13.6022L110.364 19.4923L109.064 30.9028L89.8287 28.7113L83.4716 84.5066ZM148.597 77.3014L160.613 78.6704C158.507 87.6302 148.687 93.0692 136.764 91.7108C121.814 90.0074 114.2 80.6478 115.861 66.0702L116.8 57.8267C118.333 44.3669 128.662 36.5326 142.634 38.1245C156.233 39.674 163.924 49.6084 162.353 63.3942L161.546 70.4734L128.433 66.7006L128.114 69.495C127.35 76.2016 131.183 81.073 137.843 81.8319C142.966 82.4156 147.283 80.5485 148.597 77.3014ZM141.276 47.9716C134.662 47.2181 130.2 51.1916 129.361 58.5502L150.18 60.9222C151.018 53.5635 147.703 48.7039 141.276 47.9716ZM196.839 79.9672L196.094 79.8823L183.884 95.9472L170.378 94.4083L189.576 70.8363L176.091 43.0216L190.809 44.6985L198.569 63.1329L199.36 63.2231L211.115 47.012L225.087 48.604L205.801 72.1188L219.327 99.9854L205.122 98.3669L196.839 79.9672ZM250.651 36.6554L263.132 38.0776L261.403 53.2606L280.544 55.4415L279.382 65.6411L260.473 63.4867L257.677 88.0311C257.236 91.8967 259.735 94.3987 264.625 94.9559C265.836 95.0939 274.737 96.0608 275.301 96.0779L274.155 106.138C273.632 106.173 263.468 105.109 262.444 104.992C248.472 103.4 243.62 98.3656 244.978 86.4427L247.759 62.0381L234.392 60.5152L235.554 50.3155L248.921 51.8385L250.651 36.6554ZM303.306 75.538C305.28 58.2126 312.268 43.6758 323.383 33.9025L336.47 35.3936C324.675 49.477 319.217 61.3574 317.418 77.1459C315.625 92.8878 318.276 105.645 326.6 122.021L313.513 120.53C304.881 108.506 301.338 92.8169 303.306 75.538ZM370.92 81.6848L358.345 80.252L362.001 48.1628L374.576 49.5955L370.92 81.6848ZM392.996 84.2L380.421 82.7673L384.077 50.678L396.652 52.1107L392.996 84.2ZM437.245 124.814L424.018 123.307L430.375 67.5117L411.141 65.3202L412.441 53.9096L464.137 59.7997L462.837 71.2103L443.602 69.0187L437.245 124.814ZM491.211 107.892L489.683 121.306L504.586 123.004L503.52 132.365L466.633 128.162L467.7 118.801L477.48 119.915L481.195 87.3138L470.483 86.0933L471.555 76.6854L494.562 79.3068L493.061 92.4872L495.063 92.7153C498.461 82.7704 504.217 79.0387 513.904 80.1424C516.792 80.4714 519.358 81.1411 521.094 82.0467L519.518 95.8791C517.291 94.7289 514.006 93.7413 511.119 93.4123C499.01 92.0327 492.469 96.8545 491.211 107.892ZM541.521 137.544C531.834 136.44 526.025 129.456 527.081 120.188C528.137 110.92 535.511 106.24 548.28 106.799L560.381 107.423L560.848 103.324C561.357 98.8532 558.58 95.8949 553.317 95.2952C548.893 94.7911 545.363 96.3705 543.926 99.462L531.537 98.0505C533.53 88.8419 542.645 83.7943 554.847 85.1846C568.027 86.6863 574.716 93.8175 573.437 105.042L569.468 139.879L557.359 138.499L558.139 131.653L557.021 131.526C553.954 136.083 548.228 138.308 541.521 137.544ZM547.061 127.843C553.396 128.565 558.369 125.074 559.022 119.346L559.447 115.62L549.504 115.1C543.5 114.794 540.213 116.731 539.762 120.69C539.327 124.509 542.125 127.281 547.061 127.843ZM634.569 113.422L622.087 112C621.907 106.129 618.779 102.942 613.237 102.311C606.39 101.531 602.034 106.224 600.962 115.632L600.57 119.078C599.498 128.486 602.686 134.039 609.533 134.819C615.122 135.456 618.777 133.183 620.288 127.789L632.77 129.211C630.257 141.332 621.689 146.961 608.416 145.449C593.28 143.724 585.873 134.199 587.65 118.597L588.266 113.195C590.043 97.5925 599.403 89.9781 614.54 91.7027C627.813 93.215 634.791 100.709 634.569 113.422ZM663.37 119.44L683.605 100.845L698.182 102.506L676.745 121.719L693.633 154.026L678.87 152.344L666.465 128.709L661.018 133.042L659.076 150.088L646.361 148.64L654.443 77.708L667.157 79.1567L662.578 119.35L663.37 119.44ZM786.967 164.66L761.631 161.773L769.288 94.5673L794.019 97.385C806.92 98.8548 813.986 105.982 812.793 116.461C811.965 123.726 806.146 129.244 799.038 129.519L798.948 130.311C807.816 131.982 813.427 139.462 812.435 148.171C811.092 159.954 801.358 166.299 786.967 164.66ZM781.074 106.242L779.084 123.707L786.722 124.577C794.034 125.411 798.586 122.721 799.202 117.319C799.86 111.543 796.35 107.983 789.271 107.176L781.074 106.242ZM775.762 152.862L784.052 153.807C793.274 154.858 798.007 152.236 798.782 145.436C799.509 139.056 795.259 135.363 786.177 134.328L777.98 133.395L775.762 152.862ZM842.618 135.428L830.043 133.995L833.7 101.906L846.274 103.339L842.618 135.428ZM864.694 137.943L852.119 136.511L855.776 104.421L868.35 105.854L864.694 137.943ZM919.383 145.731C917.414 163.01 910.432 177.5 899.317 187.273L886.23 185.782C898.025 171.699 903.478 159.865 905.271 144.123C907.07 128.335 904.424 115.531 896.1 99.1553L909.187 100.646C917.819 112.67 921.357 128.406 919.383 145.731Z" fill="#00FA92"/>
<path opacity="0.1" d="M-5.53666 533.433L0.6744 496.502L9.51563 495.728L-0.0339513 541.83L-10.494 542.745L-27.9039 499.002L-18.3467 498.166L-5.94136 533.469L-5.53666 533.433ZM16.2991 527.727L24.6422 526.997C25.3874 530.853 28.7589 532.817 33.8644 532.37C38.7208 531.946 41.5985 529.341 41.2799 525.699C41.0129 522.648 38.8789 521.203 33.5793 520.506L28.8143 519.825C20.5284 518.699 16.1677 514.752 15.5849 508.09C14.8522 499.716 20.5816 493.85 30.2945 493C39.6961 492.178 46.476 496.886 47.4588 504.894L39.1157 505.623C38.4491 501.949 35.4174 499.924 31.0279 500.308C26.5762 500.698 23.988 503.026 24.2821 506.388C24.5599 509.563 26.7049 511.132 31.6539 511.766L36.3539 512.421C45.2083 513.592 49.3468 517.151 49.9487 524.031C50.7249 532.903 44.8427 538.813 34.3515 539.731C24.1716 540.622 17.3458 536.106 16.2991 527.727ZM62.6 491.868L70.9431 491.138L71.831 501.287L84.6259 500.167L85.2223 506.985L72.5831 508.091L74.0185 524.497C74.2445 527.081 76.2093 528.383 79.478 528.097C80.2874 528.027 86.2308 527.475 86.6016 527.411L87.1899 534.136C86.8529 534.228 80.0718 534.884 79.3869 534.944C70.0476 535.761 66.2087 533.117 65.5115 525.147L64.0843 508.835L55.1497 509.616L54.5532 502.798L63.4879 502.017L62.6 491.868ZM108.382 532.909C101.907 533.476 97.1838 529.685 96.6418 523.49C96.0998 517.295 100.295 513.258 108.711 511.926L116.699 510.725L116.46 507.985C116.198 504.997 113.991 503.433 110.473 503.741C107.516 504 105.42 505.5 104.892 507.711L96.6108 508.436C96.6887 502.155 101.972 497.646 110.128 496.932C118.939 496.162 124.256 499.931 124.912 507.434L126.95 530.72L118.856 531.428L118.455 526.852L117.708 526.917C116.31 530.302 112.865 532.517 108.382 532.909ZM110.712 525.835C114.946 525.465 117.732 522.523 117.397 518.694L117.179 516.204L110.614 517.186C106.651 517.784 104.761 519.486 104.993 522.132C105.216 524.685 107.412 526.124 110.712 525.835ZM165.963 504.784L157.62 505.513C156.721 501.702 154.254 500.036 150.55 500.36C145.973 500.76 143.751 504.405 144.302 510.694L144.503 512.998C145.053 519.286 147.875 522.49 152.451 522.09C156.187 521.763 158.273 519.792 158.543 516.067L166.886 515.337C166.855 523.59 162.006 528.406 153.134 529.182C143.016 530.067 136.912 524.829 135.999 514.4L135.683 510.789C134.771 500.36 139.873 494.142 149.991 493.257C158.863 492.48 164.418 496.449 165.963 504.784ZM185.578 504.887L196.325 490.05L206.069 489.197L194.618 504.598L209.945 523.459L200.077 524.322L188.832 510.531L185.849 514.086L186.846 525.48L178.347 526.223L174.199 478.811L182.698 478.067L185.048 504.933L185.578 504.887ZM284.232 523.861L279.22 524.299C270.223 525.086 267.049 522.51 266.286 513.793L265.687 506.944C265.256 502.025 262.849 500.322 256.022 501.171L255.262 492.485C262.135 492.166 264.211 490.071 263.78 485.152L263.178 478.272C262.416 469.556 265.094 466.467 274.091 465.679L279.103 465.241L279.702 472.09L276.714 472.351C272.293 472.738 271.511 473.842 271.961 478.978L272.721 487.664C273.091 491.898 270.283 494.935 264.678 495.771L264.727 496.331C270.392 496.18 273.682 498.653 274.055 502.918L274.812 511.573C275.262 516.709 276.223 517.66 280.644 517.273L283.632 517.012L284.232 523.861ZM297.618 522.69L297.019 515.841L300.007 515.579C304.428 515.193 305.21 514.089 304.76 508.952L304.003 500.298C303.63 496.033 306.441 493.027 312.046 492.191L311.997 491.631C306.332 491.781 303.039 489.278 302.669 485.044L301.909 476.358C301.459 471.222 300.498 470.27 296.077 470.657L293.089 470.919L292.489 464.07L297.502 463.631C306.498 462.844 309.673 465.421 310.435 474.138L311.037 481.018C311.468 485.936 313.875 487.639 320.699 486.76L321.459 495.446C314.589 495.796 312.513 497.891 312.944 502.81L313.543 509.658C314.306 518.375 311.627 521.464 302.63 522.251L297.618 522.69Z" fill="#00FA92"/>
<path opacity="0.1" d="M274.148 670.999C270.504 669.989 268.374 666.09 269.402 662.386C270.437 658.652 274.27 656.408 277.914 657.418C281.558 658.429 283.687 662.327 282.652 666.061C281.624 669.765 277.791 672.01 274.148 670.999ZM315.881 666.099L313.476 674.772L323.112 677.444L321.434 683.497L297.584 676.883L299.263 670.83L305.586 672.584L311.432 651.504L304.506 649.583L306.193 643.5L321.069 647.626L318.706 656.148L320.001 656.507C323.275 650.313 327.454 648.456 333.718 650.193C335.585 650.711 337.205 651.42 338.254 652.197L335.773 661.141C334.426 660.151 332.367 659.158 330.5 658.641C322.67 656.469 317.86 658.962 315.881 666.099ZM360.34 684.233L368.109 686.388C365.788 692.068 358.755 694.625 351.046 692.487C341.379 689.806 337.342 682.849 339.956 673.424L341.434 668.094C343.847 659.391 351.465 655.31 360.499 657.815C369.292 660.253 373.32 667.597 370.848 676.511L369.579 681.088L348.168 675.15L347.667 676.957C346.464 681.293 348.48 684.901 352.786 686.095C356.099 687.013 359.136 686.234 360.34 684.233ZM358.578 664.157C354.302 662.971 350.949 665.122 349.629 669.88L363.09 673.613C364.41 668.855 362.734 665.31 358.578 664.157ZM381.769 674.902C383.556 668.457 389.855 665.859 398.076 668.139C406.116 670.368 410.022 675.343 408.685 681.685L400.916 679.531C401.134 677.224 399.341 675.267 396.27 674.416C393.138 673.547 390.668 674.386 390.083 676.494C389.582 678.301 390.667 679.769 393.705 681.325L398.562 683.807C404.893 687.055 407.081 690.742 405.678 695.801C403.816 702.517 397.158 705.243 388.515 702.846C380.023 700.491 375.794 695.394 377.071 689.035L385.202 691.29C385.079 693.721 386.956 695.603 390.389 696.555C393.762 697.491 396.323 696.677 396.924 694.509C397.442 692.642 396.428 691.387 393.143 689.666L388.467 687.234C382.609 684.15 380.349 680.021 381.769 674.902ZM438.373 672.861C435 671.925 433.318 669.221 434.187 666.089C435.055 662.957 437.89 661.506 441.263 662.441C444.635 663.377 446.348 666.089 445.479 669.221C444.611 672.353 441.746 673.796 438.373 672.861ZM441.466 716.785L412.768 708.826L414.588 702.261L425.249 705.218L430.811 685.162L420.692 682.356L422.521 675.761L440.65 680.789L433.259 707.439L443.287 710.22L441.466 716.785ZM451.163 719.474L452.524 714.565L475.671 698.219L475.813 697.707L458.799 692.989L460.645 686.334L487.536 693.791L486 699.332L463.991 715.313L463.849 715.825L480.532 720.452L478.686 727.107L451.163 719.474ZM498.411 733.161C492.147 731.423 489.05 726.219 490.712 720.227C492.374 714.234 497.718 711.922 506.067 713.621L513.97 715.294L514.705 712.644C515.507 709.753 513.987 707.515 510.584 706.572C507.723 705.778 505.235 706.45 503.966 708.336L495.956 706.114C498.228 700.259 504.756 697.886 512.646 700.074C521.168 702.437 524.828 707.83 522.816 715.088L516.569 737.613L508.739 735.441L509.967 731.015L509.244 730.814C506.75 733.495 502.747 734.363 498.411 733.161ZM503.07 727.351C507.166 728.486 510.805 726.707 511.832 723.003L512.5 720.594L506.008 719.215C502.086 718.387 499.72 719.319 499.01 721.879C498.325 724.348 499.878 726.465 503.07 727.351ZM544.704 745.966C539.855 744.622 537.183 741.513 537.127 737.152L536.525 736.985L534.938 742.707L526.446 740.352L539.165 694.489L547.747 696.869L542.67 715.178L543.302 715.353C545.519 711.687 549.449 710.378 554.207 711.697C561.826 713.81 564.86 720.294 562.354 729.328L560.768 735.05C558.262 744.084 552.322 748.079 544.704 745.966ZM543.521 737.952C547.797 739.138 551.163 737.056 552.433 732.479L553.953 726.998C555.222 722.421 553.401 718.932 549.125 717.746C544.879 716.569 541.49 718.613 540.221 723.19L538.701 728.671C537.432 733.248 539.275 736.775 543.521 737.952ZM593.961 759.075L565.262 751.116L567.083 744.552L577.623 747.475L586.7 714.741L576.703 711.969L578.523 705.404L596.772 710.465L585.874 749.763L595.781 752.51L593.961 759.075ZM627.205 758.241L634.974 760.396C632.653 766.076 625.62 768.633 617.911 766.495C608.245 763.815 604.207 756.858 606.821 747.432L608.299 742.102C610.713 733.399 618.33 729.318 627.364 731.823C636.158 734.262 640.185 741.605 637.713 750.519L636.444 755.096L615.033 749.158L614.532 750.965C613.33 755.302 615.345 758.909 619.651 760.103C622.964 761.022 626.001 760.243 627.205 758.241ZM625.443 738.166C621.167 736.98 617.814 739.131 616.495 743.889L629.956 747.622C631.275 742.864 629.599 739.318 625.443 738.166ZM653.012 752.07C656.118 740.868 662.235 732.024 670.573 726.748L679.035 729.095C669.8 737.138 664.967 744.392 662.136 754.6C659.313 764.779 659.728 773.455 663.502 785.106L655.04 782.759C650.61 773.942 649.913 763.242 653.012 752.07ZM708.24 767.386C705.141 778.558 699.033 787.371 690.695 792.647L682.233 790.3C691.468 782.257 696.293 775.034 699.115 764.855C701.946 754.647 701.54 745.94 697.766 734.289L706.228 736.636C710.658 745.453 711.346 756.184 708.24 767.386Z" fill="#00FA92"/>
<path opacity="0.1" d="M579.735 324.118C576.912 323.846 574.832 321.244 575.108 318.375C575.386 315.482 577.925 313.325 580.748 313.596C583.571 313.868 585.651 316.47 585.373 319.363C585.097 322.233 582.558 324.39 579.735 324.118ZM609.921 315.063L609.274 321.782L616.74 322.501L616.288 327.19L597.811 325.411L598.263 320.722L603.162 321.194L604.735 304.863L599.369 304.346L599.823 299.634L611.347 300.744L610.712 307.346L611.715 307.442C613.327 302.441 616.172 300.525 621.024 300.992C622.471 301.132 623.759 301.444 624.635 301.882L623.968 308.811C622.844 308.255 621.194 307.79 619.747 307.651C613.682 307.067 610.454 309.534 609.921 315.063ZM645.12 322.667L651.139 323.247C650.165 327.745 645.303 330.549 639.331 329.974C631.842 329.253 627.954 324.64 628.657 317.338L629.054 313.209C629.704 306.467 634.799 302.46 641.797 303.134C648.61 303.79 652.541 308.689 651.876 315.595L651.535 319.141L634.947 317.544L634.813 318.944C634.489 322.303 636.448 324.705 639.784 325.026C642.35 325.273 644.492 324.302 645.12 322.667ZM641.205 308.069C637.892 307.75 635.695 309.775 635.34 313.461L645.769 314.465C646.124 310.779 644.424 308.379 641.205 308.069ZM659.733 312.984C660.214 307.992 664.527 305.252 670.896 305.865C677.125 306.465 680.658 309.631 680.497 314.489L674.478 313.91C674.338 312.177 672.76 310.966 670.38 310.737C667.954 310.503 666.238 311.444 666.081 313.078C665.946 314.477 666.939 315.421 669.386 316.174L673.296 317.375C678.396 318.949 680.492 321.388 680.114 325.307C679.613 330.509 675.051 333.39 668.355 332.745C661.776 332.112 657.989 328.898 658.104 324.035L664.403 324.642C664.629 326.453 666.261 327.599 668.92 327.855C671.533 328.107 673.318 327.172 673.48 325.492C673.619 324.046 672.707 323.252 670.057 322.408L666.286 321.221C661.558 319.706 659.351 316.95 659.733 312.984ZM701.275 304.105C698.662 303.853 697.068 302.075 697.301 299.649C697.535 297.222 699.439 295.781 702.052 296.033C704.665 296.284 706.283 298.065 706.05 300.491C705.816 302.917 703.888 304.356 701.275 304.105ZM709.28 336.144L687.047 334.004L687.537 328.918L695.795 329.713L697.292 314.176L689.453 313.421L689.945 308.312L703.989 309.664L702.001 330.311L709.77 331.059L709.28 336.144ZM716.792 336.868L717.158 333.065L732.127 317.977L732.165 317.581L718.984 316.311L719.48 311.155L740.313 313.162L739.9 317.454L725.726 332.124L725.687 332.521L738.612 333.765L738.116 338.921L716.792 336.868ZM753.473 340.824C748.62 340.356 745.655 336.916 746.102 332.273C746.549 327.63 750.195 325.227 756.583 325.394L762.638 325.601L762.836 323.548C763.051 321.308 761.637 319.853 759.001 319.599C756.785 319.386 755.034 320.206 754.342 321.765L748.137 321.167C749.053 316.546 753.565 313.943 759.677 314.532C766.28 315.167 769.686 318.674 769.145 324.296L767.464 341.747L761.399 341.163L761.729 337.733L761.169 337.68C759.675 339.985 756.832 341.147 753.473 340.824ZM756.158 335.926C759.33 336.231 761.787 334.443 762.063 331.573L762.243 329.707L757.268 329.534C754.263 329.433 752.637 330.43 752.446 332.413C752.262 334.326 753.685 335.687 756.158 335.926ZM789.333 344.253C785.576 343.891 783.198 341.943 782.589 338.73L782.122 338.685L781.695 343.117L775.116 342.484L778.538 306.953L785.187 307.593L783.821 321.777L784.311 321.825C785.47 318.828 788.203 317.349 791.889 317.704C797.791 318.272 800.877 322.666 800.203 329.665L799.776 334.098C799.102 341.097 795.235 344.821 789.333 344.253ZM787.415 338.488C790.728 338.807 792.943 336.83 793.285 333.284L793.694 329.038C794.035 325.492 792.235 323.153 788.923 322.834C785.633 322.517 783.397 324.468 783.055 328.014L782.647 332.26C782.305 335.806 784.126 338.171 787.415 338.488ZM827.421 347.52L805.188 345.379L805.678 340.294L813.843 341.08L816.285 315.72L808.54 314.975L809.029 309.889L823.167 311.25L820.236 341.695L827.911 342.434L827.421 347.52ZM851.867 342.575L857.886 343.154C856.912 347.652 852.05 350.457 846.078 349.882C838.589 349.161 834.701 344.548 835.404 337.246L835.801 333.116C836.451 326.374 841.546 322.368 848.544 323.041C855.357 323.697 859.288 328.597 858.623 335.502L858.282 339.048L841.694 337.451L841.559 338.851C841.236 342.21 843.194 344.612 846.531 344.934C849.097 345.181 851.239 344.21 851.867 342.575ZM847.952 327.976C844.639 327.657 842.442 329.682 842.087 333.369L852.516 334.373C852.871 330.687 851.171 328.286 847.952 327.976ZM870.124 334.655C870.96 325.977 874.326 318.649 879.798 313.666L886.353 314.297C880.58 321.44 877.955 327.427 877.193 335.336C876.434 343.221 877.871 349.576 882.175 357.69L875.62 357.059C871.199 351.123 869.291 343.311 870.124 334.655ZM904.623 355.401C901.8 355.129 899.72 352.527 899.996 349.658C900.274 346.765 902.813 344.608 905.636 344.88C908.459 345.151 910.539 347.753 910.261 350.646C909.985 353.516 907.446 355.673 904.623 355.401ZM934.809 346.347L934.162 353.065L941.628 353.784L941.176 358.474L922.699 356.694L923.151 352.005L928.05 352.477L929.623 336.146L924.257 335.63L924.711 330.917L936.235 332.027L935.6 338.629L936.603 338.726C938.215 333.724 941.06 331.808 945.912 332.276C947.359 332.415 948.647 332.727 949.523 333.165L948.856 340.094C947.732 339.538 946.082 339.073 944.635 338.934C938.57 338.35 935.342 340.817 934.809 346.347ZM970.008 353.951L976.027 354.53C975.053 359.028 970.191 361.832 964.219 361.257C956.73 360.536 952.842 355.924 953.545 348.621L953.942 344.492C954.592 337.75 959.687 333.743 966.686 334.417C973.498 335.073 977.429 339.972 976.764 346.878L976.423 350.424L959.835 348.827L959.701 350.227C959.377 353.586 961.336 355.988 964.672 356.309C967.238 356.556 969.38 355.585 970.008 353.951ZM966.093 339.352C962.78 339.033 960.583 341.058 960.228 344.744L970.657 345.748C971.012 342.062 969.312 339.662 966.093 339.352ZM990.387 363.612C984.508 363.046 981.399 358.65 982.073 351.651L982.5 347.218C983.174 340.219 987.064 336.497 992.943 337.063C996.653 337.42 999.053 339.394 999.62 342.556L1000.09 342.601L1001.45 328.417L1008.12 329.059L1004.7 364.59L998.124 363.957L998.551 359.524L998.061 359.477C996.873 362.518 994.166 363.976 990.387 363.612ZM993.392 358.321C996.682 358.638 998.897 356.662 999.239 353.115L999.647 348.869C999.989 345.323 998.189 342.984 994.9 342.667C991.587 342.348 989.351 344.299 989.009 347.845L988.6 352.091C988.259 355.637 990.08 358.002 993.392 358.321ZM1031.05 350.151C1030.22 358.806 1026.85 366.111 1021.38 371.094L1014.83 370.463C1020.6 363.319 1023.22 357.356 1023.98 349.47C1024.74 341.562 1023.31 335.184 1019.01 327.07L1025.56 327.701C1029.98 333.636 1031.89 341.472 1031.05 350.151Z" fill="#00FA92"/>
<g filter="url(#filter0_d_21_1167)">
<rect x="143" y="166" width="738" height="436" rx="27" fill="#032718"/>
<rect x="133.5" y="156.5" width="757" height="455" rx="36.5" stroke="#00FA92" stroke-width="19"/>
</g>
<rect x="198" y="221" width="218" height="218" rx="20" stroke="#00FA92" stroke-width="14"/>
<path d="M256.701 406H356.299C364.247 406 369 402.302 369 396.162C369 377.078 345.01 350.744 306.463 350.744C267.99 350.744 244 377.078 244 396.162C244 402.302 248.753 406 256.701 406ZM306.537 337.503C322.432 337.503 336.246 323.3 336.246 304.808C336.246 286.537 322.432 273 306.537 273C290.643 273 276.828 286.833 276.828 304.955C276.828 323.3 290.569 337.503 306.537 337.503Z" fill="#D9D9D9"/>
<rect x="455" y="214" width="374" height="50" rx="16" fill="#00FA92"/>
<rect x="455" y="284" width="282" height="50" rx="16" fill="#00FA92"/>
<rect opacity="0.5" x="455" y="354" width="80.5297" height="80.5297" rx="16" fill="#00FA92"/>
<rect opacity="0.5" x="550.235" y="354" width="80.5297" height="80.5297" rx="16" fill="#00FA92"/>
<rect opacity="0.5" x="645.47" y="354" width="80.5297" height="80.5297" rx="16" fill="#00FA92"/>
</g>
<defs>
<filter id="filter0_d_21_1167" x="88" y="115" width="848" height="546" filterUnits="userSpaceOnUse" color-interpolation-filters="sRGB">
<feFlood flood-opacity="0" result="BackgroundImageFix"/>
<feColorMatrix in="SourceAlpha" type="matrix" values="0 0 0 0 0 0 0 0 0 0 0 0 0 0 0 0 0 0 127 0" result="hardAlpha"/>
<feOffset dy="4"/>
<feGaussianBlur stdDeviation="18"/>
<feComposite in2="hardAlpha" operator="out"/>
<feColorMatrix type="matrix" values="0 0 0 0 0 0 0 0 0 0.980392 0 0 0 0 0.572549 0 0 0 0.25 0"/>
<feBlend mode="normal" in2="BackgroundImageFix" result="effect1_dropShadow_21_1167"/>
<feBlend mode="normal" in="SourceGraphic" in2="effect1_dropShadow_21_1167" result="shape"/>
</filter>
<clipPath id="clip0_21_1167">
<rect width="1024" height="768" fill="white"/>
</clipPath>
</defs>
</svg>
