<?xml version="1.0" encoding="UTF-8"?><svg id="Layer_1" xmlns="http://www.w3.org/2000/svg" xmlns:xlink="http://www.w3.org/1999/xlink" viewBox="0 0 1024 768"><defs><style>.cls-1,.cls-2{fill:none;}.cls-3{filter:url(#outer-glow-15);}.cls-4{clip-path:url(#clippath);}.cls-5{opacity:.1;}.cls-6{fill:#e79ed5;}.cls-7,.cls-8{fill:#e46bc3;}.cls-9{fill:#1e1e1e;}.cls-10{clip-path:url(#clippath-1);}.cls-11{opacity:.2;}.cls-12{opacity:.3;}.cls-13{opacity:.5;}.cls-14,.cls-15,.cls-16,.cls-17,.cls-18{opacity:.8;}.cls-8{fill-rule:evenodd;}.cls-2{stroke:#e46bc3;stroke-width:12px;}.cls-15{filter:url(#outer-glow-18);}.cls-16{filter:url(#outer-glow-16);}.cls-17{filter:url(#outer-glow-17);}.cls-18{filter:url(#outer-glow-19);}</style><clipPath id="clippath"><rect class="cls-1" width="1024" height="768"/></clipPath><filter id="outer-glow-15" filterUnits="userSpaceOnUse"><feOffset dx="0" dy="0"/><feGaussianBlur result="blur" stdDeviation="16"/><feFlood flood-color="#e46bc3" flood-opacity=".75"/><feComposite in2="blur" operator="in"/><feComposite in="SourceGraphic"/></filter><filter id="outer-glow-16" filterUnits="userSpaceOnUse"><feOffset dx="0" dy="0"/><feGaussianBlur result="blur-2" stdDeviation="8"/><feFlood flood-color="#e46bc3" flood-opacity=".75"/><feComposite in2="blur-2" operator="in"/><feComposite in="SourceGraphic"/></filter><filter id="outer-glow-17" filterUnits="userSpaceOnUse"><feOffset dx="0" dy="0"/><feGaussianBlur result="blur-3" stdDeviation="8"/><feFlood flood-color="#e46bc3" flood-opacity=".75"/><feComposite in2="blur-3" operator="in"/><feComposite in="SourceGraphic"/></filter><filter id="outer-glow-18" filterUnits="userSpaceOnUse"><feOffset dx="0" dy="0"/><feGaussianBlur result="blur-4" stdDeviation="8"/><feFlood flood-color="#e46bc3" flood-opacity=".75"/><feComposite in2="blur-4" operator="in"/><feComposite in="SourceGraphic"/></filter><clipPath id="clippath-1"><rect class="cls-1" x="124" y="362" width="91" height="91"/></clipPath><filter id="outer-glow-19" filterUnits="userSpaceOnUse"><feOffset dx="0" dy="0"/><feGaussianBlur result="blur-5" stdDeviation="8"/><feFlood flood-color="#e46bc3" flood-opacity=".75"/><feComposite in2="blur-5" operator="in"/><feComposite in="SourceGraphic"/></filter></defs><g class="cls-4"><rect class="cls-9" width="1024" height="768"/><g class="cls-3"><path class="cls-7" d="m512,335h0c27.06,0,49,21.94,49,49h0c0,27.06-21.94,49-49,49h0c-27.06,0-49-21.94-49-49h0c0-27.06,21.94-49,49-49Z"/></g><g class="cls-13"><path class="cls-2" d="m512,241h0c78.98,0,143,64.02,143,143h0c0,78.98-64.02,143-143,143h0c-78.98,0-143-64.02-143-143h0c0-78.98,64.02-143,143-143Z" shape-rendering="crispEdges"/></g><g class="cls-12"><path class="cls-2" d="m512,141h0c134.21,0,243,108.79,243,243h0c0,134.21-108.79,243-243,243h0c-134.21,0-243-108.79-243-243h0c0-134.21,108.79-243,243-243Z" shape-rendering="crispEdges"/></g><g class="cls-11"><path class="cls-2" d="m512,41h0c189.43,0,343,153.57,343,343h0c0,189.43-153.57,343-343,343h0c-189.43,0-343-153.57-343-343h0c0-189.43,153.57-343,343-343Z" shape-rendering="crispEdges"/></g><g class="cls-11"><path class="cls-2" d="m512-59h0c244.66,0,443,198.34,443,443h0c0,244.66-198.34,443-443,443h0c-244.66,0-443-198.34-443-443h0c0-244.66,198.34-443,443-443Z" shape-rendering="crispEdges"/></g><g class="cls-5"><rect class="cls-2" x="-31" y="-159" width="1086" height="1086" rx="484" ry="484" shape-rendering="crispEdges"/></g><path d="m628,280h0c14.36,0,26,11.64,26,26h0c0,14.36-11.64,26-26,26h0c-14.36,0-26-11.64-26-26h0c0-14.36,11.64-26,26-26Z"/><path d="m379,163c0-18.23,14.77-33,33-33h0c18.23,0,33,14.77,33,33h0c0,18.23-14.77,33-33,33h0c-18.23,0-33-14.77-33-33h0Z"/><path d="m125,408c0-24.85,20.15-45,45-45h0c24.85,0,45,20.15,45,45h0c0,24.85-20.15,45-45,45h0c-24.85,0-45-20.15-45-45h0Z"/><path d="m142,678c0-24.85,20.15-45,45-45h0c24.85,0,45,20.15,45,45h0c0,24.85-20.15,45-45,45h0c-24.85,0-45-20.15-45-45h0Z"/><g class="cls-16"><path class="cls-7" d="m628,280h0c14.36,0,26,11.64,26,26h0c0,14.36-11.64,26-26,26h0c-14.36,0-26-11.64-26-26h0c0-14.36,11.64-26,26-26Z"/></g><g class="cls-17"><path class="cls-7" d="m379,163c0-18.23,14.77-33,33-33h0c18.23,0,33,14.77,33,33h0c0,18.23-14.77,33-33,33h0c-18.23,0-33-14.77-33-33h0Z"/></g><g class="cls-15"><path class="cls-7" d="m125,408c0-24.85,20.15-45,45-45h0c24.85,0,45,20.15,45,45h0c0,24.85-20.15,45-45,45h0c-24.85,0-45-20.15-45-45h0Z"/></g><g class="cls-10"><g class="cls-13"><path class="cls-6" d="m134.21,427.14c6.74-5.08,6.51-13.64,9.06-13.64,1.38,0,2.76,1.2,5.17,4.28,4.1,5.31,6.82,7.94,9.59,7.94,2.59,0,5.75-3.79,5.75-6.82,0-1.43-2.68-3.26-2.68-4.33,0-.62.62-.94,1.52-.94,6.29,0,11.82-5.26,11.82-9.45,0-2.99-4.86-5.75-4.86-7.67,0-.8.67-1.34,1.47-1.34.54,0,1.16.22,1.96.8,4.86,3.83,7.14,1.83,7.58-.62.18-1.02.76-2.1,3.3-3.34,5.31-2.81,9.06-6.64,9.06-9.63,0-3.34-6.07-6.2-6.07-7.49,0-.71,1.11-1.34,4.06-2.23-4.59-4.19-11.91-7.27-21.5-7.27-25.2.98-41.57,18.99-41.71,42.09-.04,7.22,2.23,14.4,6.47,19.66Zm55.18,18.01c8.74-5.57,15.17-12.35,19.27-20.2-.76-5.71-3.48-9.01-7.32-9.01-1.03,0-2.32.18-3.48.58-1.56.49-1.87.4-3.12-1.03-1.78-2.05-3.35-2.76-5.8-2.76-4.64,0-7.32,2.41-9.32,8.43-.58,1.83-1.38,2.45-4.51,3.66l-1.87.67c-3.48,1.34-4.37,3.84-3.17,9.1,1.07,4.64,3.3,7,6.47,7,2.85,0,4.6-1.03,6.56-1.03,2.86-.09,4.28,1.78,6.29,4.59Zm-9.14-40.4c2.9,0,4.19-2.59,7.45-3.57,2.14-.62,3.3-2.81,3.3-4.68,0-1.52-.76-2.81-2.41-2.81-1.74,0-3.35,1.34-4.42,3.61-.58,1.29-1.56,1.92-3.92,2.59-1.87.58-2.54,1.25-2.54,2.67,0,1.52,1.2,2.18,2.54,2.18Zm-12.94,20.6c2.54,0,5.04-2.94,5.04-5.57,0-3.25-1.34-4.77-2.9-4.77-1.7,0-2.77,2.01-2.77,5.04,0,1.74-1.52,1.78-1.52,3.52,0,1.07.85,1.78,2.14,1.78Zm-7.81,8.16c1.96,0,3.17-1.03,3.17-2.63,0-1.25-.94-2.05-2.28-2.05-5.4,0-5.62-3.03-8.21-3.03-1.43,0-2.41.85-2.41,2.1,0,.98.98,1.74,2.32,1.74,2.85,0,1.52,3.88,7.4,3.88Zm9.99,19.44c24.89,0,45.5-20.64,45.5-45.48s-20.65-45.48-45.54-45.48-45.46,20.6-45.46,45.48,20.65,45.48,45.5,45.48Zm0-6.06c-21.55,0-39.43-17.88-39.43-39.41s17.84-39.41,39.39-39.41,39.48,17.88,39.48,39.41-17.89,39.41-39.43,39.41Z"/></g></g><g class="cls-18"><path class="cls-7" d="m142,678c0-24.85,20.15-45,45-45h0c24.85,0,45,20.15,45,45h0c0,24.85-20.15,45-45,45h0c-24.85,0-45-20.15-45-45h0Z"/></g><g class="cls-14"><path class="cls-8" d="m179.02,633.71c2.59-.46,5.26-.71,7.98-.71,13.97,0,26.45,6.36,34.71,16.35-4.76,2.81-9.88,4.6-14.71,4.6-15.13,0-27.46-9-27.98-20.25Zm44.03,17.35c-3.83,2.62-8.58,5.5-14.2,7.06-4.76,1.32-10.02,2.23-14.9,3.08-10.4,1.8-19.13,3.31-17.86,7.88,1.86,6.72,15.45,8.81,30.36,4.68,8.19-2.27,16.38-8.01,21.79-13.83-1.39-3.16-3.13-6.13-5.18-8.86Zm7.93,36.55c-5.49-.78-12.67-.22-20.21,1.88-14.9,4.13-29.95,19.23-28.18,25.62.93,3.37,3.86,1.37,8.6-1.89h0c4.24-2.91,9.94-6.82,16.98-8.77,4.76-1.32,10.01-2.26,14.89-3.12h0c.93-.17,1.84-.33,2.73-.49,2.39-4.04,4.16-8.5,5.19-13.23Zm-82.28,14.01c3.93-2.03,8.72-4.28,14.19-5.79,4.76-1.32,9.96-2.42,14.8-3.45,10.29-2.18,18.93-4.02,18.15-6.85-1.15-4.16-14.17-4.18-29.07-.05-7.57,2.1-15.44,6.12-21.19,10.11.89,2.1,1.94,4.11,3.12,6.03Zm-6.67-24.89c14.75-2.12,30.98-18.93,30.98-29.78,0-6.12-3.35-4.11-8.79-.84-3.86,2.32-8.77,5.27-14.29,6.39-4.77,6.92-7.65,15.25-7.9,24.24Z"/></g><g class="cls-14"><path class="cls-8" d="m380.37,153.26c.56-1.84,1.29-3.67,2.19-5.44,4.64-9.11,12.94-15.14,22.2-17.2.25,4.04-.28,7.98-1.89,11.12-5.03,9.87-14.99,14.92-22.51,11.52Zm25.95-22.95c.43,3.37.73,7.43-.12,11.61-.72,3.55-1.88,7.28-2.95,10.74-2.28,7.38-4.2,13.58-.79,14.27,5,1.02,10.88-7.15,13.14-18.24,1.24-6.1.22-13.34-1.78-18.81-2.52-.14-5.04,0-7.5.43Zm26.47,6.98c-2.33,3.32-4.35,8.19-5.49,13.8-2.26,11.09,2.59,25.93,7.35,26.89,2.51.51,2.17-2.06,1.63-6.24h0c-.49-3.74-1.14-8.75-.08-13.99.72-3.54,1.86-7.28,2.91-10.75h0c.2-.66.4-1.31.59-1.94-1.85-2.9-4.16-5.54-6.9-7.78Zm-18.2,58.33c-.02-3.24.11-7.11.94-11.18.72-3.54,1.73-7.3,2.67-10.8,2-7.44,3.67-13.68,1.57-14.11-3.1-.63-7.44,7.85-9.7,18.95-1.15,5.64-1.14,12.11-.45,17.18,1.66.12,3.33.1,4.97-.03Zm-18.45-3.92c3.52-10.33-2.05-26.5-9.13-30.11-3.99-2.03-3.8.82-3.47,5.46.23,3.29.52,7.47-.58,11.44,2.93,5.41,7.4,10.06,13.18,13.21Z"/></g><g class="cls-14"><path class="cls-8" d="m604.62,317.88c-.67-1.36-1.22-2.79-1.65-4.3-2.21-7.72-.67-15.62,3.54-21.77,2.31,2.19,4.11,4.73,4.87,7.4,2.4,8.36-.62,16.6-6.76,18.67Zm2.61-27.08c2.06,1.7,4.4,3.87,6.15,6.73,1.48,2.42,2.82,5.18,4.06,7.75,2.64,5.46,4.86,10.04,7.18,8.62,3.42-2.09,2.42-9.93-2.22-17.51-2.55-4.16-7.02-7.78-11.09-9.85-1.53,1.27-2.89,2.7-4.08,4.26Zm18.94-10.17c.44,3.16,1.89,7.04,4.24,10.87,4.64,7.58,15.37,13.5,18.62,11.51,1.72-1.05.14-2.35-2.4-4.45-2.28-1.88-5.34-4.41-7.54-7.99-1.48-2.42-2.83-5.17-4.08-7.73-.24-.48-.47-.96-.7-1.43-2.61-.68-5.35-.95-8.13-.77Zm20.78,43.24c-1.74-1.85-3.74-4.14-5.45-6.93-1.48-2.42-2.92-5.12-4.25-7.63h0c-2.84-5.34-5.22-9.82-6.66-8.94-2.11,1.3-.07,8.49,4.58,16.07,2.36,3.85,5.83,7.56,8.94,10.11,1.02-.83,1.96-1.72,2.84-2.68Zm-12.69,7.63c-3.51-7.82-15.37-14.12-21.36-12.4-3.38.97-1.74,2.5.93,4.99,1.89,1.77,4.3,4.01,5.79,6.88,4.58,1.54,9.64,1.81,14.64.53Z"/></g></g></svg>