<?xml version="1.0" encoding="UTF-8"?><svg id="Layer_1" xmlns="http://www.w3.org/2000/svg" xmlns:xlink="http://www.w3.org/1999/xlink" viewBox="0 0 1024 768"><defs><style>.cls-1{filter:url(#outer-glow-10);stroke-width:28.08px;}.cls-1,.cls-2{fill:#1e1e1e;}.cls-1,.cls-3{stroke:#72f49b;stroke-miterlimit:10;}.cls-4{fill:#fff;}.cls-3{fill:none;stroke-linecap:round;stroke-width:20px;}.cls-5{fill:#72f49b;isolation:isolate;opacity:.1;}</style><filter id="outer-glow-10" filterUnits="userSpaceOnUse"><feOffset dx="0" dy="0"/><feGaussianBlur result="blur" stdDeviation="8"/><feFlood flood-color="#72f49b" flood-opacity=".75"/><feComposite in2="blur" operator="in"/><feComposite in="SourceGraphic"/></filter></defs><rect class="cls-2" width="1024" height="768"/><path class="cls-5" d="m728.68,650.38l-16.91,3.29-.91-4.68,5.73-1.11-3.56-18.31-5.73,1.11-.91-4.68,16.91-3.29.91,4.68-5.73,1.11,3.56,18.31,5.73-1.11.91,4.68Zm23.31-21.56l3.19,16.41-4.45.86-2.85-14.65c-.29-1.51-1.22-2.27-2.42-2.04-1.25.24-1.88,1.4-1.58,2.95l2.82,14.51-4.39.85-2.85-14.65c-.29-1.51-1.18-2.28-2.43-2.04-1.27.25-1.9,1.4-1.59,2.96l2.82,14.51-4.45.87-4.11-21.15,4.58-.89.65,3.32.56-.11c0-2.53,1.19-4.13,3.28-4.54,1.92-.37,3.51.67,4.4,2.87l.56-.11c0-2.35,1.22-3.96,3.23-4.35,2.61-.51,4.38,1.04,5.03,4.39Zm13.99,14.67c-3.99.78-7.17-1.27-7.91-5.09-.74-3.82,1.6-6.6,6.75-7.98l4.89-1.27-.33-1.69c-.36-1.84-1.83-2.67-4-2.25-1.82.35-3.03,1.42-3.21,2.83l-5.1.99c-.36-3.91,2.63-7.06,7.65-8.03,5.43-1.05,8.98.94,9.88,5.56l2.79,14.34-4.98.97-.55-2.82-.46.09c-.65,2.2-2.64,3.8-5.41,4.33Zm.99-4.55c2.61-.51,4.15-2.52,3.69-4.88l-.3-1.53-4.02,1.04c-2.42.63-3.49,1.81-3.17,3.44.31,1.57,1.76,2.32,3.8,1.93Zm27.03,7c-5.48,1.07-9.52-.56-10.59-4.25l5.12-.99c.63,1.29,2.48,1.83,4.8,1.38,3.05-.59,4.39-2.29,3.88-4.93l-.81-4.16-.4.08c-.19,2.5-2.34,4.57-5.48,5.18-4.87.95-8.44-1.86-9.55-7.57l-.62-3.2c-1.12-5.77,1.21-9.67,6.27-10.65,3.07-.6,5.73.5,6.88,2.76l.38-.07-.7-3.6,5.16-1,4.11,21.13c.96,4.93-2.27,8.72-8.44,9.92Zm-7.7-16.47c.56,2.88,2.65,4.34,5.4,3.81,2.76-.54,4.16-2.68,3.6-5.55l-.59-3.05c-.56-2.88-2.65-4.34-5.42-3.8-2.74.53-4.13,2.69-3.58,5.55l.59,3.05Zm34.45-3.15l4.95-.96c.28,3.82-2.93,7.22-7.84,8.17-6.15,1.2-10.35-1.57-11.52-7.57l-.66-3.39c-1.08-5.54,2.04-9.95,7.8-11.07,5.6-1.09,9.9,1.9,11,7.57l.57,2.91-13.63,2.65.22,1.15c.54,2.76,2.67,4.22,5.41,3.68,2.11-.41,3.59-1.69,3.71-3.15Zm-6.58-10.74c-2.72.53-4,2.67-3.41,5.7l8.57-1.67c-.59-3.03-2.52-4.55-5.16-4.03Zm19.3.09c-1.39-7.13-.43-13.78,2.76-19.06l5.39-1.05c-2.92,7.07-3.6,12.48-2.34,18.98,1.26,6.48,3.91,11.22,9.27,16.68l-5.39,1.05c-4.94-3.7-8.31-9.49-9.69-16.6Zm20.94-5.27c-.8-4.1,2-7.31,7.23-8.33,5.12-.99,8.69.7,9.71,4.62l-4.95.96c-.52-1.35-2.07-1.95-4.03-1.57-1.99.39-3.14,1.55-2.88,2.89.22,1.15,1.24,1.67,3.37,1.69l3.41.03c4.45.05,6.7,1.5,7.33,4.72.83,4.28-2.13,7.66-7.64,8.73-5.41,1.05-9.19-.62-10.25-4.53l5.18-1.01c.61,1.39,2.18,1.92,4.37,1.5,2.15-.42,3.35-1.59,3.08-2.97-.23-1.19-1.15-1.61-3.46-1.66l-3.29-.06c-4.14-.09-6.55-1.77-7.19-5.03Zm30.97,17.44c-.9.17-1.86.34-2.02.35l-.83-4.29c.14.01.89-.11,1.18-.17,2.13-.41,3.16-1.37,3.33-3.14l.05-.85-11.58-19.85,5.79-1.13,7.85,15.41.33-.06,1.51-17.23,5.56-1.08-3.12,22.83c-.76,5.8-2.86,8.2-8.04,9.2Zm17.58-26.88c-.8-4.1,2-7.31,7.24-8.33,5.12-.99,8.69.7,9.71,4.62l-4.95.96c-.52-1.35-2.07-1.95-4.02-1.57-1.99.39-3.14,1.55-2.88,2.89.22,1.15,1.24,1.67,3.37,1.69l3.41.03c4.45.05,6.7,1.5,7.33,4.72.83,4.28-2.13,7.66-7.64,8.73-5.41,1.05-9.19-.62-10.25-4.53l5.18-1.01c.61,1.39,2.18,1.92,4.37,1.5,2.15-.42,3.35-1.59,3.08-2.97-.23-1.19-1.15-1.61-3.47-1.65l-3.29-.06c-4.14-.09-6.55-1.77-7.19-5.03Zm26.08-17.74l5.14-1,1.22,6.25,7.88-1.53.82,4.2-7.79,1.51,1.97,10.1c.31,1.59,1.61,2.27,3.62,1.88.5-.1,4.16-.83,4.39-.89l.8,4.14c-.2.08-4.37.93-4.79,1.01-5.76,1.12-8.32-.28-9.27-5.18l-1.95-10.05-5.5,1.07-.82-4.2,5.5-1.07-1.22-6.25Zm37.35,14.79l4.95-.96c.28,3.82-2.94,7.22-7.84,8.17-6.16,1.2-10.36-1.57-11.52-7.57l-.66-3.39c-1.08-5.54,2.04-9.95,7.79-11.07,5.6-1.09,9.9,1.9,11.01,7.57l.56,2.92-13.63,2.65.22,1.15c.54,2.76,2.67,4.22,5.42,3.68,2.1-.41,3.59-1.69,3.7-3.15Zm-6.58-10.74c-2.72.53-4,2.67-3.41,5.7l8.57-1.67c-.59-3.03-2.52-4.54-5.16-4.03Zm34.92-5.63l3.19,16.41-4.45.86-2.85-14.65c-.29-1.51-1.22-2.27-2.42-2.04-1.25.24-1.88,1.4-1.58,2.95l2.82,14.51-4.39.85-2.85-14.65c-.29-1.52-1.17-2.28-2.42-2.04-1.27.25-1.9,1.4-1.6,2.96l2.83,14.51-4.45.86-4.11-21.15,4.58-.89.64,3.32.56-.11c.01-2.53,1.19-4.13,3.28-4.54,1.91-.37,3.51.67,4.39,2.87l.56-.11c0-2.35,1.22-3.96,3.23-4.35,2.61-.51,4.38,1.04,5.04,4.39Zm11.79,14.74l-4.71.92-5.38-27.67,4.85-.94,13.08,16.54.33-.06-3.57-18.39,4.71-.92,5.38,27.67-4.83.94-13.13-16.65-.32.06,3.59,18.5Zm26.47-4.79c-3.99.78-7.17-1.27-7.91-5.09-.74-3.82,1.6-6.6,6.75-7.98l4.88-1.27-.33-1.69c-.35-1.84-1.83-2.67-3.99-2.25-1.83.35-3.03,1.42-3.21,2.83l-5.1.99c-.37-3.91,2.62-7.06,7.65-8.03,5.42-1.05,8.97.94,9.87,5.56l2.79,14.34-4.98.97-.55-2.82-.46.09c-.65,2.2-2.65,3.8-5.41,4.33Zm.99-4.55c2.61-.51,4.14-2.52,3.69-4.88l-.3-1.53-4.02,1.04c-2.42.63-3.49,1.81-3.17,3.44.31,1.57,1.77,2.32,3.8,1.93Zm33.56-19.56l3.19,16.41-4.45.86-2.84-14.65c-.3-1.51-1.22-2.27-2.43-2.04-1.24.24-1.87,1.4-1.57,2.95l2.82,14.51-4.39.85-2.85-14.65c-.29-1.52-1.18-2.28-2.42-2.04-1.27.25-1.9,1.4-1.6,2.96l2.82,14.51-4.45.86-4.11-21.15,4.59-.89.64,3.32.56-.11c0-2.53,1.18-4.13,3.27-4.54,1.92-.37,3.52.67,4.4,2.87l.56-.11c0-2.35,1.22-3.96,3.23-4.35,2.61-.51,4.38,1.04,5.03,4.39Zm20.21,6.93l4.95-.96c.29,3.82-2.94,7.22-7.84,8.17-6.16,1.2-10.36-1.57-11.52-7.57l-.66-3.39c-1.08-5.54,2.04-9.95,7.79-11.07,5.6-1.09,9.9,1.9,11.01,7.57l.56,2.91-13.63,2.65.23,1.15c.53,2.76,2.67,4.22,5.41,3.68,2.11-.41,3.59-1.69,3.7-3.15Zm-6.58-10.74c-2.72.53-4,2.67-3.41,5.7l8.57-1.67c-.59-3.03-2.52-4.54-5.16-4.03Zm24.68-1.29c-2.32.45-4.6-1.14-5.06-3.51-.46-2.38,1.06-4.68,3.38-5.13,2.32-.45,4.59,1.12,5.05,3.49.47,2.38-1.05,4.7-3.37,5.15Zm2.82,14.51c-2.32.45-4.6-1.14-5.06-3.49-.46-2.4,1.06-4.7,3.38-5.15,2.32-.45,4.59,1.12,5.06,3.51.46,2.36-1.06,4.68-3.38,5.13Zm51.23-24.68c1.38,7.11.42,13.74-2.77,19.02l-5.39,1.05c2.93-7.07,3.61-12.46,2.35-18.94-1.26-6.5-3.92-11.26-9.28-16.72l5.39-1.05c4.94,3.7,8.31,9.51,9.7,16.64Z"/><path class="cls-5" d="m19.59,75.7l-13.23-1.51,6.36-55.8-19.24-2.19,1.3-11.41,51.7,5.89-1.3,11.41-19.24-2.19-6.36,55.8Zm65.13-7.21l12.02,1.37c-2.11,8.96-11.93,14.4-23.85,13.04-14.95-1.7-22.56-11.06-20.9-25.64l.94-8.24c1.53-13.46,11.86-21.29,25.83-19.7,13.6,1.55,21.29,11.48,19.72,25.27l-.81,7.08-33.11-3.77-.32,2.79c-.76,6.71,3.07,11.58,9.73,12.34,5.12.58,9.44-1.28,10.75-4.53Zm-7.32-29.33c-6.61-.75-11.08,3.22-11.92,10.58l20.82,2.37c.84-7.36-2.48-12.22-8.9-12.95Zm55.56,32l-.75-.08-12.21,16.06-13.51-1.54,19.2-23.57-13.49-27.81,14.72,1.68,7.76,18.43.79.09,11.76-16.21,13.97,1.59-19.29,23.51,13.53,27.87-14.21-1.62-8.28-18.4Zm53.81-43.31l12.48,1.42-1.73,15.18,19.14,2.18-1.16,10.2-18.91-2.15-2.8,24.54c-.44,3.87,2.06,6.37,6.95,6.92,1.21.14,10.11,1.1,10.68,1.12l-1.15,10.06c-.52.03-10.69-1.03-11.71-1.15-13.97-1.59-18.82-6.63-17.47-18.55l2.78-24.4-13.37-1.52,1.16-10.2,13.37,1.52,1.73-15.18Zm52.65,38.88c1.97-17.33,8.96-31.86,20.08-41.64l13.09,1.49c-11.8,14.08-17.25,25.96-19.05,41.75-1.79,15.74.86,28.5,9.18,44.88l-13.09-1.49c-8.63-12.02-12.17-27.71-10.21-44.99Zm67.61,6.15l-12.58-1.43,3.66-32.09,12.57,1.43-3.66,32.09Zm22.08,2.52l-12.58-1.43,3.66-32.09,12.58,1.43-3.66,32.09Zm44.25,40.61l-13.23-1.51,6.36-55.8-19.23-2.19,1.3-11.41,51.7,5.89-1.3,11.41-19.24-2.19-6.36,55.8Zm53.97-16.92l-1.53,13.41,14.9,1.7-1.07,9.36-36.89-4.2,1.07-9.36,9.78,1.11,3.71-32.6-10.71-1.22,1.07-9.41,23.01,2.62-1.5,13.18,2,.23c3.4-9.94,9.15-13.68,18.84-12.57,2.89.33,5.45,1,7.19,1.9l-1.58,13.83c-2.23-1.15-5.51-2.14-8.4-2.47-12.11-1.38-18.65,3.44-19.91,14.48Zm50.31,29.65c-9.69-1.1-15.5-8.09-14.44-17.36,1.06-9.27,8.43-13.95,21.2-13.39l12.1.62.47-4.1c.51-4.47-2.27-7.43-7.53-8.03-4.42-.5-7.95,1.08-9.39,4.17l-12.39-1.41c1.99-9.21,11.11-14.26,23.31-12.87,13.18,1.5,19.87,8.63,18.59,19.86l-3.97,34.84-12.11-1.38.78-6.85-1.12-.13c-3.07,4.56-8.79,6.78-15.5,6.02Zm5.54-9.7c6.34.72,11.31-2.77,11.96-8.5l.43-3.73-9.94-.52c-6-.31-9.29,1.63-9.74,5.59-.43,3.82,2.36,6.59,7.3,7.15Zm87.51-14.42l-12.48-1.42c-.18-5.87-3.31-9.06-8.85-9.69-6.85-.78-11.2,3.91-12.28,13.32l-.39,3.45c-1.07,9.41,2.12,14.96,8.96,15.74,5.59.64,9.24-1.64,10.76-7.03l12.48,1.42c-2.51,12.12-11.08,17.75-24.35,16.24-15.14-1.73-22.54-11.25-20.77-26.85l.62-5.4c1.78-15.6,11.14-23.22,26.27-21.49,13.27,1.51,20.25,9.01,20.03,21.72Zm28.8,6.02l20.23-18.6,14.58,1.66-21.44,19.21,16.89,32.31-14.76-1.68-12.4-23.63-5.45,4.33-1.94,17.05-12.71-1.45,8.08-70.93,12.71,1.45-4.58,40.19.79.09Zm123.6,45.22l-25.34-2.89,7.66-67.21,24.73,2.82c12.9,1.47,19.97,8.6,18.77,19.08-.83,7.26-6.65,12.78-13.76,13.06l-.09.79c8.87,1.67,14.48,9.15,13.49,17.86-1.34,11.78-11.08,18.13-25.47,16.49Zm-5.89-58.42l-1.99,17.47,7.64.87c7.31.83,11.86-1.86,12.48-7.26.66-5.78-2.85-9.34-9.93-10.14l-8.2-.93Zm-5.31,46.62l8.29.95c9.22,1.05,13.96-1.57,14.73-8.37.73-6.38-3.52-10.07-12.6-11.11l-8.2-.93-2.22,19.47Zm66.86-17.43l-12.57-1.43,3.66-32.09,12.57,1.43-3.66,32.09Zm22.08,2.51l-12.57-1.43,3.66-32.09,12.57,1.43-3.66,32.09Zm54.69,7.79c-1.97,17.28-8.95,31.77-20.07,41.54l-13.09-1.49c11.8-14.08,17.25-25.92,19.04-41.66,1.8-15.79-.85-28.59-9.17-44.97l13.09,1.49c8.63,12.02,12.17,27.76,10.2,45.08Z"/><path class="cls-5" d="m-69.42,524.63l6.21-36.93,8.84-.77-9.55,46.1-10.46.91-17.41-43.74,9.56-.84,12.41,35.3.4-.04Zm21.84-5.71l8.34-.73c.75,3.86,4.12,5.82,9.22,5.37,4.86-.42,7.73-3.03,7.42-6.67-.27-3.05-2.4-4.5-7.7-5.19l-4.76-.68c-8.29-1.13-12.65-5.07-13.23-11.74-.73-8.37,5-14.24,14.71-15.09,9.4-.82,16.18,3.89,17.16,11.89l-8.34.73c-.67-3.67-3.7-5.7-8.09-5.31-4.45.39-7.04,2.72-6.75,6.08.28,3.17,2.42,4.74,7.37,5.38l4.7.66c8.85,1.17,12.99,4.73,13.59,11.61.78,8.87-5.11,14.78-15.6,15.7-10.18.89-17.01-3.62-18.05-12ZM-1.28,483.06l8.34-.73.89,10.15,12.79-1.12.6,6.82-12.64,1.11,1.44,16.41c.23,2.58,2.19,3.89,5.46,3.6.81-.07,6.75-.62,7.12-.69l.59,6.72c-.34.09-7.12.75-7.8.81-9.34.82-13.18-1.83-13.88-9.8l-1.43-16.31-8.93.78-.6-6.82,8.93-.78-.89-10.15Zm45.78,41.04c-6.48.57-11.2-3.22-11.74-9.42-.54-6.2,3.65-10.23,12.07-11.56l7.99-1.2-.24-2.74c-.26-2.99-2.47-4.55-5.99-4.24-2.96.26-5.05,1.76-5.58,3.97l-8.28.73c.08-6.28,5.36-10.79,13.52-11.5,8.81-.77,14.13,3,14.78,10.5l2.04,23.29-8.09.71-.4-4.58-.75.07c-1.4,3.39-4.84,5.6-9.33,5.99Zm2.33-7.07c4.23-.37,7.02-3.31,6.69-7.14l-.22-2.49-6.57.98c-3.96.6-5.85,2.3-5.62,4.95.22,2.55,2.42,3.99,5.72,3.7Zm55.25-21.05l-8.34.73c-.9-3.81-3.37-5.48-7.07-5.15-4.58.4-6.8,4.05-6.25,10.33l.2,2.3c.55,6.29,3.37,9.49,7.95,9.09,3.74-.33,5.82-2.3,6.09-6.02l8.34-.73c-.03,8.25-4.88,13.07-13.75,13.85-10.12.89-16.22-4.35-17.14-14.78l-.32-3.61c-.91-10.43,4.19-16.65,14.31-17.53,8.87-.78,14.43,3.19,15.97,11.53Zm19.62.1l10.75-14.84,9.74-.85-11.45,15.4,15.33,18.86-9.87.86-11.24-13.79-2.98,3.55,1,11.39-8.5.74-4.15-47.41,8.5-.74,2.35,26.87.53-.05Zm98.65,18.97l-5.01.44c-9,.79-12.17-1.79-12.93-10.51l-.6-6.85c-.43-4.92-2.84-6.62-9.67-5.77l-.76-8.69c6.87-.32,8.95-2.41,8.52-7.33l-.6-6.88c-.76-8.72,1.92-11.8,10.91-12.59l5.01-.44.6,6.85-2.99.26c-4.42.39-5.2,1.49-4.75,6.63l.76,8.69c.37,4.23-2.44,7.27-8.04,8.11l.05.56c5.67-.15,8.96,2.32,9.33,6.59l.76,8.65c.45,5.14,1.41,6.09,5.83,5.7l2.99-.26.6,6.85Zm13.39-1.17l-.6-6.85,2.99-.26c4.42-.39,5.2-1.49,4.75-6.63l-.76-8.65c-.37-4.27,2.44-7.27,8.04-8.11l-.05-.56c-5.67.15-8.96-2.35-9.33-6.59l-.76-8.69c-.45-5.14-1.41-6.09-5.83-5.7l-2.99.26-.6-6.85,5.01-.44c9-.79,12.17,1.79,12.93,10.51l.6,6.88c.43,4.92,2.84,6.62,9.66,5.74l.76,8.69c-6.87.35-8.95,2.44-8.52,7.36l.6,6.85c.76,8.72-1.92,11.81-10.91,12.59l-5.01.44Z"/><path class="cls-5" d="m210.27,662.19c-3.64-1.01-5.77-4.91-4.75-8.61,1.04-3.73,4.87-5.98,8.51-4.97,3.64,1.01,5.77,4.91,4.74,8.64-1.03,3.7-4.86,5.95-8.5,4.94Zm41.73-4.9l-2.4,8.67,9.64,2.67-1.68,6.05-23.85-6.61,1.68-6.05,6.32,1.75,5.85-21.08-6.93-1.92,1.69-6.08,14.88,4.13-2.36,8.52,1.3.36c3.27-6.19,7.45-8.05,13.72-6.31,1.87.52,3.49,1.23,4.54,2l-2.48,8.94c-1.35-.99-3.41-1.98-5.27-2.5-7.83-2.17-12.64.32-14.62,7.46Zm44.46,18.13l7.77,2.16c-2.32,5.68-9.35,8.24-17.06,6.1-9.67-2.68-13.7-9.64-11.09-19.06l1.48-5.33c2.41-8.7,10.03-12.78,19.07-10.28,8.79,2.44,12.82,9.78,10.35,18.7l-1.27,4.58-21.41-5.94-.5,1.81c-1.2,4.34.81,7.94,5.12,9.14,3.31.92,6.35.14,7.55-1.86Zm-1.76-20.08c-4.28-1.19-7.63.97-8.95,5.72l13.46,3.73c1.32-4.76-.36-8.3-4.51-9.46Zm23.19,10.74c1.79-6.45,8.09-9.04,16.31-6.76,8.04,2.23,11.95,7.2,10.61,13.55l-7.77-2.15c.22-2.31-1.57-4.26-4.65-5.11-3.13-.87-5.6-.03-6.19,2.08-.5,1.81.58,3.27,3.62,4.83l4.86,2.48c6.33,3.25,8.52,6.93,7.12,11.99-1.86,6.72-8.52,9.44-17.16,7.04-8.49-2.35-12.72-7.45-11.44-13.81l8.13,2.26c-.12,2.43,1.75,4.31,5.19,5.27,3.37.94,5.93.12,6.54-2.05.52-1.87-.5-3.12-3.78-4.84l-4.68-2.43c-5.86-3.08-8.12-7.21-6.7-12.33Zm56.6-2.04c-3.37-.94-5.05-3.64-4.19-6.77.87-3.13,3.7-4.58,7.08-3.65,3.37.94,5.08,3.65,4.22,6.78-.87,3.13-3.73,4.58-7.11,3.64Zm3.09,43.92l-28.7-7.96,1.82-6.57,10.66,2.96,5.56-20.06-10.12-2.81,1.83-6.6,18.13,5.03-7.39,26.65,10.03,2.78-1.82,6.57Zm9.7,2.69l1.36-4.91,23.15-16.35.14-.51-17.01-4.72,1.85-6.66,26.89,7.46-1.54,5.54-22.01,15.98-.14.51,16.68,4.63-1.85,6.65-27.52-7.63Zm47.25,13.69c-6.26-1.74-9.36-6.94-7.7-12.93,1.66-5.99,7.01-8.3,15.35-6.61l7.9,1.67.74-2.65c.8-2.89-.72-5.13-4.12-6.07-2.86-.79-5.35-.12-6.62,1.76l-8.01-2.22c2.27-5.86,8.8-8.23,16.69-6.04,8.52,2.36,12.18,7.76,10.17,15.01l-6.25,22.52-7.83-2.17,1.23-4.43-.72-.2c-2.49,2.68-6.5,3.55-10.83,2.35Zm4.66-5.81c4.1,1.14,7.73-.64,8.76-4.35l.67-2.41-6.49-1.38c-3.92-.83-6.29.1-7,2.66-.68,2.47.87,4.59,4.06,5.47Zm41.63,18.61c-4.85-1.34-7.52-4.45-7.58-8.81l-.6-.17-1.59,5.72-8.49-2.35,12.72-45.86,8.58,2.38-5.08,18.31.63.18c2.22-3.67,6.15-4.98,10.9-3.66,7.62,2.11,10.65,8.6,8.15,17.63l-1.59,5.72c-2.51,9.03-8.45,13.03-16.06,10.92Zm-1.18-8.01c4.28,1.19,7.64-.9,8.91-5.47l1.52-5.48c1.27-4.58-.55-8.07-4.83-9.25-4.25-1.18-7.64.87-8.9,5.44l-1.52,5.48c-1.27,4.58.57,8.1,4.82,9.28Zm50.44,21.12l-28.7-7.96,1.82-6.56,10.54,2.92,9.08-32.73-10-2.77,1.82-6.57,18.25,5.06-10.9,39.3,9.91,2.75-1.82,6.57Zm33.24-.83l7.77,2.15c-2.32,5.68-9.35,8.24-17.06,6.1-9.67-2.68-13.7-9.64-11.09-19.06l1.48-5.33c2.41-8.7,10.03-12.78,19.07-10.28,8.79,2.44,12.82,9.78,10.35,18.7l-1.27,4.58-21.41-5.94-.5,1.81c-1.2,4.34.81,7.94,5.12,9.14,3.31.92,6.35.14,7.55-1.86Zm-1.76-20.08c-4.28-1.19-7.63.96-8.95,5.72l13.46,3.73c1.32-4.76-.36-8.3-4.51-9.46Zm27.57,13.9c3.11-11.2,9.22-20.05,17.56-25.32l8.46,2.35c-9.23,8.04-14.07,15.3-16.9,25.51-2.82,10.18-2.41,18.86,1.37,30.51l-8.46-2.35c-4.43-8.82-5.13-19.52-2.03-30.69Zm55.23,15.32c-3.1,11.17-9.21,19.98-17.54,25.26l-8.46-2.35c9.24-8.04,14.06-15.27,16.88-25.45,2.83-10.21,2.42-18.91-1.35-30.57l8.46,2.35c4.43,8.82,5.12,19.55,2.01,30.75Z"/><path class="cls-5" d="m515.85,315.31c-2.82-.27-4.9-2.87-4.63-5.74.28-2.89,2.82-5.05,5.64-4.78,2.82.27,4.9,2.87,4.62,5.77-.28,2.87-2.82,5.03-5.64,4.76Zm30.19-9.06l-.65,6.72,7.47.72-.45,4.69-18.48-1.78.45-4.69,4.9.47,1.57-16.33-5.37-.52.45-4.71,11.52,1.11-.64,6.6,1,.1c1.61-5,4.46-6.92,9.31-6.45,1.45.14,2.73.45,3.61.89l-.67,6.93c-1.12-.56-2.77-1.02-4.22-1.16-6.07-.58-9.29,1.88-9.83,7.41Zm35.2,7.6l6.02.58c-.97,4.5-5.84,7.3-11.81,6.73-7.49-.72-11.38-5.33-10.67-12.64l.4-4.13c.65-6.74,5.74-10.75,12.74-10.08,6.81.66,10.74,5.55,10.08,12.46l-.34,3.55-16.59-1.6-.13,1.4c-.32,3.36,1.64,5.76,4.97,6.08,2.57.25,4.71-.72,5.34-2.36Zm-3.91-14.6c-3.31-.32-5.51,1.71-5.86,5.39l10.43,1c.36-3.69-1.34-6.09-4.56-6.4Zm18.53,4.92c.48-4.99,4.79-7.73,11.16-7.12,6.23.6,9.76,3.77,9.6,8.62l-6.02-.58c-.14-1.73-1.72-2.94-4.1-3.17-2.43-.23-4.14.71-4.3,2.34-.14,1.4.86,2.34,3.3,3.1l3.91,1.2c5.1,1.57,7.2,4.01,6.82,7.93-.5,5.2-5.06,8.08-11.76,7.44-6.58-.63-10.37-3.85-10.25-8.71l6.3.61c.23,1.81,1.86,2.96,4.52,3.21,2.61.25,4.4-.68,4.56-2.36.14-1.45-.77-2.24-3.42-3.08l-3.77-1.19c-4.73-1.52-6.93-4.27-6.55-8.24Zm41.54-8.88c-2.61-.25-4.21-2.03-3.97-4.46.23-2.43,2.14-3.87,4.75-3.62,2.61.25,4.23,2.03,4,4.46-.23,2.43-2.16,3.86-4.77,3.61Zm8.01,32.04l-22.23-2.14.49-5.09,8.26.8,1.5-15.54-7.84-.76.49-5.11,14.04,1.35-1.99,20.65,7.77.75-.49,5.09Zm7.51.72l.37-3.8,14.97-15.09.04-.4-13.18-1.27.5-5.16,20.83,2.01-.41,4.29-14.17,14.67-.04.4,12.92,1.24-.5,5.16-21.32-2.05Zm36.68,3.96c-4.85-.47-7.82-3.91-7.37-8.55.45-4.64,4.09-7.05,10.48-6.88l6.05.21.2-2.05c.22-2.24-1.2-3.7-3.84-3.95-2.22-.21-3.97.61-4.66,2.17l-6.2-.6c.92-4.62,5.43-7.22,11.54-6.63,6.6.63,10.01,4.14,9.47,9.76l-1.68,17.45-6.07-.58.33-3.43-.56-.05c-1.49,2.3-4.34,3.47-7.7,3.14Zm2.68-4.9c3.17.3,5.63-1.48,5.9-4.35l.18-1.87-4.97-.17c-3.01-.1-4.63.9-4.82,2.88-.18,1.91,1.24,3.27,3.71,3.51Zm33.17,8.33c-3.76-.36-6.14-2.31-6.74-5.52l-.47-.05-.43,4.43-6.58-.63,3.42-35.53,6.65.64-1.37,14.18.49.05c1.16-3,3.89-4.48,7.58-4.12,5.9.57,8.99,4.96,8.31,11.96l-.43,4.43c-.67,7-4.54,10.72-10.44,10.15Zm-1.92-5.76c3.31.32,5.53-1.66,5.87-5.2l.41-4.25c.34-3.55-1.46-5.88-4.77-6.2-3.29-.32-5.53,1.63-5.87,5.18l-.41,4.25c-.34,3.55,1.48,5.91,4.77,6.23Zm40.01,9.03l-22.23-2.14.49-5.08,8.17.79,2.44-25.36-7.74-.74.49-5.09,14.14,1.36-2.93,30.45,7.67.74-.49,5.09Zm24.45-4.94l6.02.58c-.97,4.5-5.84,7.3-11.81,6.73-7.49-.72-11.38-5.33-10.67-12.64l.4-4.13c.65-6.74,5.74-10.75,12.74-10.08,6.81.66,10.74,5.56,10.08,12.46l-.34,3.55-16.59-1.6-.13,1.4c-.32,3.36,1.63,5.76,4.97,6.08,2.57.25,4.71-.72,5.34-2.36Zm-3.91-14.6c-3.31-.32-5.51,1.71-5.87,5.39l10.43,1c.35-3.69-1.34-6.09-4.56-6.4Zm22.17,6.68c.84-8.68,4.2-16.01,9.67-20.99l6.56.63c-5.77,7.14-8.4,13.13-9.16,21.04-.76,7.89.68,14.24,4.98,22.35l-6.55-.63c-4.42-5.94-6.33-13.75-5.5-22.4Zm34.5,20.75c-2.82-.27-4.9-2.87-4.63-5.74.28-2.89,2.82-5.05,5.64-4.78,2.82.27,4.9,2.87,4.62,5.77-.28,2.87-2.82,5.03-5.64,4.76Zm30.19-9.05l-.65,6.72,7.47.72-.45,4.69-18.48-1.78.45-4.69,4.9.47,1.57-16.33-5.37-.52.45-4.71,11.52,1.11-.64,6.6,1,.1c1.61-5,4.46-6.92,9.31-6.45,1.45.14,2.73.45,3.61.89l-.67,6.93c-1.12-.56-2.77-1.02-4.22-1.16-6.07-.58-9.29,1.88-9.83,7.41Zm35.2,7.6l6.02.58c-.97,4.5-5.84,7.3-11.81,6.73-7.49-.72-11.38-5.33-10.67-12.64l.4-4.13c.65-6.74,5.74-10.75,12.74-10.08,6.81.66,10.74,5.55,10.08,12.46l-.34,3.55-16.59-1.6-.13,1.4c-.32,3.36,1.64,5.76,4.97,6.08,2.57.25,4.71-.72,5.34-2.36Zm-3.91-14.6c-3.31-.32-5.51,1.71-5.86,5.39l10.43,1c.36-3.69-1.34-6.09-4.56-6.4Zm24.29,24.26c-5.88-.57-8.99-4.96-8.31-11.96l.43-4.43c.67-7,4.56-10.72,10.44-10.15,3.71.36,6.11,2.33,6.68,5.49l.47.05,1.36-14.18,6.67.64-3.42,35.53-6.58-.63.43-4.43-.49-.05c-1.19,3.04-3.89,4.5-7.67,4.14Zm3.01-5.29c3.29.32,5.5-1.66,5.85-5.21l.41-4.25c.34-3.55-1.46-5.88-4.75-6.2-3.31-.32-5.55,1.63-5.89,5.18l-.41,4.25c-.34,3.55,1.48,5.91,4.79,6.23Zm37.66-8.17c-.83,8.65-4.2,15.96-9.67,20.94l-6.55-.63c5.77-7.14,8.39-13.11,9.15-20.99.76-7.91-.67-14.29-4.97-22.4l6.55.63c4.42,5.93,6.33,13.77,5.49,22.45Z"/><rect class="cls-1" x="262.02" y="190.97" width="473.31" height="386.07" rx="52.65" ry="52.65"/><line class="cls-3" x1="414.51" y1="520.05" x2="582.85" y2="520.05"/><path class="cls-4" d="m397.07,380.99c4.15,3.36,9.04,6.57,14.66,9.62,5.62,3.05,11.67,5.77,18.14,8.15,6.47,2.38,13.04,4.26,19.7,5.64,6.66,1.37,13.1,2.06,19.33,2.06,6.84,0,12.84-.52,18-1.56,5.16-1.04,9.83-2.43,14.02-4.17,4.18-1.74,8.2-3.68,12.05-5.82-20.34-16.43-38.36-33.29-54.06-50.57-15.7-17.29-29.63-34.79-41.78-52.5,12.7,11.36,25.88,22.22,39.53,32.57,13.65,10.35,27.81,20.17,42.47,29.46-10.87-12.09-21.2-24.05-30.97-35.87-9.77-11.82-18.78-24.11-27.03-36.88,4.15,4.4,9.35,9.5,15.58,15.3,6.23,5.8,13.06,11.85,20.48,18.14,7.42,6.29,14.96,12.46,22.63,18.51,7.66,6.05,14.99,11.58,21.99,16.58,6.99,5.01,13.21,9.07,18.65,12.19,1.22-3.05,2.44-7.36,3.66-12.92,1.22-5.56,1.83-11.12,1.83-16.68,0-10.26-1.3-19.59-3.89-27.99s-5.76-15.9-9.48-22.49c-3.73-6.6-7.33-12.31-10.81-17.13,12.4,7.45,22.77,15.73,31.11,24.83,8.34,9.1,14.96,18.37,19.88,27.81,4.92,9.44,8.43,18.51,10.54,27.21,2.11,8.7,3.16,16.39,3.16,23.04,0,2.93-.18,6.67-.55,11.23-.37,4.55-1.37,9.09-3.02,13.6,4.89,6.11,8.58,11.97,11.09,17.59,2.5,5.62,4.18,10.69,5.04,15.21.85,4.52,1.28,8.24,1.28,11.18,0,1.59-.11,3.01-.32,4.26-.21,1.25-.44,2.37-.69,3.34-.37,1.34-.82,1.92-1.37,1.74s-1.01-.64-1.37-1.37c-.86-1.47-2.23-3.44-4.12-5.91-1.89-2.47-4.6-4.7-8.11-6.69-3.51-1.99-8.05-2.98-13.61-2.98-3.97,0-7.65.53-11.04,1.6s-6.78,2.4-10.17,3.99c-3.39,1.59-7.07,3.19-11.04,4.81-3.97,1.62-8.52,2.96-13.65,4.03-5.13,1.07-11.15,1.6-18.05,1.6-10.81,0-21.04-1.37-30.69-4.12-9.65-2.75-18.6-6.43-26.85-11.04-8.25-4.61-15.73-9.71-22.45-15.3-6.72-5.59-12.58-11.27-17.59-17.04-5.01-5.77-9.04-11.19-12.09-16.26Z"/></svg>