<?xml version="1.0" encoding="UTF-8"?><svg id="Layer_1" xmlns="http://www.w3.org/2000/svg" xmlns:xlink="http://www.w3.org/1999/xlink" viewBox="0 0 1024 768"><defs><style>.cls-1,.cls-2{fill:none;}.cls-3{filter:url(#outer-glow-17);}.cls-4{filter:url(#outer-glow-16);}.cls-5{clip-path:url(#clippath);}.cls-6{fill:#fff;}.cls-7,.cls-8{fill:#72f49b;}.cls-9{fill:#1e1e1e;}.cls-10{fill:#0e2619;}.cls-2{stroke:#72f49b;stroke-width:10px;}.cls-8{isolation:isolate;opacity:.1;}</style><clipPath id="clippath"><rect class="cls-1" width="1024" height="768"/></clipPath><filter id="outer-glow-16" filterUnits="userSpaceOnUse"><feOffset dx="0" dy="0"/><feGaussianBlur result="blur" stdDeviation="8"/><feFlood flood-color="#72f49b" flood-opacity=".75"/><feComposite in2="blur" operator="in"/><feComposite in="SourceGraphic"/></filter><filter id="outer-glow-17" filterUnits="userSpaceOnUse"><feOffset dx="0" dy="0"/><feGaussianBlur result="blur-2" stdDeviation="8"/><feFlood flood-color="#72f49b" flood-opacity=".75"/><feComposite in2="blur-2" operator="in"/><feComposite in="SourceGraphic"/></filter></defs><g class="cls-5"><rect class="cls-9" width="1024" height="768"/><path class="cls-8" d="m8.97,235.62c-18.27,3.55-29.13-6.13-33.83-30.34l-1.14-5.89c-4.74-24.39,1.33-37.65,18.49-40.98,16.24-3.16,26.51,5.45,30.46,25.79l2.46,12.65c1.51,7.78-1.43,12.79-8.19,14.1l-12.88,2.5c-3.64.71-6.52-1.36-7.27-5.22l-3.89-20.02c-.76-3.91.96-6.87,4.27-7.52,3.31-.64,5.97,1.47,6.73,5.38l3.91,20.11,6.35-1.23c3.64-.71,4.78-2.46,4.07-6.09l-2.26-11.64c-3.41-17.53-10.31-24.07-22.46-21.71-12.84,2.5-16.45,11.7-12.44,32.31l.98,5.06c4.07,20.94,11.58,28.36,25.8,25.6,4.19-.81,8.14-2.11,9.82-3.29l1.31,6.76c-2.03,1.35-6.4,2.92-10.27,3.67Zm25.84-34.1l12.33-2.4c1.72,5.64,7.05,8.04,14.6,6.57,7.18-1.4,11.06-5.73,10.02-11.12-.88-4.51-4.29-6.33-12.3-6.54l-7.22-.27c-12.54-.38-19.66-5.59-21.58-15.43-2.41-12.38,5.22-22.03,19.58-24.82,13.9-2.7,24.75,3.26,27.47,15.05l-12.33,2.4c-1.57-5.38-6.41-7.92-12.9-6.66-6.58,1.28-10.08,5.16-9.11,10.13.91,4.69,4.36,6.7,11.84,6.87l7.11.24c13.39.36,20.12,5.02,22.1,15.19,2.55,13.11-5.3,22.85-20.81,25.87-15.05,2.92-25.94-2.74-28.81-15.08Zm63.45-60.75l12.33-2.4,2.92,15,18.91-3.68,1.96,10.08-18.68,3.63,4.71,24.25c.74,3.82,3.88,5.45,8.71,4.51,1.2-.23,9.98-1.99,10.52-2.14l1.93,9.94c-.49.19-10.5,2.23-11.51,2.43-13.8,2.68-19.95-.66-22.24-12.44l-4.69-24.11-13.21,2.57-1.96-10.08,13.21-2.57-2.92-15Zm74.73,54.04c-9.57,1.86-17.21-3.05-18.99-12.21-1.78-9.16,3.85-15.84,16.19-19.14l11.73-3.04-.79-4.05c-.86-4.42-4.4-6.4-9.6-5.39-4.37.85-7.26,3.42-7.7,6.8l-12.24,2.38c-.87-9.38,6.31-16.94,18.36-19.28,13.02-2.53,21.55,2.26,23.7,13.35l6.69,34.42-11.96,2.32-1.31-6.76-1.1.21c-1.56,5.27-6.35,9.11-12.97,10.4Zm2.37-10.92c6.26-1.22,9.95-6.04,8.85-11.7l-.72-3.68-9.64,2.49c-5.82,1.51-8.37,4.35-7.61,8.26.73,3.77,4.24,5.58,9.11,4.63Zm39.41-65.78l12.33-2.4,2.91,15,18.91-3.68,1.96,10.08-18.68,3.63,4.71,24.25c.74,3.82,3.88,5.45,8.71,4.51,1.2-.23,9.98-1.99,10.52-2.14l1.93,9.94c-.49.19-10.5,2.23-11.51,2.43-13.8,2.68-19.94-.66-22.24-12.44l-4.69-24.11-13.21,2.57-1.96-10.08,13.21-2.57-2.92-15Zm89.65,35.48l11.87-2.31c.68,9.18-7.04,17.32-18.82,19.61-14.77,2.87-24.85-3.76-27.65-18.17l-1.58-8.14c-2.59-13.3,4.91-23.88,18.71-26.56,13.44-2.61,23.76,4.55,26.41,18.17l1.36,6.99-32.71,6.36.54,2.76c1.29,6.63,6.41,10.12,12.99,8.84,5.06-.98,8.62-4.06,8.89-7.55Zm-15.8-25.77c-6.53,1.27-9.6,6.4-8.18,13.67l20.57-4c-1.41-7.27-6.04-10.91-12.39-9.67Zm119.73-33.11c11.64-2.26,20.05,4.41,22.74,18.22l1.7,8.74c2.69,13.85-2.61,23.19-14.25,25.45-7.32,1.42-13.04-1-15.92-6.74l-.92.18,4.96,25.49-13.11,2.55-13.15-67.64,12.93-2.51,1.7,8.74.97-.19c.61-6.47,4.96-10.85,12.37-12.29Zm-2.7,11.89c-6.53,1.27-9.67,6.27-8.31,13.27l1.64,8.42c1.36,6.99,6.14,10.46,12.67,9.19,6.49-1.26,9.66-6.32,8.31-13.27l-1.64-8.42c-1.35-6.95-6.18-10.45-12.67-9.19Zm59.97,7.11l2.58,13.25,14.72-2.86,1.8,9.25-36.44,7.08-1.8-9.25,9.66-1.88-6.26-32.21-10.58,2.06-1.81-9.29,22.73-4.42,2.53,13.02,1.98-.38c.25-10.51,4.62-15.8,14.19-17.66,2.85-.55,5.5-.69,7.43-.35l2.66,13.67c-2.47-.43-5.9-.38-8.75.17-11.96,2.33-16.75,8.89-14.63,19.8Zm52.45-50.26c-5.15,1-9.22-1.5-10.15-6.29-.93-4.79,1.9-8.63,7.06-9.63,5.15-1,9.27,1.49,10.2,6.28.93,4.79-1.95,8.64-7.1,9.64Zm33.55,56.89l-43.85,8.52-1.95-10.03,16.29-3.17-5.96-30.64-15.46,3.01-1.96-10.08,27.7-5.38,7.91,40.72,15.32-2.98,1.95,10.03Zm1.18-52.9l13.53-2.63,18.57,36.31.74-.14,3.47-40.6,13.3-2.58-7.71,54.17-14.36,2.79-27.53-47.32Zm86.22,36.77c-9.57,1.86-17.21-3.05-18.99-12.21-1.78-9.16,3.84-15.84,16.19-19.14l11.73-3.04-.79-4.05c-.86-4.42-4.4-6.4-9.6-5.39-4.37.85-7.26,3.42-7.7,6.8l-12.24,2.38c-.87-9.38,6.31-16.94,18.36-19.28,13.02-2.53,21.55,2.26,23.7,13.35l6.69,34.42-11.96,2.33-1.32-6.76-1.1.21c-1.55,5.27-6.35,9.11-12.97,10.4Zm2.37-10.92c6.26-1.22,9.95-6.04,8.85-11.7l-.72-3.68-9.64,2.49c-5.82,1.51-8.37,4.35-7.61,8.26.73,3.77,4.23,5.58,9.11,4.63Zm39.41-65.77l12.33-2.4,2.92,15,18.91-3.68,1.96,10.08-18.68,3.63,4.71,24.25c.74,3.82,3.88,5.45,8.71,4.51,1.2-.23,9.98-1.99,10.52-2.14l1.93,9.94c-.49.19-10.5,2.23-11.51,2.43-13.8,2.68-19.95-.66-22.23-12.44l-4.69-24.11-13.21,2.57-1.96-10.08,13.21-2.57-2.91-15Zm89.65,35.48l11.87-2.31c.69,9.18-7.04,17.32-18.82,19.61-14.77,2.87-24.85-3.77-27.65-18.17l-1.58-8.14c-2.58-13.3,4.91-23.88,18.71-26.56,13.44-2.61,23.76,4.55,26.41,18.17l1.36,6.99-32.72,6.36.54,2.76c1.29,6.63,6.41,10.12,12.99,8.84,5.06-.98,8.62-4.06,8.89-7.55Zm-15.8-25.77c-6.53,1.27-9.59,6.4-8.18,13.67l20.57-4c-1.41-7.27-6.04-10.91-12.39-9.67Zm89.42-26.41l13.53-2.63,18.57,36.31.74-.14,3.47-40.6,13.3-2.58-7.71,54.17-14.36,2.79-27.54-47.32Zm86.23,36.77c-9.57,1.86-17.21-3.05-18.99-12.21-1.78-9.16,3.85-15.84,16.19-19.14l11.73-3.04-.79-4.05c-.86-4.42-4.4-6.4-9.6-5.39-4.37.85-7.26,3.42-7.7,6.8l-12.24,2.38c-.87-9.38,6.31-16.94,18.36-19.28,13.02-2.53,21.55,2.26,23.7,13.35l6.69,34.42-11.96,2.33-1.32-6.76-1.1.21c-1.55,5.27-6.35,9.11-12.97,10.4Zm2.37-10.92c6.26-1.22,9.95-6.04,8.85-11.7l-.72-3.68-9.64,2.49c-5.82,1.51-8.37,4.35-7.61,8.26.73,3.77,4.23,5.58,9.11,4.63Zm57.24-24.88l2.58,13.25,14.73-2.86,1.79,9.25-36.44,7.08-1.8-9.25,9.66-1.88-6.26-32.21-10.58,2.06-1.81-9.29,22.73-4.42,2.53,13.02,1.98-.38c.25-10.51,4.62-15.8,14.19-17.66,2.85-.55,5.5-.69,7.43-.35l2.65,13.67c-2.47-.43-5.9-.38-8.75.17-11.97,2.33-16.75,8.89-14.63,19.8Z"/><path class="cls-8" d="m784.98,778.5l-16.94,1.48-3.93-44.92,16.53-1.45c8.62-.76,14.19,2.96,14.8,9.97.43,4.86-2.64,9.23-7.25,10.36l.05.53c6.02-.09,10.68,4.05,11.18,9.88.69,7.88-4.83,13.32-14.45,14.16Zm-11.61-37.38l1.02,11.67,5.1-.45c4.89-.43,7.5-2.79,7.19-6.4-.34-3.86-3.1-5.72-7.84-5.31l-5.48.48Zm2.73,31.16l5.54-.49c6.16-.54,8.91-2.88,8.51-7.43-.37-4.27-3.64-6.11-9.71-5.58l-5.48.48,1.14,13.01Zm58.87-32.76l3,34.34-8.25.72-.5-5.76-.53.05c-1.32,4.29-4.82,6.98-9.77,7.41-7.47.65-11.85-3.48-12.58-11.85l-1.95-22.23,8.53-.75,1.77,20.17c.44,5.04,2.67,7.26,7,6.88,4.36-.38,6.93-3.65,6.51-8.38l-1.74-19.86,8.5-.74Zm16.17-11.3l8.34-.73.89,10.15,12.79-1.12.6,6.82-12.64,1.11,1.43,16.41c.23,2.58,2.19,3.89,5.46,3.6.81-.07,6.75-.62,7.12-.69l.59,6.72c-.34.09-7.12.75-7.8.81-9.34.82-13.18-1.83-13.88-9.8l-1.43-16.31-8.93.78-.6-6.82,8.93-.78-.89-10.15Zm39.41-3.45l8.34-.73.89,10.15,12.79-1.12.6,6.82-12.64,1.11,1.43,16.41c.23,2.58,2.19,3.89,5.46,3.6.81-.07,6.75-.62,7.12-.69l.59,6.72c-.34.09-7.12.75-7.8.81-9.34.82-13.18-1.83-13.88-9.8l-1.43-16.31-8.93.78-.6-6.82,8.93-.78-.89-10.15Zm50.44,40.82c-9.68.85-16.3-4.5-17.12-13.87l-.46-5.29c-.82-9.37,4.77-15.79,14.45-16.64,9.68-.85,16.3,4.5,17.12,13.87l.46,5.29c.82,9.37-4.77,15.79-14.45,16.64Zm-2.52-28.83c-4.58.4-7.12,3.95-6.66,9.27l.4,4.61c.46,5.29,3.59,8.38,8.16,7.98,4.58-.4,7.12-3.98,6.65-9.27l-.4-4.61c-.46-5.32-3.59-8.38-8.16-7.97Zm26.58,25.97l-3-34.34,8.25-.72.5,5.76.53-.05c1.32-4.29,4.82-6.95,9.77-7.38,7.47-.65,11.85,3.48,12.58,11.85l1.94,22.2-8.53.75-1.76-20.17c-.44-5.04-2.68-7.26-7-6.89-4.36.38-6.93,3.65-6.51,8.41l1.73,19.83-8.5.74Zm107.72-2.52l-5.01.44c-9,.79-12.18-1.79-12.94-10.51l-.6-6.85c-.43-4.92-2.84-6.62-9.66-5.77l-.76-8.69c6.87-.32,8.95-2.41,8.52-7.33l-.61-6.88c-.76-8.72,1.92-11.81,10.92-12.59l5.01-.44.6,6.85-2.99.26c-4.42.39-5.2,1.49-4.75,6.63l.76,8.68c.37,4.23-2.44,7.27-8.05,8.11l.05.56c5.67-.15,8.96,2.32,9.33,6.59l.76,8.65c.45,5.14,1.41,6.09,5.83,5.7l2.99-.26.6,6.85Z"/><path class="cls-8" d="m52.54,666.62l-6.25-.6c-.14-2.93-1.73-4.5-4.51-4.77-3.43-.33-5.57,2.05-6.02,6.77l-.17,1.73c-.45,4.71,1.19,7.46,4.62,7.79,2.8.27,4.61-.9,5.32-3.61l6.25.6c-1.15,6.08-5.38,8.97-12.03,8.33-7.58-.73-11.37-5.43-10.62-13.24l.26-2.71c.75-7.82,5.37-11.7,12.95-10.97,6.65.64,10.2,4.33,10.2,10.68Zm16.23,19.03c-7.26-.7-11.4-5.55-10.73-12.57l.38-3.97c.68-7.02,5.67-10.99,12.93-10.29,7.26.7,11.4,5.55,10.73,12.57l-.38,3.97c-.68,7.02-5.67,10.99-12.93,10.29Zm2.08-21.6c-3.43-.33-5.79,1.94-6.17,5.93l-.33,3.45c-.38,3.97,1.5,6.67,4.93,7,3.43.33,5.79-1.96,6.17-5.93l.33-3.45c.38-3.99-1.5-6.67-4.93-7Zm41.44-.74l-2.48,25.73-6.18-.6.42-4.32-.4-.04c-1.56,2.98-4.51,4.49-8.21,4.13-5.6-.54-8.26-4.19-7.66-10.46l1.6-16.66,6.39.62-1.46,15.12c-.36,3.78.98,5.72,4.22,6.03,3.27.31,5.61-1.74,5.95-5.29l1.43-14.88,6.37.61Zm4.15,26.37l2.48-25.73,6.18.6-.42,4.32.4.04c1.56-2.98,4.5-4.46,8.21-4.11,5.6.54,8.26,4.19,7.66,10.46l-1.6,16.63-6.39-.62,1.46-15.12c.36-3.78-.98-5.72-4.22-6.03-3.27-.32-5.61,1.74-5.95,5.31l-1.43,14.86-6.37-.61Zm38.86-29.65l6.25.6-.73,7.61,9.59.92-.49,5.11-9.47-.91-1.18,12.29c-.19,1.94,1.08,3.17,3.53,3.4.61.06,5.06.46,5.35.47l-.49,5.04c-.26.02-5.35-.42-5.86-.47-7-.67-9.47-3.15-8.89-9.12l1.18-12.22-6.69-.65.49-5.11,6.7.65.73-7.61Zm37.94,29.74l6.02.58c-.97,4.5-5.84,7.3-11.81,6.73-7.49-.72-11.38-5.33-10.67-12.64l.4-4.13c.65-6.74,5.74-10.75,12.74-10.08,6.81.66,10.74,5.56,10.08,12.46l-.34,3.55-16.59-1.6-.13,1.4c-.32,3.36,1.63,5.76,4.97,6.08,2.57.25,4.71-.72,5.34-2.36Zm-3.92-14.6c-3.31-.32-5.51,1.71-5.86,5.39l10.43,1c.36-3.69-1.34-6.09-4.56-6.4Zm27.79,12.68l-.65,6.72,7.46.72-.45,4.69-18.48-1.78.45-4.69,4.9.47,1.57-16.33-5.37-.52.45-4.71,11.53,1.11-.64,6.6,1,.1c1.61-5,4.46-6.92,9.31-6.45,1.45.14,2.73.45,3.61.89l-.67,6.93c-1.12-.56-2.77-1.02-4.22-1.16-6.07-.58-9.29,1.88-9.83,7.41Zm62.61,5.35l-.94,9.73-6-.58.94-9.73-9.68-.93.56-5.79,9.68.93.94-9.73,5.99.58-.94,9.73,9.68.93-.56,5.79-9.68-.93Zm39.46-1.88l-24.73-2.38.62-6.39,24.73,2.38-.61,6.39Zm-1.15,11.9l-24.73-2.38.61-6.39,24.73,2.38-.61,6.39Zm59.21,11.56l-24.17-2.33.53-5.53,9.07.87,2.08-21.56-.42-.04-9.23,4.93.6-6.25,9.68-5.21,6.49.62-2.71,28.14,8.61.83-.53,5.53Z"/><path class="cls-8" d="m712.22,546.79l-6.04,1.73c-1.21-2.68-3.26-3.55-5.94-2.78-3.31.95-4.43,3.95-3.12,8.5l.48,1.67c1.3,4.55,3.84,6.51,7.15,5.56,2.7-.77,3.96-2.52,3.62-5.3l6.04-1.73c1.16,6.08-1.72,10.32-8.14,12.16-7.32,2.1-12.57-.88-14.73-8.43l-.75-2.61c-2.17-7.55.7-12.85,8.02-14.96,6.42-1.84,11.08.29,13.41,6.2Zm22.07,11.76c-7.01,2.01-12.64-.98-14.59-7.77l-1.1-3.83c-1.94-6.78,1.25-12.3,8.26-14.31,7.01-2.01,12.64.98,14.59,7.76l1.1,3.83c1.94,6.78-1.25,12.3-8.26,14.32Zm-5.98-20.86c-3.31.95-4.68,3.93-3.57,7.78l.96,3.34c1.1,3.83,3.84,5.65,7.15,4.7s4.67-3.95,3.57-7.78l-.96-3.33c-1.1-3.85-3.84-5.65-7.15-4.7Zm38.29-15.88l7.13,24.85-5.97,1.71-1.2-4.17-.38.11c-.36,3.34-2.55,5.83-6.13,6.85-5.41,1.55-9.22-.87-10.96-6.93l-4.61-16.09,6.17-1.77,4.19,14.6c1.05,3.65,3.01,4.96,6.14,4.07,3.15-.9,4.58-3.68,3.6-7.1l-4.12-14.37,6.15-1.76Zm13.52,23.02l-7.13-24.85,5.97-1.71,1.2,4.17.38-.11c.36-3.35,2.55-5.8,6.14-6.83,5.41-1.55,9.22.87,10.96,6.93l4.61,16.06-6.17,1.77-4.19-14.6c-1.05-3.65-3.01-4.96-6.14-4.07-3.16.9-4.58,3.68-3.59,7.12l4.11,14.35-6.15,1.76Zm25.29-41.82l6.04-1.73,2.11,7.35,9.26-2.65,1.41,4.93-9.15,2.62,3.4,11.87c.54,1.87,2.17,2.55,4.54,1.87.58-.17,4.88-1.42,5.15-1.52l1.39,4.87c-.23.12-5.13,1.57-5.63,1.71-6.76,1.94-9.96.54-11.62-5.23l-3.39-11.81-6.47,1.86-1.41-4.93,6.47-1.86-2.11-7.34Zm46.2,13.77l5.81-1.67c.74,4.54-2.75,8.93-8.52,10.59-7.23,2.07-12.54-.79-14.56-7.84l-1.14-3.99c-1.87-6.51,1.41-12.11,8.16-14.04,6.58-1.89,12.03,1.23,13.94,7.9l.98,3.42-16.02,4.59.39,1.35c.93,3.24,3.63,4.76,6.86,3.84,2.48-.71,4.11-2.4,4.1-4.15Zm-8.99-12.15c-3.2.92-4.5,3.61-3.48,7.17l10.07-2.89c-1.02-3.56-3.48-5.17-6.59-4.28Zm30.5,1.62l1.86,6.49,7.21-2.07,1.3,4.53-17.84,5.12-1.3-4.53,4.73-1.36-4.52-15.77-5.18,1.49-1.3-4.55,11.13-3.19,1.83,6.38.97-.28c-.33-5.24,1.61-8.07,6.3-9.41,1.4-.4,2.71-.58,3.69-.5l1.92,6.69c-1.25-.11-2.96.07-4.35.47-5.86,1.68-7.96,5.16-6.43,10.5Zm67.71-26l-23.88,6.85-1.77-6.17,23.88-6.85,1.77,6.17Zm3.29,11.49l-23.88,6.85-1.77-6.17,23.88-6.85,1.77,6.17Zm46.91-6.65c-7.79,2.23-13.96-2.6-17.07-13.44-3.11-10.84-.44-18.21,7.35-20.44,7.82-2.24,13.98,2.6,17.09,13.43,3.11,10.84.44,18.21-7.38,20.45Zm-10.81-15.24c.08.29.16.56.24.83l9.06-10.59c-1.88-3.07-4.14-4.32-6.69-3.59-3.85,1.1-4.77,5.81-2.61,13.35Zm9.29,9.94c3.88-1.11,4.8-5.79,2.63-13.36-.08-.27-.15-.52-.23-.79l-9.06,10.59c1.87,3.05,4.13,4.28,6.65,3.55Z"/><path class="cls-7" d="m446.62,475v-34.12h-80.62v-28.5l54.88-117.75h35.88l-53,114.88v2.25h44v-45.5h31.62v46.12h24.5v28.5h-24v34.12h-33.25Zm79.25-126c0-34.5,26.12-58,64-58s62.38,21.12,62.38,52.38c0,19.75-10.38,36.62-40.88,65.88l-35.25,33.62v2.25h78.88v29.88h-127.12v-24.88l58.75-58.12c24.62-24.62,31-34.12,31-46.25,0-15.62-11.38-25.88-28.88-25.88s-29.88,11.75-29.88,29v.88h-33v-.75Z"/><g class="cls-4"><rect class="cls-10" x="140" y="309" width="150" height="150" rx="27" ry="27"/><rect class="cls-2" x="135" y="304" width="160" height="160" rx="32" ry="32"/></g><path class="cls-6" d="m197.93,387.66c-.59,0-1.16-.16-1.69-.49-.53-.33-.97-.76-1.31-1.29-.33-.55-.49-1.14-.49-1.78s.16-1.23.49-1.76c.34-.55.78-.98,1.31-1.29.53-.33,1.09-.49,1.69-.49h33.14c.62,0,1.2.16,1.73.49.53.31.95.74,1.27,1.29.33.53.49,1.12.49,1.76s-.16,1.23-.49,1.78c-.31.53-.73.96-1.27,1.29-.53.33-1.11.49-1.73.49h-33.14Z"/><g class="cls-3"><rect class="cls-10" x="733" y="309" width="150" height="150" rx="27" ry="27"/><rect class="cls-2" x="728" y="304" width="160" height="160" rx="32" ry="32"/></g><path class="cls-6" d="m787.39,384.08c0-.98.34-1.82,1.03-2.51s1.55-1.05,2.53-1.05h13.01v-12.98c0-.98.34-1.82,1.03-2.51.69-.7,1.52-1.05,2.51-1.05s1.82.35,2.51,1.05c.7.69,1.05,1.52,1.05,2.51v12.98h13.01c.97,0,1.8.35,2.48,1.05.7.69,1.05,1.52,1.05,2.51s-.35,1.83-1.05,2.53-1.52,1.03-2.48,1.03h-13.01v13.01c0,.97-.35,1.8-1.05,2.48-.69.7-1.52,1.05-2.51,1.05s-1.82-.35-2.51-1.05c-.69-.69-1.03-1.52-1.03-2.48v-13.01h-13.01c-.98,0-1.83-.34-2.53-1.03-.69-.7-1.03-1.55-1.03-2.53Z"/></g></svg>