<?xml version="1.0" encoding="UTF-8"?><svg id="Layer_1" xmlns="http://www.w3.org/2000/svg" xmlns:xlink="http://www.w3.org/1999/xlink" viewBox="0 0 1024 768"><defs><style>.cls-1{filter:url(#outer-glow-13);}.cls-2{opacity:.07;}.cls-3{fill:#fff;}.cls-4{fill:#72f49b;}.cls-5{fill:#1e1e1e;}.cls-6{fill:none;stroke:#72f49b;stroke-linecap:round;stroke-linejoin:round;stroke-width:11.54px;}</style><filter id="outer-glow-13" filterUnits="userSpaceOnUse"><feOffset dx="0" dy="0"/><feGaussianBlur result="blur" stdDeviation="8"/><feFlood flood-color="#72f49b" flood-opacity=".75"/><feComposite in2="blur" operator="in"/><feComposite in="SourceGraphic"/></filter></defs><rect class="cls-5" width="1024" height="768"/><g class="cls-2"><path class="cls-3" d="m49.83,201.62c-3.6,0-6.31-.89-8.13-2.66-1.82-1.77-2.74-4.46-2.74-8.05v-15.73c0-3.55.91-6.2,2.74-7.98,1.82-1.77,4.53-2.66,8.13-2.66h15.35c3.6,0,6.31.89,8.13,2.66,1.82,1.77,2.74,4.43,2.74,7.98v15.73c0,3.55-.91,6.22-2.74,8.02-1.82,1.8-4.53,2.7-8.13,2.7h-15.35Zm20.21-54.86c-3.6,0-6.31-.89-8.13-2.66-1.82-1.77-2.73-4.43-2.73-7.98v-36.93c0-3.55.91-6.2,2.73-7.98,1.82-1.77,4.53-2.66,8.13-2.66h55.16c3.65,0,6.38.89,8.21,2.66,1.82,1.77,2.74,4.43,2.74,7.98v10.56c-6.13.46-11.68,2.38-16.64,5.78s-8.92,7.81-11.85,13.26c-2.94,5.44-4.43,11.43-4.48,17.97h-33.13Zm26.52,85.78c-3.34,0-5.97-.74-7.86-2.2-1.9-1.47-2.85-3.49-2.85-6.08,0-4.05,1.22-8.31,3.65-12.76,2.43-4.46,5.94-8.64,10.52-12.54,4.58-3.9,10.13-7.08,16.64-9.54,6.51-2.46,13.82-3.69,21.92-3.69s15.4,1.23,21.88,3.69c6.48,2.46,12.02,5.64,16.6,9.54,4.58,3.9,8.09,8.08,10.52,12.54,2.43,4.46,3.65,8.71,3.65,12.76,0,2.58-.95,4.61-2.85,6.08s-4.52,2.2-7.86,2.2h-83.96Zm42.02-57.97c-4.46,0-8.59-1.22-12.38-3.65-3.8-2.43-6.86-5.72-9.19-9.88-2.33-4.15-3.5-8.81-3.5-13.98s1.16-9.71,3.5-13.79c2.33-4.08,5.4-7.31,9.19-9.69,3.8-2.38,7.93-3.57,12.38-3.57s8.59,1.17,12.38,3.5c3.8,2.33,6.85,5.52,9.16,9.57,2.3,4.05,3.46,8.66,3.46,13.83s-1.15,9.91-3.46,14.09c-2.31,4.18-5.36,7.48-9.16,9.91-3.8,2.43-7.93,3.65-12.38,3.65Zm54.55,12.61c-3.65,0-6.37-.89-8.17-2.66-1.8-1.77-2.7-4.43-2.7-7.98v-44.3c0-3.55.9-6.2,2.7-7.98,1.8-1.77,4.52-2.66,8.17-2.66h22.41c3.65,0,6.38.89,8.21,2.66,1.82,1.77,2.73,4.43,2.73,7.98v44.3c0,3.55-.91,6.21-2.73,7.98-1.82,1.77-4.56,2.66-8.21,2.66h-22.41Z"/><path class="cls-3" d="m316.63,160.56c0,3.2.25,6.34.74,9.42.49,3.08,1.19,6.06,2.08,8.93l-11.01,4.66c-1.22-3.62-2.18-7.36-2.86-11.22-.68-3.86-1.02-7.79-1.02-11.79s.33-7.93.99-11.79c.66-3.86,1.6-7.6,2.82-11.22l11.08,4.66c-.89,2.87-1.59,5.85-2.08,8.93-.49,3.08-.74,6.22-.74,9.42Zm32.47-53.5c-5.6,2.92-10.62,6.61-15.07,11.08-4.45,4.47-8.08,9.51-10.9,15.1l-11.01-4.59c3.53-7.01,8.07-13.29,13.62-18.84s11.83-10.09,18.84-13.62l4.52,10.87Zm27.46,125.49c-9.22,0-17.97-1.68-26.26-5.05-8.28-3.36-15.7-8.06-22.27-14.08-6.56-6.02-11.85-13.01-15.85-20.96l10.94-4.52c2.4,4.56,5.34,8.82,8.82,12.77,2.35-2.78,5.67-5.39,9.95-7.83,4.28-2.45,9.35-4.45,15.21-6,5.86-1.55,12.34-2.33,19.44-2.33s13.59.77,19.44,2.29c5.86,1.53,10.93,3.53,15.21,6,4.28,2.47,7.6,5.09,9.95,7.87,1.69-1.93,3.28-3.96,4.76-6.11,1.48-2.14,2.83-4.36,4.06-6.67l10.94,4.52c-4,7.95-9.28,14.94-15.85,20.96-6.56,6.02-13.99,10.72-22.27,14.08-8.28,3.36-17.03,5.05-26.26,5.05Zm0-59.99c-4.52-.05-8.6-1.22-12.25-3.53-3.65-2.3-6.54-5.46-8.68-9.46-2.14-4-3.24-8.54-3.28-13.62-.05-4.75,1.01-9.1,3.18-13.06,2.16-3.95,5.08-7.1,8.75-9.46,3.67-2.35,7.76-3.53,12.28-3.53s8.6,1.18,12.25,3.53c3.65,2.35,6.55,5.51,8.72,9.46,2.16,3.95,3.25,8.31,3.25,13.06,0,5.08-1.07,9.63-3.21,13.66-2.14,4.02-5.05,7.2-8.72,9.53-3.67,2.33-7.76,3.47-12.28,3.42Zm-.07-71.99c-3.2,0-6.35.25-9.46.74-3.11.49-6.09,1.21-8.96,2.15l-4.66-11.01c3.62-1.27,7.38-2.23,11.26-2.89,3.88-.66,7.82-.99,11.82-.99s7.93.33,11.79.99c3.86.66,7.6,1.62,11.22,2.89l-4.52,11.01c-2.92-.94-5.93-1.66-9.03-2.15-3.11-.49-6.26-.74-9.46-.74Zm53.5,32.61c-2.87-5.65-6.54-10.69-11.01-15.14-4.47-4.45-9.51-8.1-15.1-10.98l4.52-10.94c6.96,3.53,13.24,8.08,18.85,13.66,5.6,5.58,10.16,11.87,13.69,18.88l-10.94,4.52Zm6.56,27.39c0-3.2-.25-6.35-.74-9.46s-1.21-6.09-2.15-8.96l11.01-4.66c1.27,3.62,2.23,7.38,2.89,11.26.66,3.88.99,7.82.99,11.82s-.33,7.94-.99,11.82c-.66,3.88-1.62,7.63-2.89,11.26l-10.94-4.66c.89-2.87,1.59-5.86,2.08-8.96s.74-6.26.74-9.46Z"/><path class="cls-3" d="m562.65,232.55c-4.92,0-9.55-.93-13.89-2.8-4.35-1.87-8.18-4.46-11.48-7.76-3.31-3.31-5.91-7.14-7.8-11.49-1.89-4.35-2.84-9-2.84-13.97s.95-9.61,2.84-13.93c1.89-4.32,4.49-8.15,7.8-11.48,3.31-3.33,7.14-5.93,11.48-7.8,4.35-1.87,8.98-2.8,13.89-2.8s9.62.93,13.97,2.8c4.35,1.87,8.18,4.45,11.48,7.76,3.31,3.31,5.9,7.14,7.76,11.49,1.87,4.35,2.8,9,2.8,13.97s-.95,9.55-2.84,13.9c-1.89,4.35-4.5,8.18-7.83,11.48-3.33,3.31-7.17,5.91-11.52,7.8-4.35,1.89-8.96,2.84-13.82,2.84Zm0-13.47c1.32,0,2.38-.4,3.16-1.21.78-.8,1.17-1.84,1.17-3.12v-13.89h13.9c1.28,0,2.32-.39,3.12-1.17.8-.78,1.21-1.83,1.21-3.15s-.4-2.38-1.21-3.15c-.8-.78-1.84-1.17-3.12-1.17h-13.9v-13.9c0-1.28-.39-2.32-1.17-3.12-.78-.8-1.83-1.2-3.16-1.2s-2.37.4-3.15,1.2c-.78.8-1.17,1.84-1.17,3.12v13.9h-13.9c-1.28,0-2.32.39-3.12,1.17-.8.78-1.21,1.83-1.21,3.15s.4,2.38,1.21,3.15c.8.78,1.84,1.17,3.12,1.17h13.9v13.89c0,1.28.39,2.32,1.17,3.12.78.8,1.83,1.21,3.15,1.21Zm139.16,0h-99.67c1.99-3.31,3.51-6.88,4.57-10.71,1.06-3.83,1.6-7.77,1.6-11.84,0-1.42-.07-2.8-.21-4.15-.14-1.35-.33-2.71-.57-4.08,4.21-3.31,9.15-5.93,14.82-7.87,5.67-1.94,11.72-2.91,18.15-2.91,5.72,0,11.14.74,16.27,2.23,5.13,1.49,9.77,3.58,13.93,6.27,4.16,2.69,7.73,5.88,10.71,9.57,2.98,3.69,5.17,7.7,6.59,12.05h13.68c3.54,0,6.26-.93,8.15-2.8,1.89-1.87,2.84-4.64,2.84-8.33v-85.35c0-3.69-.95-6.47-2.84-8.37-1.89-1.89-4.61-2.84-8.15-2.84h-122.36c-3.5,0-6.2.95-8.12,2.84-1.91,1.89-2.87,4.68-2.87,8.37v40.05c-1.99-.28-3.89-.42-5.71-.42s-3.72.14-5.71.42v-40.69c0-7.28,1.85-12.76,5.57-16.45,3.71-3.69,9.27-5.53,16.7-5.53h122.64c7.42,0,12.98,1.83,16.7,5.49,3.71,3.66,5.57,9.16,5.57,16.48v86.63c0,7.28-1.86,12.75-5.57,16.41-3.71,3.66-9.28,5.49-16.7,5.49Zm-61.32-53.38c-4.49,0-8.57-1.16-12.23-3.47-3.66-2.32-6.58-5.48-8.76-9.5-2.17-4.02-3.26-8.55-3.26-13.61,0-4.73,1.09-9.06,3.26-13.01,2.17-3.95,5.09-7.1,8.76-9.46,3.66-2.36,7.74-3.55,12.23-3.55s8.64,1.18,12.3,3.55c3.66,2.36,6.57,5.52,8.72,9.46,2.15,3.95,3.23,8.28,3.23,13.01,0,5.06-1.08,9.59-3.23,13.61-2.15,4.02-5.06,7.18-8.72,9.5-3.66,2.32-7.76,3.47-12.3,3.47Z"/><path class="cls-3" d="m826.71,232.55c-8.19,0-14.33-2.02-18.42-6.06-4.09-4.04-6.14-10.08-6.14-18.11v-95.57c0-8.08,2.05-14.14,6.14-18.18,4.09-4.04,10.23-6.06,18.42-6.06h135.3c8.24,0,14.39,2.03,18.46,6.1,4.07,4.07,6.1,10.12,6.1,18.14v95.57c0,8.03-2.03,14.06-6.1,18.11-4.07,4.04-10.22,6.06-18.46,6.06h-135.3Zm.16-12.59h134.99c3.86,0,6.84-1.03,8.95-3.09,2.11-2.06,3.17-5.12,3.17-9.19v-94.16c0-4.07-1.06-7.14-3.17-9.23-2.11-2.08-5.1-3.13-8.95-3.13h-134.99c-3.91,0-6.91,1.04-8.99,3.13s-3.13,5.16-3.13,9.23v94.16c0,4.07,1.04,7.13,3.13,9.19,2.08,2.06,5.08,3.09,8.99,3.09Zm4.46-23.93c-1.25,0-2.2-.39-2.85-1.17-.65-.78-.98-1.75-.98-2.89,0-1.82.69-4.2,2.07-7.12,1.38-2.92,3.49-5.85,6.33-8.8,2.84-2.95,6.41-5.41,10.71-7.39,4.3-1.98,9.37-2.97,15.21-2.97s10.92.99,15.25,2.97c4.33,1.98,7.91,4.45,10.75,7.39,2.84,2.95,4.95,5.88,6.34,8.8,1.38,2.92,2.07,5.29,2.07,7.12,0,1.15-.33,2.11-.98,2.89-.65.78-1.6,1.17-2.85,1.17h-61.08Zm30.5-35.82c-4.69,0-8.72-1.77-12.08-5.32-3.36-3.54-5.04-8-5.04-13.37,0-3.34.77-6.39,2.31-9.15,1.54-2.76,3.61-4.98,6.22-6.65,2.61-1.67,5.47-2.5,8.6-2.5s6.06.83,8.64,2.5c2.58,1.67,4.64,3.88,6.18,6.65,1.54,2.76,2.31,5.81,2.31,9.15,0,5.37-1.67,9.83-5.01,13.37-3.34,3.55-7.38,5.32-12.12,5.32Zm50.99-25.42c-1.41,0-2.58-.47-3.52-1.41-.94-.94-1.41-2.08-1.41-3.44s.47-2.49,1.41-3.4c.94-.91,2.11-1.37,3.52-1.37h42.7c1.36,0,2.5.46,3.44,1.37.94.91,1.41,2.05,1.41,3.4s-.47,2.5-1.41,3.44-2.09,1.41-3.44,1.41h-42.7Zm0,30.66c-1.41,0-2.58-.47-3.52-1.41s-1.41-2.11-1.41-3.52c0-1.3.47-2.41,1.41-3.32.94-.91,2.11-1.37,3.52-1.37h42.7c1.36,0,2.5.46,3.44,1.37.94.91,1.41,2.02,1.41,3.32,0,1.41-.47,2.58-1.41,3.52-.94.94-2.09,1.41-3.44,1.41h-42.7Zm0,30.58c-1.41,0-2.58-.46-3.52-1.37-.94-.91-1.41-2.02-1.41-3.32s.47-2.52,1.41-3.48c.94-.96,2.11-1.45,3.52-1.45h42.7c1.36,0,2.5.48,3.44,1.45.94.97,1.41,2.13,1.41,3.48s-.47,2.41-1.41,3.32c-.94.91-2.09,1.37-3.44,1.37h-42.7Z"/><path class="cls-3" d="m813.34,423.85c-3.6,0-6.31-.89-8.13-2.66-1.82-1.77-2.74-4.46-2.74-8.05v-15.73c0-3.55.91-6.2,2.74-7.98,1.82-1.77,4.53-2.66,8.13-2.66h15.35c3.6,0,6.31.89,8.13,2.66,1.82,1.77,2.74,4.43,2.74,7.98v15.73c0,3.55-.91,6.22-2.74,8.02-1.82,1.8-4.53,2.7-8.13,2.7h-15.35Zm20.21-54.86c-3.6,0-6.31-.89-8.13-2.66-1.82-1.77-2.73-4.43-2.73-7.98v-36.93c0-3.55.91-6.2,2.73-7.98,1.82-1.77,4.53-2.66,8.13-2.66h55.16c3.65,0,6.38.89,8.21,2.66,1.82,1.77,2.74,4.43,2.74,7.98v10.56c-6.13.46-11.68,2.38-16.64,5.78s-8.92,7.81-11.85,13.26c-2.94,5.44-4.43,11.43-4.48,17.97h-33.13Zm26.52,85.78c-3.34,0-5.97-.74-7.86-2.2-1.9-1.47-2.85-3.49-2.85-6.08,0-4.05,1.22-8.31,3.65-12.76s5.94-8.64,10.52-12.54c4.58-3.9,10.13-7.08,16.64-9.54,6.51-2.46,13.82-3.69,21.92-3.69s15.4,1.23,21.88,3.69c6.48,2.46,12.02,5.64,16.6,9.54,4.58,3.9,8.09,8.08,10.52,12.54,2.43,4.46,3.65,8.71,3.65,12.76,0,2.58-.95,4.61-2.85,6.08-1.9,1.47-4.52,2.2-7.86,2.2h-83.96Zm42.02-57.97c-4.46,0-8.59-1.22-12.38-3.65-3.8-2.43-6.86-5.72-9.19-9.88-2.33-4.15-3.5-8.81-3.5-13.98s1.16-9.71,3.5-13.79c2.33-4.08,5.4-7.31,9.19-9.69,3.8-2.38,7.93-3.57,12.38-3.57s8.59,1.17,12.38,3.5c3.8,2.33,6.85,5.52,9.16,9.57,2.3,4.05,3.46,8.66,3.46,13.83s-1.15,9.91-3.46,14.09c-2.31,4.18-5.36,7.48-9.16,9.91-3.8,2.43-7.93,3.65-12.38,3.65Zm54.55,12.61c-3.65,0-6.37-.89-8.17-2.66-1.8-1.77-2.7-4.43-2.7-7.98v-44.3c0-3.55.9-6.2,2.7-7.98,1.8-1.77,4.52-2.66,8.17-2.66h22.41c3.65,0,6.38.89,8.21,2.66,1.82,1.77,2.73,4.43,2.73,7.98v44.3c0,3.55-.91,6.21-2.73,7.98-1.82,1.77-4.56,2.66-8.21,2.66h-22.41Z"/><path class="cls-3" d="m78.35,382.79c0,3.2.25,6.34.74,9.42.49,3.08,1.19,6.06,2.08,8.93l-11.01,4.66c-1.22-3.62-2.18-7.36-2.86-11.22-.68-3.86-1.02-7.79-1.02-11.79s.33-7.93.99-11.79c.66-3.86,1.6-7.6,2.82-11.22l11.08,4.66c-.89,2.87-1.59,5.85-2.08,8.93-.49,3.08-.74,6.22-.74,9.42Zm32.47-53.5c-5.6,2.92-10.62,6.61-15.07,11.08-4.45,4.47-8.08,9.51-10.9,15.1l-11.01-4.59c3.53-7.01,8.07-13.29,13.62-18.84,5.55-5.55,11.83-10.09,18.84-13.62l4.52,10.87Zm27.46,125.49c-9.22,0-17.97-1.68-26.26-5.05-8.28-3.36-15.7-8.06-22.27-14.08-6.56-6.02-11.85-13.01-15.85-20.96l10.94-4.52c2.4,4.56,5.34,8.82,8.82,12.77,2.35-2.78,5.67-5.39,9.95-7.83,4.28-2.45,9.35-4.45,15.21-6,5.86-1.55,12.34-2.33,19.44-2.33s13.59.77,19.44,2.29c5.86,1.53,10.93,3.53,15.21,6,4.28,2.47,7.6,5.09,9.95,7.87,1.69-1.93,3.28-3.96,4.76-6.11,1.48-2.14,2.83-4.36,4.06-6.67l10.94,4.52c-4,7.95-9.28,14.94-15.85,20.96-6.56,6.02-13.99,10.72-22.27,14.08-8.28,3.36-17.03,5.05-26.26,5.05Zm0-59.99c-4.52-.05-8.6-1.22-12.25-3.53-3.65-2.3-6.54-5.46-8.68-9.46-2.14-4-3.24-8.54-3.28-13.62-.05-4.75,1.01-9.1,3.18-13.06,2.16-3.95,5.08-7.1,8.75-9.46,3.67-2.35,7.76-3.53,12.28-3.53s8.6,1.18,12.25,3.53c3.65,2.35,6.55,5.51,8.72,9.46,2.16,3.95,3.25,8.31,3.25,13.06,0,5.08-1.07,9.63-3.21,13.66-2.14,4.02-5.05,7.2-8.72,9.53-3.67,2.33-7.76,3.47-12.28,3.42Zm-.07-71.99c-3.2,0-6.35.25-9.46.74-3.11.49-6.09,1.21-8.96,2.15l-4.66-11.01c3.62-1.27,7.38-2.23,11.26-2.89,3.88-.66,7.82-.99,11.82-.99s7.93.33,11.79.99c3.86.66,7.6,1.62,11.22,2.89l-4.52,11.01c-2.92-.94-5.93-1.66-9.03-2.15-3.11-.49-6.26-.74-9.46-.74Zm53.5,32.61c-2.87-5.65-6.54-10.69-11.01-15.14-4.47-4.45-9.51-8.1-15.1-10.98l4.52-10.94c6.96,3.53,13.24,8.08,18.85,13.66,5.6,5.58,10.16,11.87,13.69,18.88l-10.94,4.52Zm6.56,27.39c0-3.2-.25-6.35-.74-9.46-.49-3.11-1.21-6.09-2.15-8.96l11.01-4.66c1.27,3.62,2.23,7.38,2.89,11.26.66,3.88.99,7.82.99,11.82s-.33,7.94-.99,11.82c-.66,3.88-1.62,7.63-2.89,11.26l-10.94-4.66c.89-2.87,1.59-5.86,2.08-8.96.49-3.11.74-6.26.74-9.46Z"/><path class="cls-3" d="m836.31,607.44c0,3.2.25,6.34.74,9.42.49,3.08,1.19,6.06,2.08,8.93l-11.01,4.66c-1.22-3.62-2.18-7.36-2.86-11.22-.68-3.86-1.02-7.79-1.02-11.79s.33-7.93.99-11.79c.66-3.86,1.6-7.6,2.82-11.22l11.08,4.66c-.89,2.87-1.59,5.85-2.08,8.93-.49,3.08-.74,6.22-.74,9.42Zm32.47-53.5c-5.6,2.92-10.62,6.61-15.07,11.08-4.45,4.47-8.08,9.51-10.9,15.1l-11.01-4.59c3.53-7.01,8.07-13.29,13.62-18.84s11.83-10.09,18.84-13.62l4.52,10.87Zm27.46,125.49c-9.22,0-17.97-1.68-26.26-5.05-8.28-3.36-15.7-8.06-22.27-14.08-6.56-6.02-11.85-13.01-15.85-20.96l10.94-4.52c2.4,4.56,5.34,8.82,8.82,12.77,2.35-2.78,5.67-5.39,9.95-7.83,4.28-2.45,9.35-4.45,15.21-6,5.86-1.55,12.34-2.33,19.44-2.33s13.59.77,19.44,2.29c5.86,1.53,10.93,3.53,15.21,6,4.28,2.47,7.6,5.09,9.95,7.87,1.69-1.93,3.28-3.96,4.76-6.11,1.48-2.14,2.83-4.36,4.06-6.67l10.94,4.52c-4,7.95-9.28,14.94-15.85,20.96-6.56,6.02-13.99,10.72-22.27,14.08-8.28,3.36-17.03,5.05-26.26,5.05Zm0-59.99c-4.52-.05-8.6-1.22-12.25-3.53-3.65-2.3-6.54-5.46-8.68-9.46-2.14-4-3.24-8.54-3.28-13.62-.05-4.75,1.01-9.1,3.18-13.06,2.16-3.95,5.08-7.1,8.75-9.46,3.67-2.35,7.76-3.53,12.28-3.53s8.6,1.18,12.25,3.53c3.65,2.35,6.55,5.51,8.72,9.46,2.16,3.95,3.25,8.31,3.25,13.06,0,5.08-1.07,9.63-3.21,13.66-2.14,4.02-5.05,7.2-8.72,9.53-3.67,2.33-7.76,3.47-12.28,3.42Zm-.07-71.99c-3.2,0-6.35.25-9.46.74-3.11.49-6.09,1.21-8.96,2.15l-4.66-11.01c3.62-1.27,7.38-2.23,11.26-2.89,3.88-.66,7.82-.99,11.82-.99s7.93.33,11.79.99c3.86.66,7.6,1.62,11.22,2.89l-4.52,11.01c-2.92-.94-5.93-1.66-9.03-2.15-3.11-.49-6.26-.74-9.46-.74Zm53.5,32.61c-2.87-5.65-6.54-10.69-11.01-15.14-4.47-4.45-9.51-8.1-15.1-10.98l4.52-10.94c6.96,3.53,13.24,8.08,18.85,13.66,5.6,5.58,10.16,11.87,13.69,18.88l-10.94,4.52Zm6.56,27.39c0-3.2-.25-6.35-.74-9.46s-1.21-6.09-2.15-8.96l11.01-4.66c1.27,3.62,2.23,7.38,2.89,11.26.66,3.88.99,7.82.99,11.82s-.33,7.94-.99,11.82c-.66,3.88-1.62,7.63-2.89,11.26l-10.94-4.66c.89-2.87,1.59-5.86,2.08-8.96s.74-6.26.74-9.46Z"/><path class="cls-3" d="m307.34,454.78c-4.92,0-9.55-.93-13.89-2.8-4.35-1.87-8.18-4.46-11.48-7.76-3.31-3.31-5.91-7.14-7.8-11.49-1.89-4.35-2.84-9-2.84-13.97s.95-9.61,2.84-13.93c1.89-4.32,4.49-8.15,7.8-11.48,3.31-3.33,7.14-5.93,11.48-7.8,4.35-1.87,8.98-2.8,13.89-2.8s9.62.93,13.97,2.8c4.35,1.87,8.18,4.45,11.48,7.76,3.31,3.31,5.9,7.14,7.76,11.49,1.87,4.35,2.8,9,2.8,13.97s-.95,9.55-2.84,13.9c-1.89,4.35-4.5,8.18-7.83,11.48s-7.17,5.91-11.52,7.8c-4.35,1.89-8.96,2.84-13.82,2.84Zm0-13.47c1.32,0,2.38-.4,3.16-1.21.78-.8,1.17-1.84,1.17-3.12v-13.89h13.9c1.28,0,2.32-.39,3.12-1.17.8-.78,1.21-1.83,1.21-3.15s-.4-2.38-1.21-3.15c-.8-.78-1.84-1.17-3.12-1.17h-13.9v-13.9c0-1.28-.39-2.32-1.17-3.12-.78-.8-1.83-1.2-3.16-1.2s-2.37.4-3.15,1.2c-.78.8-1.17,1.84-1.17,3.12v13.9h-13.9c-1.28,0-2.32.39-3.12,1.17-.8.78-1.21,1.83-1.21,3.15s.4,2.38,1.21,3.15c.8.78,1.84,1.17,3.12,1.17h13.9v13.89c0,1.28.39,2.32,1.17,3.12.78.8,1.83,1.21,3.15,1.21Zm139.16,0h-99.67c1.99-3.31,3.51-6.88,4.57-10.71,1.06-3.83,1.6-7.77,1.6-11.84,0-1.42-.07-2.8-.21-4.15-.14-1.35-.33-2.71-.57-4.08,4.21-3.31,9.15-5.93,14.82-7.87,5.67-1.94,11.72-2.91,18.15-2.91,5.72,0,11.14.74,16.27,2.23,5.13,1.49,9.77,3.58,13.93,6.27,4.16,2.69,7.73,5.88,10.71,9.57,2.98,3.69,5.17,7.7,6.59,12.05h13.68c3.54,0,6.26-.93,8.15-2.8,1.89-1.87,2.84-4.64,2.84-8.33v-85.35c0-3.69-.95-6.47-2.84-8.37-1.89-1.89-4.61-2.84-8.15-2.84h-122.36c-3.5,0-6.2.95-8.12,2.84-1.91,1.89-2.87,4.68-2.87,8.37v40.05c-1.99-.28-3.89-.42-5.71-.42s-3.72.14-5.71.42v-40.69c0-7.28,1.85-12.76,5.57-16.45,3.71-3.69,9.27-5.53,16.7-5.53h122.64c7.42,0,12.98,1.83,16.7,5.49,3.71,3.66,5.57,9.16,5.57,16.48v86.63c0,7.28-1.86,12.75-5.57,16.41-3.71,3.66-9.28,5.49-16.7,5.49Zm-61.32-53.38c-4.49,0-8.57-1.16-12.23-3.47-3.66-2.32-6.58-5.48-8.76-9.5-2.17-4.02-3.26-8.55-3.26-13.61,0-4.73,1.09-9.06,3.26-13.01,2.17-3.95,5.09-7.1,8.76-9.46,3.66-2.36,7.74-3.55,12.23-3.55s8.64,1.18,12.3,3.55c3.66,2.36,6.57,5.52,8.72,9.46,2.15,3.95,3.23,8.28,3.23,13.01,0,5.06-1.08,9.59-3.23,13.61-2.15,4.02-5.06,7.18-8.72,9.5-3.66,2.32-7.76,3.47-12.3,3.47Z"/><path class="cls-3" d="m572.84,454.78c-8.19,0-14.33-2.02-18.42-6.06-4.09-4.04-6.14-10.08-6.14-18.11v-95.57c0-8.08,2.05-14.14,6.14-18.18,4.09-4.04,10.23-6.06,18.42-6.06h135.3c8.24,0,14.39,2.03,18.46,6.1,4.07,4.07,6.1,10.12,6.1,18.14v95.57c0,8.03-2.03,14.06-6.1,18.11-4.07,4.04-10.22,6.06-18.46,6.06h-135.3Zm.16-12.59h134.99c3.86,0,6.84-1.03,8.95-3.09,2.11-2.06,3.17-5.12,3.17-9.19v-94.16c0-4.07-1.06-7.14-3.17-9.23-2.11-2.08-5.1-3.13-8.95-3.13h-134.99c-3.91,0-6.91,1.04-8.99,3.13s-3.13,5.16-3.13,9.23v94.16c0,4.07,1.04,7.13,3.13,9.19,2.08,2.06,5.08,3.09,8.99,3.09Zm4.46-23.93c-1.25,0-2.2-.39-2.85-1.17-.65-.78-.98-1.75-.98-2.89,0-1.82.69-4.2,2.07-7.12,1.38-2.92,3.49-5.85,6.33-8.8,2.84-2.95,6.41-5.41,10.71-7.39,4.3-1.98,9.37-2.97,15.21-2.97s10.92.99,15.25,2.97c4.33,1.98,7.91,4.45,10.75,7.39,2.84,2.95,4.95,5.88,6.34,8.8,1.38,2.92,2.07,5.29,2.07,7.12,0,1.15-.33,2.11-.98,2.89-.65.78-1.6,1.17-2.85,1.17h-61.08Zm30.5-35.82c-4.69,0-8.72-1.77-12.08-5.32-3.36-3.54-5.04-8-5.04-13.37,0-3.34.77-6.39,2.31-9.15,1.54-2.76,3.61-4.98,6.22-6.65,2.61-1.67,5.47-2.5,8.6-2.5s6.06.83,8.64,2.5c2.58,1.67,4.64,3.88,6.18,6.65,1.54,2.76,2.31,5.81,2.31,9.15,0,5.37-1.67,9.83-5.01,13.37-3.34,3.55-7.38,5.32-12.12,5.32Zm50.99-25.42c-1.41,0-2.58-.47-3.52-1.41-.94-.94-1.41-2.08-1.41-3.44s.47-2.49,1.41-3.4c.94-.91,2.11-1.37,3.52-1.37h42.7c1.36,0,2.5.46,3.44,1.37.94.91,1.41,2.05,1.41,3.4s-.47,2.5-1.41,3.44-2.09,1.41-3.44,1.41h-42.7Zm0,30.66c-1.41,0-2.58-.47-3.52-1.41s-1.41-2.11-1.41-3.52c0-1.3.47-2.41,1.41-3.32.94-.91,2.11-1.37,3.52-1.37h42.7c1.36,0,2.5.46,3.44,1.37.94.91,1.41,2.02,1.41,3.32,0,1.41-.47,2.58-1.41,3.52-.94.94-2.09,1.41-3.44,1.41h-42.7Zm0,30.58c-1.41,0-2.58-.46-3.52-1.37-.94-.91-1.41-2.02-1.41-3.32s.47-2.52,1.41-3.48c.94-.96,2.11-1.45,3.52-1.45h42.7c1.36,0,2.5.48,3.44,1.45.94.97,1.41,2.13,1.41,3.48s-.47,2.41-1.41,3.32c-.94.91-2.09,1.37-3.44,1.37h-42.7Z"/><path class="cls-3" d="m557.59,648.51c-3.6,0-6.31-.89-8.13-2.66-1.82-1.77-2.74-4.46-2.74-8.05v-15.73c0-3.55.91-6.2,2.74-7.98,1.82-1.77,4.53-2.66,8.13-2.66h15.35c3.6,0,6.31.89,8.13,2.66,1.82,1.77,2.74,4.43,2.74,7.98v15.73c0,3.55-.91,6.22-2.74,8.02-1.82,1.8-4.53,2.7-8.13,2.7h-15.35Zm20.21-54.86c-3.6,0-6.31-.89-8.13-2.66-1.82-1.77-2.73-4.43-2.73-7.98v-36.93c0-3.55.91-6.2,2.73-7.98,1.82-1.77,4.53-2.66,8.13-2.66h55.16c3.65,0,6.38.89,8.21,2.66,1.82,1.77,2.74,4.43,2.74,7.98v10.56c-6.13.46-11.68,2.38-16.64,5.78-4.96,3.39-8.92,7.81-11.85,13.26-2.94,5.44-4.43,11.43-4.48,17.97h-33.13Zm26.52,85.78c-3.34,0-5.97-.74-7.86-2.2-1.9-1.47-2.85-3.49-2.85-6.08,0-4.05,1.22-8.31,3.65-12.76s5.94-8.64,10.52-12.54c4.58-3.9,10.13-7.08,16.64-9.54,6.51-2.46,13.82-3.69,21.92-3.69s15.4,1.23,21.88,3.69c6.48,2.46,12.02,5.64,16.6,9.54,4.58,3.9,8.09,8.08,10.52,12.54,2.43,4.46,3.65,8.71,3.65,12.76,0,2.58-.95,4.61-2.85,6.08s-4.52,2.2-7.86,2.2h-83.96Zm42.02-57.97c-4.46,0-8.59-1.22-12.38-3.65-3.8-2.43-6.86-5.72-9.19-9.88-2.33-4.15-3.5-8.81-3.5-13.98s1.16-9.71,3.5-13.79c2.33-4.08,5.4-7.31,9.19-9.69,3.8-2.38,7.93-3.57,12.38-3.57s8.59,1.17,12.38,3.5c3.8,2.33,6.85,5.52,9.16,9.57,2.3,4.05,3.46,8.66,3.46,13.83s-1.15,9.91-3.46,14.09c-2.31,4.18-5.36,7.48-9.16,9.91-3.8,2.43-7.93,3.65-12.38,3.65Zm54.55,12.61c-3.65,0-6.37-.89-8.17-2.66-1.8-1.77-2.7-4.43-2.7-7.98v-44.3c0-3.55.9-6.2,2.7-7.98,1.8-1.77,4.52-2.66,8.17-2.66h22.41c3.65,0,6.38.89,8.21,2.66,1.82,1.77,2.73,4.43,2.73,7.98v44.3c0,3.55-.91,6.21-2.73,7.98-1.82,1.77-4.56,2.66-8.21,2.66h-22.41Z"/><path class="cls-3" d="m70.02,679.44c-4.92,0-9.55-.93-13.89-2.8-4.35-1.87-8.18-4.46-11.48-7.76-3.31-3.31-5.91-7.14-7.8-11.49-1.89-4.35-2.84-9-2.84-13.97s.95-9.61,2.84-13.93c1.89-4.32,4.49-8.15,7.8-11.48,3.31-3.33,7.14-5.93,11.48-7.8,4.35-1.87,8.98-2.8,13.89-2.8s9.62.93,13.97,2.8c4.35,1.87,8.18,4.45,11.48,7.76,3.31,3.31,5.9,7.14,7.76,11.49,1.87,4.35,2.8,9,2.8,13.97s-.95,9.55-2.84,13.9c-1.89,4.35-4.5,8.18-7.83,11.48-3.33,3.31-7.17,5.91-11.52,7.8-4.35,1.89-8.96,2.84-13.82,2.84Zm0-13.47c1.32,0,2.38-.4,3.16-1.21.78-.8,1.17-1.84,1.17-3.12v-13.89h13.9c1.28,0,2.32-.39,3.12-1.17.8-.78,1.21-1.83,1.21-3.15s-.4-2.38-1.21-3.15c-.8-.78-1.84-1.17-3.12-1.17h-13.9v-13.9c0-1.28-.39-2.32-1.17-3.12-.78-.8-1.83-1.2-3.16-1.2s-2.37.4-3.15,1.2c-.78.8-1.17,1.84-1.17,3.12v13.9h-13.9c-1.28,0-2.32.39-3.12,1.17-.8.78-1.21,1.83-1.21,3.15s.4,2.38,1.21,3.15c.8.78,1.84,1.17,3.12,1.17h13.9v13.89c0,1.28.39,2.32,1.17,3.12.78.8,1.83,1.21,3.15,1.21Zm139.16,0h-99.67c1.99-3.31,3.51-6.88,4.57-10.71,1.06-3.83,1.6-7.77,1.6-11.84,0-1.42-.07-2.8-.21-4.15-.14-1.35-.33-2.71-.57-4.08,4.21-3.31,9.15-5.93,14.82-7.87,5.67-1.94,11.72-2.91,18.15-2.91,5.72,0,11.14.74,16.27,2.23,5.13,1.49,9.77,3.58,13.93,6.27,4.16,2.69,7.73,5.88,10.71,9.57,2.98,3.69,5.17,7.7,6.59,12.05h13.68c3.54,0,6.26-.93,8.15-2.8,1.89-1.87,2.84-4.64,2.84-8.33v-85.35c0-3.69-.95-6.47-2.84-8.37-1.89-1.89-4.61-2.84-8.15-2.84h-122.36c-3.5,0-6.2.95-8.12,2.84-1.91,1.89-2.87,4.68-2.87,8.37v40.05c-1.99-.28-3.89-.42-5.71-.42s-3.72.14-5.71.42v-40.69c0-7.28,1.85-12.76,5.57-16.45,3.71-3.69,9.27-5.53,16.7-5.53h122.64c7.42,0,12.98,1.83,16.7,5.49,3.71,3.66,5.57,9.16,5.57,16.48v86.63c0,7.28-1.86,12.75-5.57,16.41-3.71,3.66-9.28,5.49-16.7,5.49Zm-61.32-53.38c-4.49,0-8.57-1.16-12.23-3.47-3.66-2.32-6.58-5.48-8.76-9.5-2.17-4.02-3.26-8.55-3.26-13.61,0-4.73,1.09-9.06,3.26-13.01,2.17-3.95,5.09-7.1,8.76-9.46,3.66-2.36,7.74-3.55,12.23-3.55s8.64,1.18,12.3,3.55c3.66,2.36,6.57,5.52,8.72,9.46,2.15,3.95,3.23,8.28,3.23,13.01,0,5.06-1.08,9.59-3.23,13.61-2.15,4.02-5.06,7.18-8.72,9.5-3.66,2.32-7.76,3.47-12.3,3.47Z"/><path class="cls-3" d="m319.86,679.44c-8.19,0-14.33-2.02-18.42-6.06-4.09-4.04-6.14-10.08-6.14-18.11v-95.57c0-8.08,2.05-14.14,6.14-18.18,4.09-4.04,10.23-6.06,18.42-6.06h135.3c8.24,0,14.39,2.03,18.46,6.1,4.07,4.07,6.1,10.12,6.1,18.14v95.57c0,8.03-2.03,14.06-6.1,18.11-4.07,4.04-10.22,6.06-18.46,6.06h-135.3Zm.16-12.59h134.99c3.86,0,6.84-1.03,8.95-3.09,2.11-2.06,3.17-5.12,3.17-9.19v-94.16c0-4.07-1.06-7.14-3.17-9.23-2.11-2.08-5.1-3.13-8.95-3.13h-134.99c-3.91,0-6.91,1.04-8.99,3.13s-3.13,5.16-3.13,9.23v94.16c0,4.07,1.04,7.13,3.13,9.19,2.08,2.06,5.08,3.09,8.99,3.09Zm4.46-23.93c-1.25,0-2.2-.39-2.85-1.17-.65-.78-.98-1.75-.98-2.89,0-1.82.69-4.2,2.07-7.12,1.38-2.92,3.49-5.85,6.33-8.8,2.84-2.95,6.41-5.41,10.71-7.39,4.3-1.98,9.37-2.97,15.21-2.97s10.92.99,15.25,2.97c4.33,1.98,7.91,4.45,10.75,7.39,2.84,2.95,4.95,5.88,6.34,8.8,1.38,2.92,2.07,5.29,2.07,7.12,0,1.15-.33,2.11-.98,2.89-.65.78-1.6,1.17-2.85,1.17h-61.08Zm30.5-35.82c-4.69,0-8.72-1.77-12.08-5.32-3.36-3.54-5.04-8-5.04-13.37,0-3.34.77-6.39,2.31-9.15,1.54-2.76,3.61-4.98,6.22-6.65,2.61-1.67,5.47-2.5,8.6-2.5s6.06.83,8.64,2.5c2.58,1.67,4.64,3.88,6.18,6.65,1.54,2.76,2.31,5.81,2.31,9.15,0,5.37-1.67,9.83-5.01,13.37-3.34,3.55-7.38,5.32-12.12,5.32Zm50.99-25.42c-1.41,0-2.58-.47-3.52-1.41-.94-.94-1.41-2.08-1.41-3.44s.47-2.49,1.41-3.4c.94-.91,2.11-1.37,3.52-1.37h42.7c1.36,0,2.5.46,3.44,1.37.94.91,1.41,2.05,1.41,3.4s-.47,2.5-1.41,3.44-2.09,1.41-3.44,1.41h-42.7Zm0,30.66c-1.41,0-2.58-.47-3.52-1.41s-1.41-2.11-1.41-3.52c0-1.3.47-2.41,1.41-3.32.94-.91,2.11-1.37,3.52-1.37h42.7c1.36,0,2.5.46,3.44,1.37.94.91,1.41,2.02,1.41,3.32,0,1.41-.47,2.58-1.41,3.52-.94.94-2.09,1.41-3.44,1.41h-42.7Zm0,30.58c-1.41,0-2.58-.46-3.52-1.37-.94-.91-1.41-2.02-1.41-3.32s.47-2.52,1.41-3.48c.94-.96,2.11-1.45,3.52-1.45h42.7c1.36,0,2.5.48,3.44,1.45.94.97,1.41,2.13,1.41,3.48s-.47,2.41-1.41,3.32c-.94.91-2.09,1.37-3.44,1.37h-42.7Z"/></g><g class="cls-1"><path class="cls-4" d="m511.94,427.15c-15.94,0-30.94-3.05-45.01-9.15-14.07-6.1-26.48-14.53-37.23-25.28-10.75-10.75-19.18-23.16-25.28-37.23-6.1-14.07-9.15-29.07-9.15-45.01s3.05-30.94,9.15-45.01c6.1-14.07,14.51-26.48,25.22-37.23,10.71-10.75,23.11-19.18,37.18-25.28,14.07-6.1,29.07-9.15,45.01-9.15s30.96,3.05,45.07,9.15c14.11,6.1,26.54,14.53,37.29,25.28,10.75,10.75,19.18,23.16,25.28,37.23,6.1,14.07,9.15,29.07,9.15,45.01s-3.05,30.94-9.15,45.01c-6.1,14.07-14.53,26.48-25.28,37.23-10.75,10.75-23.16,19.18-37.23,25.28-14.07,6.1-29.07,9.15-45.01,9.15Zm0-19.45c13.5,0,26.12-2.52,37.86-7.55,11.74-5.03,22.08-11.99,31-20.88,8.92-8.88,15.88-19.2,20.88-30.94,4.99-11.74,7.49-24.36,7.49-37.86s-2.52-26.12-7.55-37.86c-5.03-11.74-11.99-22.08-20.88-31-8.88-8.92-19.22-15.88-31-20.88-11.78-4.99-24.42-7.49-37.92-7.49s-26.12,2.5-37.86,7.49c-11.74,5-22.04,11.95-30.88,20.88-8.85,8.92-15.77,19.26-20.76,31-5,11.74-7.49,24.36-7.49,37.86s2.5,26.12,7.49,37.86c4.99,11.74,11.93,22.06,20.82,30.94,8.88,8.88,19.2,15.84,30.94,20.88,11.74,5.03,24.36,7.55,37.86,7.55Zm-52.39-39.35c-2.29,0-3.99-.67-5.09-2-1.11-1.33-1.66-3.07-1.66-5.2,0-3.13,1.2-7.19,3.6-12.18,2.4-4.99,6.02-9.99,10.87-14.98,4.84-4.99,10.96-9.21,18.36-12.64,7.4-3.43,16.13-5.15,26.19-5.15s18.8,1.71,26.19,5.15,13.52,7.65,18.36,12.64c4.84,4.99,8.46,9.99,10.87,14.98s3.6,9.05,3.6,12.18c0,2.13-.55,3.87-1.66,5.2-1.11,1.34-2.8,2-5.09,2h-104.55Zm52.27-61.54c-5.42,0-10.35-1.41-14.81-4.23-4.46-2.82-8.01-6.63-10.64-11.44s-3.95-10.26-3.95-16.36c0-5.72,1.32-10.96,3.95-15.73s6.18-8.58,10.64-11.44,9.4-4.29,14.81-4.29,10.35,1.43,14.81,4.29,8.01,6.67,10.64,11.44,3.95,10.01,3.95,15.73c0,6.1-1.32,11.57-3.95,16.41-2.63,4.84-6.18,8.68-10.64,11.5-4.46,2.82-9.4,4.2-14.81,4.12Z"/></g><line class="cls-6" x1="382.79" y1="464.55" x2="457.6" y2="464.55"/><line class="cls-6" x1="503.56" y1="464.55" x2="641.21" y2="464.55"/><line class="cls-6" x1="551.32" y1="541.51" x2="641.21" y2="541.51"/><line class="cls-6" x1="382.79" y1="541.51" x2="512" y2="541.51"/><line class="cls-6" x1="382.79" y1="503.03" x2="641.21" y2="503.03"/></svg>