<svg width="1024" height="768" viewBox="0 0 1024 768" fill="none" xmlns="http://www.w3.org/2000/svg">
<g clip-path="url(#clip0_22_34)">
<rect width="1024" height="768" fill="#1E1E1E"/>
<path opacity="0.1" d="M134.711 127.784L156.262 125.22C175.067 122.984 186.24 133.173 188.825 154.91C191.505 177.439 183.197 190.134 164.252 192.388L142.701 194.951L134.711 127.784ZM149.287 137.615L154.564 181.975L161.08 181.199C172.717 179.815 177.193 172.202 175.354 156.748C173.594 141.947 167.254 135.478 155.804 136.84L149.287 137.615ZM234.869 169.354L246.879 167.925C246.888 177.129 238.581 184.679 226.665 186.096C211.723 187.874 202.162 180.514 200.429 165.945L199.449 157.706C197.849 144.254 206.1 134.256 220.065 132.595C233.656 130.978 243.424 138.88 245.062 152.658L245.904 159.733L212.809 163.67L213.141 166.462C213.939 173.165 218.788 177.026 225.444 176.234C230.564 175.625 234.337 172.816 234.869 169.354ZM221.006 142.491C214.396 143.277 210.965 148.17 211.84 155.524L232.647 153.049C231.772 145.695 227.429 141.727 221.006 142.491ZM265.926 113.356L278.4 111.872L280.205 127.046L299.336 124.771L300.548 134.964L281.65 137.212L284.568 161.743C285.028 165.606 288.034 167.467 292.922 166.886C294.132 166.742 303.017 165.638 303.57 165.525L304.766 175.579C304.265 175.733 294.129 177.033 293.105 177.155C279.141 178.816 273.262 175.03 271.844 163.114L268.943 138.724L255.584 140.313L254.372 130.119L267.731 128.53L265.926 113.356ZM336.482 172.75C326.8 173.902 319.542 168.44 318.44 159.177C317.338 149.914 323.44 143.665 335.995 141.275L347.916 139.102L347.428 135.005C346.897 130.537 343.515 128.296 338.255 128.921C333.833 129.447 330.761 131.795 330.072 135.135L317.691 136.607C317.514 127.187 325.225 120.181 337.42 118.73C350.593 117.163 358.741 122.566 360.076 133.784L364.217 168.601L352.115 170.041L351.301 163.198L350.184 163.331C348.246 168.471 343.185 171.953 336.482 172.75ZM339.645 162.036C345.975 161.283 350.014 156.743 349.333 151.018L348.89 147.294L339.094 149.073C333.18 150.154 330.426 152.794 330.897 156.751C331.351 160.568 334.711 162.623 339.645 162.036ZM395.638 102.175C390.425 102.795 386.552 99.9985 385.976 95.1576C385.4 90.3167 388.509 86.6897 393.722 86.0696C398.935 85.4495 402.855 88.2404 403.431 93.0813C404.007 97.9222 400.851 101.555 395.638 102.175ZM424.914 161.381L380.555 166.658L379.348 156.511L395.826 154.551L392.138 123.55L376.499 125.411L375.286 115.217L403.307 111.884L408.207 153.078L423.707 151.234L424.914 161.381ZM483.843 154.372L439.484 159.648L438.277 149.501L454.568 147.563L448.549 96.9666L433.096 98.8049L431.889 88.6576L460.096 85.3023L467.322 146.046L482.636 144.224L483.843 154.372ZM519.281 136.797L526.868 81.1361L540.088 79.5636L527.923 149.128L512.283 150.989L484.138 86.2189L498.428 84.5191L518.675 136.869L519.281 136.797ZM572.423 81.1459C567.21 81.766 563.337 78.9696 562.761 74.1287C562.185 69.2878 565.294 65.6608 570.507 65.0407C575.72 64.4206 579.64 67.2115 580.216 72.0524C580.792 76.8932 577.636 80.5258 572.423 81.1459ZM601.699 140.352L557.34 145.629L556.133 135.482L572.611 133.522L568.923 102.521L553.284 104.382L552.071 94.188L580.092 90.8549L584.992 132.049L600.492 130.205L601.699 140.352ZM647.368 120.286L659.377 118.858C659.386 128.062 651.079 135.611 639.163 137.029C624.221 138.806 614.66 131.447 612.927 116.877L611.947 108.639C610.347 95.1865 618.599 85.1887 632.563 83.5277C646.154 81.9109 655.922 89.8125 657.561 103.59L658.402 110.666L625.307 114.602L625.64 117.395C626.437 124.098 631.286 127.958 637.943 127.166C643.063 126.557 646.835 123.748 647.368 120.286ZM633.504 93.4233C626.894 94.2095 623.464 99.1021 624.339 106.456L645.145 103.982C644.27 96.6271 639.927 92.6592 633.504 93.4233ZM719.314 74.2942L715.134 126.859L704.056 128.177L693.023 94.5571L692.558 94.6125L689.72 129.882L678.641 131.2L662.247 81.0823L674.396 79.6372L682.649 115.287L684.278 115.093L685.543 78.5001L696.063 77.2488L705.876 112.524L707.505 112.33L707.119 75.7448L719.314 74.2942ZM738.605 90.032C736.545 72.7165 740.005 56.9632 748.578 44.8974L761.657 43.3415C753.414 59.7583 750.831 72.5749 752.708 88.3543C754.58 104.087 760.091 115.894 771.956 129.919L758.876 131.475C747.713 121.756 740.659 107.301 738.605 90.032ZM811.059 92.365L812.654 105.771L827.549 103.999L828.662 113.355L791.797 117.74L790.684 108.384L800.459 107.221L796.583 74.6384L785.877 75.9118L784.759 66.5094L807.753 63.7742L809.32 76.9469L811.321 76.7089C812.343 66.2493 817.088 61.2948 826.77 60.1431C829.655 59.7999 832.306 59.8622 834.205 60.3444L835.849 74.1688C833.417 73.5613 829.993 73.3548 827.107 73.6981C815.005 75.1377 809.747 81.3334 811.059 92.365ZM883.081 92.2477L895.09 90.8192C895.099 100.023 886.792 107.573 874.876 108.99C859.935 110.768 850.373 103.408 848.64 88.8388L847.66 80.6C846.06 67.148 854.312 57.1501 868.276 55.4891C881.868 53.8723 891.635 61.7739 893.274 75.5518L894.116 82.6269L861.021 86.5636L861.353 89.3564C862.15 96.0592 867 99.9197 873.656 99.1279C878.776 98.5188 882.549 95.7098 883.081 92.2477ZM869.217 65.3847C862.607 66.1709 859.177 71.0635 860.052 78.4179L880.858 75.943C879.983 68.5886 875.641 64.6206 869.217 65.3847ZM951.852 64.8073L939.378 66.2912C937.853 60.6191 934.077 58.236 928.538 58.8949C921.695 59.7088 918.534 65.2774 919.653 74.6799L920.062 78.1244C921.181 87.5268 925.56 92.1985 932.402 91.3846C937.988 90.7202 941.024 87.6683 941.255 82.0706L953.729 80.5867C954.068 92.9614 947.024 100.408 933.758 101.986C918.63 103.786 909.233 96.2177 907.378 80.6245L906.736 75.225C904.881 59.6318 912.241 50.0706 927.368 48.2711C940.634 46.6931 949.147 52.3837 951.852 64.8073ZM984.921 32.0784C979.708 32.6985 975.835 29.9021 975.259 25.0612C974.683 20.2203 977.792 16.5933 983.005 15.9732C988.219 15.3531 992.138 18.144 992.714 22.9849C993.29 27.8258 990.134 31.4583 984.921 32.0784ZM1014.2 91.2848L969.838 96.5614L968.631 86.4142L985.109 84.4541L981.422 53.4539L965.782 55.3143L964.569 45.1206L992.59 41.7874L997.491 82.9813L1012.99 81.1376L1014.2 91.2848ZM1049.98 34.1581C1061.76 32.7573 1069.66 40.0314 1071.32 53.9955L1072.37 62.8394C1074.04 76.85 1068.06 85.7741 1056.29 87.175C1048.89 88.0553 1043.36 85.2199 1040.9 79.2806L1039.97 79.3913L1043.04 105.178L1029.77 106.756L1021.64 38.3324L1034.72 36.7765L1035.77 45.6204L1036.74 45.5042C1037.82 39.0975 1042.49 35.0495 1049.98 34.1581ZM1046.41 45.8176C1039.8 46.6038 1036.31 51.3623 1037.15 58.4374L1038.16 66.9555C1039.01 74.0306 1043.52 77.8368 1050.13 77.0505C1056.69 76.2698 1060.22 71.4593 1059.39 64.4307L1058.38 55.9126C1057.54 48.8841 1052.98 45.0369 1046.41 45.8176ZM1118.79 64.2091L1130.8 62.7806C1130.81 71.9846 1122.51 79.5343 1110.59 80.9517C1095.65 82.7291 1086.09 75.3694 1084.35 60.8002L1083.37 52.5614C1081.77 39.1094 1090.03 29.1116 1103.99 27.4505C1117.58 25.8338 1127.35 33.7354 1128.99 47.5132L1129.83 54.5884L1096.73 58.5251L1097.07 61.3179C1097.86 68.0206 1102.71 71.8811 1109.37 71.0893C1114.49 70.4803 1118.26 67.6712 1118.79 64.2091ZM1104.93 37.3461C1098.32 38.1324 1094.89 43.025 1095.77 50.3794L1116.57 47.9044C1115.7 40.55 1111.35 36.5821 1104.93 37.3461ZM1164.23 38.6007C1158.6 39.2707 1153.42 35.0711 1152.74 29.2992C1152.05 23.5274 1156.1 18.2781 1161.73 17.6081C1167.36 16.9381 1172.53 21.0912 1173.22 26.863C1173.9 32.6348 1169.86 37.9308 1164.23 38.6007ZM1168.42 73.8367C1162.79 74.5067 1157.61 70.307 1156.93 64.5818C1156.24 58.7634 1160.29 53.514 1165.92 52.8441C1171.55 52.1741 1176.72 56.3272 1177.41 62.1456C1178.1 67.8708 1174.05 73.1667 1168.42 73.8367ZM1282.49 36.2879L1284.08 49.6934L1298.98 47.9216L1300.09 57.2775L1263.22 61.6627L1262.11 52.3068L1271.89 51.144L1268.01 18.5612L1257.3 19.8347L1256.19 10.4322L1279.18 7.69705L1280.75 20.8698L1282.75 20.6317C1283.77 10.1722 1288.51 5.21767 1298.2 4.06601C1301.08 3.72272 1303.73 3.78504 1305.63 4.2673L1307.28 18.0917C1304.84 17.4842 1301.42 17.2777 1298.53 17.621C1286.43 19.0606 1281.17 25.2563 1282.49 36.2879ZM1354.51 36.1706L1366.52 34.7421C1366.53 43.946 1358.22 51.4957 1346.3 52.9132C1331.36 54.6905 1321.8 47.3308 1320.07 32.7617L1319.09 24.5229C1317.49 11.0708 1325.74 1.07302 1339.7 -0.588036C1353.29 -2.20479 1363.06 5.69681 1364.7 19.4747L1365.54 26.5498L1332.45 30.4865L1332.78 33.2793C1333.58 39.9821 1338.43 43.8425 1345.08 43.0508C1350.2 42.4417 1353.98 39.6327 1354.51 36.1706ZM1340.64 9.30758C1334.03 10.0938 1330.6 14.9864 1331.48 22.3408L1352.28 19.8658C1351.41 12.5114 1347.07 8.5435 1340.64 9.30758ZM1423.28 8.73022L1410.8 10.2141C1409.28 4.54195 1405.5 2.15886 1399.96 2.81774C1393.12 3.63166 1389.96 9.2003 1391.08 18.6028L1391.49 22.0472C1392.61 31.4497 1396.99 36.1214 1403.83 35.3075C1409.41 34.643 1412.45 31.5912 1412.68 25.9935L1425.16 24.5096C1425.5 36.8843 1418.45 44.3311 1405.18 45.9091C1390.06 47.7085 1380.66 40.1405 1378.8 24.5473L1378.16 19.1479C1376.31 3.55471 1383.67 -6.00654 1398.79 -7.80601C1412.06 -9.38401 1420.57 -3.69347 1423.28 8.73022ZM1456.35 -23.9987C1451.13 -23.3786 1447.26 -26.1751 1446.69 -31.0159C1446.11 -35.8568 1449.22 -39.4838 1454.43 -40.1039C1459.65 -40.724 1463.56 -37.9331 1464.14 -33.0922C1464.72 -28.2514 1461.56 -24.6188 1456.35 -23.9987ZM1485.62 35.2077L1441.27 40.4843L1440.06 30.3371L1456.54 28.377L1452.85 -2.62319L1437.21 -0.762812L1436 -10.9566L1464.02 -14.2898L1468.92 26.9042L1484.42 25.0604L1485.62 35.2077ZM1521.41 -21.919C1533.18 -23.3199 1541.08 -16.0457 1542.74 -2.08165L1543.8 6.76226C1545.46 20.7729 1539.49 29.697 1527.71 31.0978C1520.31 31.9782 1514.78 29.1428 1512.33 23.2034L1511.4 23.3142L1514.47 49.1011L1501.2 50.6791L1493.06 -17.7447L1506.14 -19.3006L1507.19 -10.4567L1508.17 -10.573C1509.25 -16.9796 1513.91 -21.0276 1521.41 -21.919ZM1517.84 -10.2595C1511.23 -9.4733 1507.74 -4.71482 1508.58 2.36031L1509.59 10.8784C1510.43 17.9535 1514.94 21.7596 1521.55 20.9734C1528.12 20.1927 1531.65 15.3822 1530.82 8.35358L1529.8 -0.164494C1528.97 -7.19307 1524.4 -11.0402 1517.84 -10.2595ZM1590.22 8.13199L1602.23 6.70349C1602.24 15.9075 1593.93 23.4572 1582.02 24.8746C1567.07 26.6519 1557.51 19.2923 1555.78 4.7231L1554.8 -3.51569C1553.2 -16.9677 1561.45 -26.9655 1575.42 -28.6266C1589.01 -30.2434 1598.77 -22.3418 1600.41 -8.56388L1601.26 -1.48876L1568.16 2.44793L1568.49 5.24075C1569.29 11.9435 1574.14 15.804 1580.8 15.0122C1585.92 14.4032 1589.69 11.5941 1590.22 8.13199ZM1576.36 -18.731C1569.75 -17.9448 1566.32 -13.0522 1567.19 -5.69777L1588 -8.17273C1587.12 -15.5271 1582.78 -19.4951 1576.36 -18.731Z" fill="#00FA92"/>
<path opacity="0.1" d="M-14.708 529.036C-26.9106 526.798 -31.2963 518.145 -28.3302 501.978L-27.6084 498.043C-24.6198 481.753 -17.6297 474.997 -6.1648 477.1C4.68537 479.091 8.96618 486.929 6.47376 500.515L4.92304 508.968C3.97005 514.162 0.925193 516.559 -3.59315 515.73L-12.1995 514.151C-14.6277 513.705 -15.9159 511.722 -15.4422 509.14L-12.9893 495.769C-12.51 493.156 -10.7245 491.736 -8.5114 492.142C-6.29833 492.548 -5.16384 494.504 -5.64315 497.117L-8.10738 510.549L-3.86567 511.327C-1.43744 511.772 -0.30415 510.964 0.141329 508.535L1.56799 500.759C3.71643 489.048 1.0199 483.311 -7.09468 481.822C-15.6703 480.249 -20.1473 485.083 -22.6736 498.853L-23.2939 502.234C-25.8596 516.22 -23.0048 522.653 -13.5071 524.395C-10.71 524.909 -7.94315 525.067 -6.61217 524.739L-7.4411 529.257C-9.02926 529.601 -12.1261 529.51 -14.708 529.036ZM9.62733 514.152L17.8649 515.663C17.5596 519.579 20.2887 522.367 25.3296 523.292C30.1246 524.171 33.5905 522.424 34.2502 518.828C34.8028 515.816 33.1289 513.857 28.2045 511.778L23.7913 509.856C16.1016 506.571 12.9454 501.607 14.1522 495.029C15.6691 486.761 22.75 482.627 32.34 484.387C41.6225 486.09 46.9092 492.429 45.7309 500.41L37.4934 498.899C37.8264 495.179 35.4409 492.422 31.107 491.627C26.7116 490.82 23.5982 492.378 22.9892 495.698C22.414 498.833 24.0654 500.915 28.6687 502.84L33.026 504.719C41.252 508.198 44.2971 512.728 43.0509 519.521C41.4438 528.281 34.2035 532.418 23.8451 530.517C13.7941 528.673 8.41218 522.507 9.62733 514.152ZM63.7868 491.872L72.0243 493.383L70.186 503.403L82.8189 505.721L81.584 512.452L69.1048 510.163L66.133 526.361C65.665 528.912 67.2134 530.69 70.4408 531.282C71.24 531.428 77.1164 532.475 77.4909 532.512L76.2729 539.151C75.9235 539.15 69.2115 537.982 68.5353 537.858C59.3142 536.167 56.3152 532.598 57.7587 524.729L60.7136 508.623L51.892 507.005L53.127 500.273L61.9485 501.892L63.7868 491.872ZM97.0305 543.594C90.6372 542.421 87.0897 537.513 88.2118 531.397C89.334 525.28 94.4506 522.501 102.918 523.451L110.939 524.414L111.435 521.709C111.976 518.759 110.263 516.665 106.79 516.028C103.87 515.492 101.451 516.383 100.355 518.374L92.1787 516.874C93.9213 510.839 100.212 507.895 108.265 509.372C116.964 510.968 121.09 516.014 119.731 523.422L115.513 546.413L107.521 544.947L108.35 540.429L107.612 540.293C105.366 543.185 101.457 544.406 97.0305 543.594ZM101.155 537.393C105.335 538.16 108.801 536.063 109.495 532.283L109.946 529.824L103.357 529.028C99.3771 528.552 97.1029 529.692 96.6236 532.304C96.1612 534.825 97.8966 536.795 101.155 537.393ZM141.613 506.149L149.85 507.661L148.012 517.681L160.645 519.999L159.41 526.73L146.931 524.441L143.959 540.639C143.491 543.19 145.04 544.967 148.267 545.56C149.066 545.706 154.943 546.752 155.317 546.789L154.099 553.429C153.75 553.428 147.038 552.26 146.361 552.136C137.14 550.444 134.141 546.876 135.585 539.007L138.54 522.901L129.718 521.283L130.953 514.551L139.775 516.17L141.613 506.149ZM188.632 549.978L196.562 551.433C194.756 557.297 187.978 560.47 180.11 559.027C170.243 557.216 165.602 550.646 167.367 541.025L168.366 535.585C169.995 526.702 177.22 521.959 186.441 523.651C195.416 525.297 200.081 532.253 198.412 541.351L197.555 546.023L175.701 542.014L175.362 543.858C174.55 548.285 176.879 551.698 181.274 552.505C184.655 553.125 187.611 552.079 188.632 549.978ZM185.092 530.139C180.727 529.338 177.579 531.779 176.688 536.635L190.427 539.156C191.318 534.299 189.333 530.917 185.092 530.139ZM247.017 535.495L256.053 537.153L258.747 564.208L259.239 564.298L271.268 539.944L280.151 541.573L262.19 573.322L252.6 571.563L247.017 535.495ZM291.596 579.289C285.203 578.116 281.655 573.208 282.777 567.091C283.899 560.975 289.016 558.196 297.484 559.146L305.504 560.109L306 557.404C306.542 554.453 304.829 552.36 301.355 551.723C298.435 551.187 296.016 552.077 294.92 554.069L286.744 552.569C288.487 546.534 294.777 543.59 302.831 545.067C311.529 546.663 315.655 551.709 314.296 559.117L310.078 582.108L302.087 580.642L302.915 576.123L302.178 575.988C299.931 578.88 296.022 580.101 291.596 579.289ZM295.72 573.088C299.9 573.855 303.367 571.758 304.06 567.977L304.511 565.519L297.922 564.723C293.942 564.247 291.668 565.386 291.189 567.999C290.727 570.519 292.462 572.49 295.72 573.088ZM337.302 571.566L335.678 580.418L345.514 582.223L344.381 588.401L320.037 583.935L321.17 577.757L327.625 578.941L331.572 557.425L324.503 556.128L325.642 549.919L340.826 552.705L339.23 561.403L340.552 561.646C343.262 555.185 347.26 552.964 353.653 554.137C355.559 554.486 357.235 555.048 358.349 555.729L356.674 564.858C355.245 563.992 353.105 563.186 351.199 562.837C343.208 561.371 338.639 564.281 337.302 571.566ZM415.128 585.844L413.504 594.696L423.34 596.501L422.207 602.679L397.863 598.213L398.997 592.035L405.451 593.219L409.399 571.703L402.329 570.406L403.468 564.197L418.652 566.983L417.056 575.681L418.378 575.924C421.088 569.463 425.086 567.242 431.479 568.415C433.385 568.764 435.061 569.326 436.175 570.007L434.501 579.136C433.071 578.27 430.931 577.464 429.025 577.115C421.034 575.648 416.465 578.559 415.128 585.844ZM461.024 599.951L468.954 601.406C467.147 607.27 460.37 610.443 452.501 608.999C442.635 607.189 437.994 600.619 439.759 590.998L440.757 585.558C442.387 576.675 449.611 571.932 458.832 573.623C467.807 575.27 472.473 582.226 470.803 591.324L469.946 595.996L448.092 591.987L447.754 593.831C446.942 598.257 449.27 601.671 453.666 602.477C457.047 603.097 460.003 602.051 461.024 599.951ZM457.483 580.111C453.118 579.311 449.97 581.751 449.079 586.608L462.819 589.128C463.71 584.272 461.725 580.89 457.483 580.111ZM510.229 596.015L501.992 594.504C502.138 590.591 500.201 588.33 496.544 587.659C492.025 586.83 488.915 589.754 487.776 595.963L487.359 598.237C486.22 604.446 488.089 608.284 492.608 609.113C496.296 609.79 498.831 608.444 500.08 604.924L508.318 606.435C506.097 614.384 500.144 617.739 491.383 616.132C481.394 614.3 476.899 607.629 478.788 597.332L479.442 593.767C481.331 583.47 487.901 578.829 497.891 580.662C506.651 582.269 510.952 587.57 510.229 596.015ZM537.736 581.681C534.293 581.049 532.377 578.506 532.964 575.309C533.55 572.112 536.245 570.414 539.687 571.046C543.13 571.678 545.077 574.227 544.49 577.424C543.904 580.62 541.179 582.313 537.736 581.681ZM544.725 625.156L515.432 619.782L516.661 613.081L527.542 615.077L531.298 594.606L520.97 592.712L522.205 585.98L540.709 589.375L535.718 616.577L545.954 618.455L544.725 625.156ZM578.765 595.817C586.541 597.243 590.14 603.432 588.448 612.653L587.377 618.493C585.68 627.745 580.119 632.253 572.342 630.826C567.455 629.929 564.491 627.035 564.098 622.769L563.484 622.656L560.36 639.684L551.6 638.077L559.889 592.894L568.526 594.478L567.455 600.318L568.1 600.437C570.049 596.569 573.816 594.909 578.765 595.817ZM574.196 602.54C569.831 601.739 566.669 604.082 565.812 608.754L564.78 614.379C563.923 619.051 566.047 622.364 570.412 623.164C574.746 623.96 577.944 621.592 578.796 616.95L579.828 611.325C580.679 606.684 578.529 603.335 574.196 602.54ZM616.676 628.507L624.606 629.961C622.8 635.826 616.022 638.998 608.153 637.555C598.287 635.745 593.646 629.174 595.411 619.554L596.409 614.113C598.039 605.23 605.263 600.487 614.485 602.179C623.46 603.826 628.125 610.782 626.456 619.88L625.599 624.552L603.745 620.542L603.406 622.387C602.594 626.813 604.923 630.227 609.318 631.033C612.699 631.653 615.655 630.607 616.676 628.507ZM613.135 608.667C608.771 607.866 605.622 610.307 604.731 615.163L618.471 617.684C619.362 612.828 617.377 609.445 613.135 608.667ZM637.19 617.306C638.397 610.728 644.439 607.579 652.831 609.119C661.037 610.624 665.371 615.232 664.603 621.668L656.673 620.213C656.685 617.896 654.726 616.107 651.59 615.531C648.394 614.945 646.008 616 645.613 618.152C645.275 619.996 646.486 621.362 649.651 622.642L654.709 624.682C661.304 627.353 663.811 630.832 662.864 635.995C661.607 642.85 655.217 646.157 646.396 644.539C637.728 642.949 633.062 638.248 633.768 631.801L642.067 633.324C642.161 635.756 644.199 637.464 647.703 638.107C651.146 638.738 653.624 637.7 654.03 635.487C654.379 633.581 653.258 632.422 649.833 630.999L644.959 628.993C638.85 626.443 636.232 622.531 637.19 617.306ZM744.892 637.763L712.31 631.786L713.855 623.364L746.437 629.342L744.892 637.763ZM742.016 653.439L709.434 647.462L710.98 639.04L743.561 645.017L742.016 653.439ZM88.0929 565.815L107.365 569.351L106.124 576.113L95.2128 574.111L87.0758 618.465L98.2026 620.506L96.962 627.268L77.4747 623.693L88.0929 565.815ZM168.788 616.585L162.456 615.423L159.461 631.744L150.763 630.148L158.9 585.795L175.006 588.75C184.658 590.52 189.578 596.951 187.965 605.742C186.911 611.49 182.988 615.727 177.813 616.747L183.436 636.143L173.6 634.338L168.788 616.585ZM166.29 594.522L163.685 608.722L169.863 609.856C174.812 610.764 178.253 608.631 179.076 604.143C179.883 599.748 177.479 596.574 172.561 595.672L166.29 594.522ZM213.831 631.87L221.761 633.325C219.955 639.189 213.177 642.361 205.309 640.918C195.442 639.108 190.802 632.538 192.567 622.917L193.565 617.476C195.194 608.593 202.419 603.85 211.64 605.542C220.615 607.189 225.28 614.145 223.611 623.243L222.754 627.915L200.9 623.906L200.562 625.75C199.75 630.176 202.078 633.59 206.473 634.396C209.855 635.016 212.811 633.97 213.831 631.87ZM210.291 612.03C205.926 611.229 202.778 613.67 201.887 618.527L215.626 621.047C216.517 616.191 214.532 612.808 210.291 612.03ZM263.037 627.934L254.799 626.423C254.945 622.51 253.009 620.248 249.351 619.577C244.833 618.748 241.723 621.673 240.584 627.882L240.167 630.156C239.028 636.365 240.897 640.203 245.415 641.032C249.104 641.709 251.638 640.363 252.888 636.843L261.125 638.354C258.904 646.302 252.951 649.658 244.191 648.051C234.202 646.219 229.706 639.548 231.595 629.251L232.25 625.685C234.139 615.389 240.709 610.748 250.698 612.581C259.458 614.188 263.76 619.488 263.037 627.934ZM290.544 613.6C287.101 612.968 285.185 610.424 285.771 607.228C286.358 604.031 289.052 602.333 292.495 602.965C295.937 603.596 297.884 606.146 297.298 609.342C296.711 612.539 293.986 614.231 290.544 613.6ZM297.532 657.075L268.24 651.701L269.469 645L280.35 646.996L284.106 626.525L273.778 624.631L275.013 617.899L293.517 621.294L288.526 648.496L298.761 650.374L297.532 657.075ZM331.573 627.735C339.349 629.162 342.948 635.351 341.256 644.572L340.185 650.412C338.487 659.664 332.926 664.172 325.15 662.745C320.263 661.848 317.299 658.953 316.906 654.688L316.291 654.575L313.167 671.603L304.407 669.996L312.696 624.813L321.334 626.397L320.262 632.237L320.908 632.356C322.856 628.487 326.624 626.828 331.573 627.735ZM327.003 634.459C322.638 633.658 319.476 636.001 318.619 640.673L317.587 646.298C316.73 650.97 318.855 654.283 323.219 655.083C327.553 655.878 330.752 653.51 331.603 648.869L332.635 643.244C333.487 638.603 331.337 635.254 327.003 634.459ZM369.484 660.425L377.414 661.88C375.607 667.744 368.83 670.917 360.961 669.474C351.094 667.664 346.454 661.093 348.219 651.473L349.217 646.032C350.847 637.149 358.071 632.406 367.292 634.098C376.267 635.744 380.932 642.7 379.263 651.799L378.406 656.471L356.552 652.461L356.214 654.306C355.402 658.732 357.73 662.145 362.126 662.952C365.507 663.572 368.463 662.526 369.484 660.425ZM365.943 640.586C361.578 639.785 358.43 642.226 357.539 647.082L371.278 649.603C372.169 644.746 370.185 641.364 365.943 640.586ZM394.639 651.982C396.737 640.548 402.042 631.196 409.878 625.199L418.515 626.783C410.032 635.616 405.864 643.271 403.952 653.691C402.046 664.08 403.232 672.685 408.027 683.954L399.39 682.37C394.193 673.982 392.547 663.386 394.639 651.982ZM439.204 638.013L447.441 639.525L445.603 649.545L458.236 651.862L457.001 658.594L444.522 656.304L441.55 672.503C441.082 675.054 442.63 676.831 445.858 677.423C446.657 677.57 452.533 678.616 452.908 678.653L451.69 685.292C451.34 685.292 444.628 684.124 443.952 684C434.731 682.308 431.732 678.74 433.175 670.871L436.13 654.765L427.309 653.147L428.544 646.415L437.365 648.034L439.204 638.013ZM485.109 649.294C481.666 648.663 479.75 646.119 480.337 642.923C480.923 639.726 483.617 638.028 487.06 638.659C490.503 639.291 492.449 641.84 491.863 645.037C491.277 648.234 488.551 649.926 485.109 649.294ZM492.098 692.769L462.805 687.395L464.034 680.695L474.915 682.691L478.671 662.22L468.343 660.325L469.578 653.594L488.082 656.989L483.091 684.191L493.327 686.069L492.098 692.769ZM517.03 652.291L525.267 653.802L523.429 663.823L536.062 666.14L534.827 672.872L522.348 670.582L519.376 686.781C518.908 689.332 520.456 691.109 523.684 691.701C524.483 691.848 530.359 692.894 530.734 692.931L529.516 699.57C529.166 699.57 522.454 698.402 521.778 698.278C512.557 696.586 509.558 693.018 511.002 685.149L513.956 669.043L505.135 667.424L506.37 660.693L515.191 662.311L517.03 652.291ZM569.924 707.047L540.631 701.673L541.861 694.972L552.619 696.946L558.748 663.535L548.543 661.663L549.773 654.962L568.399 658.379L561.04 698.491L571.153 700.346L569.924 707.047ZM602.962 703.259L610.892 704.714C609.086 710.578 602.308 713.751 594.439 712.307C584.573 710.497 579.932 703.927 581.697 694.306L582.695 688.866C584.325 679.983 591.549 675.24 600.771 676.931C609.746 678.578 614.411 685.534 612.742 694.632L611.885 699.304L590.031 695.295L589.692 697.139C588.88 701.565 591.209 704.979 595.604 705.785C598.985 706.406 601.941 705.359 602.962 703.259ZM599.421 683.42C595.057 682.619 591.908 685.059 591.017 689.916L604.757 692.437C605.648 687.58 603.663 684.198 599.421 683.42ZM636.942 695.895C633.223 695.213 630.755 691.519 631.455 687.708C632.154 683.896 635.766 681.35 639.486 682.032C643.205 682.715 645.678 686.377 644.979 690.189C644.28 694 640.662 696.577 636.942 695.895ZM632.674 719.163C628.955 718.48 626.487 714.787 627.18 711.006C627.885 707.164 631.498 704.618 635.217 705.3C638.936 705.983 641.41 709.645 640.705 713.488C640.011 717.268 636.393 719.845 632.674 719.163ZM155.074 691.337L148.742 690.175L145.747 706.497L137.049 704.901L145.186 660.547L161.292 663.502C170.944 665.273 175.864 671.704 174.251 680.495C173.197 686.242 169.274 690.479 164.099 691.499L169.722 710.895L159.887 709.091L155.074 691.337ZM152.576 669.274L149.971 683.475L156.149 684.608C161.098 685.516 164.539 683.383 165.363 678.896C166.169 674.5 163.765 671.327 158.847 670.425L152.576 669.274ZM200.117 706.622L208.048 708.077C206.241 713.941 199.463 717.114 191.595 715.67C181.728 713.86 177.088 707.29 178.853 697.669L179.851 692.229C181.48 683.346 188.705 678.603 197.926 680.295C206.901 681.941 211.566 688.897 209.897 697.995L209.04 702.667L187.186 698.658L186.848 700.502C186.036 704.928 188.364 708.342 192.759 709.148C196.141 709.769 199.097 708.722 200.117 706.622ZM196.577 686.783C192.212 685.982 189.064 688.423 188.173 693.279L201.912 695.8C202.803 690.943 200.818 687.561 196.577 686.783ZM249.323 702.687L241.085 701.175C241.231 697.262 239.295 695.001 235.637 694.33C231.119 693.501 228.009 696.425 226.87 702.634L226.453 704.909C225.314 711.118 227.183 714.955 231.701 715.784C235.39 716.461 237.924 715.115 239.174 711.595L247.411 713.106C245.19 721.055 239.237 724.411 230.477 722.804C220.488 720.971 215.992 714.3 217.882 704.003L218.536 700.438C220.425 690.141 226.995 685.5 236.984 687.333C245.744 688.94 250.046 694.241 249.323 702.687ZM276.83 688.352C273.387 687.721 271.471 685.177 272.057 681.98C272.644 678.784 275.338 677.086 278.781 677.717C282.223 678.349 284.17 680.898 283.584 684.095C282.997 687.292 280.272 688.984 276.83 688.352ZM283.818 731.827L254.526 726.453L255.755 719.752L266.636 721.749L270.392 701.278L260.064 699.383L261.299 692.652L279.803 696.046L274.812 723.249L285.047 725.126L283.818 731.827ZM317.859 702.488C325.635 703.915 329.234 710.103 327.542 719.324L326.471 725.164C324.773 734.416 319.212 738.924 311.436 737.497C306.549 736.601 303.585 733.706 303.192 729.44L302.577 729.327L299.453 746.356L290.693 744.748L298.982 699.565L307.62 701.15L306.548 706.99L307.194 707.108C309.142 703.24 312.91 701.58 317.859 702.488ZM313.289 709.211C308.925 708.41 305.762 710.753 304.905 715.425L303.873 721.05C303.016 725.722 305.141 729.035 309.505 729.836C313.839 730.631 317.038 728.263 317.889 723.622L318.921 717.997C319.773 713.355 317.623 710.006 313.289 709.211ZM355.77 735.178L363.7 736.633C361.893 742.497 355.116 745.67 347.247 744.226C337.38 742.416 332.74 735.846 334.505 726.225L335.503 720.785C337.133 711.902 344.357 707.159 353.578 708.85C362.553 710.497 367.219 717.453 365.549 726.551L364.692 731.223L342.838 727.214L342.5 729.058C341.688 733.484 344.016 736.898 348.412 737.704C351.793 738.324 354.749 737.278 355.77 735.178ZM352.229 715.338C347.864 714.538 344.716 716.978 343.825 721.835L357.564 724.355C358.455 719.499 356.471 716.117 352.229 715.338ZM380.925 726.735C383.023 715.301 388.329 705.948 396.164 699.951L404.801 701.536C396.318 710.369 392.15 718.024 390.238 728.443C388.332 738.832 389.518 747.438 394.313 758.707L385.676 757.122C380.479 748.734 378.833 738.138 380.925 726.735ZM425.49 712.766L433.727 714.277L431.889 724.297L444.522 726.615L443.287 733.346L430.808 731.057L427.836 747.255C427.368 749.806 428.916 751.584 432.144 752.176C432.943 752.323 438.819 753.369 439.194 753.406L437.976 760.045C437.626 760.044 430.914 758.877 430.238 758.753C421.017 757.061 418.018 753.492 419.462 745.624L422.416 729.517L413.595 727.899L414.83 721.168L423.651 722.786L425.49 712.766ZM471.395 724.047C467.952 723.415 466.036 720.872 466.623 717.675C467.209 714.478 469.904 712.78 473.346 713.412C476.789 714.043 478.736 716.593 478.149 719.79C477.563 722.986 474.838 724.678 471.395 724.047ZM478.384 767.522L449.091 762.148L450.32 755.447L461.201 757.443L464.957 736.972L454.629 735.078L455.864 728.346L474.368 731.741L469.377 758.943L479.613 760.821L478.384 767.522ZM503.316 727.044L511.553 728.555L509.715 738.575L522.348 740.893L521.113 747.624L508.634 745.335L505.662 761.533C505.194 764.084 506.742 765.862 509.97 766.454C510.769 766.6 516.645 767.647 517.02 767.684L515.802 774.323C515.452 774.322 508.74 773.154 508.064 773.03C498.843 771.339 495.844 767.77 497.288 759.902L500.242 743.795L491.421 742.177L492.656 735.446L501.477 737.064L503.316 727.044ZM556.21 781.8L526.917 776.426L528.147 769.725L538.905 771.699L545.034 738.287L534.829 736.415L536.059 729.715L554.685 733.132L547.327 773.244L557.439 775.099L556.21 781.8ZM141.36 766.089L135.028 764.928L132.034 781.249L123.335 779.653L131.472 735.3L147.578 738.255C157.23 740.025 162.15 746.456 160.537 755.247C159.483 760.995 155.56 765.232 150.385 766.252L156.008 785.648L146.173 783.843L141.36 766.089ZM138.862 744.027L136.257 758.227L142.435 759.361C147.384 760.268 150.825 758.136 151.649 753.648C152.455 749.253 150.051 746.079 145.133 745.177L138.862 744.027ZM186.403 781.375L194.334 782.829C192.527 788.693 185.749 791.866 177.881 790.423C168.014 788.613 163.374 782.042 165.139 772.422L166.137 766.981C167.766 758.098 174.991 753.355 184.212 755.047C193.187 756.694 197.852 763.65 196.183 772.748L195.326 777.42L173.472 773.41L173.134 775.255C172.322 779.681 174.65 783.095 179.045 783.901C182.427 784.521 185.383 783.475 186.403 781.375ZM182.863 761.535C178.498 760.734 175.35 763.175 174.459 768.031L188.198 770.552C189.089 765.696 187.104 762.313 182.863 761.535ZM235.609 777.439L227.371 775.928C227.517 772.015 225.581 769.753 221.923 769.082C217.405 768.253 214.295 771.178 213.156 777.387L212.739 779.661C211.6 785.87 213.469 789.708 217.987 790.537C221.676 791.213 224.21 789.867 225.46 786.348L233.697 787.859C231.476 795.807 225.523 799.163 216.763 797.556C206.774 795.723 202.278 789.053 204.168 778.756L204.822 775.19C206.711 764.893 213.281 760.253 223.27 762.086C232.031 763.693 236.332 768.993 235.609 777.439ZM263.116 763.105C259.673 762.473 257.757 759.929 258.343 756.733C258.93 753.536 261.624 751.838 265.067 752.47C268.509 753.101 270.456 755.651 269.87 758.847C269.283 762.044 266.558 763.736 263.116 763.105ZM270.104 806.579L240.812 801.205L242.041 794.505L252.922 796.501L256.678 776.03L246.35 774.135L247.585 767.404L266.089 770.799L261.098 798.001L271.334 799.879L270.104 806.579ZM304.145 777.24C311.921 778.667 315.52 784.855 313.828 794.077L312.757 799.917C311.059 809.168 305.498 813.676 297.722 812.25C292.835 811.353 289.871 808.458 289.478 804.192L288.863 804.08L285.739 821.108L276.979 819.501L285.268 774.317L293.906 775.902L292.834 781.742L293.48 781.86C295.428 777.992 299.196 776.332 304.145 777.24ZM299.575 783.964C295.211 783.163 292.048 785.506 291.191 790.178L290.159 795.803C289.302 800.475 291.427 803.787 295.791 804.588C300.125 805.383 303.324 803.015 304.175 798.374L305.207 792.749C306.059 788.108 303.909 784.759 299.575 783.964ZM342.056 809.93L349.986 811.385C348.179 817.249 341.402 820.422 333.533 818.979C323.666 817.168 319.026 810.598 320.791 800.977L321.789 795.537C323.419 786.654 330.643 781.911 339.864 783.603C348.839 785.249 353.505 792.205 351.835 801.303L350.978 805.975L329.124 801.966L328.786 803.81C327.974 808.237 330.302 811.65 334.698 812.457C338.079 813.077 341.035 812.031 342.056 809.93ZM338.515 790.091C334.15 789.29 331.002 791.731 330.111 796.587L343.851 799.108C344.741 794.251 342.757 790.869 338.515 790.091ZM406.124 808.626C408.222 797.192 413.528 787.84 421.363 781.843L430 783.427C421.517 792.26 417.349 799.915 415.437 810.335C413.531 820.724 414.717 829.329 419.512 840.598L410.875 839.013C405.678 830.626 404.032 820.03 406.124 808.626ZM450.689 794.657L458.926 796.168L457.088 806.189L469.721 808.506L468.486 815.238L456.007 812.948L453.035 829.147C452.567 831.698 454.115 833.475 457.343 834.067C458.142 834.214 464.018 835.26 464.393 835.297L463.175 841.936C462.825 841.936 456.113 840.768 455.437 840.644C446.216 838.952 443.217 835.384 444.661 827.515L447.615 811.409L438.794 809.79L440.029 803.059L448.85 804.677L450.689 794.657ZM496.594 805.938C493.152 805.307 491.235 802.763 491.822 799.566C492.408 796.37 495.103 794.672 498.545 795.303C501.988 795.935 503.935 798.484 503.348 801.681C502.762 804.878 500.037 806.57 496.594 805.938ZM503.583 849.413L474.29 844.039L475.52 837.338L486.4 839.335L490.156 818.864L479.828 816.969L481.063 810.238L499.567 813.632L494.577 840.835L504.812 842.712L503.583 849.413ZM528.515 808.935L536.752 810.446L534.914 820.467L547.547 822.784L546.312 829.516L533.833 827.226L530.861 843.425C530.393 845.976 531.941 847.753 535.169 848.345C535.968 848.492 541.844 849.538 542.219 849.575L541.001 856.214C540.652 856.214 533.94 855.046 533.263 854.922C524.042 853.23 521.043 849.662 522.487 841.793L525.442 825.687L516.62 824.068L517.855 817.337L526.677 818.955L528.515 808.935Z" fill="#00FA92"/>
<path opacity="0.6" d="M323.571 290.125C323.571 253.5 396.696 228.25 498.696 228.25C530.571 228.25 559.571 230.75 584.321 235.125L673.821 166.625C730.071 123.375 777.571 199 734.071 230.5L670.446 276.5C672.821 280.75 674.071 285.375 674.071 290.125C674.071 365.75 603.696 416 498.696 416C394.071 416 323.571 365.625 323.571 290.125ZM701.446 193.625L627.946 246.625C632.071 248.125 635.821 249.75 639.446 251.375L708.821 201.5C714.571 197.5 708.196 188.75 701.446 193.625ZM361.696 290.125C361.696 296.5 389.321 303.625 423.821 308.375C432.071 297 446.571 289.625 462.321 289.625C466.071 289.625 469.321 290 472.571 290.5C483.071 279.625 498.446 273.25 514.446 273.25C539.571 273.25 559.946 287.875 566.571 309.375C604.321 304.625 635.821 296.875 635.821 290.125C635.821 279 555.446 264.75 498.696 264.75C442.071 264.75 361.696 279 361.696 290.125ZM377.946 334.375C400.071 362.375 444.446 377.75 498.696 377.75C558.321 377.75 606.071 359.5 624.446 331.625C589.821 344.875 543.446 352.125 498.696 352.125C454.821 352.125 409.321 345.125 377.946 334.375Z" fill="#00FA92"/>
<path opacity="0.6" d="M370.946 512.75C356.821 512.75 345.071 501 345.071 486.75C345.071 472.625 356.821 460.875 370.946 460.875C385.196 460.875 396.946 472.625 396.946 486.75C396.946 501 385.196 512.75 370.946 512.75ZM444.071 506.75C432.821 506.75 424.071 497.875 424.071 486.75C424.071 475.5 432.946 466.75 444.071 466.75H609.571C620.821 466.75 629.571 475.75 629.571 486.75C629.571 498 620.696 506.75 609.571 506.75H444.071ZM370.946 594.875C356.821 594.875 345.071 583.125 345.071 568.875C345.071 554.625 356.821 543 370.946 543C385.196 543 396.946 554.625 396.946 568.875C396.946 583.125 385.196 594.875 370.946 594.875ZM444.071 588.875C432.821 588.875 424.071 580 424.071 568.875C424.071 557.625 432.946 548.875 444.071 548.875H609.571C620.821 548.875 629.571 557.75 629.571 568.875C629.571 580.125 620.696 588.875 609.571 588.875H444.071ZM370.946 676.875C356.821 676.875 345.071 665.25 345.071 651C345.071 636.75 356.821 625.125 370.946 625.125C385.196 625.125 396.946 636.75 396.946 651C396.946 665.25 385.196 676.875 370.946 676.875ZM444.071 671C432.821 671 424.071 662.125 424.071 651C424.071 639.75 432.946 631 444.071 631H609.571C620.821 631 629.571 639.875 629.571 651C629.571 662.25 620.696 671 609.571 671H444.071Z" fill="#00FA92"/>
</g>
<defs>
<clipPath id="clip0_22_34">
<rect width="1024" height="768" fill="white"/>
</clipPath>
</defs>
</svg>
