<?xml version="1.0" encoding="UTF-8"?><svg id="Layer_1" xmlns="http://www.w3.org/2000/svg" xmlns:xlink="http://www.w3.org/1999/xlink" viewBox="0 0 1024 768"><defs><style>.cls-1{fill:none;}.cls-1,.cls-2{stroke:#72f49b;stroke-miterlimit:10;stroke-width:14px;}.cls-3{filter:url(#outer-glow-11);}.cls-4{clip-path:url(#clippath);}.cls-5{opacity:.07;}.cls-6{fill:#fff;}.cls-7{fill:#72f49b;}.cls-8,.cls-2{fill:#1e1e1e;}</style><filter id="outer-glow-11" filterUnits="userSpaceOnUse"><feOffset dx="0" dy="0"/><feGaussianBlur result="blur" stdDeviation="8"/><feFlood flood-color="#72f49b" flood-opacity=".75"/><feComposite in2="blur" operator="in"/><feComposite in="SourceGraphic"/></filter><clipPath id="clippath"><circle class="cls-2" cx="512" cy="384" r="161.7"/></clipPath></defs><rect class="cls-8" width="1024" height="768"/><g class="cls-5"><rect class="cls-6" x="59.19" y="51.51" width="170" height="170" rx="31.89" ry="31.89"/><rect class="cls-6" x="294.61" y="299" width="170" height="170" rx="31.89" ry="31.89"/><rect class="cls-6" x="533.86" y="545.7" width="170" height="170" rx="31.89" ry="31.89"/><circle class="cls-6" cx="379.61" cy="136.51" r="85"/><circle class="cls-6" cx="618.86" cy="384" r="85"/><circle class="cls-6" cx="869.44" cy="630.7" r="85"/><path class="cls-6" d="m628.33,57.4l19.27,39.05c1.54,3.12,4.51,5.28,7.95,5.78l43.09,6.26c8.66,1.26,12.12,11.9,5.85,18.01l-31.18,30.39c-2.49,2.43-3.62,5.92-3.04,9.35l7.36,42.92c1.48,8.63-7.57,15.2-15.32,11.13l-38.54-20.26c-3.08-1.62-6.75-1.62-9.83,0l-38.54,20.26c-7.75,4.07-16.8-2.51-15.32-11.13l7.36-42.92c.59-3.43-.55-6.92-3.04-9.35l-31.18-30.39c-6.27-6.11-2.81-16.75,5.85-18.01l43.09-6.26c3.44-.5,6.41-2.66,7.95-5.78l19.27-39.05c3.87-7.85,15.06-7.85,18.94,0Z"/><path class="cls-6" d="m153.66,551.59l19.27,39.05c1.54,3.12,4.51,5.28,7.95,5.78l43.09,6.26c8.66,1.26,12.12,11.9,5.85,18.01l-31.18,30.39c-2.49,2.43-3.62,5.92-3.04,9.35l7.36,42.92c1.48,8.63-7.57,15.2-15.32,11.13l-38.54-20.26c-3.08-1.62-6.75-1.62-9.83,0l-38.54,20.26c-7.75,4.07-16.8-2.51-15.32-11.13l7.36-42.92c.59-3.43-.55-6.92-3.04-9.35l-31.18-30.39c-6.27-6.11-2.81-16.75,5.85-18.01l43.09-6.26c3.44-.5,6.41-2.66,7.95-5.78l19.27-39.05c3.87-7.85,15.06-7.85,18.94,0Z"/><path class="cls-6" d="m878.91,304.89l19.27,39.05c1.54,3.12,4.51,5.28,7.95,5.78l43.09,6.26c8.66,1.26,12.12,11.9,5.85,18.01l-31.18,30.39c-2.49,2.43-3.62,5.92-3.04,9.35l7.36,42.92c1.48,8.63-7.57,15.2-15.32,11.13l-38.54-20.26c-3.08-1.62-6.75-1.62-9.83,0l-38.54,20.26c-7.75,4.07-16.8-2.51-15.32-11.13l7.36-42.92c.59-3.43-.55-6.92-3.04-9.35l-31.18-30.39c-6.27-6.11-2.81-16.75,5.85-18.01l43.09-6.26c3.44-.5,6.41-2.66,7.95-5.78l19.27-39.05c3.87-7.85,15.06-7.85,18.94,0Z"/><path class="cls-6" d="m859.13,57.47c4.58-7.94,16.04-7.94,20.62,0l42.2,73.09,42.2,73.09c4.58,7.94-1.15,17.86-10.31,17.86h-168.8c-9.17,0-14.89-9.92-10.31-17.86l42.2-73.09,42.2-73.09Z"/><path class="cls-6" d="m369.3,551.65c4.58-7.94,16.04-7.94,20.62,0l42.2,73.09,42.2,73.09c4.58,7.94-1.15,17.86-10.31,17.86h-168.8c-9.17,0-14.89-9.92-10.31-17.86l42.2-73.09,42.2-73.09Z"/><path class="cls-6" d="m133.88,304.95c4.58-7.94,16.04-7.94,20.62,0l42.2,73.09,42.2,73.09c4.58,7.94-1.15,17.86-10.31,17.86H59.79c-9.17,0-14.89-9.92-10.31-17.86l42.2-73.09,42.2-73.09Z"/></g><g class="cls-3"><circle class="cls-8" cx="512" cy="384" r="161.7"/><g class="cls-4"><path class="cls-7" d="m418.93,450.58h186.13v110.15c0,19.16-15.55,34.71-34.71,34.71h-116.72c-19.16,0-34.71-15.55-34.71-34.71v-110.15h0Z" transform="translate(1024 1046.02) rotate(180)"/><circle class="cls-7" cx="512" cy="367.29" r="56.12"/></g><circle class="cls-1" cx="512" cy="384" r="161.7"/></g></svg>