<?xml version="1.0" encoding="UTF-8"?><svg id="Layer_1" xmlns="http://www.w3.org/2000/svg" xmlns:xlink="http://www.w3.org/1999/xlink" viewBox="0 0 1024 768"><defs><style>.cls-1{opacity:.07;}.cls-2{fill:none;stroke:#fff;stroke-width:18.67px;}.cls-2,.cls-3{stroke-miterlimit:10;}.cls-4{fill:#72f49b;}.cls-5,.cls-3{fill:#1e1e1e;}.cls-3{stroke:#72f49b;stroke-width:20px;}.cls-6{filter:url(#outer-glow-4);}.cls-7{filter:url(#outer-glow-3);}</style><filter id="outer-glow-3" filterUnits="userSpaceOnUse"><feOffset dx="0" dy="0"/><feGaussianBlur result="blur" stdDeviation="8"/><feFlood flood-color="#72f49b" flood-opacity=".75"/><feComposite in2="blur" operator="in"/><feComposite in="SourceGraphic"/></filter><filter id="outer-glow-4" filterUnits="userSpaceOnUse"><feOffset dx="0" dy="0"/><feGaussianBlur result="blur-2" stdDeviation="8"/><feFlood flood-color="#72f49b" flood-opacity=".75"/><feComposite in2="blur-2" operator="in"/><feComposite in="SourceGraphic"/></filter></defs><rect class="cls-5" width="1024" height="768"/><g class="cls-1"><rect class="cls-2" x="65.23" y="206.55" width="85.96" height="212.92" rx="25.66" ry="25.66"/><rect class="cls-2" x="386.74" y="348.53" width="85.96" height="212.92" rx="25.66" ry="25.66"/><circle class="cls-2" cx="108.21" cy="660.45" r="42.98"/><circle class="cls-2" cx="108.21" cy="107.55" r="42.98"/><rect class="cls-2" x="65.23" y="475.49" width="85.96" height="85.96" rx="20.81" ry="20.81"/><circle class="cls-2" cx="429.72" cy="249.53" r="42.98"/><rect class="cls-2" x="386.74" y="64.57" width="85.96" height="85.96" rx="20.81" ry="20.81"/><rect class="cls-2" x="229.29" y="64.57" width="85.96" height="212.92" rx="25.66" ry="25.66"/><circle class="cls-2" cx="272.27" cy="518.47" r="42.98"/><circle class="cls-2" cx="429.72" cy="660.45" r="42.98"/><rect class="cls-2" x="229.29" y="333.51" width="85.96" height="85.96" rx="20.81" ry="20.81"/><rect class="cls-2" x="229.29" y="617.47" width="85.96" height="85.96" rx="20.81" ry="20.81"/><rect class="cls-2" x="551.3" y="206.55" width="85.96" height="212.92" rx="25.66" ry="25.66"/><rect class="cls-2" x="872.81" y="348.53" width="85.96" height="212.92" rx="25.66" ry="25.66"/><circle class="cls-2" cx="594.28" cy="660.45" r="42.98"/><circle class="cls-2" cx="594.28" cy="107.55" r="42.98"/><rect class="cls-2" x="551.3" y="475.49" width="85.96" height="85.96" rx="20.81" ry="20.81"/><circle class="cls-2" cx="915.79" cy="249.53" r="42.98"/><rect class="cls-2" x="872.81" y="64.57" width="85.96" height="85.96" rx="20.81" ry="20.81"/><rect class="cls-2" x="715.36" y="64.57" width="85.96" height="212.92" rx="25.66" ry="25.66"/><circle class="cls-2" cx="758.34" cy="518.47" r="42.98"/><circle class="cls-2" cx="915.79" cy="660.45" r="42.98"/><rect class="cls-2" x="715.36" y="333.51" width="85.96" height="85.96" rx="20.81" ry="20.81"/><rect class="cls-2" x="715.36" y="617.47" width="85.96" height="85.96" rx="20.81" ry="20.81"/></g><g class="cls-7"><path class="cls-4" d="m743.3,237.9c19.23,0,33.47,4.59,42.7,13.77,9.24,9.18,13.85,23.28,13.85,42.29v39.93c0,13.04,2.61,22.08,7.82,27.13,3.19,3.09,7.9,5.24,14.11,6.44,7.86,1.52,13.6,8.32,13.6,16.33v.18c0,8.24-5.9,15.17-13.98,16.8-6.02,1.21-10.6,3.33-13.73,6.37-5.21,5.05-7.82,14.1-7.82,27.13v39.76c0,19.01-4.53,33.11-13.61,42.29-9.07,9.18-23.39,13.77-42.94,13.77h-2.15c-3.76,0-6.81-3.05-6.81-6.81v-9.65c0-3.6,2.92-6.52,6.52-6.52h0c11.52,0,19.78-2.85,24.77-8.56,5-5.7,7.5-15.07,7.5-28.11v-46.28c0-11.73,2.96-20.73,8.88-26.97,5.6-5.91,13.88-9.55,24.86-10.94,1.11-.14,1.94-1.06,1.94-2.18h0c0-1.11-.84-2.04-1.94-2.18-10.98-1.39-19.27-5.04-24.86-10.94-5.92-6.25-8.88-15.24-8.88-26.97v-46.45c0-13.04-2.5-22.41-7.5-28.11-5-5.7-13.25-8.56-24.77-8.56h0c-3.6,0-6.52-2.92-6.52-6.52v-9.56c0-3.81,3.09-6.9,6.9-6.9h2.07Z"/></g><g class="cls-6"><path class="cls-4" d="m282.77,237.9c3.81,0,6.9,3.09,6.9,6.9v9.56c0,3.6-2.92,6.52-6.52,6.52h0c-11.52,0-19.78,2.85-24.77,8.56-5,5.7-7.5,15.08-7.5,28.11v46.45c0,11.73-2.96,20.72-8.88,26.97-5.6,5.9-13.88,9.55-24.86,10.94-1.11.14-1.94,1.06-1.94,2.18h0c0,1.11.84,2.04,1.94,2.18,10.98,1.39,19.27,5.04,24.86,10.94,5.92,6.25,8.88,15.24,8.88,26.97v46.28c0,13.04,2.5,22.41,7.5,28.11,5,5.7,13.25,8.56,24.77,8.56h0c3.6,0,6.52,2.92,6.52,6.52v9.65c0,3.76-3.05,6.81-6.81,6.81h-2.15c-19.56,0-33.87-4.59-42.94-13.77-9.07-9.18-13.61-23.28-13.61-42.29v-39.76c0-13.04-2.61-22.08-7.82-27.13-3.13-3.03-7.71-5.15-13.73-6.37-8.07-1.63-13.98-8.56-13.98-16.8v-.18c0-8.01,5.73-14.82,13.6-16.33,6.21-1.2,10.91-3.35,14.11-6.44,5.21-5.05,7.82-14.1,7.82-27.13v-39.93c0-19.01,4.62-33.11,13.85-42.29,9.23-9.18,23.47-13.77,42.7-13.77h2.07Z"/></g><rect class="cls-3" x="328.27" y="277.02" width="92.07" height="228.06" rx="27.48" ry="27.48"/><circle class="cls-3" cx="512" cy="459.04" r="46.03"/><circle class="cls-3" cx="646.6" cy="323.06" r="46.03"/><rect class="cls-3" x="465.97" y="277.02" width="92.07" height="92.07" rx="22.29" ry="22.29"/><rect class="cls-3" x="600.57" y="413.01" width="92.07" height="92.07" rx="22.29" ry="22.29"/></svg>