<?xml version="1.0" encoding="UTF-8"?><svg id="Layer_1" xmlns="http://www.w3.org/2000/svg" xmlns:xlink="http://www.w3.org/1999/xlink" viewBox="0 0 1024 768"><defs><style>.cls-1{filter:url(#outer-glow-12);}.cls-2{opacity:.07;}.cls-3{fill:#fff;}.cls-4{fill:#72f49b;}.cls-5{fill:#1e1e1e;}</style><filter id="outer-glow-12" filterUnits="userSpaceOnUse"><feOffset dx="0" dy="0"/><feGaussianBlur result="blur" stdDeviation="8"/><feFlood flood-color="#72f49b" flood-opacity=".75"/><feComposite in2="blur" operator="in"/><feComposite in="SourceGraphic"/></filter></defs><rect class="cls-5" width="1024" height="768"/><g class="cls-2"><path class="cls-3" d="m77.37,118.87c2.35-.84,4.5-1.61,6.93-2.48-1.15-3.98-2.54-7.72-3.27-11.58-.72-3.77-1.35-7.72-.99-11.49.92-9.64,11.31-14.72,19.1-8.98,4.29,3.16,7.99,7.7,10.66,12.36,7.33,12.83,12.37,26.64,14.6,41.32.48,3.19.42,6.61-.17,9.79-1.5,8.14-9.12,11.34-16.13,6.92-6.28-3.96-9.96-10.16-13.54-16.41-.4-.69-.78-1.39-1.24-2.22-2.54.91-4.95,1.77-7.73,2.76,1.18,4.46,2.51,8.91,3.5,13.44.57,2.61.88,5.36.76,8.03-.4,8.75-8.87,13.96-16.61,9.85-3.71-1.97-7.25-5.02-9.73-8.41-9.78-13.35-16.31-28.25-19.2-44.6-.5-2.84-.41-5.88-.07-8.76.59-4.87,3.06-8.61,7.83-10.44,4.79-1.84,9.49-.91,12.68,2.71,4.29,4.88,7.71,10.53,11.48,15.87.46.65.73,1.42,1.16,2.31Z"/><path class="cls-3" d="m125.4,116.63c-.36-1-.65-2.02-1.08-2.98-6.26-13.96-2-26.96,4.26-39.4,4.22-8.38,12.07-10.8,20.67-6.7,5.43,2.59,10.64,6.08,15.16,10.05,10.86,9.56,19.39,21.01,25.12,34.41.42.97.83,1.95,1.14,2.96,1.5,4.79,1.53,9.34-2.65,12.91-3.93,3.36-9.62,3.71-14.52.9-1.61-.92-3.28-2-4.43-3.41-1.74-2.12-3.25-2.17-5.69-1.07-3.71,1.68-7.67,2.87-11.6,4.01-1.95.57-2.87,1.36-3.07,3.52-.45,4.82-2.08,9.24-6.31,12.06-1.6,1.07-3.57,1.88-5.47,2.16-4.5.67-5.47-.67-6.16-5.09-1.29-8.2-3.07-16.32-4.64-24.48-.24.05-.48.09-.72.14Zm23.47-19.24c-.49.19-.99.38-1.48.58.16,4.65.33,9.3.5,14.26,3.25-1.16,6.03-2.15,9.24-3.3-2.89-4.04-5.58-7.79-8.27-11.54Z"/><path class="cls-3" d="m119.21,183.15c-.82-4-1.73-7.77-2.32-11.58-.3-1.94-.27-4,0-5.95,1.07-7.46,8-10.57,13.73-5.69,3.65,3.11,6.75,7.23,9.07,11.47,4.81,8.81,7.77,18.38,9.07,28.38.24,1.84.25,3.77,0,5.61-.97,7.16-7.4,10-12.87,5.34-3.14-2.67-5.59-6.27-7.94-9.73-2.9-4.27-2.71-4.39-7.86-1.89.67,2.59,1.52,5.25,2.03,7.97.51,2.75,1.05,5.58.93,8.35-.33,7.65-7.35,11.53-13.75,7.29-3.42-2.26-6.43-5.54-8.77-8.94-6.15-8.91-10.09-18.83-11.37-29.65-.29-2.41-.21-4.97.28-7.34,1.39-6.79,7.88-9.72,13.37-5.55,3.64,2.76,6.55,6.65,9.25,10.41,2.76,3.85,2.47,4.06,7.16,1.51Z"/><path class="cls-3" d="m202.56,178.43c.2.55.41,1.1.59,1.66,1.68,5.16.45,9.66-3.25,11.9-4.11,2.49-8.6,1.86-12.27-2.45-2.12-2.49-3.94-2.76-6.52-1.21-.89.54-1.93.95-2.95,1.15-4.99.98-8.42,2.72-8.59,8.98-.12,4.51-4.88,7.36-9.12,7.05-3.67-.26-4.81-1.81-5.56-5.38-1.52-7.21-3.57-14.3-5.21-21.49-2.64-11.56-.82-22.44,6.11-32.09,3.58-4.99,9.04-6.28,14.8-4.09,2.82,1.07,5.59,2.55,7.99,4.37,10.91,8.28,18.46,19.19,23.98,31.61Zm-31.07-11.74c-.5.17-1,.33-1.51.5,0,3.47.01,6.94.02,10.59,2.69-.96,4.9-1.75,7.37-2.63-2.12-3.04-4-5.75-5.89-8.45Z"/><path class="cls-3" d="m372.59,225.44c2.25,1.07,4.32,2.05,6.65,3.15,2-3.63,3.66-7.25,5.87-10.5,2.16-3.17,4.5-6.41,7.42-8.83,7.46-6.17,18.41-2.41,19.85,7.15.8,5.27.21,11.09-1.2,16.27-3.89,14.26-10.09,27.58-18.9,39.54-1.91,2.6-4.38,4.97-7.04,6.8-6.81,4.7-14.47,1.57-16.3-6.51-1.64-7.25.14-14.23,2.03-21.18.21-.77.43-1.54.69-2.44-2.44-1.16-4.75-2.25-7.42-3.51-2.32,3.99-4.52,8.08-7.03,11.98-1.45,2.25-3.17,4.42-5.14,6.21-6.47,5.9-16.14,3.6-18.71-4.78-1.23-4.02-1.58-8.68-.93-12.83,2.53-16.35,8.44-31.51,17.96-45.12,1.65-2.36,3.86-4.45,6.15-6.24,3.86-3.02,8.25-3.92,12.92-1.84,4.69,2.09,7.36,6.07,7.05,10.88-.41,6.49-1.99,12.9-3.1,19.34-.13.78-.49,1.52-.81,2.45Z"/><path class="cls-3" d="m408.14,257.83c.45-.96.97-1.89,1.35-2.87,5.45-14.3,17.65-20.48,30.88-24.85,8.91-2.94,16.17.9,19.36,9.88,2.01,5.67,3.23,11.82,3.61,17.83.92,14.44-1.15,28.57-6.57,42.09-.39.98-.79,1.96-1.28,2.9-2.32,4.45-5.53,7.68-11.01,7.25-5.16-.4-9.43-4.18-10.91-9.63-.49-1.79-.9-3.73-.72-5.54.27-2.73-.76-3.83-3.27-4.77-3.82-1.44-7.45-3.4-11.04-5.37-1.78-.98-2.99-1.07-4.66.32-3.73,3.09-8,5.07-12.99,4.07-1.89-.38-3.86-1.2-5.4-2.34-3.66-2.71-3.39-4.35-.76-7.96,4.89-6.71,9.37-13.71,14.02-20.59-.2-.14-.4-.27-.61-.41Zm30.2,2.99c-.48-.21-.97-.43-1.45-.64-3.17,3.4-6.35,6.81-9.73,10.44,3.12,1.48,5.79,2.74,8.87,4.2.81-4.9,1.56-9.45,2.31-14Z"/><path class="cls-3" d="m356.73,300.48c2.25-3.41,4.27-6.72,6.55-9.83,1.16-1.59,2.64-3.02,4.22-4.21,6.03-4.52,13.13-1.82,13.73,5.69.38,4.78-.34,9.89-1.7,14.52-2.83,9.63-7.5,18.49-13.65,26.48-1.13,1.47-2.49,2.84-3.97,3.96-5.75,4.38-12.3,1.84-12.88-5.32-.33-4.11.48-8.39,1.27-12.5.97-5.06,1.19-5.02-4.22-6.9-1.36,2.31-2.63,4.79-4.2,7.07-1.58,2.31-3.2,4.69-5.24,6.56-5.65,5.17-13.35,2.95-14.88-4.57-.82-4.01-.63-8.46.12-12.52,1.96-10.65,6.18-20.45,12.92-29.01,1.5-1.9,3.36-3.66,5.38-4.99,5.79-3.82,12.45-1.29,13.38,5.53.62,4.52-.07,9.33-.82,13.9-.77,4.68-1.12,4.62,4,6.13Z"/><path class="cls-3" d="m419,356.08c-.25.53-.49,1.07-.76,1.59-2.46,4.84-6.52,7.15-10.72,6.12-4.67-1.15-7.39-4.77-6.94-10.41.26-3.26-.84-4.74-3.76-5.47-1.01-.25-2.03-.69-2.89-1.27-4.22-2.84-7.88-4.03-12.42.27-3.27,3.1-8.65,1.75-11.44-1.46-2.41-2.78-2.12-4.68-.13-7.74,4.03-6.17,7.59-12.64,11.51-18.88,6.31-10.04,15.29-16.45,27.02-18.37,6.06-.99,10.83,1.95,13.36,7.58,1.23,2.75,2.15,5.75,2.56,8.73,1.86,13.57-.51,26.63-5.4,39.31Zm-13.67-30.28c-.47-.24-.95-.48-1.42-.71-2.45,2.46-4.9,4.92-7.47,7.5,2.59,1.22,4.7,2.23,7.08,3.35.65-3.64,1.23-6.89,1.81-10.14Z"/><path class="cls-3" d="m593.9,118.87c2.35-.84,4.5-1.61,6.93-2.48-1.15-3.98-2.54-7.72-3.27-11.58-.72-3.77-1.35-7.72-.99-11.49.92-9.64,11.31-14.72,19.1-8.98,4.29,3.16,7.99,7.7,10.66,12.36,7.33,12.83,12.37,26.64,14.6,41.32.48,3.19.42,6.61-.17,9.79-1.5,8.14-9.12,11.34-16.13,6.92-6.28-3.96-9.96-10.16-13.54-16.41-.4-.69-.78-1.39-1.24-2.22-2.54.91-4.95,1.77-7.73,2.76,1.18,4.46,2.51,8.91,3.5,13.44.57,2.61.88,5.36.76,8.03-.4,8.75-8.87,13.96-16.61,9.85-3.71-1.97-7.25-5.02-9.73-8.41-9.78-13.35-16.31-28.25-19.2-44.6-.5-2.84-.41-5.88-.07-8.76.59-4.87,3.06-8.61,7.83-10.44,4.79-1.84,9.49-.91,12.68,2.71,4.29,4.88,7.71,10.53,11.48,15.87.46.65.73,1.42,1.16,2.31Z"/><path class="cls-3" d="m641.93,116.63c-.36-1-.65-2.02-1.08-2.98-6.26-13.96-2-26.96,4.26-39.4,4.22-8.38,12.07-10.8,20.67-6.7,5.43,2.59,10.64,6.08,15.16,10.05,10.86,9.56,19.39,21.01,25.12,34.41.42.97.83,1.95,1.14,2.96,1.5,4.79,1.53,9.34-2.65,12.91-3.93,3.36-9.62,3.71-14.52.9-1.61-.92-3.28-2-4.43-3.41-1.74-2.12-3.25-2.17-5.69-1.07-3.71,1.68-7.67,2.87-11.6,4.01-1.95.57-2.87,1.36-3.07,3.52-.45,4.82-2.08,9.24-6.31,12.06-1.6,1.07-3.57,1.88-5.47,2.16-4.5.67-5.47-.67-6.16-5.09-1.29-8.2-3.07-16.32-4.64-24.48-.24.05-.48.09-.72.14Zm23.47-19.24c-.49.19-.99.38-1.48.58.16,4.65.33,9.3.5,14.26,3.25-1.16,6.03-2.15,9.24-3.3-2.89-4.04-5.58-7.79-8.27-11.54Z"/><path class="cls-3" d="m635.73,183.15c-.82-4-1.73-7.77-2.32-11.58-.3-1.94-.27-4,0-5.95,1.07-7.46,8-10.57,13.73-5.69,3.65,3.11,6.75,7.23,9.07,11.47,4.81,8.81,7.77,18.38,9.07,28.38.24,1.84.25,3.77,0,5.61-.97,7.16-7.4,10-12.87,5.34-3.14-2.67-5.59-6.27-7.94-9.73-2.9-4.27-2.71-4.39-7.86-1.89.67,2.59,1.52,5.25,2.03,7.97.51,2.75,1.05,5.58.93,8.35-.33,7.65-7.35,11.53-13.75,7.29-3.42-2.26-6.43-5.54-8.77-8.94-6.15-8.91-10.09-18.83-11.37-29.65-.29-2.41-.21-4.97.28-7.34,1.39-6.79,7.88-9.72,13.37-5.55,3.64,2.76,6.55,6.65,9.25,10.41,2.76,3.85,2.47,4.06,7.16,1.51Z"/><path class="cls-3" d="m719.09,178.43c.2.55.41,1.1.59,1.66,1.68,5.16.45,9.66-3.25,11.9-4.11,2.49-8.6,1.86-12.27-2.45-2.12-2.49-3.94-2.76-6.52-1.21-.89.54-1.93.95-2.95,1.15-4.99.98-8.42,2.72-8.59,8.98-.12,4.51-4.88,7.36-9.12,7.05-3.67-.26-4.81-1.81-5.56-5.38-1.52-7.21-3.57-14.3-5.21-21.49-2.64-11.56-.82-22.44,6.11-32.09,3.58-4.99,9.04-6.28,14.8-4.09,2.82,1.07,5.59,2.55,7.99,4.37,10.91,8.28,18.46,19.19,23.98,31.61Zm-31.07-11.74c-.5.17-1,.33-1.51.5,0,3.47.01,6.94.02,10.59,2.69-.96,4.9-1.75,7.37-2.63-2.12-3.04-4-5.75-5.89-8.45Z"/><path class="cls-3" d="m889.12,225.44c2.25,1.07,4.32,2.05,6.65,3.15,2-3.63,3.66-7.25,5.87-10.5,2.16-3.17,4.5-6.41,7.42-8.83,7.46-6.17,18.41-2.41,19.85,7.15.8,5.27.21,11.09-1.2,16.27-3.89,14.26-10.09,27.58-18.9,39.54-1.91,2.6-4.38,4.97-7.04,6.8-6.81,4.7-14.47,1.57-16.3-6.51-1.64-7.25.14-14.23,2.03-21.18.21-.77.43-1.54.69-2.44-2.44-1.16-4.75-2.25-7.42-3.51-2.32,3.99-4.52,8.08-7.03,11.98-1.45,2.25-3.17,4.42-5.14,6.21-6.47,5.9-16.14,3.6-18.71-4.78-1.23-4.02-1.58-8.68-.93-12.83,2.53-16.35,8.44-31.51,17.96-45.12,1.65-2.36,3.86-4.45,6.15-6.24,3.86-3.02,8.25-3.92,12.92-1.84,4.69,2.09,7.36,6.07,7.05,10.88-.41,6.49-1.99,12.9-3.1,19.34-.13.78-.49,1.52-.81,2.45Z"/><path class="cls-3" d="m924.67,257.83c.45-.96.97-1.89,1.35-2.87,5.45-14.3,17.65-20.48,30.88-24.85,8.91-2.94,16.17.9,19.36,9.88,2.01,5.67,3.23,11.82,3.61,17.83.92,14.44-1.15,28.57-6.57,42.09-.39.98-.79,1.96-1.28,2.9-2.32,4.45-5.53,7.68-11.01,7.25-5.16-.4-9.43-4.18-10.91-9.63-.49-1.79-.9-3.73-.72-5.54.27-2.73-.76-3.83-3.27-4.77-3.82-1.44-7.45-3.4-11.04-5.37-1.78-.98-2.99-1.07-4.66.32-3.73,3.09-8,5.07-12.99,4.07-1.89-.38-3.86-1.2-5.4-2.34-3.66-2.71-3.39-4.35-.76-7.96,4.89-6.71,9.37-13.71,14.02-20.59-.2-.14-.4-.27-.61-.41Zm30.2,2.99c-.48-.21-.97-.43-1.45-.64-3.17,3.4-6.35,6.81-9.73,10.44,3.12,1.48,5.79,2.74,8.87,4.2.81-4.9,1.56-9.45,2.31-14Z"/><path class="cls-3" d="m873.25,300.48c2.25-3.41,4.27-6.72,6.55-9.83,1.16-1.59,2.64-3.02,4.22-4.21,6.03-4.52,13.13-1.82,13.73,5.69.38,4.78-.34,9.89-1.7,14.52-2.83,9.63-7.5,18.49-13.65,26.48-1.13,1.47-2.49,2.84-3.97,3.96-5.75,4.38-12.3,1.84-12.88-5.32-.33-4.11.48-8.39,1.27-12.5.97-5.06,1.19-5.02-4.22-6.9-1.36,2.31-2.63,4.79-4.2,7.07-1.58,2.31-3.2,4.69-5.24,6.56-5.65,5.17-13.35,2.95-14.88-4.57-.82-4.01-.63-8.46.12-12.52,1.96-10.65,6.18-20.45,12.92-29.01,1.5-1.9,3.36-3.66,5.38-4.99,5.79-3.82,12.45-1.29,13.38,5.53.62,4.52-.07,9.33-.82,13.9-.77,4.68-1.12,4.62,4,6.13Z"/><path class="cls-3" d="m935.53,356.08c-.25.53-.49,1.07-.76,1.59-2.46,4.84-6.52,7.15-10.72,6.12-4.67-1.15-7.39-4.77-6.94-10.41.26-3.26-.84-4.74-3.76-5.47-1.01-.25-2.03-.69-2.89-1.27-4.22-2.84-7.88-4.03-12.42.27-3.27,3.1-8.65,1.75-11.44-1.46-2.41-2.78-2.12-4.68-.13-7.74,4.03-6.17,7.59-12.64,11.51-18.88,6.31-10.04,15.29-16.45,27.02-18.37,6.06-.99,10.83,1.95,13.36,7.58,1.23,2.75,2.15,5.75,2.56,8.73,1.86,13.57-.51,26.63-5.4,39.31Zm-13.67-30.28c-.47-.24-.95-.48-1.42-.71-2.45,2.46-4.9,4.92-7.47,7.5l7.08,3.35c.65-3.64,1.23-6.89,1.81-10.14Z"/><path class="cls-3" d="m77.37,462.37c2.35-.84,4.5-1.61,6.93-2.48-1.15-3.98-2.54-7.72-3.27-11.58-.72-3.77-1.35-7.72-.99-11.49.92-9.64,11.31-14.72,19.1-8.98,4.29,3.16,7.99,7.7,10.66,12.36,7.33,12.83,12.37,26.64,14.6,41.32.48,3.19.42,6.61-.17,9.79-1.5,8.14-9.12,11.34-16.13,6.92-6.28-3.96-9.96-10.16-13.54-16.41-.4-.69-.78-1.39-1.24-2.22-2.54.91-4.95,1.77-7.73,2.76,1.18,4.46,2.51,8.91,3.5,13.44.57,2.61.88,5.36.76,8.03-.4,8.75-8.87,13.96-16.61,9.85-3.71-1.97-7.25-5.02-9.73-8.41-9.78-13.35-16.31-28.25-19.2-44.6-.5-2.84-.41-5.88-.07-8.76.59-4.87,3.06-8.61,7.83-10.44,4.79-1.84,9.49-.91,12.68,2.71,4.29,4.88,7.71,10.53,11.48,15.87.46.65.73,1.42,1.16,2.31Z"/><path class="cls-3" d="m125.4,460.13c-.36-1-.65-2.02-1.08-2.98-6.26-13.96-2-26.96,4.26-39.4,4.22-8.38,12.07-10.8,20.67-6.7,5.43,2.59,10.64,6.08,15.16,10.05,10.86,9.56,19.39,21.01,25.12,34.41.42.97.83,1.95,1.14,2.96,1.5,4.79,1.53,9.34-2.65,12.91-3.93,3.36-9.62,3.71-14.52.9-1.61-.92-3.28-2-4.43-3.41-1.74-2.12-3.25-2.17-5.69-1.07-3.71,1.68-7.67,2.87-11.6,4.01-1.95.57-2.87,1.36-3.07,3.52-.45,4.82-2.08,9.24-6.31,12.06-1.6,1.07-3.57,1.88-5.47,2.16-4.5.67-5.47-.67-6.16-5.09-1.29-8.2-3.07-16.32-4.64-24.48-.24.05-.48.09-.72.14Zm23.47-19.24c-.49.19-.99.38-1.48.58.16,4.65.33,9.3.5,14.26,3.25-1.16,6.03-2.15,9.24-3.3-2.89-4.04-5.58-7.79-8.27-11.54Z"/><path class="cls-3" d="m119.21,526.65c-.82-4-1.73-7.77-2.32-11.58-.3-1.94-.27-4,0-5.95,1.07-7.46,8-10.57,13.73-5.69,3.65,3.11,6.75,7.23,9.07,11.47,4.81,8.81,7.77,18.38,9.07,28.38.24,1.84.25,3.77,0,5.61-.97,7.16-7.4,10-12.87,5.34-3.14-2.67-5.59-6.27-7.94-9.73-2.9-4.27-2.71-4.39-7.86-1.89.67,2.59,1.52,5.25,2.03,7.97.51,2.75,1.05,5.58.93,8.35-.33,7.65-7.35,11.53-13.75,7.29-3.42-2.26-6.43-5.54-8.77-8.94-6.15-8.91-10.09-18.83-11.37-29.65-.29-2.41-.21-4.97.28-7.34,1.39-6.79,7.88-9.72,13.37-5.55,3.64,2.76,6.55,6.65,9.25,10.41,2.76,3.85,2.47,4.06,7.16,1.51Z"/><path class="cls-3" d="m202.56,521.93c.2.55.41,1.1.59,1.66,1.68,5.16.45,9.66-3.25,11.9-4.11,2.49-8.6,1.86-12.27-2.45-2.12-2.49-3.94-2.76-6.52-1.21-.89.54-1.93.95-2.95,1.15-4.99.98-8.42,2.72-8.59,8.98-.12,4.51-4.88,7.36-9.12,7.05-3.67-.26-4.81-1.81-5.56-5.38-1.52-7.21-3.57-14.3-5.21-21.49-2.64-11.56-.82-22.44,6.11-32.09,3.58-4.99,9.04-6.28,14.8-4.09,2.82,1.07,5.59,2.55,7.99,4.37,10.91,8.28,18.46,19.19,23.98,31.61Zm-31.07-11.74c-.5.17-1,.33-1.51.5,0,3.47.01,6.94.02,10.59,2.69-.96,4.9-1.75,7.37-2.63-2.12-3.04-4-5.75-5.89-8.45Z"/><path class="cls-3" d="m372.59,568.94c2.25,1.07,4.32,2.05,6.65,3.15,2-3.63,3.66-7.25,5.87-10.5,2.16-3.17,4.5-6.41,7.42-8.83,7.46-6.17,18.41-2.41,19.85,7.15.8,5.27.21,11.09-1.2,16.27-3.89,14.26-10.09,27.58-18.9,39.54-1.91,2.6-4.38,4.97-7.04,6.8-6.81,4.7-14.47,1.57-16.3-6.51-1.64-7.25.14-14.23,2.03-21.18.21-.77.43-1.54.69-2.44-2.44-1.16-4.75-2.25-7.42-3.51-2.32,3.99-4.52,8.08-7.03,11.98-1.45,2.25-3.17,4.42-5.14,6.21-6.47,5.9-16.14,3.6-18.71-4.78-1.23-4.02-1.58-8.68-.93-12.83,2.53-16.35,8.44-31.51,17.96-45.12,1.65-2.36,3.86-4.45,6.15-6.24,3.86-3.02,8.25-3.92,12.92-1.84,4.69,2.09,7.36,6.07,7.05,10.88-.41,6.49-1.99,12.9-3.1,19.34-.13.78-.49,1.52-.81,2.45Z"/><path class="cls-3" d="m408.14,601.33c.45-.96.97-1.89,1.35-2.87,5.45-14.3,17.65-20.48,30.88-24.85,8.91-2.94,16.17.9,19.36,9.88,2.01,5.67,3.23,11.82,3.61,17.83.92,14.44-1.15,28.57-6.57,42.09-.39.98-.79,1.96-1.28,2.9-2.32,4.45-5.53,7.68-11.01,7.25-5.16-.4-9.43-4.18-10.91-9.63-.49-1.79-.9-3.73-.72-5.54.27-2.73-.76-3.83-3.27-4.77-3.82-1.44-7.45-3.4-11.04-5.37-1.78-.98-2.99-1.07-4.66.32-3.73,3.09-8,5.07-12.99,4.07-1.89-.38-3.86-1.2-5.4-2.34-3.66-2.71-3.39-4.35-.76-7.96,4.89-6.71,9.37-13.71,14.02-20.59-.2-.14-.4-.27-.61-.41Zm30.2,2.99c-.48-.21-.97-.43-1.45-.64-3.17,3.4-6.35,6.81-9.73,10.44,3.12,1.48,5.79,2.74,8.87,4.2.81-4.9,1.56-9.45,2.31-14Z"/><path class="cls-3" d="m356.73,643.98c2.25-3.41,4.27-6.72,6.55-9.83,1.16-1.59,2.64-3.02,4.22-4.21,6.03-4.52,13.13-1.82,13.73,5.69.38,4.78-.34,9.89-1.7,14.52-2.83,9.63-7.5,18.49-13.65,26.48-1.13,1.47-2.49,2.84-3.97,3.96-5.75,4.38-12.3,1.84-12.88-5.32-.33-4.11.48-8.39,1.27-12.5.97-5.06,1.19-5.02-4.22-6.9-1.36,2.31-2.63,4.79-4.2,7.07-1.58,2.31-3.2,4.69-5.24,6.56-5.65,5.17-13.35,2.95-14.88-4.57-.82-4.01-.63-8.46.12-12.52,1.96-10.65,6.18-20.45,12.92-29.01,1.5-1.9,3.36-3.66,5.38-4.99,5.79-3.82,12.45-1.29,13.38,5.53.62,4.52-.07,9.33-.82,13.9-.77,4.68-1.12,4.62,4,6.13Z"/><path class="cls-3" d="m419,699.58c-.25.53-.49,1.07-.76,1.59-2.46,4.84-6.52,7.15-10.72,6.12-4.67-1.15-7.39-4.77-6.94-10.41.26-3.26-.84-4.74-3.76-5.47-1.01-.25-2.03-.69-2.89-1.27-4.22-2.84-7.88-4.03-12.42.27-3.27,3.1-8.65,1.75-11.44-1.46-2.41-2.78-2.12-4.68-.13-7.74,4.03-6.17,7.59-12.64,11.51-18.88,6.31-10.04,15.29-16.45,27.02-18.37,6.06-.99,10.83,1.95,13.36,7.58,1.23,2.75,2.15,5.75,2.56,8.73,1.86,13.57-.51,26.63-5.4,39.31Zm-13.67-30.28c-.47-.24-.95-.48-1.42-.71-2.45,2.46-4.9,4.92-7.47,7.5l7.08,3.35c.65-3.64,1.23-6.89,1.81-10.14Z"/><path class="cls-3" d="m593.9,462.37c2.35-.84,4.5-1.61,6.93-2.48-1.15-3.98-2.54-7.72-3.27-11.58-.72-3.77-1.35-7.72-.99-11.49.92-9.64,11.31-14.72,19.1-8.98,4.29,3.16,7.99,7.7,10.66,12.36,7.33,12.83,12.37,26.64,14.6,41.32.48,3.19.42,6.61-.17,9.79-1.5,8.14-9.12,11.34-16.13,6.92-6.28-3.96-9.96-10.16-13.54-16.41-.4-.69-.78-1.39-1.24-2.22-2.54.91-4.95,1.77-7.73,2.76,1.18,4.46,2.51,8.91,3.5,13.44.57,2.61.88,5.36.76,8.03-.4,8.75-8.87,13.96-16.61,9.85-3.71-1.97-7.25-5.02-9.73-8.41-9.78-13.35-16.31-28.25-19.2-44.6-.5-2.84-.41-5.88-.07-8.76.59-4.87,3.06-8.61,7.83-10.44,4.79-1.84,9.49-.91,12.68,2.71,4.29,4.88,7.71,10.53,11.48,15.87.46.65.73,1.42,1.16,2.31Z"/><path class="cls-3" d="m641.93,460.13c-.36-1-.65-2.02-1.08-2.98-6.26-13.96-2-26.96,4.26-39.4,4.22-8.38,12.07-10.8,20.67-6.7,5.43,2.59,10.64,6.08,15.16,10.05,10.86,9.56,19.39,21.01,25.12,34.41.42.97.83,1.95,1.14,2.96,1.5,4.79,1.53,9.34-2.65,12.91-3.93,3.36-9.62,3.71-14.52.9-1.61-.92-3.28-2-4.43-3.41-1.74-2.12-3.25-2.17-5.69-1.07-3.71,1.68-7.67,2.87-11.6,4.01-1.95.57-2.87,1.36-3.07,3.52-.45,4.82-2.08,9.24-6.31,12.06-1.6,1.07-3.57,1.88-5.47,2.16-4.5.67-5.47-.67-6.16-5.09-1.29-8.2-3.07-16.32-4.64-24.48-.24.05-.48.09-.72.14Zm23.47-19.24c-.49.19-.99.38-1.48.58.16,4.65.33,9.3.5,14.26,3.25-1.16,6.03-2.15,9.24-3.3-2.89-4.04-5.58-7.79-8.27-11.54Z"/><path class="cls-3" d="m635.73,526.65c-.82-4-1.73-7.77-2.32-11.58-.3-1.94-.27-4,0-5.95,1.07-7.46,8-10.57,13.73-5.69,3.65,3.11,6.75,7.23,9.07,11.47,4.81,8.81,7.77,18.38,9.07,28.38.24,1.84.25,3.77,0,5.61-.97,7.16-7.4,10-12.87,5.34-3.14-2.67-5.59-6.27-7.94-9.73-2.9-4.27-2.71-4.39-7.86-1.89.67,2.59,1.52,5.25,2.03,7.97.51,2.75,1.05,5.58.93,8.35-.33,7.65-7.35,11.53-13.75,7.29-3.42-2.26-6.43-5.54-8.77-8.94-6.15-8.91-10.09-18.83-11.37-29.65-.29-2.41-.21-4.97.28-7.34,1.39-6.79,7.88-9.72,13.37-5.55,3.64,2.76,6.55,6.65,9.25,10.41,2.76,3.85,2.47,4.06,7.16,1.51Z"/><path class="cls-3" d="m719.09,521.93c.2.55.41,1.1.59,1.66,1.68,5.16.45,9.66-3.25,11.9-4.11,2.49-8.6,1.86-12.27-2.45-2.12-2.49-3.94-2.76-6.52-1.21-.89.54-1.93.95-2.95,1.15-4.99.98-8.42,2.72-8.59,8.98-.12,4.51-4.88,7.36-9.12,7.05-3.67-.26-4.81-1.81-5.56-5.38-1.52-7.21-3.57-14.3-5.21-21.49-2.64-11.56-.82-22.44,6.11-32.09,3.58-4.99,9.04-6.28,14.8-4.09,2.82,1.07,5.59,2.55,7.99,4.37,10.91,8.28,18.46,19.19,23.98,31.61Zm-31.07-11.74c-.5.17-1,.33-1.51.5,0,3.47.01,6.94.02,10.59,2.69-.96,4.9-1.75,7.37-2.63-2.12-3.04-4-5.75-5.89-8.45Z"/><path class="cls-3" d="m889.12,568.94c2.25,1.07,4.32,2.05,6.65,3.15,2-3.63,3.66-7.25,5.87-10.5,2.16-3.17,4.5-6.41,7.42-8.83,7.46-6.17,18.41-2.41,19.85,7.15.8,5.27.21,11.09-1.2,16.27-3.89,14.26-10.09,27.58-18.9,39.54-1.91,2.6-4.38,4.97-7.04,6.8-6.81,4.7-14.47,1.57-16.3-6.51-1.64-7.25.14-14.23,2.03-21.18.21-.77.43-1.54.69-2.44-2.44-1.16-4.75-2.25-7.42-3.51-2.32,3.99-4.52,8.08-7.03,11.98-1.45,2.25-3.17,4.42-5.14,6.21-6.47,5.9-16.14,3.6-18.71-4.78-1.23-4.02-1.58-8.68-.93-12.83,2.53-16.35,8.44-31.51,17.96-45.12,1.65-2.36,3.86-4.45,6.15-6.24,3.86-3.02,8.25-3.92,12.92-1.84,4.69,2.09,7.36,6.07,7.05,10.88-.41,6.49-1.99,12.9-3.1,19.34-.13.78-.49,1.52-.81,2.45Z"/><path class="cls-3" d="m924.67,601.33c.45-.96.97-1.89,1.35-2.87,5.45-14.3,17.65-20.48,30.88-24.85,8.91-2.94,16.17.9,19.36,9.88,2.01,5.67,3.23,11.82,3.61,17.83.92,14.44-1.15,28.57-6.57,42.09-.39.98-.79,1.96-1.28,2.9-2.32,4.45-5.53,7.68-11.01,7.25-5.16-.4-9.43-4.18-10.91-9.63-.49-1.79-.9-3.73-.72-5.54.27-2.73-.76-3.83-3.27-4.77-3.82-1.44-7.45-3.4-11.04-5.37-1.78-.98-2.99-1.07-4.66.32-3.73,3.09-8,5.07-12.99,4.07-1.89-.38-3.86-1.2-5.4-2.34-3.66-2.71-3.39-4.35-.76-7.96,4.89-6.71,9.37-13.71,14.02-20.59-.2-.14-.4-.27-.61-.41Zm30.2,2.99c-.48-.21-.97-.43-1.45-.64-3.17,3.4-6.35,6.81-9.73,10.44,3.12,1.48,5.79,2.74,8.87,4.2.81-4.9,1.56-9.45,2.31-14Z"/><path class="cls-3" d="m873.25,643.98c2.25-3.41,4.27-6.72,6.55-9.83,1.16-1.59,2.64-3.02,4.22-4.21,6.03-4.52,13.13-1.82,13.73,5.69.38,4.78-.34,9.89-1.7,14.52-2.83,9.63-7.5,18.49-13.65,26.48-1.13,1.47-2.49,2.84-3.97,3.96-5.75,4.38-12.3,1.84-12.88-5.32-.33-4.11.48-8.39,1.27-12.5.97-5.06,1.19-5.02-4.22-6.9-1.36,2.31-2.63,4.79-4.2,7.07-1.58,2.31-3.2,4.69-5.24,6.56-5.65,5.17-13.35,2.95-14.88-4.57-.82-4.01-.63-8.46.12-12.52,1.96-10.65,6.18-20.45,12.92-29.01,1.5-1.9,3.36-3.66,5.38-4.99,5.79-3.82,12.45-1.29,13.38,5.53.62,4.52-.07,9.33-.82,13.9-.77,4.68-1.12,4.62,4,6.13Z"/><path class="cls-3" d="m935.53,699.58c-.25.53-.49,1.07-.76,1.59-2.46,4.84-6.52,7.15-10.72,6.12-4.67-1.15-7.39-4.77-6.94-10.41.26-3.26-.84-4.74-3.76-5.47-1.01-.25-2.03-.69-2.89-1.27-4.22-2.84-7.88-4.03-12.42.27-3.27,3.1-8.65,1.75-11.44-1.46-2.41-2.78-2.12-4.68-.13-7.74,4.03-6.17,7.59-12.64,11.51-18.88,6.31-10.04,15.29-16.45,27.02-18.37,6.06-.99,10.83,1.95,13.36,7.58,1.23,2.75,2.15,5.75,2.56,8.73,1.86,13.57-.51,26.63-5.4,39.31Zm-13.67-30.28c-.47-.24-.95-.48-1.42-.71-2.45,2.46-4.9,4.92-7.47,7.5l7.08,3.35c.65-3.64,1.23-6.89,1.81-10.14Z"/></g><g class="cls-1"><path class="cls-4" d="m311.01,563.61c-3.35,0-5.92-1.09-7.71-3.27-1.79-2.18-2.69-5.1-2.69-8.76v-33.98h-5.49c-11.6,0-21.37-2.06-29.31-6.19-7.94-4.13-13.95-10.16-18.04-18.1-4.09-7.94-6.13-17.63-6.13-29.08v-89.44c0-11.44,2.04-21.13,6.13-29.07,4.09-7.94,10.1-13.99,18.04-18.16,7.94-4.16,17.71-6.25,29.31-6.25h150.39c11.6,0,21.37,2.08,29.31,6.25,7.94,4.17,13.95,10.22,18.04,18.16,4.09,7.94,6.13,17.63,6.13,29.07v89.44c0,11.44-2.04,21.13-6.13,29.08-4.09,7.94-10.1,13.97-18.04,18.1-7.94,4.13-17.71,6.19-29.31,6.19h-78.93l-42.15,38.53c-2.8,2.57-5.16,4.46-7.07,5.66-1.91,1.21-4.03,1.81-6.36,1.81Zm-2.69-177.37h122.49c1.94,0,3.6-.68,4.96-2.04,1.36-1.36,2.04-3.02,2.04-4.96s-.68-3.58-2.04-4.9c-1.36-1.32-3.02-1.98-4.96-1.98h-122.49c-1.95,0-3.6.66-4.96,1.98-1.36,1.33-2.04,2.96-2.04,4.9s.68,3.6,2.04,4.96c1.36,1.36,3.02,2.04,4.96,2.04Zm0,39.12h122.49c1.94,0,3.6-.66,4.96-1.99,1.36-1.32,2.04-2.99,2.04-5.02,0-1.87-.68-3.5-2.04-4.9-1.36-1.4-3.02-2.1-4.96-2.1h-122.49c-1.95,0-3.6.7-4.96,2.1-1.36,1.4-2.04,3.04-2.04,4.9,0,2.03.68,3.7,2.04,5.02,1.36,1.33,3.02,1.99,4.96,1.99Zm0,39.23h79.63c1.94,0,3.6-.66,4.96-1.99,1.36-1.32,2.04-2.96,2.04-4.9s-.68-3.72-2.04-5.08c-1.36-1.36-3.02-2.04-4.96-2.04h-79.63c-1.95,0-3.6.68-4.96,2.04-1.36,1.36-2.04,3.06-2.04,5.08s.68,3.58,2.04,4.9c1.36,1.32,3.02,1.99,4.96,1.99Z"/></g><polygon class="cls-5" points="573.26 442.47 672.96 442.47 723.61 489.73 734.31 440.9 779.2 431.88 790.62 375.02 783.86 284.34 743.32 264.63 654.35 264.63 567.06 269.62 549.61 294.48 547.35 355.86 551.86 418.35 573.26 442.47"/><path class="cls-3" d="m718.07,495.11c-2.42-1.56-5.39-3.91-8.9-7.03l-40.4-35.95h-75.18c-11.63,0-21.43-2.09-29.39-6.27-7.96-4.18-13.99-10.25-18.09-18.21-4.1-7.96-6.15-17.68-6.15-29.16v-89.7c0-11.48,2.05-21.2,6.15-29.16,4.1-7.96,10.13-14.03,18.09-18.21,7.96-4.18,17.76-6.26,29.39-6.26h150.83c11.63,0,21.43,2.09,29.39,6.26,7.96,4.18,13.99,10.25,18.09,18.21,4.1,7.96,6.15,17.68,6.15,29.16v89.7c0,11.48-2.05,21.2-6.15,29.16-4.1,7.96-10.13,14.03-18.09,18.21-7.96,4.18-17.76,6.27-29.39,6.27h-5.62v30.45c0,4.53-1.11,8.14-3.34,10.83-2.22,2.69-5.37,4.04-9.43,4.04-2.89,0-5.54-.78-7.96-2.34Zm3.16-53.05c0-3.2.66-5.46,1.99-6.79,1.33-1.33,3.59-1.99,6.79-1.99h14.4c11.87,0,20.63-2.95,26.29-8.84,5.66-5.89,8.49-14.58,8.49-26.06v-89.59c0-11.4-2.83-20.04-8.49-25.94-5.66-5.89-14.42-8.84-26.29-8.84h-150.83c-11.79,0-20.53,2.95-26.23,8.84-5.7,5.9-8.55,14.54-8.55,25.94v89.59c0,11.48,2.85,20.16,8.55,26.06,5.7,5.89,14.45,8.84,26.23,8.84h75.88c3.28,0,5.93.35,7.96,1.05,2.03.7,4.14,2.19,6.32,4.45l37.47,37.24v-33.96Zm-111.02-120.74c-1.95,0-3.57-.66-4.86-1.99-1.29-1.33-1.93-2.93-1.93-4.8s.64-3.46,1.93-4.74c1.29-1.29,2.91-1.93,4.86-1.93h119.1c1.95,0,3.57.64,4.86,1.93s1.93,2.87,1.93,4.74-.64,3.48-1.93,4.8c-1.29,1.33-2.91,1.99-4.86,1.99h-119.1Zm0,38.06c-1.95,0-3.57-.64-4.86-1.93-1.29-1.29-1.93-2.91-1.93-4.86,0-1.8.64-3.38,1.93-4.74,1.29-1.37,2.91-2.05,4.86-2.05h119.1c1.95,0,3.57.68,4.86,2.05s1.93,2.95,1.93,4.74c0,1.95-.64,3.57-1.93,4.86-1.29,1.29-2.91,1.93-4.86,1.93h-119.1Zm41.69,38.18c-1.87,0-3.47-.64-4.8-1.93-1.33-1.29-1.99-2.87-1.99-4.74s.66-3.59,1.99-4.92c1.33-1.33,2.93-1.99,4.8-1.99h77.41c1.95,0,3.57.66,4.86,1.99,1.29,1.33,1.93,2.97,1.93,4.92s-.64,3.46-1.93,4.74c-1.29,1.29-2.91,1.93-4.86,1.93h-77.41Z"/></svg>