<?xml version="1.0" encoding="UTF-8"?><svg id="Layer_1" xmlns="http://www.w3.org/2000/svg" xmlns:xlink="http://www.w3.org/1999/xlink" viewBox="0 0 1024 768"><defs><style>.cls-1{fill:none;}.cls-2{filter:url(#outer-glow-16);}.cls-2,.cls-3,.cls-4,.cls-5{fill:#72f49b;}.cls-6{clip-path:url(#clippath);}.cls-7{fill:#1e1e1e;}.cls-8{fill:#0e2619;}.cls-4{opacity:.6;}.cls-4,.cls-5{isolation:isolate;}.cls-9{opacity:.9;}.cls-5{opacity:.1;}</style><clipPath id="clippath"><rect class="cls-1" x="0" width="1024" height="768"/></clipPath><filter id="outer-glow-16" filterUnits="userSpaceOnUse"><feOffset dx="0" dy="0"/><feGaussianBlur result="blur" stdDeviation="8"/><feFlood flood-color="#72f49b" flood-opacity=".75"/><feComposite in2="blur" operator="in"/><feComposite in="SourceGraphic"/></filter></defs><g class="cls-6"><rect class="cls-7" x="0" width="1024" height="768"/><path class="cls-5" d="m73.23,103.78l-3.66-7.61c-2.68.57-5.62.73-8.75.46-16.16-1.41-24.94-13.43-23.3-32.15l.9-10.32c1.64-18.73,12.37-29.03,28.53-27.62,16.16,1.41,24.94,13.43,23.3,32.15l-.9,10.32c-.88,10.09-4.42,17.73-10.01,22.42l6.45,13.46-12.56-1.1Zm-11.44-18.18c.93.08,1.83.07,2.68,0l-5.85-12.23,12.56,1.1,2.23,4.62c1.42-2.84,2.41-6.57,2.81-11.19l.85-9.67c1.09-12.51-2.84-19.21-11.15-19.94-8.31-.73-13.35,5.18-14.44,17.7l-.85,9.67c-1.09,12.51,2.84,19.21,11.15,19.94Zm85.71-34.66l-4.51,51.51-12.37-1.08.76-8.64-.79-.07c-3.07,5.99-8.93,9.05-16.36,8.4-11.21-.98-16.6-8.23-15.5-20.79l2.92-33.34,12.79,1.12-2.65,30.26c-.66,7.56,2.06,11.43,8.55,11.99,6.54.57,11.18-3.59,11.8-10.68l2.61-29.79,12.75,1.12Zm44.11,41.17l12.05,1.05c-1.87,9.01-11.54,14.71-23.5,13.66-14.99-1.31-22.85-10.47-21.57-25.08l.72-8.27c1.18-13.5,11.3-21.6,25.31-20.37,13.63,1.19,21.58,10.92,20.37,24.74l-.62,7.1-33.2-2.9-.24,2.8c-.59,6.72,3.37,11.49,10.05,12.08,5.14.45,9.4-1.53,10.63-4.81Zm-8.09-29.13c-6.63-.58-10.99,3.51-11.63,10.89l20.87,1.83c.65-7.38-2.8-12.15-9.24-12.71Zm37.14,9.51c.87-9.99,9.45-15.55,22.2-14.43,12.47,1.09,19.59,7.36,19.35,17.08l-12.05-1.05c-.31-3.46-3.49-5.86-8.25-6.27-4.86-.42-8.27,1.49-8.56,4.76-.24,2.8,1.76,4.67,6.66,6.14l7.84,2.33c10.23,3.06,14.46,7.9,13.77,15.74-.91,10.41-9.99,16.25-23.39,15.08-13.17-1.15-20.8-7.51-20.65-17.24l12.61,1.1c.48,3.62,3.77,5.88,9.09,6.35,5.23.46,8.79-1.44,9.08-4.8.25-2.9-1.59-4.47-6.9-6.11l-7.56-2.31c-9.48-2.95-13.94-8.42-13.25-16.36Zm71.9-23.68l12.52,1.09-1.33,15.22,19.19,1.68-.89,10.23-18.96-1.66-2.15,24.61c-.34,3.88,2.22,6.31,7.13,6.74,1.21.11,10.14.84,10.7.84l-.88,10.09c-.52.05-10.71-.75-11.74-.84-14.01-1.23-18.99-6.13-17.95-18.09l2.14-24.47-13.4-1.17.89-10.23,13.4,1.17,1.33-15.22Zm70.14,10.37c-5.23-.46-8.45-3.99-8.02-8.84.42-4.86,4.21-7.77,9.44-7.31,5.23.46,8.5,3.99,8.07,8.85-.42,4.86-4.26,7.77-9.49,7.31Zm16.57,63.94l-44.5-3.89.89-10.18,16.53,1.45,2.72-31.1-15.69-1.37.9-10.23,28.11,2.46-3.61,41.33,15.55,1.36-.89,10.18Zm36.28,4.3c-14.52-1.27-22.9-10.9-21.67-24.95l.7-7.94c1.23-14.06,11.15-22.08,25.68-20.81,14.52,1.27,22.9,10.9,21.67,24.95l-.69,7.94c-1.23,14.06-11.15,22.08-25.68,20.81Zm3.78-43.24c-6.86-.6-11.55,3.98-12.25,11.96l-.6,6.91c-.7,7.94,3.12,13.31,9.98,13.91,6.86.6,11.55-4.02,12.24-11.96l.61-6.91c.7-7.99-3.12-13.31-9.98-13.91Zm32.51,45.29l4.51-51.51,12.38,1.08-.76,8.64.79.07c3.07-5.99,8.93-9.01,16.35-8.36,11.21.98,16.6,8.23,15.5,20.79l-2.91,33.29-12.8-1.12,2.65-30.26c.66-7.56-2.06-11.43-8.55-11.99-6.54-.57-11.18,3.59-11.81,10.73l-2.6,29.75-12.75-1.11Zm71.73-27.65c1.52-17.37,8.12-32.09,18.98-42.15l13.12,1.15c-11.42,14.39-16.57,26.41-17.95,42.24-1.38,15.78,1.6,28.47,10.35,44.62l-13.12-1.15c-8.94-11.79-12.9-27.38-11.38-44.71Zm64.58-27.15l12.51,1.09-1.33,15.22,19.19,1.68-.9,10.23-18.96-1.66-2.15,24.61c-.34,3.88,2.22,6.31,7.13,6.74,1.21.11,10.14.84,10.7.84l-.88,10.09c-.52.05-10.71-.75-11.74-.84-14.01-1.23-18.99-6.13-17.95-18.09l2.14-24.47-13.4-1.17.9-10.23,13.4,1.17,1.33-15.22Zm70.14,10.37c-5.23-.46-8.45-3.99-8.03-8.84.43-4.86,4.21-7.77,9.44-7.31,5.23.46,8.5,3.99,8.07,8.85-.43,4.86-4.26,7.77-9.49,7.31Zm16.57,63.94l-44.5-3.89.89-10.18,16.53,1.45,2.72-31.1-15.69-1.37.9-10.23,28.11,2.46-3.62,41.33,15.55,1.36-.89,10.18Zm31.52-63.96l12.52,1.09-1.33,15.22,19.19,1.68-.89,10.23-18.96-1.66-2.15,24.61c-.34,3.88,2.22,6.31,7.13,6.74,1.21.11,10.14.84,10.7.84l-.88,10.09c-.52.05-10.71-.75-11.74-.84-14.01-1.23-18.99-6.13-17.95-18.09l2.14-24.47-13.4-1.17.89-10.23,13.4,1.17,1.33-15.22Zm86.71,74.31l-44.5-3.89.89-10.18,16.34,1.43,4.44-50.76-15.5-1.36.89-10.18,28.3,2.48-5.33,60.94,15.36,1.34-.89,10.18Zm48.8-10.32l12.05,1.05c-1.87,9.01-11.54,14.71-23.5,13.66-14.99-1.31-22.85-10.47-21.57-25.08l.72-8.27c1.18-13.5,11.3-21.6,25.31-20.37,13.64,1.19,21.58,10.92,20.37,24.74l-.62,7.1-33.2-2.9-.24,2.8c-.59,6.72,3.37,11.49,10.05,12.08,5.14.45,9.4-1.53,10.63-4.81Zm-8.08-29.13c-6.63-.58-10.99,3.51-11.63,10.89l20.87,1.83c.65-7.38-2.8-12.15-9.24-12.71Zm57.79,13.34c-5.65-.49-9.86-5.66-9.35-11.45.51-5.79,5.54-10.1,11.19-9.61,5.65.5,9.86,5.62,9.35,11.41-.51,5.79-5.55,10.15-11.2,9.65Zm-3.09,35.35c-5.65-.49-9.86-5.66-9.35-11.41.51-5.84,5.55-10.15,11.2-9.65,5.65.49,9.86,5.62,9.35,11.45-.5,5.74-5.54,10.1-11.19,9.61Zm116.63-26.17l-12.61-1.1,2.82-32.17,12.61,1.1-2.82,32.17Zm22.14,1.94l-12.61-1.1,2.81-32.17,12.61,1.1-2.81,32.17Zm42.51-.8l-.75-.07-10.52,39.08-11.68-1.02-4.56-68.3,12.05,1.05.67,23.49.33,26.85.75.07,9.27-33.91,10.28.9,3.24,35.01.75.07,4.99-26.38,4.74-23.02,12.05,1.05-16.36,66.47-11.67-1.02-3.58-40.31Zm32.16,42.81l6.22-71.12,12.47,1.09-2.49,28.39.75.07c3.01-5.95,9.07-8.99,16.59-8.34,11.16.98,16.72,8.33,15.64,20.75l-2.91,33.2-12.79-1.12,2.63-30.07c.66-7.52-2.2-11.49-8.69-12.05-6.72-.59-11.47,3.61-12.09,10.71l-2.59,29.61-12.74-1.12Zm75.2,7.43c-9.72-.85-15.71-7.68-14.89-16.97.81-9.29,8.06-14.16,20.84-13.94l12.11.31.36-4.11c.39-4.48-2.46-7.37-7.74-7.83-4.43-.39-7.92,1.28-9.28,4.41l-12.42-1.09c1.75-9.26,10.73-14.54,22.97-13.47,13.21,1.16,20.09,8.11,19.1,19.36l-3.06,34.93-12.14-1.06.6-6.86-1.12-.1c-2.94,4.64-8.61,7.01-15.33,6.42Zm5.28-9.84c6.35.55,11.23-3.06,11.74-8.81l.32-3.74-9.95-.26c-6.01-.15-9.25,1.87-9.59,5.84-.34,3.83,2.53,6.53,7.48,6.96Zm56.01-52.37l12.52,1.1-1.33,15.22,19.19,1.68-.9,10.23-18.96-1.66-2.15,24.61c-.34,3.88,2.22,6.31,7.13,6.74,1.21.11,10.14.84,10.7.84l-.88,10.09c-.52.05-10.71-.75-11.74-.84-14.01-1.23-18.99-6.13-17.95-18.09l2.15-24.47-13.41-1.17.9-10.23,13.4,1.17,1.33-15.22Zm125.66,77.72l-25.4-2.22,5.89-67.38,24.8,2.17c12.93,1.13,20.18,8.07,19.27,18.58-.64,7.29-6.31,12.95-13.41,13.41l-.07.79c8.91,1.44,14.71,8.77,13.95,17.5-1.04,11.81-10.6,18.41-25.03,17.15Zm-7.42-58.24l-1.53,17.51,7.66.67c7.33.64,11.81-2.17,12.28-7.58.51-5.79-3.09-9.26-10.19-9.88l-8.22-.72Zm-4.09,46.74l8.31.73c9.25.81,13.91-1.94,14.51-8.75.56-6.4-3.79-9.98-12.89-10.77l-8.22-.72-1.71,19.52Zm66.38-19.18l-12.61-1.1,2.81-32.17,12.61,1.1-2.81,32.17Zm22.13,1.94l-12.61-1.1,2.82-32.17,12.61,1.1-2.82,32.17Z"/><path class="cls-5" d="m806.17,752.15c-.58-6.66,4.41-11.3,12.9-12.04,8.31-.73,13.71,2.56,14.68,8.97l-8.03.7c-.6-2.24-2.97-3.44-6.14-3.17-3.24.28-5.26,1.93-5.07,4.11.16,1.87,1.69,2.86,5.09,3.26l5.42.62c7.07.82,10.41,3.51,10.87,8.74.61,6.94-4.67,11.83-13.61,12.61-8.78.77-14.52-2.52-15.56-8.93l8.4-.73c.74,2.32,3.16,3.42,6.7,3.11,3.49-.3,5.6-1.97,5.4-4.21-.17-1.93-1.56-2.75-5.24-3.21l-5.23-.64c-6.57-.84-10.13-3.91-10.59-9.21Zm44.46-23.87l8.34-.73.89,10.15,12.8-1.12.6,6.82-12.64,1.11,1.44,16.41c.23,2.58,2.19,3.89,5.46,3.6.81-.07,6.75-.62,7.12-.69l.59,6.73c-.34.09-7.12.75-7.8.81-9.34.82-13.18-1.83-13.88-9.8l-1.43-16.31-8.93.78-.6-6.82,8.93-.78-.89-10.15Zm48.39,24.91l.78,8.96,9.96-.87.55,6.26-24.66,2.16-.55-6.26,6.54-.57-1.91-21.79-7.16.63-.55-6.29,15.38-1.34.77,8.81,1.34-.12c.9-6.95,4.16-10.15,10.64-10.72,1.93-.17,3.7-.07,4.95.29l.81,9.25c-1.61-.46-3.89-.66-5.82-.49-8.09.71-11.73,4.73-11.08,12.11Zm53.68-23.96l3,34.34-8.25.72-.5-5.76-.53.05c-1.32,4.29-4.82,6.98-9.77,7.41-7.47.65-11.85-3.48-12.58-11.85l-1.94-22.23,8.53-.75,1.77,20.17c.44,5.04,2.67,7.26,7,6.89,4.36-.38,6.93-3.65,6.51-8.38l-1.74-19.86,8.5-.74Zm40.71,8.52l-8.34.73c-.9-3.81-3.36-5.48-7.07-5.15-4.58.4-6.8,4.05-6.25,10.33l.2,2.3c.55,6.29,3.37,9.49,7.95,9.09,3.74-.33,5.82-2.3,6.09-6.02l8.34-.73c-.03,8.25-4.88,13.07-13.75,13.84-10.12.89-16.22-4.35-17.13-14.78l-.32-3.61c-.91-10.43,4.19-16.65,14.31-17.53,8.87-.78,14.43,3.19,15.97,11.53Zm14.88-23.26l8.34-.73.89,10.15,12.79-1.12.6,6.82-12.64,1.11,1.43,16.41c.23,2.58,2.19,3.89,5.46,3.6.81-.07,6.76-.62,7.13-.69l.59,6.72c-.34.09-7.12.75-7.81.81-9.34.82-13.18-1.83-13.87-9.8l-1.43-16.31-8.94.78-.59-6.82,8.93-.78-.88-10.15Z"/><path class="cls-5" d="m70.99,628.22l-26.62-7.13,1.97-7.37,9.03,2.42,7.72-28.83-9.03-2.42,1.97-7.37,26.62,7.13-1.97,7.36-9.03-2.42-7.72,28.83,9.03,2.42-1.97,7.37Zm48.64-14.66l-6.92,25.84-7-1.88,6.18-23.06c.64-2.38-.16-4.12-2.06-4.63-1.96-.53-3.68.7-4.33,3.14l-6.12,22.85-6.91-1.85,6.18-23.06c.64-2.38-.1-4.1-2.06-4.63-1.99-.53-3.71.69-4.37,3.13l-6.12,22.85-7-1.88,8.92-33.29,7.21,1.93-1.4,5.22.88.23c1.78-3.63,4.6-5.11,7.89-4.23,3.02.81,4.58,3.43,4.31,7.21l.88.23c1.65-3.38,4.53-4.84,7.7-3.99,4.1,1.1,5.57,4.57,4.15,9.85Zm9.84,30.91c-6.28-1.68-9.42-6.86-7.81-12.87,1.61-6.01,6.93-8.36,15.3-6.74l7.92,1.6.71-2.66c.78-2.9-.76-5.12-4.17-6.04-2.87-.77-5.35-.08-6.6,1.82l-8.03-2.15c2.22-5.88,8.73-8.3,16.64-6.19,8.54,2.29,12.25,7.65,10.3,14.93l-6.05,22.58-7.85-2.1,1.19-4.44-.72-.19c-2.47,2.7-6.47,3.6-10.81,2.44Zm4.61-5.85c4.1,1.1,7.73-.71,8.72-4.42l.65-2.41-6.5-1.32c-3.93-.79-6.29.16-6.97,2.73-.66,2.48.91,4.58,4.11,5.44Zm33.96,29.03c-8.63-2.31-13.3-7.48-12.26-13.54l8.06,2.16c0,2.3,2.29,4.37,5.94,5.35,4.8,1.29,7.92-.21,9.03-4.37l1.76-6.55-.63-.17c-2.03,3.47-6.56,4.94-11.51,3.61-7.67-2.05-10.83-8.6-8.42-17.59l1.35-5.04c2.43-9.09,8.51-13.05,16.48-10.92,4.83,1.29,7.89,4.73,7.96,8.8l.6.16,1.52-5.68,8.12,2.18-8.91,33.26c-2.08,7.76-9.37,10.95-19.09,8.34Zm.48-29.09c-1.21,4.53.77,8.1,5.09,9.26,4.35,1.17,7.85-.94,9.07-5.46l1.29-4.8c1.21-4.53-.77-8.1-5.12-9.27-4.32-1.16-7.83.97-9.04,5.47l-1.29,4.8Zm51.75,19.62l7.79,2.09c-2.27,5.7-9.28,8.32-17.01,6.25-9.69-2.6-13.79-9.52-11.26-18.97l1.43-5.34c2.34-8.72,9.92-12.87,18.97-10.44,8.81,2.36,12.91,9.67,10.51,18.6l-1.23,4.59-21.46-5.75-.49,1.81c-1.17,4.35.88,7.94,5.2,9.09,3.32.89,6.35.08,7.54-1.93Zm-1.94-20.06c-4.29-1.15-7.62,1.03-8.9,5.8l13.49,3.62c1.28-4.77-.43-8.3-4.59-9.42Zm27.69,13.66c3.01-11.23,9.05-20.13,17.34-25.47l8.48,2.27c-9.16,8.12-13.93,15.42-16.68,25.65-2.73,10.2-2.24,18.88,1.63,30.49l-8.48-2.27c-4.51-8.78-5.3-19.47-2.3-30.67Zm33.81,7.12c1.73-6.46,8.01-9.11,16.25-6.91,8.06,2.16,12.01,7.1,10.73,13.45l-7.79-2.09c.2-2.31-1.61-4.25-4.69-5.07-3.14-.84-5.6.02-6.17,2.13-.49,1.81.61,3.27,3.66,4.8l4.88,2.44c6.36,3.19,8.58,6.86,7.22,11.93-1.8,6.73-8.44,9.52-17.1,7.19-8.51-2.28-12.79-7.34-11.56-13.71l8.15,2.18c-.1,2.43,1.79,4.3,5.23,5.22,3.38.91,5.93.07,6.52-2.1.5-1.87-.52-3.12-3.82-4.81l-4.7-2.39c-5.88-3.03-8.18-7.14-6.8-12.27Zm32.3,46.8c-1.42-.38-2.92-.82-3.15-.91l1.81-6.76c.2.12,1.36.46,1.82.58,3.35.9,5.5.24,6.99-2.17l.67-1.18-2.73-36.67,9.12,2.44.48,27.66.51.14,14.25-23.71,8.75,2.35-20.51,30.64c-5.17,7.8-9.87,9.78-18.02,7.6Zm44.13-26.32c1.73-6.46,8.01-9.11,16.25-6.9,8.06,2.16,12.01,7.1,10.73,13.45l-7.79-2.09c.2-2.31-1.61-4.25-4.69-5.07-3.14-.84-5.6.02-6.17,2.13-.48,1.81.61,3.27,3.66,4.8l4.88,2.44c6.36,3.19,8.58,6.86,7.22,11.93-1.8,6.73-8.44,9.52-17.1,7.19-8.51-2.28-12.79-7.34-11.57-13.71l8.15,2.18c-.1,2.43,1.79,4.3,5.23,5.22,3.38.91,5.93.07,6.52-2.1.5-1.87-.52-3.12-3.82-4.81l-4.7-2.39c-5.88-3.03-8.18-7.14-6.81-12.27Zm49.95-7.22l8.09,2.17-2.64,9.84,12.41,3.32-1.77,6.61-12.26-3.28-4.26,15.91c-.67,2.51.73,4.4,3.9,5.25.79.21,6.56,1.73,6.93,1.79l-1.75,6.52c-.35-.03-6.94-1.73-7.61-1.91-9.06-2.43-11.76-6.22-9.69-13.95l4.24-15.82-8.66-2.32,1.77-6.61,8.66,2.32,2.64-9.84Zm43.35,47.46l7.79,2.09c-2.27,5.7-9.28,8.32-17.01,6.25-9.69-2.6-13.79-9.52-11.26-18.97l1.43-5.34c2.34-8.72,9.92-12.87,18.98-10.45,8.81,2.36,12.91,9.67,10.51,18.6l-1.23,4.59-21.46-5.75-.49,1.81c-1.16,4.35.88,7.94,5.2,9.09,3.32.89,6.35.08,7.54-1.93Zm-1.94-20.06c-4.29-1.15-7.62,1.03-8.9,5.8l13.49,3.62c1.28-4.77-.43-8.3-4.6-9.42Zm54.17,16.39l-6.92,25.84-7-1.88,6.18-23.06c.64-2.38-.16-4.12-2.06-4.63-1.96-.53-3.68.7-4.34,3.14l-6.12,22.85-6.91-1.85,6.18-23.06c.64-2.39-.1-4.1-2.06-4.63-1.99-.53-3.71.69-4.37,3.13l-6.12,22.85-7-1.88,8.92-33.29,7.21,1.93-1.4,5.22.88.24c1.78-3.63,4.6-5.11,7.89-4.23,3.02.81,4.58,3.43,4.31,7.21l.88.23c1.65-3.38,4.53-4.84,7.7-3.99,4.11,1.1,5.57,4.57,4.16,9.85Zm6.63,29.47l-7.42-1.99,11.67-43.56,7.64,2.05,7.22,32.96.51.14,7.76-28.95,7.42,1.99-11.67,43.56-7.61-2.04-7.2-33.15-.51-.14-7.8,29.13Zm41.42,11.68c-6.28-1.68-9.42-6.86-7.81-12.87,1.61-6.01,6.93-8.37,15.3-6.74l7.92,1.6.71-2.66c.78-2.9-.76-5.12-4.17-6.04-2.87-.77-5.35-.07-6.6,1.82l-8.03-2.15c2.22-5.88,8.73-8.3,16.64-6.19,8.54,2.29,12.25,7.65,10.3,14.92l-6.05,22.58-7.85-2.1,1.19-4.44-.73-.19c-2.47,2.7-6.47,3.6-10.81,2.44Zm4.61-5.85c4.11,1.1,7.73-.71,8.72-4.42l.65-2.41-6.5-1.32c-3.93-.79-6.29.16-6.98,2.73-.66,2.47.91,4.58,4.11,5.44Zm61.99-4.58l-6.92,25.84-7-1.88,6.18-23.06c.64-2.39-.16-4.12-2.06-4.63-1.96-.53-3.68.7-4.34,3.14l-6.12,22.85-6.91-1.85,6.18-23.06c.64-2.38-.1-4.1-2.06-4.63-1.99-.53-3.71.69-4.37,3.13l-6.12,22.85-7-1.88,8.92-33.29,7.22,1.93-1.4,5.22.88.23c1.78-3.63,4.6-5.11,7.89-4.23,3.02.81,4.58,3.43,4.31,7.21l.88.23c1.65-3.38,4.53-4.84,7.7-3.99,4.1,1.1,5.57,4.57,4.16,9.85Zm24.2,24.15l7.79,2.09c-2.27,5.7-9.28,8.32-17.01,6.25-9.69-2.6-13.79-9.52-11.26-18.97l1.43-5.34c2.34-8.72,9.92-12.87,18.98-10.45,8.81,2.36,12.91,9.67,10.51,18.6l-1.23,4.59-21.46-5.75-.48,1.81c-1.17,4.35.88,7.94,5.2,9.09,3.32.89,6.35.08,7.54-1.93Zm-1.94-20.06c-4.29-1.15-7.62,1.03-8.9,5.8l13.49,3.62c1.28-4.77-.43-8.3-4.59-9.42Zm36.4,15.45c-3.65-.98-5.82-4.86-4.81-8.6,1-3.74,4.81-5.99,8.46-5.01,3.65.98,5.82,4.83,4.82,8.57-1,3.74-4.82,6.02-8.47,5.04Zm-6.12,22.85c-3.65-.98-5.82-4.86-4.82-8.57,1.01-3.77,4.82-6.02,8.47-5.04,3.65.98,5.82,4.83,4.81,8.6-.99,3.71-4.81,5.99-8.46,5.01Z"/><path class="cls-5" d="m815.94,494.01l14.13-4.05,1.42,4.96-8,2.29,9.32,32.51,8.16-2.34,1.42,4.96-14.28,4.1-12.17-42.42Zm42.81-12.27l12.16,42.42-14.28,4.1-1.42-4.96,8.16-2.34-9.32-32.51-7.98,2.29-1.42-4.96,14.1-4.04Z"/><rect class="cls-2" x="244" y="293" width="252.56" height="178.73" rx="27" ry="27"/><path class="cls-8" d="m344.63,413.53c-5.31,0-8.53-3.69-8.53-8.47,0-1.47.38-2.97,1.22-4.38l24.25-42.25c1.59-2.84,4.41-4.28,7.28-4.28s5.66,1.44,7.28,4.28l24.25,42.25c.78,1.38,1.22,2.91,1.22,4.38,0,4.78-3.22,8.47-8.53,8.47h-48.44Z"/><rect class="cls-8" x="244" y="502.82" width="252.56" height="178.73" rx="27" ry="27"/><path class="cls-4" d="m367.66,625.14c-17.41,0-31.88-14.47-31.88-31.88s14.44-31.88,31.84-31.88,31.91,14.44,31.91,31.88-14.44,31.88-31.88,31.88Z"/><rect class="cls-8" x="527.64" y="293" width="252.56" height="178.73" rx="27" ry="27"/><rect class="cls-8" x="527.64" y="502.82" width="252.56" height="178.73" rx="27" ry="27"/><path class="cls-4" d="m621.09,390.9c-4.62-4.62-4.69-9.19-.09-13.78l25.19-25.16c4.59-4.59,9.16-4.53,13.78.09l25,25c4.62,4.62,4.66,9.22.09,13.78l-25.16,25.19c-4.59,4.56-9.16,4.53-13.78-.09l-25.03-25.03Z"/><path class="cls-4" d="m635.25,622.08c-6.53,0-9.81-3.22-9.81-9.69v-38.16c0-6.47,3.28-9.69,9.81-9.69h37.91c6.56,0,9.81,3.25,9.81,9.69v38.16c0,6.44-3.25,9.69-9.81,9.69h-37.91Z"/><rect class="cls-3" x="244" y="86" width="536" height="59" rx="27" ry="27"/><g class="cls-9"><rect class="cls-3" x="244" y="176" width="348" height="59" rx="27" ry="27"/></g></g></svg>