<svg width="1024" height="768" viewBox="0 0 1024 768" fill="none" xmlns="http://www.w3.org/2000/svg">
<g clip-path="url(#clip0_21_1224)">
<rect width="1024" height="768" fill="#1E1E1E"/>
<path opacity="0.1" d="M8.9703 235.618C-9.29717 239.169 -20.157 229.485 -24.8616 205.282L-26.0065 199.392C-30.7469 175.005 -24.6813 161.744 -7.51811 158.408C8.72476 155.251 18.9928 163.856 22.9462 184.194L25.4058 196.848C26.9174 204.624 23.9761 209.637 17.212 210.952L4.32817 213.456C0.693083 214.162 -2.19156 212.097 -2.94287 208.232L-6.83359 188.216C-7.59384 184.304 -5.87711 181.344 -2.56412 180.7C0.748873 180.056 3.40345 182.167 4.16371 186.078L8.07231 206.186L14.4222 204.952C18.0573 204.245 19.1975 202.495 18.4909 198.86L16.228 187.219C12.8203 169.688 5.9149 163.151 -6.23274 165.512C-19.0706 168.007 -22.6781 177.209 -18.6711 197.823L-17.6872 202.884C-13.6176 223.821 -6.11026 231.243 8.108 228.479C12.2953 227.666 16.2461 226.372 17.9256 225.186L19.2404 231.95C17.2107 233.3 12.8355 234.867 8.9703 235.618ZM34.8127 201.514L47.1444 199.116C48.8606 204.752 54.198 207.153 61.7442 205.686C68.9224 204.29 72.8069 199.954 71.7605 194.57C70.8839 190.061 67.4739 188.241 59.4587 188.032L52.2436 187.763C39.7063 187.383 32.5822 182.178 30.6682 172.331C28.2622 159.953 35.8895 150.305 50.2458 147.514C64.1419 144.813 74.9943 150.774 77.716 162.565L65.3843 164.962C63.8138 159.584 58.9736 157.039 52.4857 158.3C45.9057 159.58 42.4098 163.458 43.3757 168.428C44.288 173.121 47.7338 175.126 55.2161 175.295L62.3302 175.536C75.7226 175.893 82.4543 180.554 84.4309 190.723C86.98 203.837 79.1316 213.576 63.625 216.59C48.5785 219.514 37.6877 213.848 34.8127 201.514ZM98.261 140.76L110.593 138.362L113.509 153.363L132.42 149.687L134.379 159.764L115.697 163.395L120.411 187.645C121.153 191.464 124.288 193.099 129.12 192.159C130.316 191.927 139.096 190.173 139.639 190.019L141.571 199.958C141.083 200.149 131.07 202.19 130.057 202.387C116.253 205.071 110.112 201.728 107.822 189.948L103.136 165.837L89.9296 168.404L87.9709 158.327L101.177 155.76L98.261 140.76ZM172.993 194.805C163.423 196.666 155.782 191.752 154.002 182.595C152.222 173.439 157.848 166.758 170.194 163.451L181.922 160.407L181.135 156.358C180.276 151.941 176.739 149.954 171.539 150.965C167.168 151.815 164.276 154.382 163.835 157.763L151.596 160.142C150.727 150.76 157.902 143.206 169.957 140.862C182.979 138.331 191.503 143.121 193.658 154.21L200.349 188.629L188.385 190.954L187.07 184.19L185.966 184.405C184.411 189.673 179.619 193.517 172.993 194.805ZM175.36 183.888C181.618 182.671 185.312 177.846 184.212 172.187L183.496 168.506L173.858 171C168.039 172.513 165.487 175.349 166.247 179.26C166.98 183.033 170.482 184.836 175.36 183.888ZM214.768 118.113L227.1 115.716L230.015 130.716L248.927 127.04L250.886 137.117L232.204 140.749L236.918 164.998C237.66 168.817 240.795 170.452 245.627 169.513C246.823 169.28 255.603 167.526 256.146 167.373L258.078 177.312C257.59 177.502 247.577 179.544 246.564 179.741C232.76 182.424 226.619 179.081 224.329 167.302L219.642 143.19L206.437 145.757L204.478 135.68L217.684 133.113L214.768 118.113ZM304.42 153.596L316.292 151.288C316.977 160.467 309.248 168.607 297.468 170.896C282.698 173.768 272.621 167.131 269.822 152.728L268.239 144.584C265.654 131.286 273.148 120.709 286.952 118.025C300.388 115.414 310.71 122.576 313.358 136.196L314.717 143.19L282.002 149.549L282.538 152.31C283.826 158.936 288.946 162.429 295.526 161.15C300.588 160.167 304.144 157.088 304.42 153.596ZM288.619 127.825C282.085 129.095 279.023 134.227 280.436 141.497L301.004 137.499C299.591 130.229 294.968 126.591 288.619 127.825ZM408.344 94.7156C419.986 92.4527 428.398 99.1264 431.082 112.931L432.781 121.673C435.473 135.523 430.173 144.862 418.532 147.125C411.216 148.547 405.492 146.126 402.609 140.383L401.689 140.562L406.644 166.054L393.53 168.603L380.382 100.963L393.312 98.4494L395.011 107.192L395.978 107.004C396.583 100.536 400.936 96.1556 408.344 94.7156ZM405.642 106.606C399.108 107.876 395.973 112.879 397.333 119.873L398.97 128.293C400.329 135.287 405.109 138.751 411.643 137.481C418.131 136.22 421.303 131.163 419.952 124.215L418.315 115.794C416.965 108.846 412.13 105.345 405.642 106.606ZM465.616 113.715L468.192 126.967L482.916 124.105L484.714 133.354L448.271 140.437L446.473 131.189L456.136 129.31L449.875 97.1006L439.292 99.1578L437.485 89.863L460.216 85.4446L462.747 98.4665L464.726 98.0819C464.976 87.5755 469.343 82.2856 478.914 80.4252C481.767 79.8706 484.415 79.7379 486.344 80.0793L489.001 93.7454C486.53 93.3183 483.101 93.3641 480.248 93.9186C468.284 96.2441 463.496 102.81 465.616 113.715ZM518.068 63.4551C512.914 64.4569 508.846 61.9527 507.916 57.1673C506.985 52.3818 509.819 48.5361 514.973 47.5343C520.126 46.5326 524.241 49.0278 525.171 53.8132C526.101 58.5987 523.221 62.4534 518.068 63.4551ZM551.618 120.349L507.767 128.873L505.817 118.841L522.106 115.675L516.149 85.0301L500.688 88.0353L498.73 77.9583L526.43 72.5739L534.345 113.296L549.668 110.318L551.618 120.349ZM552.796 67.4489L566.324 64.8193L584.89 101.131L585.627 100.988L589.101 60.3919L602.399 57.8071L594.687 111.977L580.33 114.768L552.796 67.4489ZM639.021 104.219C629.45 106.079 621.81 101.166 620.03 92.0088C618.25 82.852 623.875 76.1715 636.221 72.8644L647.95 69.8206L647.163 65.7714C646.304 61.3541 642.766 59.3676 637.567 60.3783C633.195 61.228 630.304 63.7956 629.863 67.1763L617.623 69.5555C616.755 60.1738 623.929 52.6191 635.985 50.2758C649.007 47.7446 657.53 52.5343 659.686 63.6236L666.376 98.0419L654.413 100.367L653.098 93.6034L651.994 93.8181C650.439 99.0865 645.647 102.931 639.021 104.219ZM641.388 93.301C647.645 92.0846 651.34 87.2599 650.239 81.6002L649.524 77.9191L639.885 80.4134C634.067 81.9264 631.514 84.7624 632.275 88.6736C633.008 92.4467 636.51 94.2491 641.388 93.301ZM680.796 27.5263L693.127 25.1292L696.043 40.1297L714.955 36.4537L716.913 46.5307L698.232 50.162L702.945 74.4113C703.688 78.2304 706.823 79.8654 711.654 78.9262C712.851 78.6937 721.63 76.9393 722.174 76.786L724.106 86.725C723.617 86.9154 713.604 88.9572 712.592 89.154C698.788 91.8373 692.647 88.4945 690.357 76.715L685.67 52.6038L672.464 55.1708L670.505 45.0937L683.711 42.5268L680.796 27.5263ZM770.448 63.0093L782.319 60.7017C783.005 69.8801 775.275 78.0201 763.496 80.3098C748.726 83.1809 738.649 76.5442 735.849 62.1419L734.266 53.9974C731.682 40.6994 739.176 30.122 752.98 27.4387C766.416 24.827 776.738 31.9891 779.385 45.6092L780.745 52.6033L748.029 58.9626L748.566 61.7234C749.854 68.3494 754.974 71.8429 761.554 70.5639C766.615 69.58 770.171 66.5012 770.448 63.0093ZM754.646 37.2384C748.112 38.5084 745.051 43.64 746.464 50.9102L767.032 46.9121C765.619 39.6419 760.996 36.0041 754.646 37.2384ZM844.063 10.8323L857.591 8.2027L876.158 44.5147L876.894 44.3716L880.368 3.77533L893.666 1.19047L885.954 55.3603L871.598 58.1509L844.063 10.8323ZM930.288 47.6022C920.717 49.4626 913.077 44.5489 911.297 35.3922C909.517 26.2354 915.143 19.5549 927.488 16.2478L939.217 13.204L938.43 9.1548C937.571 4.73748 934.033 2.75102 928.834 3.76171C924.463 4.61141 921.571 7.17902 921.13 10.5597L908.89 12.9388C908.022 3.5572 915.197 -3.99747 927.252 -6.34085C940.274 -8.87205 948.798 -4.08231 950.953 7.00701L957.643 41.4253L945.68 43.7508L944.365 36.9868L943.261 37.2014C941.706 42.4699 936.914 46.3142 930.288 47.6022ZM932.655 36.6844C938.913 35.468 942.607 30.6432 941.507 24.9835L940.791 21.3024L931.152 23.7968C925.334 25.3097 922.782 28.1458 923.542 32.057C924.275 35.8301 927.777 37.6325 932.655 36.6844ZM989.897 11.805L992.473 25.057L1007.2 22.1949L1008.99 31.4436L972.552 38.5274L970.754 29.2786L980.417 27.4004L974.156 -4.80928L963.573 -2.75213L961.766 -12.0469L984.497 -16.4653L987.028 -3.44343L989.007 -3.82803C989.257 -14.3344 993.625 -19.6243 1003.2 -21.4847C1006.05 -22.0393 1008.7 -22.172 1010.63 -21.8306L1013.28 -8.16455C1010.81 -8.59161 1007.38 -8.54581 1004.53 -7.99127C992.565 -5.66578 987.777 0.899754 989.897 11.805Z" fill="#00FA92"/>
<path opacity="0.1" d="M784.984 778.501L768.048 779.982L764.118 735.06L780.649 733.614C789.272 732.859 794.836 736.576 795.449 743.581C795.874 748.437 792.806 752.815 788.199 753.939L788.245 754.469C794.261 754.382 798.921 758.522 799.43 764.344C800.119 772.22 794.603 777.659 784.984 778.501ZM773.369 741.121L774.391 752.795L779.496 752.348C784.384 751.921 787 749.559 786.684 745.947C786.347 742.087 783.58 740.227 778.848 740.641L773.369 741.121ZM776.096 772.283L781.637 771.798C787.801 771.259 790.545 768.917 790.147 764.372C789.774 760.107 786.507 758.26 780.436 758.791L774.957 759.27L776.096 772.283ZM834.965 739.527L837.969 773.865L829.719 774.587L829.215 768.828L828.686 768.874C827.367 773.161 823.87 775.851 818.92 776.285C811.448 776.938 807.071 772.804 806.339 764.43L804.394 742.202L812.924 741.456L814.689 761.629C815.13 766.672 817.363 768.892 821.69 768.513C826.049 768.132 828.618 764.865 828.204 760.133L826.466 740.271L834.965 739.527ZM851.135 728.231L859.479 727.501L860.366 737.65L873.161 736.531L873.758 743.348L861.119 744.454L862.554 760.86C862.78 763.444 864.745 764.747 868.014 764.461C868.823 764.39 874.766 763.839 875.137 763.775L875.725 770.499C875.388 770.591 868.607 771.247 867.922 771.307C858.583 772.124 854.744 769.48 854.047 761.51L852.62 745.198L843.685 745.979L843.089 739.162L852.023 738.38L851.135 728.231ZM890.547 724.783L898.891 724.053L899.778 734.202L912.573 733.083L913.17 739.9L900.531 741.006L901.966 757.412C902.192 759.996 904.157 761.299 907.425 761.013C908.235 760.942 914.178 760.39 914.549 760.327L915.137 767.051C914.8 767.143 908.019 767.799 907.334 767.859C897.995 768.676 894.156 766.032 893.459 758.062L892.032 741.75L883.097 742.531L882.501 735.714L891.435 734.932L890.547 724.783ZM940.985 765.605C931.303 766.452 924.686 761.102 923.867 751.732L923.404 746.44C922.584 737.069 928.171 730.652 937.853 729.804C947.534 728.957 954.151 734.307 954.971 743.678L955.434 748.97C956.253 758.341 950.666 764.758 940.985 765.605ZM938.463 736.778C933.886 737.178 931.342 740.726 931.808 746.049L932.211 750.657C932.674 755.949 935.798 759.032 940.375 758.632C944.951 758.231 947.492 754.653 947.029 749.36L946.626 744.753C946.161 739.429 943.039 736.377 938.463 736.778ZM965.046 762.747L962.042 728.41L970.292 727.688L970.795 733.447L971.325 733.401C972.643 729.113 976.144 726.454 981.094 726.021C988.565 725.368 992.942 729.502 993.675 737.876L995.617 760.073L987.087 760.819L985.322 740.646C984.881 735.603 982.647 733.383 978.32 733.761C973.962 734.143 971.393 737.41 971.81 742.173L973.545 762.004L965.046 762.747ZM1072.77 760.224L1067.76 760.663C1058.76 761.45 1055.58 758.873 1054.82 750.156L1054.22 743.307C1053.79 738.389 1051.38 736.686 1044.56 737.534L1043.8 728.848C1050.67 728.529 1052.75 726.434 1052.32 721.516L1051.71 714.636C1050.95 705.919 1053.63 702.83 1062.63 702.043L1067.64 701.604L1068.24 708.453L1065.25 708.715C1060.83 709.101 1060.05 710.205 1060.5 715.342L1061.26 724.027C1061.63 728.261 1058.82 731.299 1053.21 732.134L1053.26 732.694C1058.93 732.544 1062.22 735.016 1062.59 739.281L1063.35 747.936C1063.8 753.072 1064.76 754.024 1069.18 753.637L1072.17 753.375L1072.77 760.224Z" fill="#00FA92"/>
<path opacity="0.1" d="M52.5428 666.625L46.2905 666.023C46.1491 663.09 44.5575 661.524 41.7813 661.257C38.3518 660.927 36.215 663.311 35.7613 668.023L35.595 669.75C35.1413 674.462 36.7839 677.211 40.2133 677.541C43.0129 677.81 44.8206 676.642 45.529 673.932L51.7813 674.534C50.6306 680.616 46.3967 683.505 39.7478 682.864C32.1657 682.134 28.3797 677.437 29.1322 669.622L29.3928 666.916C30.1453 659.1 34.758 655.212 42.3401 655.942C48.9891 656.582 52.5428 660.268 52.5428 666.625ZM68.7698 685.659C61.5143 684.96 57.3663 680.111 58.0424 673.089L58.4243 669.122C59.1005 662.1 64.0977 658.131 71.3532 658.83C78.6087 659.529 82.7567 664.378 82.0805 671.4L81.6987 675.366C81.0225 682.389 76.0253 686.358 68.7698 685.659ZM70.85 664.056C67.4205 663.726 65.0594 665.994 64.6753 669.983L64.3428 673.436C63.9609 677.402 65.8436 680.103 69.273 680.433C72.7025 680.763 75.0658 678.471 75.4477 674.505L75.7802 671.053C76.1643 667.063 74.2794 664.386 70.85 664.056ZM112.292 663.313L109.814 689.046L103.631 688.451L104.047 684.135L103.65 684.096C102.092 687.078 99.145 688.584 95.4356 688.227C89.8364 687.687 87.1737 684.04 87.778 677.765L89.3819 661.107L95.7742 661.723L94.3186 676.841C93.9547 680.62 95.2981 682.562 98.5409 682.875C101.807 683.189 104.148 681.131 104.489 677.584L105.923 662.7L112.292 663.313ZM116.439 689.684L118.917 663.951L125.1 664.547L124.684 668.863L125.081 668.901C126.639 665.919 129.584 664.437 133.293 664.794C138.892 665.333 141.555 668.98 140.951 675.256L139.349 691.89L132.957 691.274L134.412 676.157C134.776 672.377 133.433 670.435 130.19 670.123C126.924 669.808 124.583 671.867 124.239 675.436L122.808 690.297L116.439 689.684ZM155.296 660.037L161.548 660.639L160.816 668.245L170.404 669.168L169.912 674.277L160.44 673.365L159.257 685.66C159.07 687.596 160.341 688.825 162.791 689.061C163.397 689.12 167.855 689.525 168.138 689.529L167.652 694.568C167.391 694.59 162.301 694.147 161.788 694.098C154.789 693.424 152.319 690.949 152.894 684.977L154.071 672.752L147.376 672.107L147.868 666.998L154.563 667.643L155.296 660.037ZM193.237 689.779L199.256 690.359C198.281 694.857 193.42 697.661 187.447 697.086C179.959 696.365 176.07 691.753 176.774 684.45L177.171 680.321C177.82 673.579 182.915 669.572 189.914 670.246C196.726 670.902 200.658 675.801 199.993 682.707L199.651 686.253L183.064 684.656L182.929 686.056C182.606 689.415 184.564 691.817 187.9 692.138C190.467 692.385 192.609 691.414 193.237 689.779ZM189.321 675.181C186.009 674.862 183.812 676.887 183.457 680.573L193.885 681.577C194.24 677.891 192.541 675.491 189.321 675.181ZM217.109 687.863L216.462 694.582L223.927 695.301L223.476 699.99L204.999 698.211L205.45 693.522L210.349 693.994L211.922 677.663L206.556 677.146L207.01 672.434L218.535 673.543L217.899 680.146L218.902 680.242C220.514 675.241 223.359 673.325 228.212 673.792C229.658 673.932 230.946 674.244 231.823 674.682L231.155 681.611C230.032 681.055 228.381 680.59 226.935 680.451C220.869 679.867 217.641 682.334 217.109 687.863ZM279.72 693.209L278.784 702.938L272.788 702.36L273.725 692.632L264.043 691.7L264.6 685.914L274.282 686.846L275.219 677.118L281.214 677.695L280.278 687.424L289.959 688.356L289.402 694.142L279.72 693.209ZM319.176 691.334L294.446 688.953L295.062 682.56L319.791 684.942L319.176 691.334ZM318.03 703.232L293.301 700.851L293.916 694.458L318.645 696.84L318.03 703.232ZM377.241 714.796L353.072 712.469L353.604 706.94L362.679 707.814L364.755 686.257L364.335 686.217L355.101 691.143L355.703 684.891L365.388 679.678L371.874 680.303L369.165 708.438L377.773 709.267L377.241 714.796Z" fill="#00FA92"/>
<path opacity="0.1" d="M712.225 546.793L706.187 548.524C704.981 545.847 702.926 544.973 700.245 545.742C696.933 546.691 695.819 549.693 697.124 554.244L697.602 555.911C698.907 560.462 701.442 562.417 704.754 561.467C707.458 560.692 708.712 558.943 708.378 556.162L714.415 554.43C715.574 560.51 712.693 564.75 706.272 566.591C698.95 568.691 693.706 565.708 691.542 558.161L690.793 555.547C688.628 548 691.495 542.692 698.817 540.592C705.238 538.751 709.895 540.878 712.225 546.793ZM734.299 558.555C727.292 560.564 721.656 557.572 719.711 550.79L718.613 546.96C716.668 540.179 719.863 534.655 726.87 532.646C733.876 530.636 739.513 533.628 741.458 540.41L742.556 544.24C744.501 551.021 741.306 556.545 734.299 558.555ZM728.317 537.692C725.005 538.642 723.64 541.618 724.744 545.47L725.7 548.805C726.799 552.635 729.54 554.458 732.852 553.508C736.164 552.558 737.523 549.56 736.425 545.73L735.468 542.395C734.364 538.543 731.629 536.743 728.317 537.692ZM766.603 521.813L773.729 546.663L767.758 548.375L766.563 544.207L766.18 544.317C765.823 547.662 763.633 550.143 760.05 551.171C754.643 552.721 750.829 550.304 749.091 544.243L744.479 528.157L750.652 526.387L754.838 540.986C755.885 544.636 757.847 545.951 760.978 545.053C764.132 544.148 765.556 541.375 764.574 537.951L760.452 523.577L766.603 521.813ZM780.127 544.828L773.001 519.978L778.972 518.266L780.167 522.434L780.55 522.325C780.907 518.979 783.104 516.521 786.686 515.494C792.093 513.943 795.907 516.36 797.645 522.421L802.251 538.485L796.078 540.255L791.892 525.655C790.845 522.006 788.883 520.691 785.752 521.589C782.597 522.493 781.174 525.266 782.162 528.714L786.277 543.065L780.127 544.828ZM805.414 503.004L811.452 501.272L813.558 508.617L822.818 505.962L824.232 510.896L815.085 513.519L818.49 525.392C819.026 527.262 820.659 527.94 823.025 527.261C823.61 527.093 827.907 525.837 828.171 525.737L829.566 530.603C829.331 530.719 824.433 532.173 823.937 532.315C817.178 534.253 813.974 532.856 812.32 527.088L808.935 515.282L802.469 517.137L801.054 512.203L807.52 510.348L805.414 503.004ZM851.616 516.771L857.428 515.104C858.17 519.646 854.675 524.037 848.907 525.691C841.675 527.765 836.367 524.898 834.345 517.847L833.201 513.859C831.334 507.348 834.606 501.753 841.365 499.815C847.944 497.928 853.397 501.046 855.309 507.715L856.291 511.139L840.273 515.732L840.66 517.084C841.591 520.328 844.293 521.845 847.515 520.921C849.993 520.211 851.63 518.522 851.616 516.771ZM842.622 504.623C839.423 505.54 838.122 508.23 839.142 511.79L849.213 508.902C848.192 505.342 845.731 503.732 842.622 504.623ZM873.124 506.239L874.985 512.728L882.194 510.66L883.493 515.189L865.649 520.305L864.351 515.777L869.082 514.42L864.56 498.65L859.378 500.135L858.073 495.584L869.203 492.393L871.031 498.769L872 498.491C871.666 493.247 873.611 490.422 878.297 489.078C879.694 488.678 881.008 488.496 881.983 488.582L883.902 495.273C882.653 495.168 880.946 495.341 879.55 495.741C873.692 497.421 871.593 500.9 873.124 506.239ZM940.838 480.239L916.957 487.087L915.187 480.914L939.068 474.066L940.838 480.239ZM944.133 491.729L920.252 498.577L918.482 492.404L942.363 485.556L944.133 491.729ZM991.04 485.082C983.245 487.317 977.078 482.478 973.971 471.641C970.863 460.804 973.528 453.432 981.324 451.197C989.141 448.955 995.308 453.795 998.415 464.631C1001.52 475.468 998.858 482.84 991.04 485.082ZM980.234 469.845C980.318 470.138 980.395 470.408 980.473 470.679L989.529 460.085C987.649 457.015 985.388 455.762 982.842 456.492C978.989 457.596 978.07 462.298 980.234 469.845ZM989.522 479.787C993.397 478.676 994.323 473.997 992.152 466.427C992.075 466.157 992.003 465.909 991.926 465.639L982.87 476.233C984.744 479.28 986.998 480.511 989.522 479.787Z" fill="#00FA92"/>
<g filter="url(#filter0_d_21_1224)">
<path d="M446.625 475V440.875H366V412.375L420.875 294.625H456.75L403.75 409.5V411.75H447.75V366.25H479.375V412.375H503.875V440.875H479.875V475H446.625ZM525.875 349C525.875 314.5 552 291 589.875 291C627.125 291 652.25 312.125 652.25 343.375C652.25 363.125 641.875 380 611.375 409.25L576.125 442.875V445.125H655V475H527.875V450.125L586.625 392C611.25 367.375 617.625 357.875 617.625 345.75C617.625 330.125 606.25 319.875 588.75 319.875C570.875 319.875 558.875 331.625 558.875 348.875V349.75H525.875V349Z" fill="#00FA92"/>
</g>
<g filter="url(#filter1_d_21_1224)">
<rect x="140" y="309" width="150" height="150" rx="27" fill="#032718"/>
<rect x="135" y="304" width="160" height="160" rx="32" stroke="#00FA92" stroke-width="10"/>
</g>
<path d="M197.93 387.664C197.336 387.664 196.773 387.5 196.242 387.172C195.711 386.844 195.273 386.414 194.93 385.883C194.602 385.336 194.438 384.742 194.438 384.102C194.438 383.461 194.602 382.875 194.93 382.344C195.273 381.797 195.711 381.367 196.242 381.055C196.773 380.727 197.336 380.562 197.93 380.562H231.07C231.695 380.562 232.273 380.727 232.805 381.055C233.336 381.367 233.758 381.797 234.07 382.344C234.398 382.875 234.562 383.461 234.562 384.102C234.562 384.742 234.398 385.336 234.07 385.883C233.758 386.414 233.336 386.844 232.805 387.172C232.273 387.5 231.695 387.664 231.07 387.664H197.93Z" fill="white"/>
<g filter="url(#filter2_d_21_1224)">
<rect x="733" y="309" width="150" height="150" rx="27" fill="#032718"/>
<rect x="728" y="304" width="160" height="160" rx="32" stroke="#00FA92" stroke-width="10"/>
</g>
<path d="M787.391 384.078C787.391 383.094 787.734 382.258 788.422 381.57C789.125 380.867 789.969 380.516 790.953 380.516H803.961V367.531C803.961 366.547 804.305 365.711 804.992 365.023C805.68 364.32 806.516 363.969 807.5 363.969C808.484 363.969 809.32 364.32 810.008 365.023C810.711 365.711 811.062 366.547 811.062 367.531V380.516H824.07C825.039 380.516 825.867 380.867 826.555 381.57C827.258 382.258 827.609 383.094 827.609 384.078C827.609 385.062 827.258 385.906 826.555 386.609C825.867 387.297 825.039 387.641 824.07 387.641H811.062V400.648C811.062 401.617 810.711 402.445 810.008 403.133C809.32 403.836 808.484 404.188 807.5 404.188C806.516 404.188 805.68 403.836 804.992 403.133C804.305 402.445 803.961 401.617 803.961 400.648V387.641H790.953C789.969 387.641 789.125 387.297 788.422 386.609C787.734 385.906 787.391 385.062 787.391 384.078Z" fill="white"/>
</g>
<defs>
<filter id="filter0_d_21_1224" x="347" y="276" width="327" height="222" filterUnits="userSpaceOnUse" color-interpolation-filters="sRGB">
<feFlood flood-opacity="0" result="BackgroundImageFix"/>
<feColorMatrix in="SourceAlpha" type="matrix" values="0 0 0 0 0 0 0 0 0 0 0 0 0 0 0 0 0 0 127 0" result="hardAlpha"/>
<feOffset dy="4"/>
<feGaussianBlur stdDeviation="9.5"/>
<feComposite in2="hardAlpha" operator="out"/>
<feColorMatrix type="matrix" values="0 0 0 0 0 0 0 0 0 0.980392 0 0 0 0 0.572549 0 0 0 0.25 0"/>
<feBlend mode="normal" in2="BackgroundImageFix" result="effect1_dropShadow_21_1224"/>
<feBlend mode="normal" in="SourceGraphic" in2="effect1_dropShadow_21_1224" result="shape"/>
</filter>
<filter id="filter1_d_21_1224" x="94" y="267" width="242" height="242" filterUnits="userSpaceOnUse" color-interpolation-filters="sRGB">
<feFlood flood-opacity="0" result="BackgroundImageFix"/>
<feColorMatrix in="SourceAlpha" type="matrix" values="0 0 0 0 0 0 0 0 0 0 0 0 0 0 0 0 0 0 127 0" result="hardAlpha"/>
<feOffset dy="4"/>
<feGaussianBlur stdDeviation="18"/>
<feComposite in2="hardAlpha" operator="out"/>
<feColorMatrix type="matrix" values="0 0 0 0 0 0 0 0 0 0.980392 0 0 0 0 0.572549 0 0 0 0.25 0"/>
<feBlend mode="normal" in2="BackgroundImageFix" result="effect1_dropShadow_21_1224"/>
<feBlend mode="normal" in="SourceGraphic" in2="effect1_dropShadow_21_1224" result="shape"/>
</filter>
<filter id="filter2_d_21_1224" x="687" y="267" width="242" height="242" filterUnits="userSpaceOnUse" color-interpolation-filters="sRGB">
<feFlood flood-opacity="0" result="BackgroundImageFix"/>
<feColorMatrix in="SourceAlpha" type="matrix" values="0 0 0 0 0 0 0 0 0 0 0 0 0 0 0 0 0 0 127 0" result="hardAlpha"/>
<feOffset dy="4"/>
<feGaussianBlur stdDeviation="18"/>
<feComposite in2="hardAlpha" operator="out"/>
<feColorMatrix type="matrix" values="0 0 0 0 0 0 0 0 0 0.980392 0 0 0 0 0.572549 0 0 0 0.25 0"/>
<feBlend mode="normal" in2="BackgroundImageFix" result="effect1_dropShadow_21_1224"/>
<feBlend mode="normal" in="SourceGraphic" in2="effect1_dropShadow_21_1224" result="shape"/>
</filter>
<clipPath id="clip0_21_1224">
<rect width="1024" height="768" fill="white"/>
</clipPath>
</defs>
</svg>
