<svg width="1024" height="768" viewBox="0 0 1024 768" fill="none" xmlns="http://www.w3.org/2000/svg">
<rect width="1024" height="768" fill="#1E1E1E"/>
<g filter="url(#filter0_d_26_1275)">
<path d="M549.097 384.938L552.189 381.417L548.876 378.103L505.81 335.037L502.506 331.734L498.986 334.806L339.904 473.673L339.899 473.677C331.659 480.887 326.68 489.123 326.064 497.948C325.443 506.847 329.333 515.249 336.56 522.558L336.575 522.573L336.591 522.588L361.043 546.894C361.045 546.896 361.047 546.898 361.049 546.9C368.308 554.156 376.722 557.997 385.612 557.354C394.42 556.717 402.651 551.751 409.796 543.575C409.797 543.574 409.798 543.573 409.799 543.572L549.097 384.938ZM621.517 420.795L621.547 420.825L621.578 420.854C625.343 424.444 629.824 426.795 634.714 426.956C639.686 427.12 644.259 424.993 648.038 421.218C648.04 421.216 648.043 421.213 648.045 421.211L692.126 377.423L692.132 377.417L692.138 377.412C695.866 373.683 697.848 369.02 697.606 364.074C697.368 359.206 695.01 354.681 691.251 350.997L680.736 340.335L680.701 340.3L680.665 340.265C677.544 337.224 674.602 335.082 671.265 333.885C667.911 332.682 664.649 332.614 661.292 332.854L661.173 332.862L661.055 332.876L646.328 334.638L639.042 327.352L643.359 309.447C643.36 309.442 643.361 309.437 643.363 309.431C646.411 297.035 641.449 284.641 630.029 273.221L630.02 273.212L630.011 273.203L600.578 244.064C600.576 244.062 600.574 244.061 600.573 244.059C558.124 201.769 479.965 196.787 435.757 240.842L435.751 240.848C431.415 245.183 429.334 250.159 429.36 255.14C429.386 260.033 431.443 264.41 434.419 267.674L434.533 267.799L434.654 267.915C439.28 272.349 446.535 274.819 453.639 272.602C479.866 264.765 501.755 263.266 520.516 272.74L510.796 298.238C510.794 298.242 510.793 298.247 510.791 298.251C508.12 305.136 507.346 311.462 508.65 317.415C509.953 323.358 513.208 328.372 517.602 332.848L517.618 332.864L517.634 332.881L550.3 365.547L550.301 365.547C553.772 369.018 557.583 371.503 562.124 372.733C566.617 373.949 571.4 373.821 576.642 372.773L576.654 372.771L576.666 372.768L597.592 368.479L604.89 375.875L603.497 390.693L603.491 390.757L603.487 390.821C603.258 394.177 603.224 397.569 604.38 400.985C605.555 404.458 607.765 407.423 611.026 410.45L621.517 420.795Z" stroke="#00FA92" stroke-width="10" shape-rendering="crispEdges"/>
</g>
<defs>
<filter id="filter0_d_26_1275" x="284.999" y="172.996" width="453.627" height="429.428" filterUnits="userSpaceOnUse" color-interpolation-filters="sRGB">
<feFlood flood-opacity="0" result="BackgroundImageFix"/>
<feColorMatrix in="SourceAlpha" type="matrix" values="0 0 0 0 0 0 0 0 0 0 0 0 0 0 0 0 0 0 127 0" result="hardAlpha"/>
<feOffset dy="4"/>
<feGaussianBlur stdDeviation="18"/>
<feComposite in2="hardAlpha" operator="out"/>
<feColorMatrix type="matrix" values="0 0 0 0 0 0 0 0 0 0.980392 0 0 0 0 0.572549 0 0 0 0.5 0"/>
<feBlend mode="normal" in2="BackgroundImageFix" result="effect1_dropShadow_26_1275"/>
<feBlend mode="normal" in="SourceGraphic" in2="effect1_dropShadow_26_1275" result="shape"/>
</filter>
</defs>
</svg>