<svg width="1024" height="768" viewBox="0 0 1024 768" fill="none" xmlns="http://www.w3.org/2000/svg">
<g clip-path="url(#clip0_21_1248)">
<rect width="1024" height="768" fill="#1E1E1E"/>
<path opacity="0.1" d="M73.2266 103.778L69.5638 96.1646C66.8793 96.7296 63.9474 96.8966 60.8187 96.6229C44.6616 95.2093 35.8785 83.195 37.5167 64.4696L38.4196 54.1497C40.0579 35.4243 50.7939 25.1177 66.9509 26.5312C83.1079 27.9448 91.8911 39.9591 90.2529 58.6845L89.35 69.0045C88.4675 79.0909 84.9286 86.7335 79.3426 91.4207L85.788 104.877L73.2266 103.778ZM61.7828 85.6025C62.7168 85.6842 63.6122 85.6684 64.465 85.6019L58.6178 73.3739L71.1792 74.4728L73.4102 79.0911C74.835 76.2513 75.8197 72.5261 76.2242 67.9031L77.0698 58.2369C78.1647 45.7222 74.2334 39.026 65.9214 38.2988C57.6094 37.5716 52.575 43.4834 51.4801 55.9981L50.6344 65.6643C49.5395 78.179 53.4708 84.8753 61.7828 85.6025ZM147.489 50.9404L142.983 102.447L130.609 101.364L131.364 92.7253L130.571 92.6558C127.506 98.6459 121.638 101.709 114.213 101.059C103.006 100.079 97.6173 92.8313 98.7163 80.2699L101.633 46.9285L114.428 48.0479L111.781 78.3073C111.119 85.8722 113.84 89.7334 120.33 90.3013C126.868 90.8732 131.514 86.7154 132.135 79.6175L134.741 49.8251L147.489 50.9404ZM191.6 92.1134L203.648 93.1675C201.777 102.179 192.103 107.874 180.149 106.828C165.159 105.516 157.303 96.3591 158.581 81.7431L159.304 73.4778C160.485 59.9825 170.605 51.8805 184.614 53.1061C198.249 54.2991 206.197 64.0288 204.988 77.851L204.367 84.9489L171.165 82.0441L170.92 84.8459C170.332 91.5703 174.291 96.3397 180.968 96.9239C186.105 97.3733 190.372 95.3939 191.6 92.1134ZM183.514 62.9854C176.883 62.4052 172.526 66.4942 171.88 73.8722L192.754 75.6984C193.399 68.3203 189.958 63.5492 183.514 62.9854ZM220.655 72.493C221.529 62.4999 230.109 56.9452 242.857 58.0606C255.325 59.1514 262.446 65.4209 262.207 75.1402L250.16 74.0862C249.851 70.6242 246.673 68.2287 241.909 67.812C237.053 67.3871 233.639 69.2999 233.353 72.5687C233.108 75.3705 235.109 77.2395 240.015 78.704L247.858 81.037C258.083 84.0961 262.318 88.9367 261.632 96.7817C260.72 107.195 251.646 113.036 238.244 111.863C225.075 110.711 217.444 104.35 217.59 94.6225L230.198 95.7256C230.681 99.344 233.965 101.608 239.288 102.073C244.518 102.531 248.073 100.63 248.367 97.2681C248.62 94.3729 246.781 92.8004 241.467 91.1591L233.905 88.8506C224.422 85.9036 219.96 80.4314 220.655 72.493ZM292.555 48.81L305.07 49.9049L303.738 65.128L322.93 66.8071L322.036 77.0337L303.077 75.375L300.924 99.9841C300.585 103.86 303.148 106.296 308.051 106.725C309.265 106.831 318.188 107.565 318.753 107.567L317.87 117.653C317.348 117.702 307.16 116.905 306.133 116.815C292.124 115.589 287.142 110.683 288.188 98.7287L290.329 74.2596L276.927 73.0871L277.821 62.8606L291.223 64.0331L292.555 48.81ZM362.699 59.1817C357.469 58.7241 354.249 55.1956 354.674 50.3392C355.099 45.4827 358.883 42.5671 364.113 43.0246C369.343 43.4822 372.61 47.0148 372.185 51.8712C371.76 56.7277 367.929 59.6392 362.699 59.1817ZM379.268 123.119L334.766 119.226L335.657 109.046L352.187 110.492L354.908 79.392L339.218 78.0193L340.113 67.7928L368.224 70.2522L364.609 111.579L380.159 112.939L379.268 123.119ZM415.547 127.422C401.024 126.152 392.644 116.525 393.873 102.47L394.568 94.5312C395.798 80.4755 405.722 72.4506 420.245 73.7212C434.768 74.9917 443.148 84.6182 441.918 98.6738L441.224 106.612C439.994 120.668 430.069 128.693 415.547 127.422ZM419.33 84.1812C412.465 83.5807 407.783 88.1587 407.084 96.1439L406.48 103.055C405.785 110.993 409.597 116.362 416.462 116.962C423.326 117.563 428.013 112.938 428.707 105L429.312 98.0885C430.011 90.1034 426.194 84.7818 419.33 84.1812ZM451.835 129.468L456.341 77.9614L468.716 79.044L467.96 87.6829L468.754 87.7524C471.819 81.7623 477.682 78.7463 485.107 79.3958C496.314 80.3763 501.703 87.6236 500.604 100.185L497.691 133.48L484.896 132.36L487.543 102.101C488.205 94.536 485.484 90.6748 478.994 90.1069C472.456 89.535 467.81 93.6928 467.185 100.837L464.583 130.583L451.835 129.468ZM523.564 101.817C525.084 84.4462 531.689 69.7315 542.544 59.6705L555.666 60.8186C544.244 75.2059 539.098 87.2251 537.714 103.055C536.333 118.839 539.317 131.522 548.067 147.674L534.945 146.526C526.002 134.733 522.049 119.142 523.564 101.817ZM588.145 74.6707L600.66 75.7656L599.328 90.9887L618.52 92.6678L617.625 102.894L598.667 101.236L596.514 125.845C596.174 129.721 598.738 132.156 603.641 132.585C604.855 132.692 613.778 133.425 614.342 133.428L613.46 143.514C612.938 143.563 602.75 142.765 601.723 142.675C587.714 141.45 582.732 136.544 583.778 124.589L585.918 100.12L572.516 98.9479L573.411 88.7213L586.813 89.8938L588.145 74.6707ZM658.289 85.0424C653.059 84.5849 649.839 81.0564 650.264 76.1999C650.689 71.3435 654.473 68.4278 659.703 68.8854C664.933 69.343 668.2 72.8755 667.775 77.732C667.35 82.5884 663.519 85.5 658.289 85.0424ZM674.858 148.98L630.356 145.086L631.247 134.907L647.777 136.353L650.498 105.253L634.808 103.88L635.703 93.6535L663.814 96.113L660.198 137.439L675.748 138.8L674.858 148.98ZM706.381 85.015L718.896 86.1099L717.564 101.333L736.756 103.012L735.861 113.239L716.902 111.58L714.749 136.189C714.41 140.065 716.973 142.501 721.877 142.93C723.091 143.036 732.014 143.77 732.578 143.772L731.696 153.858C731.174 153.907 720.986 153.11 719.959 153.02C705.95 151.794 700.968 146.888 702.013 134.934L704.154 110.465L690.752 109.292L691.647 99.0656L705.049 100.238L706.381 85.015ZM793.094 159.324L748.592 155.431L749.482 145.251L765.826 146.681L770.267 95.9215L754.764 94.5651L755.654 84.3852L783.953 86.861L778.621 147.8L793.984 149.144L793.094 159.324ZM841.897 149.007L853.945 150.061C852.074 159.073 842.401 164.767 830.446 163.721C815.457 162.41 807.6 153.253 808.879 138.637L809.602 130.371C810.782 116.876 820.902 108.774 834.911 110C848.547 111.193 856.494 120.922 855.285 134.745L854.664 141.843L821.463 138.938L821.218 141.74C820.629 148.464 824.588 153.233 831.266 153.818C836.402 154.267 840.669 152.288 841.897 149.007ZM833.812 119.879C827.181 119.299 822.823 123.388 822.178 130.766L843.051 132.592C843.697 125.214 840.256 120.443 833.812 119.879ZM891.603 133.217C885.953 132.722 881.747 127.555 882.253 121.764C882.76 115.974 887.796 111.662 893.446 112.156C899.096 112.651 903.307 117.772 902.8 123.562C902.293 129.352 897.254 133.711 891.603 133.217ZM888.511 168.566C882.86 168.072 878.654 162.904 879.157 157.16C879.667 151.323 884.703 147.012 890.353 147.506C896.004 148 900.214 153.121 899.703 158.958C899.201 164.702 894.161 169.06 888.511 168.566ZM1005.14 142.397L992.533 141.294L995.348 109.12L1007.96 110.223L1005.14 142.397ZM1027.28 144.334L1014.67 143.231L1017.48 111.057L1030.09 112.16L1027.28 144.334ZM1069.79 143.536L1069.04 143.47L1058.52 182.546L1046.84 181.524L1042.28 113.226L1054.33 114.28L1055 137.772L1055.33 164.622L1056.08 164.687L1065.35 130.772L1075.63 131.671L1078.87 166.681L1079.62 166.746L1084.61 140.362L1089.35 117.344L1101.4 118.398L1085.04 184.866L1073.37 183.845L1069.79 143.536ZM1101.95 186.345L1108.17 115.226L1120.64 116.317L1118.15 144.708L1118.9 144.774C1121.91 138.826 1127.97 135.78 1135.49 136.438C1146.65 137.414 1152.21 144.771 1151.13 157.192L1148.22 190.394L1135.43 189.274L1138.06 159.202C1138.72 151.684 1135.86 147.717 1129.37 147.149C1122.65 146.561 1117.9 150.757 1117.28 157.855L1114.69 187.46L1101.95 186.345ZM1177.15 193.771C1167.43 192.922 1161.44 186.092 1162.26 176.8C1163.07 167.507 1170.32 162.636 1183.1 162.86L1195.21 163.167L1195.57 159.057C1195.96 154.575 1193.11 151.69 1187.83 151.228C1183.4 150.84 1179.91 152.511 1178.55 155.639L1166.13 154.553C1167.88 145.295 1176.86 140.011 1189.1 141.081C1202.31 142.237 1209.19 149.191 1208.2 160.445L1205.14 195.374L1193 194.312L1193.6 187.447L1192.48 187.349C1189.54 191.985 1183.87 194.36 1177.15 193.771ZM1182.43 183.929C1188.78 184.484 1193.66 180.865 1194.17 175.121L1194.49 171.385L1184.54 171.126C1178.53 170.977 1175.29 173 1174.95 176.969C1174.61 180.798 1177.48 183.496 1182.43 183.929ZM1238.44 131.564L1250.96 132.659L1249.63 147.882L1268.82 149.561L1267.92 159.788L1248.96 158.129L1246.81 182.738C1246.47 186.614 1249.03 189.05 1253.94 189.479C1255.15 189.585 1264.08 190.319 1264.64 190.321L1263.76 200.408C1263.24 200.456 1253.05 199.659 1252.02 199.569C1238.01 198.343 1233.03 193.437 1234.07 181.483L1236.22 157.014L1222.81 155.842L1223.71 145.615L1237.11 146.787L1238.44 131.564ZM1364.1 209.281L1338.7 207.058L1344.59 139.675L1369.39 141.844C1382.32 142.976 1389.57 149.916 1388.66 160.422C1388.02 167.707 1382.35 173.375 1375.25 173.836L1375.18 174.63C1384.09 176.068 1389.89 183.399 1389.13 192.131C1388.09 203.945 1378.53 210.543 1364.1 209.281ZM1356.68 151.037L1355.15 168.549L1362.81 169.219C1370.14 169.86 1374.62 167.052 1375.09 161.635C1375.6 155.845 1372 152.377 1364.9 151.756L1356.68 151.037ZM1352.59 197.781L1360.9 198.508C1370.15 199.317 1374.81 196.572 1375.41 189.754C1375.97 183.357 1371.62 179.777 1362.52 178.98L1354.3 178.261L1352.59 197.781ZM1418.97 178.602L1406.36 177.499L1409.17 145.325L1421.78 146.428L1418.97 178.602ZM1441.1 180.539L1428.49 179.436L1431.31 147.262L1443.92 148.365L1441.1 180.539Z" fill="#00FA92"/>
<path opacity="0.1" d="M806.174 752.147C805.591 745.485 810.58 740.845 819.079 740.102C827.391 739.374 832.792 742.666 833.761 749.075L825.729 749.778C825.126 747.54 822.762 746.336 819.586 746.613C816.349 746.897 814.329 748.548 814.519 750.727C814.683 752.595 816.213 753.59 819.604 753.984L825.022 754.608C832.09 755.432 835.431 758.12 835.888 763.35C836.496 770.292 831.214 775.177 822.279 775.959C813.5 776.727 807.754 773.434 806.723 767.031L815.128 766.296C815.865 768.615 818.283 769.721 821.832 769.411C825.318 769.106 827.432 767.446 827.236 765.205C827.067 763.275 825.678 762.455 821.998 761.993L816.766 761.353C810.2 760.516 806.637 757.439 806.174 752.147ZM850.637 728.275L858.98 727.545L859.868 737.694L872.663 736.574L873.26 743.392L860.62 744.498L862.056 760.904C862.282 763.488 864.247 764.79 867.515 764.504C868.325 764.433 874.268 763.882 874.639 763.818L875.227 770.543C874.89 770.635 868.109 771.291 867.424 771.351C858.085 772.168 854.246 769.524 853.549 761.554L852.122 745.241L843.187 746.023L842.591 739.205L851.525 738.424L850.637 728.275ZM899.024 753.184L899.808 762.149L909.77 761.278L910.317 767.535L885.662 769.692L885.114 763.435L891.652 762.863L889.745 741.071L882.585 741.698L882.035 735.409L897.414 734.064L898.184 742.874L899.523 742.757C900.421 735.808 903.685 732.605 910.161 732.039C912.091 731.87 913.856 731.967 915.111 732.327L915.92 741.573C914.311 741.118 912.035 740.909 910.105 741.078C902.01 741.786 898.378 745.806 899.024 753.184ZM952.702 729.227L955.707 763.564L947.457 764.286L946.953 758.527L946.424 758.573C945.105 762.861 941.607 765.551 936.657 765.984C929.186 766.637 924.809 762.503 924.076 754.129L922.132 731.901L930.662 731.155L932.427 751.328C932.868 756.371 935.101 758.591 939.428 758.213C943.787 757.831 946.355 754.564 945.941 749.832L944.204 729.97L952.702 729.227ZM993.412 737.742L985.069 738.472C984.171 734.661 981.704 732.995 977.999 733.319C973.423 733.719 971.201 737.364 971.751 743.653L971.953 745.956C972.503 752.245 975.324 755.449 979.9 755.048C983.636 754.721 985.722 752.751 985.992 749.026L994.335 748.296C994.304 756.549 989.456 761.364 980.583 762.141C970.466 763.026 964.361 757.788 963.449 747.359L963.133 743.748C962.22 733.319 967.323 727.101 977.44 726.215C986.313 725.439 991.867 729.408 993.412 737.742ZM1008.29 714.482L1016.63 713.753L1017.52 723.901L1030.31 722.782L1030.91 729.6L1018.27 730.705L1019.7 747.111C1019.93 749.695 1021.89 750.998 1025.16 750.712C1025.97 750.641 1031.92 750.09 1032.29 750.026L1032.88 756.75C1032.54 756.842 1025.76 757.498 1025.07 757.558C1015.73 758.375 1011.89 755.731 1011.2 747.762L1009.77 731.449L1000.83 732.231L1000.24 725.413L1009.17 724.631L1008.29 714.482Z" fill="#00FA92"/>
<path opacity="0.1" d="M70.9858 628.223L44.3624 621.09L46.3359 613.724L55.3613 616.143L63.0854 587.316L54.0601 584.898L56.0336 577.532L82.6569 584.666L80.6834 592.031L71.658 589.613L63.9339 618.44L72.9593 620.858L70.9858 628.223ZM119.625 613.563L112.702 639.401L105.699 637.525L111.878 614.463C112.517 612.079 111.72 610.344 109.818 609.835C107.856 609.309 106.138 610.531 105.483 612.976L99.3598 635.826L92.4474 633.974L98.6267 610.912C99.2657 608.528 98.529 606.81 96.567 606.284C94.5747 605.75 92.8562 606.972 92.2011 609.417L86.0784 632.267L79.0754 630.391L87.9966 597.097L95.2108 599.03L93.8116 604.252L94.687 604.486C96.4688 600.855 99.2907 599.379 102.581 600.26C105.599 601.069 107.162 603.688 106.894 607.466L107.77 607.701C109.418 604.325 112.301 602.865 115.47 603.714C119.575 604.814 121.041 608.28 119.625 613.563ZM129.46 644.474C123.181 642.791 120.039 637.614 121.649 631.607C123.258 625.601 128.581 623.242 136.945 624.868L144.863 626.472L145.574 623.816C146.351 620.918 144.812 618.694 141.401 617.78C138.533 617.011 136.05 617.705 134.798 619.602L126.769 617.45C128.99 611.575 135.497 609.145 143.405 611.264C151.948 613.553 155.655 618.914 153.706 626.189L147.656 648.767L139.808 646.664L140.997 642.227L140.273 642.033C137.801 644.735 133.806 645.638 129.46 644.474ZM134.069 638.623C138.174 639.723 141.797 637.912 142.792 634.199L143.439 631.784L136.935 630.462C133.006 629.668 130.648 630.622 129.96 633.187C129.297 635.663 130.869 637.766 134.069 638.623ZM168.025 667.651C159.392 665.338 154.726 660.173 155.768 654.111L163.828 656.271C163.827 658.568 166.119 660.638 169.772 661.616C174.571 662.902 177.689 661.408 178.805 657.243L180.56 650.693L179.926 650.523C177.897 653.991 173.362 655.461 168.412 654.134C160.745 652.08 157.58 645.538 159.99 636.543L161.341 631.502C163.776 622.416 169.853 618.448 177.822 620.583C182.652 621.877 185.71 625.317 185.785 629.381L186.389 629.543L187.91 623.868L196.029 626.044L187.116 659.308C185.038 667.066 177.745 670.256 168.025 667.651ZM168.507 638.566C167.294 643.094 169.28 646.667 173.597 647.824C177.943 648.989 181.45 646.887 182.664 642.359L183.95 637.56C185.163 633.032 183.176 629.459 178.83 628.294C174.513 627.137 170.998 629.269 169.793 633.767L168.507 638.566ZM220.253 658.19L228.041 660.277C225.77 665.977 218.759 668.596 211.032 666.525C201.343 663.929 197.244 657.007 199.776 647.559L201.208 642.216C203.545 633.493 211.127 629.345 220.182 631.772C228.996 634.133 233.088 641.441 230.694 650.376L229.465 654.964L208.003 649.214L207.518 651.025C206.353 655.371 208.4 658.961 212.717 660.118C216.037 661.007 219.067 660.202 220.253 658.19ZM218.317 638.13C214.031 636.982 210.696 639.162 209.418 643.931L222.911 647.547C224.189 642.777 222.482 639.247 218.317 638.13ZM246.005 651.794C249.014 640.565 255.054 631.668 263.345 626.32L271.827 628.593C262.663 636.716 257.893 644.011 255.151 654.244C252.418 664.447 252.908 673.119 256.784 684.737L248.302 682.464C243.795 673.686 243.005 662.992 246.005 651.794ZM279.815 658.912C281.546 652.452 287.821 649.798 296.062 652.006C304.121 654.166 308.071 659.107 306.789 665.46L299.001 663.373C299.2 661.065 297.39 659.124 294.311 658.299C291.172 657.458 288.709 658.318 288.143 660.431C287.658 662.243 288.755 663.701 291.807 665.231L296.685 667.67C303.045 670.862 305.265 674.531 303.906 679.602C302.102 686.333 295.468 689.117 286.805 686.796C278.293 684.515 274.019 679.455 275.241 673.086L283.391 675.27C283.289 677.701 285.183 679.567 288.624 680.489C292.005 681.395 294.558 680.559 295.141 678.386C295.642 676.514 294.617 675.269 291.318 673.576L286.62 671.185C280.736 668.152 278.44 664.043 279.815 658.912ZM312.116 705.71C310.697 705.33 309.196 704.895 308.963 704.801L310.774 698.039C310.969 698.156 312.138 698.502 312.591 698.623C315.942 699.521 318.09 698.867 319.579 696.451L320.251 695.272L317.525 658.599L326.641 661.041L327.123 688.702L327.636 688.84L341.884 665.126L350.638 667.471L330.133 698.115C324.968 705.919 320.266 707.894 312.116 705.71ZM356.244 679.391C357.975 672.931 364.25 670.277 372.491 672.486C380.55 674.645 384.5 679.586 383.218 685.939L375.43 683.852C375.628 681.544 373.819 679.603 370.74 678.778C367.601 677.937 365.138 678.798 364.572 680.91C364.087 682.722 365.184 684.18 368.236 685.71L373.114 688.149C379.474 691.342 381.694 695.01 380.335 700.081C378.531 706.812 371.897 709.596 363.234 707.275C354.722 704.994 350.448 699.934 351.669 693.565L359.819 695.749C359.718 698.18 361.612 700.046 365.053 700.968C368.434 701.874 370.987 701.038 371.57 698.865C372.071 696.993 371.046 695.748 367.747 694.055L363.049 691.664C357.165 688.631 354.869 684.522 356.244 679.391ZM406.191 672.166L414.28 674.333L411.644 684.174L424.05 687.498L422.279 694.108L410.023 690.825L405.761 706.732C405.09 709.237 406.49 711.133 409.66 711.983C410.445 712.193 416.218 713.708 416.588 713.774L414.841 720.294C414.493 720.266 407.897 718.563 407.233 718.385C398.177 715.959 395.474 712.161 397.545 704.433L401.783 688.616L393.12 686.295L394.891 679.685L403.554 682.006L406.191 672.166ZM449.54 719.627L457.328 721.714C455.056 727.414 448.046 730.033 440.319 727.962C430.629 725.366 426.531 718.444 429.063 708.996L430.494 703.654C432.832 694.93 440.414 690.782 449.469 693.209C458.283 695.571 462.375 702.879 459.981 711.813L458.751 716.402L437.29 710.651L436.804 712.462C435.64 716.809 437.687 720.398 442.003 721.555C445.324 722.445 448.354 721.639 449.54 719.627ZM447.603 699.568C443.317 698.419 439.983 700.599 438.705 705.368L452.198 708.984C453.476 704.215 451.769 700.684 447.603 699.568ZM501.77 715.958L494.846 741.796L487.843 739.92L494.022 716.858C494.661 714.474 493.864 712.74 491.963 712.23C490.001 711.704 488.282 712.926 487.627 715.371L481.504 738.221L474.592 736.369L480.771 713.308C481.41 710.923 480.673 709.205 478.711 708.679C476.719 708.146 475.001 709.367 474.345 711.812L468.223 734.663L461.22 732.786L470.141 699.492L477.355 701.425L475.956 706.647L476.831 706.882C478.613 703.25 481.435 701.774 484.725 702.656C487.744 703.465 489.307 706.083 489.039 709.861L489.914 710.096C491.563 706.72 494.445 705.26 497.614 706.109C501.72 707.209 503.185 710.675 501.77 715.958ZM508.399 745.428L500.974 743.438L512.645 699.881L520.282 701.927L527.497 734.887L528.01 735.024L535.767 706.076L543.192 708.066L531.521 751.623L523.914 749.585L516.717 716.437L516.204 716.299L508.399 745.428ZM549.819 757.109C543.54 755.426 540.398 750.249 542.008 744.242C543.617 738.235 548.94 735.876 557.304 737.503L565.221 739.107L565.933 736.45C566.71 733.553 565.17 731.328 561.759 730.414C558.892 729.646 556.409 730.34 555.157 732.236L547.127 730.085C549.349 724.21 555.856 721.78 563.764 723.899C572.307 726.188 576.014 731.549 574.065 738.823L568.015 761.402L560.167 759.299L561.356 754.862L560.631 754.668C558.16 757.37 554.165 758.273 549.819 757.109ZM554.427 751.258C558.533 752.358 562.156 750.547 563.151 746.834L563.798 744.419L557.294 743.097C553.365 742.303 551.007 743.257 550.319 745.822C549.656 748.297 551.228 750.401 554.427 751.258ZM616.413 746.676L609.489 772.515L602.486 770.638L608.666 747.577C609.305 745.192 608.508 743.458 606.606 742.949C604.644 742.423 602.925 743.645 602.27 746.09L596.148 768.94L589.235 767.088L595.414 744.026C596.053 741.642 595.317 739.924 593.355 739.398C591.362 738.864 589.644 740.086 588.989 742.531L582.866 765.381L575.863 763.505L584.784 730.211L591.999 732.144L590.599 737.366L591.475 737.6C593.257 733.969 596.078 732.493 599.369 733.374C602.387 734.183 603.95 736.802 603.682 740.58L604.557 740.814C606.206 737.439 609.088 735.979 612.258 736.828C616.363 737.928 617.828 741.394 616.413 746.676ZM640.612 770.825L648.4 772.912C646.129 778.612 639.118 781.23 631.391 779.16C621.701 776.564 617.603 769.642 620.135 760.194L621.566 754.851C623.904 746.128 631.486 741.98 640.541 744.406C649.355 746.768 653.447 754.076 651.053 763.011L649.824 767.599L628.362 761.849L627.877 763.66C626.712 768.006 628.759 771.596 633.075 772.753C636.396 773.642 639.426 772.837 640.612 770.825ZM638.676 750.765C634.389 749.617 631.055 751.797 629.777 756.566L643.27 760.181C644.548 755.412 642.841 751.881 638.676 750.765ZM675.074 766.212C671.422 765.234 669.258 761.354 670.261 757.611C671.264 753.868 675.07 751.62 678.722 752.599C682.374 753.577 684.546 757.427 683.543 761.17C682.54 764.913 678.727 767.191 675.074 766.212ZM668.952 789.062C665.299 788.084 663.136 784.204 664.131 780.491C665.142 776.718 668.947 774.47 672.599 775.449C676.252 776.428 678.423 780.277 677.412 784.05C676.417 787.763 672.604 790.041 668.952 789.062Z" fill="#00FA92"/>
<path opacity="0.1" d="M815.944 494.011L830.071 489.96L831.492 494.917L823.494 497.21L832.816 529.72L840.972 527.381L842.393 532.338L828.109 536.434L815.944 494.011ZM858.751 481.736L870.915 524.159L856.632 528.255L855.21 523.299L863.366 520.96L854.044 488.45L846.068 490.737L844.647 485.78L858.751 481.736Z" fill="#00FA92"/>
<rect x="244" y="293" width="252.556" height="178.732" rx="27" fill="#00FA92"/>
<path d="M344.63 413.53C339.318 413.53 336.099 409.843 336.099 405.061C336.099 403.593 336.474 402.093 337.318 400.686L361.568 358.436C363.161 355.593 365.974 354.155 368.849 354.155C371.724 354.155 374.505 355.593 376.13 358.436L400.38 400.686C401.161 402.061 401.599 403.593 401.599 405.061C401.599 409.843 398.38 413.53 393.068 413.53H344.63Z" fill="#032718"/>
<rect x="244" y="502.816" width="252.556" height="178.732" rx="27" fill="#032718"/>
<path opacity="0.6" d="M367.66 625.144C350.254 625.144 335.785 610.676 335.785 593.269C335.785 575.832 350.222 561.394 367.629 561.394C385.066 561.394 399.535 575.832 399.535 593.269C399.535 610.676 385.097 625.144 367.66 625.144Z" fill="#00FA92"/>
<rect x="527.641" y="293" width="252.556" height="178.732" rx="27" fill="#032718"/>
<rect x="527.641" y="502.816" width="252.556" height="178.732" rx="27" fill="#032718"/>
<path opacity="0.6" d="M621.091 390.905C616.466 386.28 616.403 381.718 620.997 377.124L646.184 351.968C650.778 347.374 655.341 347.436 659.966 352.061L684.966 377.061C689.591 381.686 689.622 386.28 685.059 390.843L659.903 416.03C655.309 420.593 650.747 420.561 646.122 415.936L621.091 390.905Z" fill="#00FA92"/>
<path opacity="0.6" d="M635.249 622.082C628.718 622.082 625.437 618.863 625.437 612.394V574.238C625.437 567.769 628.718 564.551 635.249 564.551H673.155C679.718 564.551 682.968 567.801 682.968 574.238V612.394C682.968 618.832 679.718 622.082 673.155 622.082H635.249Z" fill="#00FA92"/>
<g filter="url(#filter0_d_21_1248)">
<rect x="244" y="86" width="536" height="59" rx="27" fill="#00FA92"/>
</g>
<g opacity="0.9">
<g filter="url(#filter1_d_21_1248)">
<rect x="244" y="176" width="348" height="59" rx="27" fill="#00FA92"/>
</g>
</g>
</g>
<defs>
<filter id="filter0_d_21_1248" x="208" y="54" width="608" height="131" filterUnits="userSpaceOnUse" color-interpolation-filters="sRGB">
<feFlood flood-opacity="0" result="BackgroundImageFix"/>
<feColorMatrix in="SourceAlpha" type="matrix" values="0 0 0 0 0 0 0 0 0 0 0 0 0 0 0 0 0 0 127 0" result="hardAlpha"/>
<feOffset dy="4"/>
<feGaussianBlur stdDeviation="18"/>
<feComposite in2="hardAlpha" operator="out"/>
<feColorMatrix type="matrix" values="0 0 0 0 0 0 0 0 0 0.980392 0 0 0 0 0.572549 0 0 0 0.25 0"/>
<feBlend mode="normal" in2="BackgroundImageFix" result="effect1_dropShadow_21_1248"/>
<feBlend mode="normal" in="SourceGraphic" in2="effect1_dropShadow_21_1248" result="shape"/>
</filter>
<filter id="filter1_d_21_1248" x="208" y="144" width="420" height="131" filterUnits="userSpaceOnUse" color-interpolation-filters="sRGB">
<feFlood flood-opacity="0" result="BackgroundImageFix"/>
<feColorMatrix in="SourceAlpha" type="matrix" values="0 0 0 0 0 0 0 0 0 0 0 0 0 0 0 0 0 0 127 0" result="hardAlpha"/>
<feOffset dy="4"/>
<feGaussianBlur stdDeviation="18"/>
<feComposite in2="hardAlpha" operator="out"/>
<feColorMatrix type="matrix" values="0 0 0 0 0 0 0 0 0 0.980392 0 0 0 0 0.572549 0 0 0 0.25 0"/>
<feBlend mode="normal" in2="BackgroundImageFix" result="effect1_dropShadow_21_1248"/>
<feBlend mode="normal" in="SourceGraphic" in2="effect1_dropShadow_21_1248" result="shape"/>
</filter>
<clipPath id="clip0_21_1248">
<rect width="1024" height="768" fill="white"/>
</clipPath>
</defs>
</svg>
