<?xml version="1.0" encoding="UTF-8"?>
<!--Generator: Apple Native CoreSVG 232.5-->
<!DOCTYPE svg
PUBLIC "-//W3C//DTD SVG 1.1//EN"
       "http://www.w3.org/Graphics/SVG/1.1/DTD/svg11.dtd">
<svg version="1.1" xmlns="http://www.w3.org/2000/svg" xmlns:xlink="http://www.w3.org/1999/xlink" width="345.41" height="269.971">
 <g>
  <rect height="269.971" opacity="0" width="345.41" x="0" y="0"/>
  <path d="M45.9961 269.971L299.414 269.971C330.176 269.971 345.41 254.736 345.41 224.561L345.41 45.7031C345.41 15.5273 330.176 0.292969 299.414 0.292969L45.9961 0.292969C15.3809 0.292969 0 15.3809 0 45.7031L0 224.561C0 254.883 15.3809 269.971 45.9961 269.971ZM46.2891 246.387C31.6406 246.387 23.584 238.623 23.584 223.389L23.584 46.875C23.584 31.6406 31.6406 23.877 46.2891 23.877L299.121 23.877C313.623 23.877 321.826 31.6406 321.826 46.875L321.826 223.389C321.826 238.623 313.623 246.387 299.121 246.387ZM111.621 250.928L134.619 250.928L134.619 19.4824L111.621 19.4824ZM83.4961 78.2227C87.8906 78.2227 91.8457 74.2676 91.8457 70.0195C91.8457 65.625 87.8906 61.8164 83.4961 61.8164L52.002 61.8164C47.6074 61.8164 43.7988 65.625 43.7988 70.0195C43.7988 74.2676 47.6074 78.2227 52.002 78.2227ZM83.4961 116.162C87.8906 116.162 91.8457 112.207 91.8457 107.812C91.8457 103.418 87.8906 99.7559 83.4961 99.7559L52.002 99.7559C47.6074 99.7559 43.7988 103.418 43.7988 107.812C43.7988 112.207 47.6074 116.162 52.002 116.162ZM83.4961 153.955C87.8906 153.955 91.8457 150.293 91.8457 145.898C91.8457 141.504 87.8906 137.695 83.4961 137.695L52.002 137.695C47.6074 137.695 43.7988 141.504 43.7988 145.898C43.7988 150.293 47.6074 153.955 52.002 153.955Z" fill="#007aff"/>
 </g>
</svg>
