<?xml version="1.0" encoding="UTF-8"?>
<svg id="Layer_2" data-name="Layer 2" xmlns="http://www.w3.org/2000/svg" viewBox="0 0 313.70369 66.40891">
  <g id="Artwork">
    <g>
      <g>
        <path d="m69.09432,26.58176c0-7.14062,4.03125-11.64062,10.32812-11.64062,5.10938,0,8.96875,3.14062,9.5625,7.84375h-3.46875c-.625-2.89062-3.03125-4.78125-6.09375-4.78125-4.09375,0-6.75,3.35938-6.75,8.57812,0,5.26562,2.625,8.59375,6.76562,8.59375,3.14062,0,5.375-1.60938,6.07812-4.32812h3.48438c-.85938,4.65625-4.39062,7.39062-9.57812,7.39062-6.32812,0-10.32812-4.46875-10.32812-11.65625Z" style="fill: #fff; stroke-width: 0px;"/>
        <path d="m106.2286,33.03489c-.45312,2.98438-3.35938,5.03125-7.07861,5.03125-4.78125,0-7.75-3.20312-7.75-8.34375,0-5.15625,2.98438-8.5,7.60938-8.5,4.54736,0,7.40674,3.125,7.40674,8.10938v1.15625h-11.60986v.20312c0,2.8125,1.76562,4.65625,4.42188,4.65625,1.87549,0,3.34424-.89062,3.79736-2.3125h3.20312Zm-11.40674-4.90625h8.21924c-.07812-2.51562-1.6875-4.17188-4.03174-4.17188-2.32812,0-4.01562,1.6875-4.1875,4.17188Z" style="fill: #fff; stroke-width: 0px;"/>
        <path d="m109.40828,21.42551h3.21875v2.79688h.07812c.51562-1.85938,2.01562-2.96875,3.95312-2.96875.48438,0,.89062.0625,1.15625.125v3.15625c-.26562-.10938-.85938-.20312-1.51562-.20312-2.17188,0-3.51562,1.46875-3.51562,3.78125v9.75h-3.375v-16.4375Z" style="fill: #fff; stroke-width: 0px;"/>
        <path d="m124.66805,17.53489v3.89062h3.125v2.67188h-3.125v9.0625c0,1.40625.625,2.0625,2,2.0625.34375,0,.89062-.04688,1.10938-.07812v2.65625c-.375.09375-1.125.15625-1.875.15625-3.32812,0-4.625-1.25-4.625-4.4375v-9.42188h-2.39062v-2.67188h2.39062v-3.89062h3.39062Z" style="fill: #fff; stroke-width: 0px;"/>
        <path d="m130.78621,17.09739c0-1.07812.875-1.9375,1.95312-1.9375,1.09375,0,1.96875.85938,1.96875,1.9375,0,1.0625-.875,1.92188-1.96875,1.92188-1.07812,0-1.95312-.85938-1.95312-1.92188Zm.26562,4.32812h3.375v16.4375h-3.375v-16.4375Z" style="fill: #fff; stroke-width: 0px;"/>
        <path d="m139.24813,24.09739h-2.26562v-2.67188h2.26562v-1.48438c0-3.09375,1.39062-4.42188,4.78125-4.42188.60938,0,1.15625.04688,1.70312.14062v2.54688c-.34375-.0625-.78125-.10938-1.21875-.10938-1.34375,0-1.90625.57812-1.92188,1.95312v1.375h3.15625v2.67188h-3.10938v13.76562h-3.39062v-13.76562Zm9.25-7c0-1.07812.875-1.9375,1.95312-1.9375,1.09375,0,1.96875.85938,1.96875,1.9375,0,1.0625-.875,1.92188-1.96875,1.92188-1.07812,0-1.95312-.85938-1.95312-1.92188Zm.26562,4.32812h3.375v16.4375h-3.375v-16.4375Z" style="fill: #fff; stroke-width: 0px;"/>
        <path d="m170.22567,33.03489c-.45312,2.98438-3.35938,5.03125-7.07812,5.03125-4.78125,0-7.75-3.20312-7.75-8.34375,0-5.15625,2.98438-8.5,7.60938-8.5,4.54688,0,7.40576,3.125,7.40576,8.10938v1.15625h-11.60889v.20312c0,2.8125,1.76562,4.65625,4.42188,4.65625,1.875,0,3.34375-.89062,3.79688-2.3125h3.20312Zm-11.40625-4.90625h8.21875c-.07812-2.51562-1.6875-4.17188-4.03125-4.17188-2.32812,0-4.01562,1.6875-4.1875,4.17188Z" style="fill: #fff; stroke-width: 0px;"/>
        <path d="m172.35213,29.64426c0-5.07812,2.79688-8.39062,6.875-8.39062,2.35938,0,4.21875,1.09375,5.15625,2.90625h.0625v-8.84375h3.39062v22.54688h-3.28125v-2.79688h-.0625c-.96875,1.875-2.84375,2.96875-5.23438,2.96875-4.10938,0-6.90625-3.3125-6.90625-8.39062Zm3.45312,0c0,3.375,1.71875,5.53125,4.34375,5.53125,2.59375,0,4.32812-2.1875,4.32812-5.53125,0-3.3125-1.73438-5.51562-4.32812-5.51562-2.625,0-4.34375,2.17188-4.34375,5.51562Z" style="fill: #fff; stroke-width: 0px;"/>
        <path d="m204.54158,37.86301v-19.53125h-6.90625v-3.01562h17.29688v3.01562h-6.89062v19.53125h-3.5Z" style="fill: #fff; stroke-width: 0px;"/>
        <path d="m215.25838,21.42551h3.21875v2.79688h.07812c.51562-1.85938,2.01562-2.96875,3.95312-2.96875.48438,0,.89062.0625,1.15625.125v3.15625c-.26562-.10938-.85938-.20312-1.51562-.20312-2.17188,0-3.51562,1.46875-3.51562,3.78125v9.75h-3.375v-16.4375Z" style="fill: #fff; stroke-width: 0px;"/>
        <path d="m224.68612,33.19114c0-2.875,2.20312-4.60938,6.10938-4.84375l4.5-.25v-1.25c0-1.82812-1.20312-2.85938-3.25-2.85938-1.875,0-3.1875.89062-3.45312,2.3125h-3.15625c.09375-2.96875,2.85938-5.07812,6.70312-5.07812,3.92188,0,6.51562,2.14062,6.51562,5.375v11.26562h-3.23438v-2.70312h-.07812c-.95312,1.82812-3.03125,2.98438-5.1875,2.98438-3.21875,0-5.46875-2-5.46875-4.95312Zm10.60938-1.48438v-1.26562l-4.04688.25c-2.01562.125-3.15625,1-3.15625,2.40625,0,1.4375,1.1875,2.375,3,2.375,2.35938,0,4.20312-1.625,4.20312-3.76562Z" style="fill: #fff; stroke-width: 0px;"/>
        <path d="m242.14803,17.09739c0-1.07812.875-1.9375,1.95312-1.9375,1.09374,0,1.96874.85938,1.96874,1.9375,0,1.0625-.875,1.92188-1.96874,1.92188-1.07812,0-1.95312-.85938-1.95312-1.92188Zm.26562,4.32812h3.375v16.4375h-3.375v-16.4375Z" style="fill: #fff; stroke-width: 0px;"/>
        <path d="m249.62557,21.42551h3.21875v2.79688h.07812c.98438-1.96875,2.64062-2.98438,5.17188-2.98438,3.625,0,5.70312,2.32812,5.70312,6.09375v10.53125h-3.39062v-9.875c0-2.46875-1.14062-3.84375-3.51562-3.84375-2.42188,0-3.89062,1.71875-3.89062,4.25v9.46875h-3.375v-16.4375Z" style="fill: #fff; stroke-width: 0px;"/>
        <path d="m280.88533,33.03489c-.45312,2.98438-3.35938,5.03125-7.07812,5.03125-4.78125,0-7.75-3.20312-7.75-8.34375,0-5.15625,2.98438-8.5,7.60938-8.5,4.54688,0,7.40625,3.125,7.40625,8.10938v1.15625h-11.60938v.20312c0,2.8125,1.76562,4.65625,4.42188,4.65625,1.875,0,3.34375-.89062,3.79688-2.3125h3.20312Zm-11.40625-4.90625h8.21875c-.07812-2.51562-1.6875-4.17188-4.03125-4.17188-2.32812,0-4.01562,1.6875-4.1875,4.17188Z" style="fill: #fff; stroke-width: 0px;"/>
        <path d="m284.066,21.42551h3.21875v2.79688h.07812c.51562-1.85938,2.01562-2.96875,3.95312-2.96875.48438,0,.89062.0625,1.15625.125v3.15625c-.26562-.10938-.85938-.20312-1.51562-.20312-2.17188,0-3.51562,1.46875-3.51562,3.78125v9.75h-3.375v-16.4375Z" style="fill: #fff; stroke-width: 0px;"/>
      </g>
      <g>
        <path d="m78.69002,58.98704h-5.60547l-1.41602,4.0332h-1.8457l5.19531-14.0918h1.73828l5.19531,14.0918h-1.8457l-1.41602-4.0332Zm-5.08789-1.49414h4.57031l-2.25586-6.42578h-.05859l-2.25586,6.42578Z" style="fill: #fff; stroke-width: 0px;"/>
        <path d="m92.91658,57.94211c0,3.10547-1.74805,5.17578-4.30664,5.17578-1.44531,0-2.59766-.63477-3.23242-1.74805h-.03906v5.03906h-1.69922v-13.54492h1.61133v1.65039h.03906c.5957-1.05469,1.875-1.74805,3.28125-1.74805,2.58789,0,4.3457,2.07031,4.3457,5.17578Zm-1.73828,0c0-2.2168-1.17188-3.67188-2.93945-3.67188-1.72852,0-2.91016,1.49414-2.91016,3.67188,0,2.1875,1.18164,3.67188,2.91016,3.67188,1.76758,0,2.93945-1.44531,2.93945-3.67188Z" style="fill: #fff; stroke-width: 0px;"/>
        <path d="m104.24373,57.94211c0,3.10547-1.74805,5.17578-4.30713,5.17578-1.44531,0-2.59766-.63477-3.23242-1.74805h-.03906v5.03906h-1.69922v-13.54492h1.61133v1.65039h.03906c.5957-1.05469,1.875-1.74805,3.28125-1.74805,2.58838,0,4.34619,2.07031,4.34619,5.17578Zm-1.73828,0c0-2.2168-1.17188-3.67188-2.93994-3.67188-1.72852,0-2.91016,1.49414-2.91016,3.67188,0,2.1875,1.18164,3.67188,2.91016,3.67188,1.76807,0,2.93994-1.44531,2.93994-3.67188Z" style="fill: #fff; stroke-width: 0px;"/>
        <path d="m115.73397,48.92844c4.17969,0,6.65039,2.60742,6.65039,7.04102,0,4.44336-2.46094,7.05078-6.65039,7.05078h-4.73633v-14.0918h4.73633Zm-2.97852,12.50977h2.86133c3.19336,0,4.9707-1.95312,4.9707-5.44922,0-3.52539-1.76758-5.47852-4.9707-5.47852h-2.86133v10.92773Z" style="fill: #fff; stroke-width: 0px;"/>
        <path d="m133.04647,60.11008c-.2832,1.75781-2.05078,3.00781-4.22852,3.00781-2.87109,0-4.67773-1.98242-4.67773-5.13672s1.81641-5.21484,4.59961-5.21484c2.72461,0,4.43359,1.91406,4.43359,4.99023v.64453h-7.28516v.09766c0,1.9043,1.18163,3.14453,2.96875,3.14453,1.25,0,2.23633-.5957,2.51953-1.5332h1.66992Zm-7.14844-3.03711h5.51758c-.03906-1.69922-1.12305-2.83203-2.70508-2.83203-1.57227,0-2.70508,1.14258-2.8125,2.83203Z" style="fill: #fff; stroke-width: 0px;"/>
        <path d="m139.82186,63.02024h-1.73828l-3.74023-10.15625h1.78711l2.80273,8.34961h.03906l2.8125-8.34961h1.76758l-3.73047,10.15625Z" style="fill: #fff; stroke-width: 0px;"/>
        <path d="m153.33553,60.11008c-.2832,1.75781-2.05078,3.00781-4.22852,3.00781-2.87109,0-4.67773-1.98242-4.67773-5.13672s1.81641-5.21484,4.59961-5.21484c2.72461,0,4.43359,1.91406,4.43359,4.99023v.64453h-7.28516v.09766c0,1.9043,1.18164,3.14453,2.96875,3.14453,1.25,0,2.23633-.5957,2.51953-1.5332h1.66992Zm-7.14844-3.03711h5.51758c-.03906-1.69922-1.12305-2.83203-2.70508-2.83203-1.57227,0-2.70508,1.14258-2.8125,2.83203Z" style="fill: #fff; stroke-width: 0px;"/>
        <path d="m155.5992,48.92844h1.69922v14.0918h-1.69922v-14.0918Z" style="fill: #fff; stroke-width: 0px;"/>
        <path d="m159.43514,57.94211c0-3.16406,1.83594-5.17578,4.70703-5.17578,2.86133,0,4.69727,2.01172,4.69727,5.17578,0,3.1543-1.83594,5.17578-4.69727,5.17578-2.87109,0-4.70703-2.02148-4.70703-5.17578Zm7.67578,0c0-2.31445-1.10352-3.68164-2.96875-3.68164-1.875,0-2.97852,1.37695-2.97852,3.68164,0,2.31445,1.11328,3.68164,2.97852,3.68164s2.96875-1.36719,2.96875-3.68164Z" style="fill: #fff; stroke-width: 0px;"/>
        <path d="m180.16658,57.94211c0,3.10547-1.74805,5.17578-4.30664,5.17578-1.44531,0-2.59766-.63477-3.23242-1.74805h-.03906v5.03906h-1.69922v-13.54492h1.61133v1.65039h.03906c.5957-1.05469,1.875-1.74805,3.28125-1.74805,2.58789,0,4.3457,2.07031,4.3457,5.17578Zm-1.73828,0c0-2.2168-1.17188-3.67188-2.93945-3.67188-1.72852,0-2.91016,1.49414-2.91016,3.67188,0,2.1875,1.18164,3.67188,2.91016,3.67188,1.76758,0,2.93945-1.44531,2.93945-3.67188Z" style="fill: #fff; stroke-width: 0px;"/>
        <path d="m182.21541,52.86399h1.60156v1.66016h.03906c.47852-1.09375,1.5625-1.75781,2.88086-1.75781,1.38672,0,2.41211.70312,2.85156,1.93359h.03906c.56641-1.21094,1.75781-1.93359,3.18359-1.93359,2.01172,0,3.31055,1.30859,3.31055,3.32031v6.93359h-1.69922v-6.54297c0-1.38672-.77148-2.20703-2.10938-2.20703-1.34766,0-2.29492.99609-2.29492,2.37305v6.37695h-1.69922v-6.72852c0-1.2207-.82031-2.02148-2.08008-2.02148-1.34766,0-2.32422,1.05469-2.32422,2.46094v6.28906h-1.69922v-10.15625Z" style="fill: #fff; stroke-width: 0px;"/>
        <path d="m207.02791,60.11008c-.2832,1.75781-2.05078,3.00781-4.22852,3.00781-2.87109,0-4.67773-1.98242-4.67773-5.13672s1.81641-5.21484,4.59961-5.21484c2.72461,0,4.43359,1.91406,4.43359,4.99023v.64453h-7.28516v.09766c0,1.9043,1.18164,3.14453,2.96875,3.14453,1.25,0,2.23633-.5957,2.51953-1.5332h1.66992Zm-7.14844-3.03711h5.51758c-.03906-1.69922-1.12305-2.83203-2.70508-2.83203-1.57227,0-2.70508,1.14258-2.8125,2.83203Z" style="fill: #fff; stroke-width: 0px;"/>
        <path d="m209.20369,52.86399h1.60156v1.66016h.03906c.63477-1.16211,1.65039-1.75781,3.22266-1.75781,2.22656,0,3.51562,1.43555,3.51562,3.74023v6.51367h-1.69922v-6.21094c0-1.64062-.76172-2.53906-2.34375-2.53906-1.64062,0-2.63672,1.14258-2.63672,2.86133v5.88867h-1.69922v-10.15625Z" style="fill: #fff; stroke-width: 0px;"/>
        <path d="m222.32674,50.41282v2.45117h1.97266v1.39648h-1.97266v6.02539c0,.92773.39062,1.34766,1.25977,1.34766.19531,0,.58594-.0293.70312-.04883v1.42578c-.20508.04883-.67383.07812-1.07422.07812-1.86523,0-2.58789-.76172-2.58789-2.71484v-6.11328h-1.51367v-1.39648h1.51367v-2.45117h1.69922Z" style="fill: #fff; stroke-width: 0px;"/>
        <path d="m240.97616,63.02024h-1.72852l-2.29492-7.86133h-.03906l-2.28516,7.86133h-1.72852l-2.8418-10.15625h1.68945l2.03125,8.26172h.03906l2.29492-8.26172h1.64062l2.30469,8.26172h.03906l2.03125-8.26172h1.67969l-2.83203,10.15625Z" style="fill: #fff; stroke-width: 0px;"/>
        <path d="m245.41756,50.10032c0-.58594.47852-1.05469,1.05469-1.05469.58594,0,1.06445.46875,1.06445,1.05469,0,.57617-.47852,1.05469-1.06445,1.05469-.57617,0-1.05469-.47852-1.05469-1.05469Zm.20508,2.76367h1.69922v10.15625h-1.69922v-10.15625Z" style="fill: #fff; stroke-width: 0px;"/>
        <path d="m252.20272,50.41282v2.45117h1.97266v1.39648h-1.97266v6.02539c0,.92773.39062,1.34766,1.25977,1.34766.19531,0,.58594-.0293.70312-.04883v1.42578c-.20508.04883-.67383.07812-1.07422.07812-1.86523,0-2.58789-.76172-2.58789-2.71484v-6.11328h-1.51367v-1.39648h1.51367v-2.45117h1.69922Z" style="fill: #fff; stroke-width: 0px;"/>
        <path d="m256.40975,48.92844h1.69922v5.5957h.03906c.625-1.16211,1.66992-1.75781,3.22266-1.75781,2.22656,0,3.57421,1.50391,3.57421,3.76953v6.48438h-1.69921v-6.17188c0-1.61133-.81055-2.57812-2.40234-2.57812-1.68945,0-2.73438,1.15234-2.73438,2.91016v5.83984h-1.69922v-14.0918Z" style="fill: #fff; stroke-width: 0px;"/>
        <path d="m273.24178,59.14329c.16602,1.52344,1.61133,2.5293,3.62305,2.5293,1.9043,0,3.29102-1.00586,3.29102-2.39258,0-1.19141-.83008-1.92383-2.72461-2.41211l-1.80664-.46875c-2.59766-.66406-3.75-1.80664-3.75-3.7207,0-2.34375,2.05078-3.98438,4.98047-3.98438,2.80273,0,4.83398,1.66016,4.91211,4.02344h-1.75781c-.15625-1.51367-1.37695-2.44141-3.21289-2.44141-1.82617,0-3.0957.94727-3.0957,2.32422,0,1.06445.78125,1.69922,2.69531,2.19727l1.47461.39062c2.91992.73242,4.10156,1.85547,4.10156,3.87695,0,2.57812-2.03125,4.18945-5.27344,4.18945-2.98828,0-5.05859-1.62109-5.22461-4.11133h1.76758Z" style="fill: #fff; stroke-width: 0px;"/>
        <path d="m294.18807,63.02024h-1.72852l-2.29492-7.86133h-.03906l-2.28516,7.86133h-1.72852l-2.8418-10.15625h1.68945l2.03125,8.26172h.03906l2.29492-8.26172h1.64062l2.30469,8.26172h.03906l2.03125-8.26172h1.67969l-2.83203,10.15625Z" style="fill: #fff; stroke-width: 0px;"/>
        <path d="m298.62948,50.10032c0-.58594.47852-1.05469,1.05469-1.05469.58594,0,1.06445.46875,1.06445,1.05469,0,.57617-.47852,1.05469-1.06445,1.05469-.57617,0-1.05469-.47852-1.05469-1.05469Zm.20508,2.76367h1.69922v10.15625h-1.69922v-10.15625Z" style="fill: #fff; stroke-width: 0px;"/>
        <path d="m303.71541,54.26047h-1.41602v-1.39648h1.41602v-.9375c0-1.88477.82031-2.71484,2.73438-2.71484.33203,0,.61523.0293.9375.07812v1.38672c-.22461-.03906-.50781-.06836-.77148-.06836-.83984,0-1.20117.39062-1.21094,1.32812v.92773h1.98242v1.39648h-1.97266v8.75977h-1.69922v-8.75977Z" style="fill: #fff; stroke-width: 0px;"/>
        <path d="m311.73104,50.41282v2.45117h1.97266v1.39648h-1.97266v6.02539c0,.92773.39062,1.34766,1.25977,1.34766.19531,0,.58594-.0293.70312-.04883v1.42578c-.20508.04883-.67383.07812-1.07422.07812-1.86523,0-2.58789-.76172-2.58789-2.71484v-6.11328h-1.51367v-1.39648h1.51367v-2.45117h1.69922Z" style="fill: #fff; stroke-width: 0px;"/>
      </g>
      <path d="m51.43112,46.3301c-.0781.2226-1.3281,4.5312-4.375,8.9824-2.6308,3.8496-5.3632,7.6855-9.6699,7.7637-4.22849.0801-5.5898-2.5098-10.4219-2.5098-4.8378,0-6.34959,2.4316-10.34759,2.5899-4.15431.1562-7.32231-4.1622-9.97271-7.9961-5.4277-7.8438-9.56829-22.1622-4-31.8204,2.7578-4.8027,7.7012-7.8418,13.0645-7.9199,4.084-.0761,7.9297,2.7422,10.4258,2.7422,2.4922,0,7.1699-3.3926,12.0879-2.8945,2.05851.0879,7.8398.8281,11.5527,6.2637-.2949.1875-6.8984,4.0292-6.82619,12.0175.086,9.5625,8.38479,12.7422,8.48239,12.7813ZM34.99952,10.084c2.2109-2.6738,3.6934-6.3867,3.2871-10.084-3.1777.1172-7.0273,2.1152-9.3027,4.7852-2.0449,2.3632-3.8379,6.1445-3.3516,9.7656,3.541.2754,7.166-1.8008,9.3672-4.4668Z" style="fill: #fff; stroke-width: 0px;"/>
    </g>
  </g>
</svg>