<?xml version="1.0" encoding="UTF-8"?><svg id="Layer_1" xmlns="http://www.w3.org/2000/svg" xmlns:xlink="http://www.w3.org/1999/xlink" viewBox="0 0 1024 768"><defs><style>.cls-1{filter:url(#outer-glow-13);}.cls-1,.cls-2{fill:#72f49b;}.cls-3{opacity:.07;}.cls-4{fill:#fff;}.cls-5{fill:#1e1e1e;}</style><filter id="outer-glow-13" filterUnits="userSpaceOnUse"><feOffset dx="0" dy="0"/><feGaussianBlur result="blur" stdDeviation="4"/><feFlood flood-color="#72f49b" flood-opacity=".75"/><feComposite in2="blur" operator="in"/><feComposite in="SourceGraphic"/></filter></defs><rect class="cls-5" width="1024" height="768"/><g class="cls-3"><path class="cls-4" d="m124.71,86.05c1.17,0,2.37.25,3.6.74,1.23.49,2.46,1.39,3.67,2.69l49.72,53.16c1.71,1.8,2.94,3.35,3.71,4.65.76,1.3,1.15,2.79,1.15,4.45,0,2.38-.82,4.31-2.46,5.79-1.64,1.48-3.58,2.22-5.83,2.22h-25.47v54.71c0,5.34-1.45,9.49-4.34,12.43-2.9,2.94-6.95,4.41-12.16,4.41h-23.24c-5.21,0-9.26-1.47-12.16-4.41-2.9-2.94-4.35-7.09-4.35-12.43v-54.71h-25.74c-2.29,0-4.18-.74-5.66-2.22-1.48-1.48-2.22-3.37-2.22-5.66,0-1.66.36-3.21,1.08-4.65.72-1.44,1.82-2.96,3.3-4.58l50.19-53.16c1.21-1.3,2.45-2.2,3.71-2.69,1.26-.49,2.43-.74,3.5-.74Zm0,12.06c-.18,0-.37.06-.57.17-.2.11-.44.3-.71.57l-45.41,47.97c-.4.4-.61.81-.61,1.21,0,.58.34.88,1.01.88h26.07c1.48,0,2.22.77,2.22,2.29v63.13c0,4.54,2.29,6.8,6.87,6.8h22.23c2.16,0,3.83-.6,5.02-1.79,1.19-1.19,1.79-2.86,1.79-5.02v-63.13c0-1.53.74-2.29,2.22-2.29h26.75c.63,0,.94-.31.94-.94,0-.22-.06-.43-.17-.61-.11-.18-.24-.36-.37-.54l-46.01-47.97c-.45-.49-.88-.74-1.28-.74Z"/><path class="cls-4" d="m318.34,85.92c1.17,0,2.37.25,3.6.74,1.23.5,2.46,1.39,3.67,2.69l49.72,53.16c1.71,1.8,2.94,3.35,3.71,4.65.76,1.3,1.15,2.79,1.15,4.45,0,2.38-.82,4.31-2.46,5.79-1.64,1.48-3.58,2.22-5.83,2.22h-27.02v56.05c0,4.89-1.31,8.7-3.94,11.42-2.63,2.72-6.37,4.08-11.22,4.08h-22.84c-4.81,0-8.53-1.36-11.18-4.08-2.65-2.72-3.98-6.52-3.98-11.42v-56.05h-27.29c-2.29,0-4.18-.74-5.66-2.22-1.48-1.48-2.22-3.37-2.22-5.66,0-1.66.36-3.21,1.08-4.65.72-1.44,1.82-2.96,3.3-4.58l50.19-53.16c1.21-1.3,2.45-2.2,3.71-2.69,1.26-.49,2.43-.74,3.5-.74Z"/><path class="cls-4" d="m511.97,86.05c1.17,0,2.37.25,3.6.74,1.23.49,2.46,1.39,3.67,2.69l49.72,53.16c1.71,1.8,2.94,3.35,3.71,4.65.76,1.3,1.15,2.79,1.15,4.45,0,2.38-.82,4.31-2.46,5.79-1.64,1.48-3.58,2.22-5.83,2.22h-25.47v54.71c0,5.34-1.45,9.49-4.34,12.43-2.9,2.94-6.95,4.41-12.16,4.41h-23.24c-5.21,0-9.26-1.47-12.16-4.41-2.9-2.94-4.35-7.09-4.35-12.43v-54.71h-25.74c-2.29,0-4.18-.74-5.66-2.22-1.48-1.48-2.22-3.37-2.22-5.66,0-1.66.36-3.21,1.08-4.65.72-1.44,1.82-2.96,3.3-4.58l50.19-53.16c1.21-1.3,2.45-2.2,3.71-2.69,1.26-.49,2.43-.74,3.5-.74Zm0,12.06c-.18,0-.37.06-.57.17-.2.11-.44.3-.71.57l-45.41,47.97c-.4.4-.61.81-.61,1.21,0,.58.34.88,1.01.88h26.07c1.48,0,2.22.77,2.22,2.29v63.13c0,4.54,2.29,6.8,6.87,6.8h22.23c2.16,0,3.83-.6,5.02-1.79,1.19-1.19,1.79-2.86,1.79-5.02v-63.13c0-1.53.74-2.29,2.22-2.29h26.75c.63,0,.94-.31.94-.94,0-.22-.06-.43-.17-.61-.11-.18-.24-.36-.37-.54l-46.01-47.97c-.45-.49-.88-.74-1.28-.74Z"/><path class="cls-4" d="m899.22,86.05c1.17,0,2.37.25,3.6.74,1.23.49,2.46,1.39,3.67,2.69l49.72,53.16c1.71,1.8,2.94,3.35,3.71,4.65.76,1.3,1.15,2.79,1.15,4.45,0,2.38-.82,4.31-2.46,5.79-1.64,1.48-3.58,2.22-5.83,2.22h-25.47v54.71c0,5.34-1.45,9.49-4.34,12.43-2.9,2.94-6.95,4.41-12.16,4.41h-23.24c-5.21,0-9.26-1.47-12.16-4.41-2.9-2.94-4.35-7.09-4.35-12.43v-54.71h-25.74c-2.29,0-4.18-.74-5.66-2.22-1.48-1.48-2.22-3.37-2.22-5.66,0-1.66.36-3.21,1.08-4.65.72-1.44,1.82-2.96,3.3-4.58l50.19-53.16c1.21-1.3,2.45-2.2,3.71-2.69,1.26-.49,2.43-.74,3.5-.74Zm0,12.06c-.18,0-.37.06-.57.17-.2.11-.44.3-.71.57l-45.41,47.97c-.4.4-.61.81-.61,1.21,0,.58.34.88,1.01.88h26.07c1.48,0,2.22.77,2.22,2.29v63.13c0,4.54,2.29,6.8,6.87,6.8h22.23c2.16,0,3.83-.6,5.02-1.79,1.19-1.19,1.79-2.86,1.79-5.02v-63.13c0-1.53.74-2.29,2.22-2.29h26.75c.63,0,.94-.31.94-.94,0-.22-.06-.43-.17-.61-.11-.18-.24-.36-.37-.54l-46.01-47.97c-.45-.49-.88-.74-1.28-.74Z"/><path class="cls-4" d="m705.59,85.92c1.17,0,2.37.25,3.6.74,1.23.5,2.46,1.39,3.67,2.69l49.72,53.16c1.71,1.8,2.94,3.35,3.71,4.65.76,1.3,1.15,2.79,1.15,4.45,0,2.38-.82,4.31-2.46,5.79-1.64,1.48-3.58,2.22-5.83,2.22h-27.02v56.05c0,4.89-1.31,8.7-3.94,11.42-2.63,2.72-6.37,4.08-11.22,4.08h-22.84c-4.81,0-8.53-1.36-11.18-4.08-2.65-2.72-3.98-6.52-3.98-11.42v-56.05h-27.29c-2.29,0-4.18-.74-5.66-2.22-1.48-1.48-2.22-3.37-2.22-5.66,0-1.66.36-3.21,1.08-4.65.72-1.44,1.82-2.96,3.3-4.58l50.19-53.16c1.21-1.3,2.45-2.2,3.71-2.69,1.26-.49,2.43-.74,3.5-.74Z"/><path class="cls-4" d="m124.71,536.83c1.17,0,2.37.25,3.6.74,1.23.49,2.46,1.39,3.67,2.69l49.72,53.16c1.71,1.8,2.94,3.35,3.71,4.65.76,1.3,1.15,2.79,1.15,4.45,0,2.38-.82,4.31-2.46,5.79-1.64,1.48-3.58,2.22-5.83,2.22h-25.47v54.71c0,5.34-1.45,9.49-4.34,12.43-2.9,2.94-6.95,4.41-12.16,4.41h-23.24c-5.21,0-9.26-1.47-12.16-4.41-2.9-2.94-4.35-7.09-4.35-12.43v-54.71h-25.74c-2.29,0-4.18-.74-5.66-2.22-1.48-1.48-2.22-3.37-2.22-5.66,0-1.66.36-3.21,1.08-4.65.72-1.44,1.82-2.96,3.3-4.58l50.19-53.16c1.21-1.3,2.45-2.2,3.71-2.69,1.26-.49,2.43-.74,3.5-.74Zm0,12.06c-.18,0-.37.06-.57.17-.2.11-.44.3-.71.57l-45.41,47.97c-.4.4-.61.81-.61,1.21,0,.58.34.88,1.01.88h26.07c1.48,0,2.22.77,2.22,2.29v63.13c0,4.54,2.29,6.8,6.87,6.8h22.23c2.16,0,3.83-.6,5.02-1.79,1.19-1.19,1.79-2.86,1.79-5.02v-63.13c0-1.53.74-2.29,2.22-2.29h26.75c.63,0,.94-.31.94-.94,0-.22-.06-.43-.17-.61-.11-.18-.24-.36-.37-.54l-46.01-47.97c-.45-.49-.88-.74-1.28-.74Z"/><path class="cls-4" d="m318.34,536.69c1.17,0,2.37.25,3.6.74,1.23.5,2.46,1.39,3.67,2.69l49.72,53.16c1.71,1.8,2.94,3.35,3.71,4.65.76,1.3,1.15,2.79,1.15,4.45,0,2.38-.82,4.31-2.46,5.79-1.64,1.48-3.58,2.22-5.83,2.22h-27.02v56.05c0,4.89-1.31,8.7-3.94,11.42-2.63,2.72-6.37,4.08-11.22,4.08h-22.84c-4.81,0-8.53-1.36-11.18-4.08-2.65-2.72-3.98-6.52-3.98-11.42v-56.05h-27.29c-2.29,0-4.18-.74-5.66-2.22-1.48-1.48-2.22-3.37-2.22-5.66,0-1.66.36-3.21,1.08-4.65.72-1.44,1.82-2.96,3.3-4.58l50.19-53.16c1.21-1.3,2.45-2.2,3.71-2.69,1.26-.49,2.43-.74,3.5-.74Z"/><path class="cls-4" d="m511.97,536.83c1.17,0,2.37.25,3.6.74,1.23.49,2.46,1.39,3.67,2.69l49.72,53.16c1.71,1.8,2.94,3.35,3.71,4.65.76,1.3,1.15,2.79,1.15,4.45,0,2.38-.82,4.31-2.46,5.79-1.64,1.48-3.58,2.22-5.83,2.22h-25.47v54.71c0,5.34-1.45,9.49-4.34,12.43-2.9,2.94-6.95,4.41-12.16,4.41h-23.24c-5.21,0-9.26-1.47-12.16-4.41-2.9-2.94-4.35-7.09-4.35-12.43v-54.71h-25.74c-2.29,0-4.18-.74-5.66-2.22-1.48-1.48-2.22-3.37-2.22-5.66,0-1.66.36-3.21,1.08-4.65.72-1.44,1.82-2.96,3.3-4.58l50.19-53.16c1.21-1.3,2.45-2.2,3.71-2.69,1.26-.49,2.43-.74,3.5-.74Zm0,12.06c-.18,0-.37.06-.57.17-.2.11-.44.3-.71.57l-45.41,47.97c-.4.4-.61.81-.61,1.21,0,.58.34.88,1.01.88h26.07c1.48,0,2.22.77,2.22,2.29v63.13c0,4.54,2.29,6.8,6.87,6.8h22.23c2.16,0,3.83-.6,5.02-1.79,1.19-1.19,1.79-2.86,1.79-5.02v-63.13c0-1.53.74-2.29,2.22-2.29h26.75c.63,0,.94-.31.94-.94,0-.22-.06-.43-.17-.61-.11-.18-.24-.36-.37-.54l-46.01-47.97c-.45-.49-.88-.74-1.28-.74Z"/><path class="cls-4" d="m899.22,536.83c1.17,0,2.37.25,3.6.74,1.23.49,2.46,1.39,3.67,2.69l49.72,53.16c1.71,1.8,2.94,3.35,3.71,4.65.76,1.3,1.15,2.79,1.15,4.45,0,2.38-.82,4.31-2.46,5.79-1.64,1.48-3.58,2.22-5.83,2.22h-25.47v54.71c0,5.34-1.45,9.49-4.34,12.43-2.9,2.94-6.95,4.41-12.16,4.41h-23.24c-5.21,0-9.26-1.47-12.16-4.41-2.9-2.94-4.35-7.09-4.35-12.43v-54.71h-25.74c-2.29,0-4.18-.74-5.66-2.22-1.48-1.48-2.22-3.37-2.22-5.66,0-1.66.36-3.21,1.08-4.65.72-1.44,1.82-2.96,3.3-4.58l50.19-53.16c1.21-1.3,2.45-2.2,3.71-2.69,1.26-.49,2.43-.74,3.5-.74Zm0,12.06c-.18,0-.37.06-.57.17-.2.11-.44.3-.71.57l-45.41,47.97c-.4.4-.61.81-.61,1.21,0,.58.34.88,1.01.88h26.07c1.48,0,2.22.77,2.22,2.29v63.13c0,4.54,2.29,6.8,6.87,6.8h22.23c2.16,0,3.83-.6,5.02-1.79,1.19-1.19,1.79-2.86,1.79-5.02v-63.13c0-1.53.74-2.29,2.22-2.29h26.75c.63,0,.94-.31.94-.94,0-.22-.06-.43-.17-.61-.11-.18-.24-.36-.37-.54l-46.01-47.97c-.45-.49-.88-.74-1.28-.74Z"/><path class="cls-4" d="m705.59,536.69c1.17,0,2.37.25,3.6.74,1.23.5,2.46,1.39,3.67,2.69l49.72,53.16c1.71,1.8,2.94,3.35,3.71,4.65.76,1.3,1.15,2.79,1.15,4.45,0,2.38-.82,4.31-2.46,5.79-1.64,1.48-3.58,2.22-5.83,2.22h-27.02v56.05c0,4.89-1.31,8.7-3.94,11.42-2.63,2.72-6.37,4.08-11.22,4.08h-22.84c-4.81,0-8.53-1.36-11.18-4.08-2.65-2.72-3.98-6.52-3.98-11.42v-56.05h-27.29c-2.29,0-4.18-.74-5.66-2.22-1.48-1.48-2.22-3.37-2.22-5.66,0-1.66.36-3.21,1.08-4.65.72-1.44,1.82-2.96,3.3-4.58l50.19-53.16c1.21-1.3,2.45-2.2,3.71-2.69,1.26-.49,2.43-.74,3.5-.74Z"/><path class="cls-4" d="m124.71,311.31c1.17,0,2.37.25,3.6.74,1.23.5,2.46,1.39,3.67,2.69l49.72,53.16c1.71,1.8,2.94,3.35,3.71,4.65.76,1.3,1.15,2.79,1.15,4.45,0,2.38-.82,4.31-2.46,5.79-1.64,1.48-3.58,2.22-5.83,2.22h-27.02v56.05c0,4.89-1.31,8.7-3.94,11.42-2.63,2.72-6.37,4.08-11.22,4.08h-22.84c-4.81,0-8.53-1.36-11.18-4.08-2.65-2.72-3.98-6.52-3.98-11.42v-56.05h-27.29c-2.29,0-4.18-.74-5.66-2.22-1.48-1.48-2.22-3.37-2.22-5.66,0-1.66.36-3.21,1.08-4.65.72-1.44,1.82-2.96,3.3-4.58l50.19-53.16c1.21-1.3,2.45-2.2,3.71-2.69,1.26-.49,2.43-.74,3.5-.74Z"/><path class="cls-4" d="m318.34,311.44c1.17,0,2.37.25,3.6.74,1.23.49,2.46,1.39,3.67,2.69l49.72,53.16c1.71,1.8,2.94,3.35,3.71,4.65.76,1.3,1.15,2.79,1.15,4.45,0,2.38-.82,4.31-2.46,5.79-1.64,1.48-3.58,2.22-5.83,2.22h-25.47v54.71c0,5.34-1.45,9.49-4.34,12.43-2.9,2.94-6.95,4.41-12.16,4.41h-23.24c-5.21,0-9.26-1.47-12.16-4.41-2.9-2.94-4.35-7.09-4.35-12.43v-54.71h-25.74c-2.29,0-4.18-.74-5.66-2.22-1.48-1.48-2.22-3.37-2.22-5.66,0-1.66.36-3.21,1.08-4.65.72-1.44,1.82-2.96,3.3-4.58l50.19-53.16c1.21-1.3,2.45-2.2,3.71-2.69,1.26-.49,2.43-.74,3.5-.74Zm0,12.06c-.18,0-.37.06-.57.17-.2.11-.44.3-.71.57l-45.41,47.97c-.4.4-.61.81-.61,1.21,0,.58.34.88,1.01.88h26.07c1.48,0,2.22.77,2.22,2.29v63.13c0,4.54,2.29,6.8,6.87,6.8h22.23c2.16,0,3.83-.6,5.02-1.79,1.19-1.19,1.79-2.86,1.79-5.02v-63.13c0-1.53.74-2.29,2.22-2.29h26.75c.63,0,.94-.31.94-.94,0-.22-.06-.43-.17-.61-.11-.18-.24-.36-.37-.54l-46.01-47.97c-.45-.49-.88-.74-1.28-.74Z"/><path class="cls-4" d="m705.59,311.44c1.17,0,2.37.25,3.6.74,1.23.49,2.46,1.39,3.67,2.69l49.72,53.16c1.71,1.8,2.94,3.35,3.71,4.65.76,1.3,1.15,2.79,1.15,4.45,0,2.38-.82,4.31-2.46,5.79-1.64,1.48-3.58,2.22-5.83,2.22h-25.47v54.71c0,5.34-1.45,9.49-4.34,12.43-2.9,2.94-6.95,4.41-12.16,4.41h-23.24c-5.21,0-9.26-1.47-12.16-4.41-2.9-2.94-4.35-7.09-4.35-12.43v-54.71h-25.74c-2.29,0-4.18-.74-5.66-2.22-1.48-1.48-2.22-3.37-2.22-5.66,0-1.66.36-3.21,1.08-4.65.72-1.44,1.82-2.96,3.3-4.58l50.19-53.16c1.21-1.3,2.45-2.2,3.71-2.69,1.26-.49,2.43-.74,3.5-.74Zm0,12.06c-.18,0-.37.06-.57.17-.2.11-.44.3-.71.57l-45.41,47.97c-.4.4-.61.81-.61,1.21,0,.58.34.88,1.01.88h26.07c1.48,0,2.22.77,2.22,2.29v63.13c0,4.54,2.29,6.8,6.87,6.8h22.23c2.16,0,3.83-.6,5.02-1.79,1.19-1.19,1.79-2.86,1.79-5.02v-63.13c0-1.53.74-2.29,2.22-2.29h26.75c.63,0,.94-.31.94-.94,0-.22-.06-.43-.17-.61-.11-.18-.24-.36-.37-.54l-46.01-47.97c-.45-.49-.88-.74-1.28-.74Z"/><path class="cls-4" d="m511.97,311.31c1.17,0,2.37.25,3.6.74,1.23.5,2.46,1.39,3.67,2.69l49.72,53.16c1.71,1.8,2.94,3.35,3.71,4.65.76,1.3,1.15,2.79,1.15,4.45,0,2.38-.82,4.31-2.46,5.79-1.64,1.48-3.58,2.22-5.83,2.22h-27.02v56.05c0,4.89-1.31,8.7-3.94,11.42-2.63,2.72-6.37,4.08-11.22,4.08h-22.84c-4.81,0-8.53-1.36-11.18-4.08-2.65-2.72-3.98-6.52-3.98-11.42v-56.05h-27.29c-2.29,0-4.18-.74-5.66-2.22-1.48-1.48-2.22-3.37-2.22-5.66,0-1.66.36-3.21,1.08-4.65.72-1.44,1.82-2.96,3.3-4.58l50.19-53.16c1.21-1.3,2.45-2.2,3.71-2.69,1.26-.49,2.43-.74,3.5-.74Z"/><path class="cls-4" d="m899.22,311.31c1.17,0,2.37.25,3.6.74,1.23.5,2.46,1.39,3.67,2.69l49.72,53.16c1.71,1.8,2.94,3.35,3.71,4.65.76,1.3,1.15,2.79,1.15,4.45,0,2.38-.82,4.31-2.46,5.79-1.64,1.48-3.58,2.22-5.83,2.22h-27.02v56.05c0,4.89-1.31,8.7-3.94,11.42-2.63,2.72-6.37,4.08-11.22,4.08h-22.84c-4.81,0-8.53-1.36-11.18-4.08-2.65-2.72-3.98-6.52-3.98-11.42v-56.05h-27.29c-2.29,0-4.18-.74-5.66-2.22-1.48-1.48-2.22-3.37-2.22-5.66,0-1.66.36-3.21,1.08-4.65.72-1.44,1.82-2.96,3.3-4.58l50.19-53.16c1.21-1.3,2.45-2.2,3.71-2.69,1.26-.49,2.43-.74,3.5-.74Z"/></g><path class="cls-2" d="m290.23,433.82c-3.39,1.65-6.39,2.33-9.01,2.03-2.62-.29-4.72-1.24-6.32-2.83-1.6-1.6-2.62-3.53-3.05-5.81-.44-2.28-.17-4.51.8-6.68.97-2.18,2.81-4,5.52-5.45l138.35-72.52c5.81-3,11.29-4.51,16.42-4.51s10.61,1.5,16.42,4.51l138.06,72.52c2.71,1.45,4.58,3.27,5.59,5.45s1.33,4.41.95,6.68c-.39,2.28-1.41,4.21-3.05,5.81-1.65,1.6-3.78,2.54-6.39,2.83-2.62.29-5.57-.39-8.86-2.03l-137.62-70.34c-3.49-1.74-6.88-1.74-10.17,0l-137.62,70.34Zm-5.81,155.64c-3,0-5.62-1.12-7.85-3.34-2.23-2.23-3.34-4.89-3.34-7.99s1.11-5.6,3.34-7.78c2.23-2.18,4.84-3.27,7.85-3.27h405.02c3,0,5.59,1.09,7.77,3.27,2.18,2.18,3.27,4.77,3.27,7.78s-1.09,5.76-3.27,7.99c-2.18,2.23-4.77,3.34-7.77,3.34h-405.02Zm56.1,0c-9.88,0-17.58-2.71-23.11-8.14-5.52-5.43-8.28-13.03-8.28-22.82v-113.06c1.16-.58,2.28-1.14,3.34-1.67,1.07-.53,2.13-1.09,3.2-1.67l117.13-59.87,116.84,59.73c1.26.58,2.45,1.19,3.56,1.82,1.11.63,2.3,1.23,3.56,1.82v112.92c0,9.78-2.76,17.39-8.28,22.82-5.52,5.43-13.22,8.14-23.11,8.14h-184.85Zm49.99-22.38h84.72v-92.43c0-3.2-.97-5.76-2.91-7.7-1.94-1.94-4.51-2.91-7.7-2.91h-63.51c-3.2,0-5.77.97-7.7,2.91-1.94,1.94-2.91,4.51-2.91,7.7v92.43Zm239.93,22.38c-3.1,0-5.74-1.12-7.92-3.34-2.18-2.23-3.27-4.89-3.27-7.99v-292.83c0-5.91,2.71-10.03,8.14-12.35,2.42-1.06,4.94-1.89,7.56-2.47,2.62-.58,6.44-.87,11.48-.87,7.85,0,14.97.97,21.36,2.91,6.39,1.94,12.72,3.9,18.97,5.89,6.25,1.99,13.1,2.98,20.56,2.98,5.33,0,9.54-.46,12.64-1.38,3.1-.92,5.62-1.38,7.56-1.38,4.94,0,7.41,2.23,7.41,6.68v64.52c0,5.91-2.67,10.12-7.99,12.64-2.52,1.16-5.09,2.01-7.7,2.54-2.62.53-6.39.8-11.34.8-7.56,0-14.46-.97-20.71-2.91-6.25-1.94-12.55-3.85-18.89-5.74-6.35-1.89-13.44-2.83-21.29-2.83-1.07,0-2.06.05-2.98.15-.92.1-1.77.19-2.54.29v223.36c0,3.1-1.09,5.76-3.27,7.99-2.18,2.23-4.77,3.34-7.78,3.34Zm-.07-401.42h0c6.14,0,11.12,4.98,11.12,11.12v140.89c0,6.14-4.98,11.12-11.12,11.12h0c-6.14,0-11.12-4.98-11.12-11.12v-140.89c0-6.14,4.98-11.12,11.12-11.12Z"/><path class="cls-1" d="m777.34,172.82c.66,0,1.34.14,2.03.42.7.28,1.39.79,2.07,1.52l28.06,30c.96,1.01,1.66,1.89,2.09,2.62.43.73.65,1.57.65,2.51,0,1.34-.46,2.43-1.39,3.27-.93.84-2.02,1.26-3.29,1.26h-15.25v31.64c0,2.76-.74,4.91-2.22,6.45-1.48,1.53-3.59,2.3-6.33,2.3h-12.89c-2.71,0-4.82-.77-6.31-2.3-1.5-1.53-2.24-3.68-2.24-6.45v-31.64h-15.4c-1.29,0-2.36-.42-3.19-1.26-.84-.84-1.25-1.9-1.25-3.19,0-.94.2-1.81.61-2.62.41-.81,1.03-1.67,1.86-2.59l28.33-30c.68-.73,1.38-1.24,2.09-1.52.71-.28,1.37-.42,1.98-.42Z"/></svg>