<?xml version="1.0" encoding="UTF-8"?><svg id="Layer_1" xmlns="http://www.w3.org/2000/svg" xmlns:xlink="http://www.w3.org/1999/xlink" viewBox="0 0 1024 768"><defs><style>.cls-1{stroke-width:16px;}.cls-1,.cls-2{fill:none;stroke:#e46bc3;}.cls-3{fill:#fff;}.cls-4,.cls-5{fill:#e46bc3;}.cls-6{fill:#1e1e1e;}.cls-5{opacity:.6;}.cls-5,.cls-2{isolation:isolate;}.cls-2{opacity:.5;stroke-width:4px;}.cls-7{filter:url(#outer-glow-2);}</style><filter id="outer-glow-2" filterUnits="userSpaceOnUse"><feOffset dx="0" dy="0"/><feGaussianBlur result="blur" stdDeviation="8"/><feFlood flood-color="#e46bc3" flood-opacity=".75"/><feComposite in2="blur" operator="in"/><feComposite in="SourceGraphic"/></filter></defs><rect class="cls-6" width="1024" height="768"/><path class="cls-3" d="m398.02,251.14l3.65,67.54c.58,12.31,5.38,19.43,14.03,25.78l41.7,30.6c5.19,3.65,8.07,6.35,8.07,15.39v251.1c0,10.39,8.46,18.66,18.83,18.66s18.64-8.27,18.64-18.66v-135.08c0-3.46,3.08-6.54,6.53-6.54s6.34,3.08,6.34,6.54v135.08c0,10.39,8.46,18.66,18.83,18.66s18.64-8.27,18.64-18.66v-223.01c0-3.46,2.88-6.16,6.34-6.16s6.15,2.69,6.15,6.16v74.08c0,9.62,7.69,17.12,17.11,17.12s17.1-7.5,17.1-17.12v-82.74c0-42.52-31.13-70.81-76.49-70.81h-39.97c-11.53,0-18.64-2.31-27.87-8.85l-19.99-14.24-3.65-66.58c-.39-9.43-8.46-17.12-17.87-16.36-9.61.77-16.53,8.66-16.14,18.09Zm111.47,66.38c23.25,0,41.9-18.66,41.9-41.95s-18.64-41.95-41.9-41.95-41.89,18.66-41.89,41.95,18.64,41.95,41.89,41.95Z"/><rect class="cls-1" x="229" y="170" width="566" height="428" rx="35" ry="35" shape-rendering="crispEdges"/><line class="cls-2" x1="420" y1="178" x2="420" y2="590"/><line class="cls-2" x1="603" y1="178" x2="603" y2="590"/><line class="cls-2" x1="237" y1="281" x2="787" y2="281"/><line class="cls-2" x1="237" y1="384" x2="787" y2="384"/><line class="cls-2" x1="237" y1="487" x2="787" y2="487"/><rect class="cls-5" x="236" y="178" width="182" height="103"/><g class="cls-7"><path class="cls-4" d="m415,215h0c15.46,0,28,12.54,28,28h0c0,15.46-12.54,28-28,28h0c-15.46,0-28-12.54-28-28h0c0-15.46,12.54-28,28-28Z"/></g></svg>