<svg width="1024" height="768" viewBox="0 0 1024 768" fill="none" xmlns="http://www.w3.org/2000/svg">
<g clip-path="url(#clip0_49_48)">
<rect width="1024" height="768" fill="#1E1E1E"/>
<g filter="url(#filter0_d_49_48)">
<rect x="463" y="335" width="98" height="98" rx="49" fill="#F75FC8"/>
</g>
<g opacity="0.5" filter="url(#filter1_d_49_48)">
<rect x="369" y="241" width="286" height="286" rx="143" stroke="#F75FC8" stroke-width="12" shape-rendering="crispEdges"/>
</g>
<g opacity="0.3" filter="url(#filter2_d_49_48)">
<rect x="269" y="141" width="486" height="486" rx="243" stroke="#F75FC8" stroke-width="12" shape-rendering="crispEdges"/>
</g>
<g opacity="0.2" filter="url(#filter3_d_49_48)">
<rect x="169" y="41" width="686" height="686" rx="343" stroke="#F75FC8" stroke-width="12" shape-rendering="crispEdges"/>
</g>
<g opacity="0.2" filter="url(#filter4_d_49_48)">
<rect x="69" y="-59" width="886" height="886" rx="443" stroke="#F75FC8" stroke-width="12" shape-rendering="crispEdges"/>
</g>
<g opacity="0.1" filter="url(#filter5_d_49_48)">
<rect x="-31" y="-159" width="1086" height="1086" rx="484" stroke="#F75FC8" stroke-width="12" shape-rendering="crispEdges"/>
</g>
<g filter="url(#filter6_d_49_48)">
<rect x="602" y="280" width="52" height="52" rx="26" fill="black"/>
</g>
<g filter="url(#filter7_d_49_48)">
<path d="M379 163C379 144.775 393.775 130 412 130V130C430.225 130 445 144.775 445 163V163C445 181.225 430.225 196 412 196V196C393.775 196 379 181.225 379 163V163Z" fill="black"/>
</g>
<g filter="url(#filter8_d_49_48)">
<path d="M125 408C125 383.147 145.147 363 170 363V363C194.853 363 215 383.147 215 408V408C215 432.853 194.853 453 170 453V453C145.147 453 125 432.853 125 408V408Z" fill="black"/>
</g>
<g filter="url(#filter9_d_49_48)">
<path d="M142 678C142 653.147 162.147 633 187 633V633C211.853 633 232 653.147 232 678V678C232 702.853 211.853 723 187 723V723C162.147 723 142 702.853 142 678V678Z" fill="black"/>
</g>
<g opacity="0.8" filter="url(#filter10_d_49_48)">
<rect x="602" y="280" width="52" height="52" rx="26" fill="#F75FC8"/>
</g>
<g opacity="0.8" filter="url(#filter11_d_49_48)">
<path d="M379 163C379 144.775 393.775 130 412 130V130C430.225 130 445 144.775 445 163V163C445 181.225 430.225 196 412 196V196C393.775 196 379 181.225 379 163V163Z" fill="#F75FC8"/>
</g>
<g opacity="0.8" filter="url(#filter12_d_49_48)">
<path d="M125 408C125 383.147 145.147 363 170 363V363C194.853 363 215 383.147 215 408V408C215 432.853 194.853 453 170 453V453C145.147 453 125 432.853 125 408V408Z" fill="#F75FC8"/>
</g>
<g opacity="0.5" clip-path="url(#clip1_49_48)">
<path d="M134.215 427.14C140.951 422.057 140.728 413.497 143.271 413.497C144.653 413.497 146.036 414.701 148.445 417.777C152.549 423.083 155.27 425.713 158.036 425.713C160.623 425.713 163.79 421.923 163.79 418.892C163.79 417.465 161.114 415.637 161.114 414.567C161.114 413.943 161.738 413.631 162.63 413.631C168.92 413.631 174.452 408.369 174.452 404.178C174.452 401.191 169.589 398.427 169.589 396.51C169.589 395.707 170.258 395.172 171.061 395.172C171.597 395.172 172.221 395.395 173.024 395.974C177.886 399.809 180.161 397.803 180.607 395.35C180.786 394.325 181.366 393.255 183.909 392.006C189.217 389.197 192.964 385.363 192.964 382.376C192.964 379.032 186.897 376.178 186.897 374.885C186.897 374.172 188.012 373.548 190.956 372.656C186.362 368.465 179.046 365.389 169.456 365.389C144.252 366.369 127.881 384.382 127.747 407.478C127.702 414.701 129.977 421.879 134.215 427.14ZM189.395 445.153C198.138 439.58 204.562 432.802 208.666 424.955C207.907 419.248 205.186 415.949 201.35 415.949C200.324 415.949 199.031 416.127 197.871 416.528C196.309 417.019 195.997 416.93 194.748 415.503C192.964 413.452 191.403 412.739 188.949 412.739C184.31 412.739 181.633 415.146 179.626 421.166C179.046 422.994 178.243 423.618 175.121 424.821L173.247 425.49C169.768 426.828 168.875 429.325 170.08 434.586C171.151 439.223 173.381 441.586 176.548 441.586C179.403 441.586 181.143 440.56 183.105 440.56C185.96 440.471 187.388 442.344 189.395 445.153ZM180.251 404.758C183.15 404.758 184.444 402.172 187.7 401.191C189.841 400.567 191.001 398.382 191.001 396.51C191.001 394.993 190.243 393.7 188.592 393.7C186.852 393.7 185.247 395.038 184.176 397.312C183.596 398.605 182.615 399.229 180.251 399.898C178.377 400.478 177.708 401.146 177.708 402.573C177.708 404.089 178.912 404.758 180.251 404.758ZM167.314 425.357C169.857 425.357 172.355 422.414 172.355 419.783C172.355 416.528 171.017 415.013 169.456 415.013C167.76 415.013 166.69 417.019 166.69 420.051C166.69 421.79 165.173 421.834 165.173 423.573C165.173 424.643 166.021 425.357 167.314 425.357ZM159.508 433.516C161.471 433.516 162.675 432.49 162.675 430.885C162.675 429.637 161.738 428.834 160.4 428.834C155.003 428.834 154.779 425.802 152.192 425.802C150.765 425.802 149.783 426.649 149.783 427.898C149.783 428.879 150.765 429.637 152.103 429.637C154.958 429.637 153.62 433.516 159.508 433.516ZM169.5 452.955C194.391 452.955 215 432.312 215 407.478C215 382.599 194.347 362 169.456 362C144.609 362 124 382.599 124 407.478C124 432.312 144.653 452.955 169.5 452.955ZM169.5 446.892C147.954 446.892 130.067 429.013 130.067 407.478C130.067 385.943 147.91 368.064 169.456 368.064C191.001 368.064 208.933 385.943 208.933 407.478C208.933 429.013 191.046 446.892 169.5 446.892Z" fill="#F59AD9"/>
</g>
<g opacity="0.8" filter="url(#filter13_d_49_48)">
<path d="M142 678C142 653.147 162.147 633 187 633V633C211.853 633 232 653.147 232 678V678C232 702.853 211.853 723 187 723V723C162.147 723 142 702.853 142 678V678Z" fill="#F75FC8"/>
</g>
<g opacity="0.8" filter="url(#filter14_d_49_48)">
<path fill-rule="evenodd" clip-rule="evenodd" d="M179.018 633.706C181.608 633.242 184.276 633 187 633C200.969 633 213.452 639.365 221.705 649.353C216.942 652.167 211.822 653.956 207 653.956C191.871 653.956 179.544 644.956 179.018 633.706ZM223.047 651.058C219.213 653.679 214.465 656.557 208.845 658.115C204.082 659.436 198.827 660.346 193.941 661.191C183.54 662.992 174.814 664.502 176.081 669.073C177.944 675.791 191.534 677.886 206.436 673.754C214.624 671.483 222.814 665.746 228.222 659.923C226.834 656.761 225.092 653.79 223.047 651.058ZM230.972 687.608C225.484 686.828 218.301 687.392 210.763 689.483C195.862 693.615 180.812 708.71 182.585 715.101C183.52 718.475 186.444 716.47 191.188 713.216L191.188 713.216L191.189 713.216C195.432 710.306 201.132 706.397 208.168 704.446C212.93 703.125 218.179 702.191 223.058 701.322L223.058 701.322C223.983 701.157 224.893 700.995 225.785 700.833C228.172 696.788 229.944 692.336 230.972 687.608ZM148.692 701.622C152.621 699.594 157.413 697.347 162.887 695.829C167.65 694.509 172.851 693.405 177.687 692.38C187.982 690.196 196.619 688.364 195.834 685.533C194.68 681.373 181.665 681.35 166.763 685.483C159.189 687.583 151.322 691.602 145.569 695.592C146.46 697.689 147.506 699.703 148.692 701.622ZM142.018 676.734C156.773 674.616 173 657.807 173 646.956C173 640.834 169.647 642.846 164.206 646.112C160.344 648.429 155.432 651.377 149.92 652.497C145.148 659.421 142.266 667.748 142.018 676.734Z" fill="#F75FC8"/>
</g>
<g opacity="0.8" filter="url(#filter15_d_49_48)">
<path fill-rule="evenodd" clip-rule="evenodd" d="M380.374 153.264C380.933 151.42 381.662 149.599 382.567 147.823C387.21 138.711 395.51 132.685 404.767 130.621C405.02 134.663 404.485 138.597 402.882 141.742C397.854 151.61 387.888 156.659 380.374 153.264ZM406.326 130.312C406.761 133.684 407.06 137.738 406.209 141.921C405.488 145.467 404.334 149.197 403.262 152.664C400.98 160.047 399.065 166.241 402.467 166.933C407.468 167.95 413.352 159.783 415.609 148.689C416.849 142.594 415.828 135.346 413.828 129.883C411.304 129.738 408.787 129.886 406.326 130.312ZM432.799 137.29C430.467 140.61 428.448 145.483 427.306 151.094C425.049 162.187 429.893 177.02 434.651 177.988C437.162 178.499 436.826 175.925 436.281 171.75L436.281 171.75C435.793 168.015 435.137 162.998 436.203 157.76C436.924 154.215 438.059 150.481 439.114 147.01L439.114 147.01C439.314 146.352 439.511 145.704 439.702 145.069C437.856 142.167 435.542 139.532 432.799 137.29ZM414.595 195.616C414.578 192.378 414.706 188.506 415.535 184.431C416.256 180.886 417.265 177.126 418.203 173.631C420.2 166.191 421.876 159.948 419.769 159.519C416.671 158.889 412.331 167.371 410.074 178.464C408.927 184.103 408.934 190.57 409.624 195.649C411.288 195.764 412.95 195.752 414.595 195.616ZM396.143 191.698C399.666 181.369 394.095 165.199 387.017 161.592C383.024 159.558 383.222 162.414 383.544 167.048C383.772 170.337 384.062 174.521 382.961 178.488C385.891 183.902 390.365 188.549 396.143 191.698Z" fill="#F75FC8"/>
</g>
<g opacity="0.8" filter="url(#filter16_d_49_48)">
<path fill-rule="evenodd" clip-rule="evenodd" d="M604.621 317.877C603.954 316.519 603.398 315.083 602.966 313.578C600.753 305.86 602.292 297.955 606.503 291.813C608.812 293.999 610.612 296.544 611.376 299.208C613.772 307.567 610.753 315.803 604.621 317.877ZM607.233 290.801C609.288 292.504 611.631 294.672 613.382 297.53C614.866 299.952 616.202 302.711 617.443 305.277C620.085 310.738 622.302 315.32 624.627 313.896C628.043 311.802 627.048 303.961 622.404 296.383C619.852 292.219 615.385 288.603 611.311 286.537C609.784 287.805 608.418 289.238 607.233 290.801ZM626.171 280.632C626.609 283.788 628.059 287.667 630.408 291.501C635.052 299.079 645.776 305.002 649.027 303.011C650.742 301.959 649.171 300.661 646.622 298.556C644.342 296.672 641.279 294.142 639.087 290.564C637.602 288.142 636.255 285.39 635.002 282.832C634.764 282.348 634.53 281.87 634.3 281.403C631.686 280.725 628.946 280.451 626.171 280.632ZM646.95 323.872C645.206 322.022 643.206 319.73 641.5 316.946C640.015 314.524 638.582 311.825 637.249 309.316L637.249 309.316C634.412 303.974 632.031 299.492 630.591 300.374C628.476 301.671 630.525 308.865 635.169 316.444C637.53 320.296 640.997 324.006 644.113 326.553C645.13 325.728 646.077 324.831 646.95 323.872ZM634.256 331.502C630.748 323.686 618.89 317.383 612.895 319.102C609.513 320.072 611.156 321.606 613.822 324.095C615.714 325.861 618.121 328.108 619.613 330.976C624.195 332.516 629.252 332.789 634.256 331.502Z" fill="#F75FC8"/>
</g>
</g>
<defs>
<filter id="filter0_d_49_48" x="372" y="248" width="280" height="280" filterUnits="userSpaceOnUse" color-interpolation-filters="sRGB">
<feFlood flood-opacity="0" result="BackgroundImageFix"/>
<feColorMatrix in="SourceAlpha" type="matrix" values="0 0 0 0 0 0 0 0 0 0 0 0 0 0 0 0 0 0 127 0" result="hardAlpha"/>
<feOffset dy="4"/>
<feGaussianBlur stdDeviation="45.5"/>
<feComposite in2="hardAlpha" operator="out"/>
<feColorMatrix type="matrix" values="0 0 0 0 0.968627 0 0 0 0 0.372549 0 0 0 0 0.784314 0 0 0 1 0"/>
<feBlend mode="normal" in2="BackgroundImageFix" result="effect1_dropShadow_49_48"/>
<feBlend mode="normal" in="SourceGraphic" in2="effect1_dropShadow_49_48" result="shape"/>
</filter>
<filter id="filter1_d_49_48" x="327" y="203" width="370" height="370" filterUnits="userSpaceOnUse" color-interpolation-filters="sRGB">
<feFlood flood-opacity="0" result="BackgroundImageFix"/>
<feColorMatrix in="SourceAlpha" type="matrix" values="0 0 0 0 0 0 0 0 0 0 0 0 0 0 0 0 0 0 127 0" result="hardAlpha"/>
<feOffset dy="4"/>
<feGaussianBlur stdDeviation="18"/>
<feComposite in2="hardAlpha" operator="out"/>
<feColorMatrix type="matrix" values="0 0 0 0 0.968627 0 0 0 0 0.372549 0 0 0 0 0.784314 0 0 0 0.25 0"/>
<feBlend mode="normal" in2="BackgroundImageFix" result="effect1_dropShadow_49_48"/>
<feBlend mode="normal" in="SourceGraphic" in2="effect1_dropShadow_49_48" result="shape"/>
</filter>
<filter id="filter2_d_49_48" x="227" y="103" width="570" height="570" filterUnits="userSpaceOnUse" color-interpolation-filters="sRGB">
<feFlood flood-opacity="0" result="BackgroundImageFix"/>
<feColorMatrix in="SourceAlpha" type="matrix" values="0 0 0 0 0 0 0 0 0 0 0 0 0 0 0 0 0 0 127 0" result="hardAlpha"/>
<feOffset dy="4"/>
<feGaussianBlur stdDeviation="18"/>
<feComposite in2="hardAlpha" operator="out"/>
<feColorMatrix type="matrix" values="0 0 0 0 0.968627 0 0 0 0 0.372549 0 0 0 0 0.784314 0 0 0 0.25 0"/>
<feBlend mode="normal" in2="BackgroundImageFix" result="effect1_dropShadow_49_48"/>
<feBlend mode="normal" in="SourceGraphic" in2="effect1_dropShadow_49_48" result="shape"/>
</filter>
<filter id="filter3_d_49_48" x="127" y="3" width="770" height="770" filterUnits="userSpaceOnUse" color-interpolation-filters="sRGB">
<feFlood flood-opacity="0" result="BackgroundImageFix"/>
<feColorMatrix in="SourceAlpha" type="matrix" values="0 0 0 0 0 0 0 0 0 0 0 0 0 0 0 0 0 0 127 0" result="hardAlpha"/>
<feOffset dy="4"/>
<feGaussianBlur stdDeviation="18"/>
<feComposite in2="hardAlpha" operator="out"/>
<feColorMatrix type="matrix" values="0 0 0 0 0.968627 0 0 0 0 0.372549 0 0 0 0 0.784314 0 0 0 0.25 0"/>
<feBlend mode="normal" in2="BackgroundImageFix" result="effect1_dropShadow_49_48"/>
<feBlend mode="normal" in="SourceGraphic" in2="effect1_dropShadow_49_48" result="shape"/>
</filter>
<filter id="filter4_d_49_48" x="27" y="-97" width="970" height="970" filterUnits="userSpaceOnUse" color-interpolation-filters="sRGB">
<feFlood flood-opacity="0" result="BackgroundImageFix"/>
<feColorMatrix in="SourceAlpha" type="matrix" values="0 0 0 0 0 0 0 0 0 0 0 0 0 0 0 0 0 0 127 0" result="hardAlpha"/>
<feOffset dy="4"/>
<feGaussianBlur stdDeviation="18"/>
<feComposite in2="hardAlpha" operator="out"/>
<feColorMatrix type="matrix" values="0 0 0 0 0.968627 0 0 0 0 0.372549 0 0 0 0 0.784314 0 0 0 0.25 0"/>
<feBlend mode="normal" in2="BackgroundImageFix" result="effect1_dropShadow_49_48"/>
<feBlend mode="normal" in="SourceGraphic" in2="effect1_dropShadow_49_48" result="shape"/>
</filter>
<filter id="filter5_d_49_48" x="-73" y="-197" width="1170" height="1170" filterUnits="userSpaceOnUse" color-interpolation-filters="sRGB">
<feFlood flood-opacity="0" result="BackgroundImageFix"/>
<feColorMatrix in="SourceAlpha" type="matrix" values="0 0 0 0 0 0 0 0 0 0 0 0 0 0 0 0 0 0 127 0" result="hardAlpha"/>
<feOffset dy="4"/>
<feGaussianBlur stdDeviation="18"/>
<feComposite in2="hardAlpha" operator="out"/>
<feColorMatrix type="matrix" values="0 0 0 0 0.968627 0 0 0 0 0.372549 0 0 0 0 0.784314 0 0 0 0.25 0"/>
<feBlend mode="normal" in2="BackgroundImageFix" result="effect1_dropShadow_49_48"/>
<feBlend mode="normal" in="SourceGraphic" in2="effect1_dropShadow_49_48" result="shape"/>
</filter>
<filter id="filter6_d_49_48" x="566" y="248" width="124" height="124" filterUnits="userSpaceOnUse" color-interpolation-filters="sRGB">
<feFlood flood-opacity="0" result="BackgroundImageFix"/>
<feColorMatrix in="SourceAlpha" type="matrix" values="0 0 0 0 0 0 0 0 0 0 0 0 0 0 0 0 0 0 127 0" result="hardAlpha"/>
<feOffset dy="4"/>
<feGaussianBlur stdDeviation="18"/>
<feComposite in2="hardAlpha" operator="out"/>
<feColorMatrix type="matrix" values="0 0 0 0 0.968627 0 0 0 0 0.372549 0 0 0 0 0.784314 0 0 0 0.25 0"/>
<feBlend mode="normal" in2="BackgroundImageFix" result="effect1_dropShadow_49_48"/>
<feBlend mode="normal" in="SourceGraphic" in2="effect1_dropShadow_49_48" result="shape"/>
</filter>
<filter id="filter7_d_49_48" x="343" y="98" width="138" height="138" filterUnits="userSpaceOnUse" color-interpolation-filters="sRGB">
<feFlood flood-opacity="0" result="BackgroundImageFix"/>
<feColorMatrix in="SourceAlpha" type="matrix" values="0 0 0 0 0 0 0 0 0 0 0 0 0 0 0 0 0 0 127 0" result="hardAlpha"/>
<feOffset dy="4"/>
<feGaussianBlur stdDeviation="18"/>
<feComposite in2="hardAlpha" operator="out"/>
<feColorMatrix type="matrix" values="0 0 0 0 0.968627 0 0 0 0 0.372549 0 0 0 0 0.784314 0 0 0 0.25 0"/>
<feBlend mode="normal" in2="BackgroundImageFix" result="effect1_dropShadow_49_48"/>
<feBlend mode="normal" in="SourceGraphic" in2="effect1_dropShadow_49_48" result="shape"/>
</filter>
<filter id="filter8_d_49_48" x="89" y="331" width="162" height="162" filterUnits="userSpaceOnUse" color-interpolation-filters="sRGB">
<feFlood flood-opacity="0" result="BackgroundImageFix"/>
<feColorMatrix in="SourceAlpha" type="matrix" values="0 0 0 0 0 0 0 0 0 0 0 0 0 0 0 0 0 0 127 0" result="hardAlpha"/>
<feOffset dy="4"/>
<feGaussianBlur stdDeviation="18"/>
<feComposite in2="hardAlpha" operator="out"/>
<feColorMatrix type="matrix" values="0 0 0 0 0.968627 0 0 0 0 0.372549 0 0 0 0 0.784314 0 0 0 0.25 0"/>
<feBlend mode="normal" in2="BackgroundImageFix" result="effect1_dropShadow_49_48"/>
<feBlend mode="normal" in="SourceGraphic" in2="effect1_dropShadow_49_48" result="shape"/>
</filter>
<filter id="filter9_d_49_48" x="106" y="601" width="162" height="162" filterUnits="userSpaceOnUse" color-interpolation-filters="sRGB">
<feFlood flood-opacity="0" result="BackgroundImageFix"/>
<feColorMatrix in="SourceAlpha" type="matrix" values="0 0 0 0 0 0 0 0 0 0 0 0 0 0 0 0 0 0 127 0" result="hardAlpha"/>
<feOffset dy="4"/>
<feGaussianBlur stdDeviation="18"/>
<feComposite in2="hardAlpha" operator="out"/>
<feColorMatrix type="matrix" values="0 0 0 0 0.968627 0 0 0 0 0.372549 0 0 0 0 0.784314 0 0 0 0.25 0"/>
<feBlend mode="normal" in2="BackgroundImageFix" result="effect1_dropShadow_49_48"/>
<feBlend mode="normal" in="SourceGraphic" in2="effect1_dropShadow_49_48" result="shape"/>
</filter>
<filter id="filter10_d_49_48" x="566" y="248" width="124" height="124" filterUnits="userSpaceOnUse" color-interpolation-filters="sRGB">
<feFlood flood-opacity="0" result="BackgroundImageFix"/>
<feColorMatrix in="SourceAlpha" type="matrix" values="0 0 0 0 0 0 0 0 0 0 0 0 0 0 0 0 0 0 127 0" result="hardAlpha"/>
<feOffset dy="4"/>
<feGaussianBlur stdDeviation="18"/>
<feComposite in2="hardAlpha" operator="out"/>
<feColorMatrix type="matrix" values="0 0 0 0 0.968627 0 0 0 0 0.372549 0 0 0 0 0.784314 0 0 0 0.25 0"/>
<feBlend mode="normal" in2="BackgroundImageFix" result="effect1_dropShadow_49_48"/>
<feBlend mode="normal" in="SourceGraphic" in2="effect1_dropShadow_49_48" result="shape"/>
</filter>
<filter id="filter11_d_49_48" x="343" y="98" width="138" height="138" filterUnits="userSpaceOnUse" color-interpolation-filters="sRGB">
<feFlood flood-opacity="0" result="BackgroundImageFix"/>
<feColorMatrix in="SourceAlpha" type="matrix" values="0 0 0 0 0 0 0 0 0 0 0 0 0 0 0 0 0 0 127 0" result="hardAlpha"/>
<feOffset dy="4"/>
<feGaussianBlur stdDeviation="18"/>
<feComposite in2="hardAlpha" operator="out"/>
<feColorMatrix type="matrix" values="0 0 0 0 0.968627 0 0 0 0 0.372549 0 0 0 0 0.784314 0 0 0 0.25 0"/>
<feBlend mode="normal" in2="BackgroundImageFix" result="effect1_dropShadow_49_48"/>
<feBlend mode="normal" in="SourceGraphic" in2="effect1_dropShadow_49_48" result="shape"/>
</filter>
<filter id="filter12_d_49_48" x="89" y="331" width="162" height="162" filterUnits="userSpaceOnUse" color-interpolation-filters="sRGB">
<feFlood flood-opacity="0" result="BackgroundImageFix"/>
<feColorMatrix in="SourceAlpha" type="matrix" values="0 0 0 0 0 0 0 0 0 0 0 0 0 0 0 0 0 0 127 0" result="hardAlpha"/>
<feOffset dy="4"/>
<feGaussianBlur stdDeviation="18"/>
<feComposite in2="hardAlpha" operator="out"/>
<feColorMatrix type="matrix" values="0 0 0 0 0.968627 0 0 0 0 0.372549 0 0 0 0 0.784314 0 0 0 0.25 0"/>
<feBlend mode="normal" in2="BackgroundImageFix" result="effect1_dropShadow_49_48"/>
<feBlend mode="normal" in="SourceGraphic" in2="effect1_dropShadow_49_48" result="shape"/>
</filter>
<filter id="filter13_d_49_48" x="106" y="601" width="162" height="162" filterUnits="userSpaceOnUse" color-interpolation-filters="sRGB">
<feFlood flood-opacity="0" result="BackgroundImageFix"/>
<feColorMatrix in="SourceAlpha" type="matrix" values="0 0 0 0 0 0 0 0 0 0 0 0 0 0 0 0 0 0 127 0" result="hardAlpha"/>
<feOffset dy="4"/>
<feGaussianBlur stdDeviation="18"/>
<feComposite in2="hardAlpha" operator="out"/>
<feColorMatrix type="matrix" values="0 0 0 0 0.968627 0 0 0 0 0.372549 0 0 0 0 0.784314 0 0 0 0.25 0"/>
<feBlend mode="normal" in2="BackgroundImageFix" result="effect1_dropShadow_49_48"/>
<feBlend mode="normal" in="SourceGraphic" in2="effect1_dropShadow_49_48" result="shape"/>
</filter>
<filter id="filter14_d_49_48" x="106.018" y="601" width="160.955" height="155.846" filterUnits="userSpaceOnUse" color-interpolation-filters="sRGB">
<feFlood flood-opacity="0" result="BackgroundImageFix"/>
<feColorMatrix in="SourceAlpha" type="matrix" values="0 0 0 0 0 0 0 0 0 0 0 0 0 0 0 0 0 0 127 0" result="hardAlpha"/>
<feOffset dy="4"/>
<feGaussianBlur stdDeviation="18"/>
<feComposite in2="hardAlpha" operator="out"/>
<feColorMatrix type="matrix" values="0 0 0 0 0.968627 0 0 0 0 0.372549 0 0 0 0 0.784314 0 0 0 0.25 0"/>
<feBlend mode="normal" in2="BackgroundImageFix" result="effect1_dropShadow_49_48"/>
<feBlend mode="normal" in="SourceGraphic" in2="effect1_dropShadow_49_48" result="shape"/>
</filter>
<filter id="filter15_d_49_48" x="344.375" y="97.8289" width="131.327" height="137.898" filterUnits="userSpaceOnUse" color-interpolation-filters="sRGB">
<feFlood flood-opacity="0" result="BackgroundImageFix"/>
<feColorMatrix in="SourceAlpha" type="matrix" values="0 0 0 0 0 0 0 0 0 0 0 0 0 0 0 0 0 0 127 0" result="hardAlpha"/>
<feOffset dy="4"/>
<feGaussianBlur stdDeviation="18"/>
<feComposite in2="hardAlpha" operator="out"/>
<feColorMatrix type="matrix" values="0 0 0 0 0.968627 0 0 0 0 0.372549 0 0 0 0 0.784314 0 0 0 0.25 0"/>
<feBlend mode="normal" in2="BackgroundImageFix" result="effect1_dropShadow_49_48"/>
<feBlend mode="normal" in="SourceGraphic" in2="effect1_dropShadow_49_48" result="shape"/>
</filter>
<filter id="filter16_d_49_48" x="565.958" y="248.578" width="119.789" height="123.742" filterUnits="userSpaceOnUse" color-interpolation-filters="sRGB">
<feFlood flood-opacity="0" result="BackgroundImageFix"/>
<feColorMatrix in="SourceAlpha" type="matrix" values="0 0 0 0 0 0 0 0 0 0 0 0 0 0 0 0 0 0 127 0" result="hardAlpha"/>
<feOffset dy="4"/>
<feGaussianBlur stdDeviation="18"/>
<feComposite in2="hardAlpha" operator="out"/>
<feColorMatrix type="matrix" values="0 0 0 0 0.968627 0 0 0 0 0.372549 0 0 0 0 0.784314 0 0 0 0.25 0"/>
<feBlend mode="normal" in2="BackgroundImageFix" result="effect1_dropShadow_49_48"/>
<feBlend mode="normal" in="SourceGraphic" in2="effect1_dropShadow_49_48" result="shape"/>
</filter>
<clipPath id="clip0_49_48">
<rect width="1024" height="768" fill="white"/>
</clipPath>
<clipPath id="clip1_49_48">
<rect width="91" height="91" fill="white" transform="translate(124 362)"/>
</clipPath>
</defs>
</svg>
