<svg width="1024" height="768" viewBox="0 0 1024 768" fill="none" xmlns="http://www.w3.org/2000/svg">
<rect width="1024" height="768" fill="#1E1E1E"/>
<path d="M398.015 251.14L401.667 318.678C402.243 330.992 407.048 338.112 415.696 344.461L457.4 375.056C462.589 378.711 465.471 381.405 465.471 390.449V641.551C465.471 651.941 473.928 660.215 484.305 660.215C494.683 660.215 502.947 651.941 502.947 641.551V506.475C502.947 503.011 506.022 499.932 509.481 499.932C512.941 499.932 515.824 503.011 515.824 506.475V641.551C515.824 651.941 524.28 660.215 534.657 660.215C545.035 660.215 553.299 651.941 553.299 641.551V418.541C553.299 415.078 556.182 412.384 559.641 412.384C563.101 412.384 565.79 415.078 565.79 418.541V492.621C565.79 502.242 573.479 509.746 582.896 509.746C592.312 509.746 600 502.242 600 492.621V409.883C600 367.359 568.866 339.074 523.511 339.074H483.537C472.006 339.074 464.895 336.765 455.67 330.223L435.683 315.984L432.032 249.408C431.647 239.98 423.576 232.283 414.159 233.053C404.549 233.823 397.631 241.712 398.015 251.14ZM509.481 317.523C532.735 317.523 551.377 298.859 551.377 275.577C551.377 252.295 532.735 233.63 509.481 233.63C486.227 233.63 467.586 252.295 467.586 275.577C467.586 298.859 486.227 317.523 509.481 317.523Z" fill="white"/>
<g filter="url(#filter0_d_49_143)">
<rect x="229" y="170" width="566" height="428" rx="35" stroke="#F75FC8" stroke-width="16" shape-rendering="crispEdges"/>
</g>
<line opacity="0.5" x1="420" y1="178" x2="420" y2="590" stroke="#F75FC8" stroke-width="4"/>
<line opacity="0.5" x1="603" y1="178" x2="603" y2="590" stroke="#F75FC8" stroke-width="4"/>
<line opacity="0.5" x1="237" y1="281" x2="787" y2="281" stroke="#F75FC8" stroke-width="4"/>
<line opacity="0.5" x1="237" y1="384" x2="787" y2="384" stroke="#F75FC8" stroke-width="4"/>
<line opacity="0.5" x1="237" y1="487" x2="787" y2="487" stroke="#F75FC8" stroke-width="4"/>
<rect opacity="0.6" x="236" y="178" width="182" height="103" fill="#F75FC8"/>
<g filter="url(#filter1_d_49_143)">
<rect x="387" y="215" width="56" height="56" rx="28" fill="#F75FC8"/>
</g>
<defs>
<filter id="filter0_d_49_143" x="185" y="130" width="654" height="516" filterUnits="userSpaceOnUse" color-interpolation-filters="sRGB">
<feFlood flood-opacity="0" result="BackgroundImageFix"/>
<feColorMatrix in="SourceAlpha" type="matrix" values="0 0 0 0 0 0 0 0 0 0 0 0 0 0 0 0 0 0 127 0" result="hardAlpha"/>
<feOffset dy="4"/>
<feGaussianBlur stdDeviation="18"/>
<feComposite in2="hardAlpha" operator="out"/>
<feColorMatrix type="matrix" values="0 0 0 0 0.968627 0 0 0 0 0.372549 0 0 0 0 0.784314 0 0 0 0.25 0"/>
<feBlend mode="normal" in2="BackgroundImageFix" result="effect1_dropShadow_49_143"/>
<feBlend mode="normal" in="SourceGraphic" in2="effect1_dropShadow_49_143" result="shape"/>
</filter>
<filter id="filter1_d_49_143" x="352" y="184" width="126" height="126" filterUnits="userSpaceOnUse" color-interpolation-filters="sRGB">
<feFlood flood-opacity="0" result="BackgroundImageFix"/>
<feColorMatrix in="SourceAlpha" type="matrix" values="0 0 0 0 0 0 0 0 0 0 0 0 0 0 0 0 0 0 127 0" result="hardAlpha"/>
<feOffset dy="4"/>
<feGaussianBlur stdDeviation="17.5"/>
<feComposite in2="hardAlpha" operator="out"/>
<feColorMatrix type="matrix" values="0 0 0 0 0.968627 0 0 0 0 0.372549 0 0 0 0 0.784314 0 0 0 1 0"/>
<feBlend mode="normal" in2="BackgroundImageFix" result="effect1_dropShadow_49_143"/>
<feBlend mode="normal" in="SourceGraphic" in2="effect1_dropShadow_49_143" result="shape"/>
</filter>
</defs>
</svg>
