<?xml version="1.0" encoding="UTF-8"?><svg id="Layer_1" xmlns="http://www.w3.org/2000/svg" xmlns:xlink="http://www.w3.org/1999/xlink" viewBox="0 0 1024 768"><defs><style>.cls-1{filter:url(#outer-glow-14);}.cls-2{opacity:.07;}.cls-3{fill:#fff;}.cls-4{fill:#72f49b;}.cls-5{fill:#1e1e1e;}</style><filter id="outer-glow-14" filterUnits="userSpaceOnUse"><feOffset dx="0" dy="0"/><feGaussianBlur result="blur" stdDeviation="8"/><feFlood flood-color="#72f49b" flood-opacity=".75"/><feComposite in2="blur" operator="in"/><feComposite in="SourceGraphic"/></filter></defs><rect class="cls-5" width="1024" height="768"/><g class="cls-1"><path class="cls-4" d="m331.51,527.07c-6.82-6.92-9.95-14.16-9.38-21.7.57-7.54,4.78-14.93,12.63-22.16l183.97-172.81,15.5,15.34-182.11,171.42c-3.2,2.89-5.04,5.76-5.5,8.6-.47,2.84,1.16,6.12,4.88,9.84l18.6,18.44c3.72,3.72,7,5.37,9.84,4.96,2.84-.41,5.66-2.22,8.45-5.42l168.47-185.37,15.34,15.5-169.71,187.07c-7.34,8.16-14.8,12.5-22.4,13.02-7.59.52-14.8-2.69-21.62-9.61l-26.97-27.12Zm101.83-288.74c11.47-11.47,24.2-20.1,38.2-25.88,14-5.79,28.57-8.55,43.71-8.29,15.14.26,30.17,3.67,45.1,10.23,14.93,6.56,29.01,16.4,42.23,29.53l34.87,34.72c4.65,4.65,7.7,8.91,9.14,12.79,1.45,3.87,1.65,8.04.62,12.48l-3.87,17.82,10.23,10.07,9.14-.77c3.82-.31,7.36.23,10.62,1.63,3.25,1.39,6.74,4.01,10.46,7.83l12.24,12.09c3.82,3.82,5.79,7.93,5.89,12.32.1,4.39-1.7,8.45-5.42,12.17l-46.19,46.34c-3.72,3.72-7.83,5.5-12.32,5.35-4.49-.16-8.66-2.14-12.48-5.97l-12.09-11.78c-3.82-3.82-6.38-7.39-7.67-10.69-1.29-3.31-1.78-6.92-1.47-10.85l.62-8.83-10.54-10.69-16.89,3.1c-4.44.83-8.47.93-12.09.31-3.62-.62-7.34-2.89-11.16-6.82l-36.42-36.73c-4.24-4.34-6.95-8.96-8.14-13.87-1.19-4.91-.44-10.67,2.25-17.28l9.3-23.09c-11.37-7.44-22.99-11.39-34.87-11.86-11.88-.46-23.61.65-35.18,3.33-5.17,1.24-9.53,1.14-13.1-.31-3.56-1.45-6.28-3.62-8.14-6.51-1.86-3.1-2.58-6.72-2.17-10.85.41-4.13,2.27-7.8,5.58-11Zm23.71,5.89c-1.03.83-1.37,1.63-1.01,2.4.36.77,1.16,1.01,2.4.7,16.12-4.75,31.93-4.91,47.43-.46,15.5,4.44,29.45,12.45,41.85,24.02l-13.95,33.17c-1.24,2.89-1.73,5.19-1.47,6.9.26,1.7,1.42,3.49,3.49,5.35l31.77,31.77c1.96,1.86,3.69,2.97,5.19,3.33,1.5.36,3.54.29,6.12-.23l24.18-4.03,23.71,23.56-1.08,15.5c-.1,2.07.05,3.62.46,4.65.41,1.03,1.4,2.32,2.94,3.87l9.14,9.14,38.75-38.75-9.14-9.14c-1.55-1.55-2.84-2.5-3.87-2.87-1.03-.36-2.53-.49-4.5-.39l-15.65.93-23.87-23.56,5.11-23.56c.62-2.69.7-4.91.23-6.66-.46-1.76-1.63-3.56-3.49-5.42l-38.59-38.28c-8.78-8.89-18.47-15.81-29.06-20.77-10.59-4.96-21.52-7.98-32.78-9.07-11.26-1.08-22.4-.13-33.4,2.87-11,3-21.31,8.01-30.92,15.03Z"/></g><g class="cls-2"><path class="cls-3" d="m794.07,217.33c-2.67,0-4.97-.75-6.88-2.25-1.91-1.5-3.17-3.54-3.77-6.12l-3.04-12.93-2.21-.76-11.2,6.92c-2.26,1.43-4.61,1.98-7.05,1.66-2.44-.32-4.61-1.43-6.5-3.32l-9.61-9.61c-1.94-1.89-3.05-4.06-3.35-6.5-.3-2.44.26-4.77,1.69-6.99l6.99-11.2-.76-2.08-12.93-3.04c-2.54-.6-4.57-1.87-6.09-3.8-1.52-1.94-2.28-4.22-2.28-6.85v-13.69c0-2.63.75-4.91,2.25-6.85,1.5-1.94,3.54-3.2,6.12-3.8l12.8-3.11.83-2.21-6.99-11.2c-1.43-2.21-1.99-4.53-1.69-6.95.3-2.42,1.42-4.6,3.35-6.54l9.61-9.68c1.89-1.84,4.05-2.93,6.47-3.25,2.42-.32,4.76.21,7.02,1.59l11.2,6.92,2.35-.9,3.04-12.93c.6-2.54,1.86-4.56,3.77-6.09,1.91-1.52,4.21-2.28,6.88-2.28h13.97c2.67,0,4.97.76,6.88,2.28,1.91,1.52,3.17,3.55,3.77,6.09l2.97,12.93,2.35.9,11.27-6.92c2.21-1.38,4.54-1.91,6.99-1.59,2.44.32,4.59,1.41,6.43,3.25l9.68,9.68c1.89,1.94,3,4.12,3.32,6.54.32,2.42-.23,4.74-1.66,6.95l-7.05,11.2.9,2.21,12.8,3.11c2.54.6,4.57,1.87,6.09,3.8,1.52,1.94,2.28,4.22,2.28,6.85v13.69c0,2.63-.76,4.91-2.28,6.85-1.52,1.94-3.55,3.21-6.09,3.8l-12.93,3.04-.83,2.08,7.06,11.2c1.43,2.21,1.98,4.54,1.66,6.99-.32,2.44-1.43,4.61-3.32,6.5l-9.68,9.61c-1.89,1.89-4.06,3-6.5,3.32-2.44.32-4.77-.23-6.99-1.66l-11.27-6.92-2.21.76-2.97,12.93c-.6,2.58-1.86,4.62-3.77,6.12-1.91,1.5-4.21,2.25-6.88,2.25h-13.97Zm1.11-10.79h11.76c1.15,0,1.8-.53,1.94-1.59l4.22-17.15c2.12-.51,4.13-1.16,6.02-1.97,1.89-.81,3.57-1.67,5.05-2.59l15.08,9.27c.88.6,1.75.48,2.63-.35l8.09-8.16c.78-.69.88-1.54.28-2.56l-9.27-14.94c.83-1.48,1.65-3.16,2.46-5.05.81-1.89,1.49-3.9,2.04-6.02l17.22-4.08c1.06-.18,1.59-.85,1.59-2.01v-11.55c0-1.11-.53-1.77-1.59-2.01l-17.15-4.15c-.55-2.26-1.27-4.36-2.14-6.29-.88-1.94-1.64-3.55-2.28-4.84l9.2-14.94c.64-1.01.58-1.91-.21-2.7l-8.16-8.02c-.83-.74-1.73-.85-2.7-.35l-15.01,9.13c-1.52-.83-3.22-1.65-5.08-2.46-1.87-.81-3.89-1.49-6.05-2.04l-4.22-17.29c-.14-1.06-.78-1.59-1.94-1.59h-11.76c-1.15,0-1.82.53-2.01,1.59l-4.08,17.15c-2.08.55-4.12,1.25-6.12,2.08s-3.75,1.66-5.22,2.49l-14.94-9.06c-.92-.51-1.8-.39-2.63.35l-8.23,8.02c-.74.78-.81,1.68-.21,2.7l9.2,14.94c-.6,1.29-1.35,2.9-2.25,4.84-.9,1.94-1.63,4.04-2.18,6.29l-17.08,4.15c-1.06.23-1.59.9-1.59,2.01v11.55c0,1.15.53,1.82,1.59,2.01l17.15,4.08c.55,2.12,1.25,4.13,2.08,6.02.83,1.89,1.64,3.57,2.42,5.05l-9.27,14.94c-.55,1.01-.46,1.87.28,2.56l8.16,8.16c.88.83,1.73.95,2.56.35l15.08-9.27c1.48.92,3.17,1.79,5.08,2.59,1.91.81,3.93,1.46,6.05,1.97l4.15,17.15c.18,1.06.85,1.59,2.01,1.59Zm5.88-36.73c-4.84,0-9.26-1.2-13.24-3.6-3.99-2.4-7.18-5.59-9.58-9.58-2.4-3.99-3.6-8.4-3.6-13.24s1.2-9.19,3.6-13.18c2.4-3.99,5.59-7.17,9.58-9.54,3.99-2.37,8.4-3.56,13.24-3.56s9.26,1.19,13.25,3.56c3.99,2.37,7.17,5.56,9.54,9.54,2.37,3.99,3.56,8.38,3.56,13.18s-1.19,9.27-3.56,13.28c-2.38,4.01-5.56,7.21-9.54,9.58-3.99,2.38-8.4,3.56-13.25,3.56Zm0-10.72c2.81,0,5.4-.71,7.75-2.14,2.35-1.43,4.23-3.33,5.64-5.71,1.41-2.37,2.11-4.99,2.11-7.85s-.7-5.46-2.11-7.82c-1.41-2.35-3.29-4.23-5.64-5.64-2.35-1.41-4.93-2.11-7.75-2.11s-5.48.7-7.85,2.11c-2.37,1.41-4.27,3.29-5.67,5.64-1.41,2.35-2.11,4.96-2.11,7.82s.7,5.54,2.11,7.92c1.41,2.38,3.3,4.27,5.67,5.67,2.37,1.41,4.99,2.11,7.85,2.11Z"/><path class="cls-3" d="m731.34,701.83c-2.67,0-4.97-.75-6.88-2.25-1.91-1.5-3.17-3.54-3.77-6.12l-3.04-12.93-2.21-.76-11.2,6.92c-2.26,1.43-4.61,1.98-7.05,1.66-2.44-.32-4.61-1.43-6.5-3.32l-9.61-9.61c-1.94-1.89-3.05-4.06-3.35-6.5-.3-2.44.26-4.77,1.69-6.99l6.99-11.2-.76-2.08-12.93-3.04c-2.54-.6-4.57-1.87-6.09-3.8-1.52-1.94-2.28-4.22-2.28-6.85v-13.69c0-2.63.75-4.91,2.25-6.85,1.5-1.94,3.54-3.2,6.12-3.8l12.8-3.11.83-2.21-6.99-11.2c-1.43-2.21-1.99-4.53-1.69-6.95.3-2.42,1.42-4.6,3.35-6.54l9.61-9.68c1.89-1.84,4.05-2.93,6.47-3.25,2.42-.32,4.76.21,7.02,1.59l11.2,6.92,2.35-.9,3.04-12.93c.6-2.54,1.86-4.56,3.77-6.09,1.91-1.52,4.21-2.28,6.88-2.28h13.97c2.67,0,4.97.76,6.88,2.28,1.91,1.52,3.17,3.55,3.77,6.09l2.97,12.93,2.35.9,11.27-6.92c2.21-1.38,4.54-1.91,6.99-1.59,2.44.32,4.59,1.41,6.43,3.25l9.68,9.68c1.89,1.94,3,4.12,3.32,6.54.32,2.42-.23,4.74-1.66,6.95l-7.05,11.2.9,2.21,12.8,3.11c2.54.6,4.57,1.87,6.09,3.8,1.52,1.94,2.28,4.22,2.28,6.85v13.69c0,2.63-.76,4.91-2.28,6.85-1.52,1.94-3.55,3.21-6.09,3.8l-12.93,3.04-.83,2.08,7.06,11.2c1.43,2.21,1.98,4.54,1.66,6.99-.32,2.44-1.43,4.61-3.32,6.5l-9.68,9.61c-1.89,1.89-4.06,3-6.5,3.32-2.44.32-4.77-.23-6.99-1.66l-11.27-6.92-2.21.76-2.97,12.93c-.6,2.58-1.86,4.62-3.77,6.12-1.91,1.5-4.21,2.25-6.88,2.25h-13.97Zm1.11-10.79h11.76c1.15,0,1.8-.53,1.94-1.59l4.22-17.15c2.12-.51,4.13-1.16,6.02-1.97,1.89-.81,3.57-1.67,5.05-2.59l15.08,9.27c.88.6,1.75.48,2.63-.35l8.09-8.16c.78-.69.88-1.54.28-2.56l-9.27-14.94c.83-1.48,1.65-3.16,2.46-5.05.81-1.89,1.49-3.9,2.04-6.02l17.22-4.08c1.06-.18,1.59-.85,1.59-2.01v-11.55c0-1.11-.53-1.77-1.59-2.01l-17.15-4.15c-.55-2.26-1.27-4.36-2.14-6.29-.88-1.94-1.64-3.55-2.28-4.84l9.2-14.94c.64-1.01.58-1.91-.21-2.7l-8.16-8.02c-.83-.74-1.73-.85-2.7-.35l-15.01,9.13c-1.52-.83-3.22-1.65-5.08-2.46-1.87-.81-3.89-1.49-6.05-2.04l-4.22-17.29c-.14-1.06-.78-1.59-1.94-1.59h-11.76c-1.15,0-1.82.53-2.01,1.59l-4.08,17.15c-2.08.55-4.12,1.25-6.12,2.08s-3.75,1.66-5.22,2.49l-14.94-9.06c-.92-.51-1.8-.39-2.63.35l-8.23,8.02c-.74.78-.81,1.68-.21,2.7l9.2,14.94c-.6,1.29-1.35,2.9-2.25,4.84-.9,1.94-1.63,4.04-2.18,6.29l-17.08,4.15c-1.06.23-1.59.9-1.59,2.01v11.55c0,1.15.53,1.82,1.59,2.01l17.15,4.08c.55,2.12,1.25,4.13,2.08,6.02.83,1.89,1.64,3.57,2.42,5.05l-9.27,14.94c-.55,1.01-.46,1.87.28,2.56l8.16,8.16c.88.83,1.73.95,2.56.35l15.08-9.27c1.48.92,3.17,1.79,5.08,2.59,1.91.81,3.93,1.46,6.05,1.97l4.15,17.15c.18,1.06.85,1.59,2.01,1.59Zm5.88-36.73c-4.84,0-9.26-1.2-13.24-3.6-3.99-2.4-7.18-5.59-9.58-9.58-2.4-3.99-3.6-8.4-3.6-13.24s1.2-9.19,3.6-13.18c2.4-3.99,5.59-7.17,9.58-9.54,3.99-2.37,8.4-3.56,13.24-3.56s9.26,1.19,13.25,3.56c3.99,2.37,7.17,5.56,9.54,9.54,2.37,3.99,3.56,8.38,3.56,13.18s-1.19,9.27-3.56,13.28c-2.38,4.01-5.56,7.21-9.54,9.58-3.99,2.38-8.4,3.56-13.25,3.56Zm0-10.72c2.81,0,5.4-.71,7.75-2.14,2.35-1.43,4.23-3.33,5.64-5.71,1.41-2.37,2.11-4.99,2.11-7.85s-.7-5.46-2.11-7.82c-1.41-2.35-3.29-4.23-5.64-5.64-2.35-1.41-4.93-2.11-7.75-2.11s-5.48.7-7.85,2.11c-2.37,1.41-4.27,3.29-5.67,5.64-1.41,2.35-2.11,4.96-2.11,7.82s.7,5.54,2.11,7.92c1.41,2.38,3.3,4.27,5.67,5.67,2.37,1.41,4.99,2.11,7.85,2.11Z"/><path class="cls-3" d="m170.13,366.64c-1.66,0-3.07-.46-4.22-1.37-1.15-.92-1.92-2.2-2.3-3.87l-3.32-14.06c-1.24-.43-2.45-.87-3.64-1.34-1.19-.47-2.32-.96-3.39-1.47l-12.27,7.54c-1.41.85-2.84,1.21-4.31,1.09-1.47-.13-2.78-.77-3.93-1.92l-8.18-8.18c-1.15-1.15-1.8-2.49-1.95-4.03-.15-1.53.24-2.98,1.18-4.35l7.48-12.21c-.51-1.11-1-2.24-1.47-3.39-.47-1.15-.87-2.3-1.21-3.45l-14.19-3.39c-1.66-.34-2.94-1.09-3.84-2.24-.9-1.15-1.34-2.56-1.34-4.22v-11.57c0-1.62.45-3,1.34-4.15s2.17-1.9,3.84-2.24l14.06-3.39c.38-1.32.82-2.56,1.31-3.71.49-1.15.95-2.24,1.37-3.26l-7.48-12.4c-.94-1.36-1.34-2.78-1.21-4.25.13-1.47.79-2.78,1.98-3.93l8.31-8.25c1.19-1.11,2.48-1.75,3.87-1.92,1.38-.17,2.78.15,4.19.96l12.4,7.67c1.06-.55,2.21-1.08,3.42-1.57,1.21-.49,2.44-.95,3.68-1.37l3.32-14.13c.38-1.62,1.15-2.9,2.3-3.84,1.15-.94,2.56-1.41,4.22-1.41h11.76c1.66,0,3.07.47,4.22,1.41,1.15.94,1.9,2.22,2.24,3.84l3.32,14.26c1.32.43,2.57.87,3.74,1.34,1.17.47,2.27.98,3.29,1.53l12.53-7.74c1.41-.81,2.79-1.12,4.16-.93,1.36.19,2.64.82,3.84,1.89l8.37,8.25c1.19,1.15,1.84,2.46,1.95,3.93.11,1.47-.29,2.89-1.18,4.25l-7.54,12.4c.43,1.02.88,2.11,1.37,3.26.49,1.15.95,2.39,1.37,3.71l14.06,3.39c1.62.34,2.89,1.09,3.8,2.24.92,1.15,1.37,2.54,1.37,4.15v11.57c0,1.66-.46,3.07-1.37,4.22-.92,1.15-2.18,1.9-3.8,2.24l-14.19,3.39c-.38,1.15-.8,2.3-1.25,3.45-.45,1.15-.95,2.28-1.5,3.39l7.54,12.21c.94,1.36,1.33,2.81,1.18,4.35-.15,1.53-.8,2.88-1.95,4.03l-8.25,8.18c-1.15,1.15-2.46,1.79-3.93,1.92-1.47.13-2.89-.23-4.25-1.09l-12.34-7.54c-1.07.51-2.2,1-3.39,1.47-1.19.47-2.41.92-3.64,1.34l-3.32,14.06c-.34,1.66-1.09,2.95-2.24,3.87-1.15.92-2.56,1.37-4.22,1.37h-11.76Zm5.88-44.24c4.13,0,7.92-1.02,11.35-3.07,3.43-2.05,6.16-4.78,8.18-8.21,2.02-3.43,3.04-7.21,3.04-11.35s-1.01-7.9-3.04-11.28c-2.02-3.39-4.75-6.1-8.18-8.15-3.43-2.05-7.21-3.07-11.35-3.07s-7.91,1.02-11.31,3.07c-3.41,2.05-6.14,4.76-8.18,8.15s-3.07,7.15-3.07,11.28,1.01,7.92,3.04,11.35c2.02,3.43,4.75,6.17,8.18,8.21,3.43,2.05,7.21,3.07,11.35,3.07Z"/></g></svg>