<svg width="1024" height="768" viewBox="0 0 1024 768" fill="none" xmlns="http://www.w3.org/2000/svg">
<g clip-path="url(#clip0_1_172)">
<rect width="1024" height="768" fill="#1E1E1E"/>
<path opacity="0.1" d="M34.6812 177.206C20.2052 178.928 10.0355 171.216 8.36893 157.205L7.42767 149.292C5.76108 135.282 13.8378 125.399 28.3139 123.677C42.7899 121.955 52.9596 129.668 54.6262 143.678L55.5674 151.591C57.234 165.602 49.1573 175.484 34.6812 177.206ZM29.5541 134.104C22.7117 134.918 19.0629 140.356 20.0097 148.315L20.8291 155.204C21.7704 163.117 26.5986 167.594 33.441 166.78C40.2834 165.966 43.9267 160.481 42.9854 152.568L42.166 145.68C41.2192 137.72 36.3965 133.29 29.5541 134.104ZM93.0007 116.266C104.777 114.865 112.676 122.139 114.337 136.103L115.389 144.947C117.056 158.958 111.083 167.882 99.3071 169.283C91.9062 170.163 86.3763 167.328 83.9232 161.388L82.9923 161.499L86.0597 187.286L72.7938 188.864L64.6547 120.44L77.7343 118.884L78.7863 127.728L79.7638 127.612C80.8427 121.205 85.5066 117.157 93.0007 116.266ZM89.431 127.925C82.8214 128.712 79.3277 133.47 80.1693 140.545L81.1826 149.063C82.0242 156.138 86.5366 159.945 93.1462 159.158C99.7094 158.378 103.244 153.567 102.408 146.539L101.395 138.021C100.559 130.992 95.9941 127.145 89.431 127.925ZM133.941 97.3288L146.416 95.8449L148.221 111.019L167.351 108.744L168.564 118.937L149.666 121.185L152.584 145.715C153.043 149.579 156.05 151.44 160.937 150.858C162.148 150.715 171.032 149.61 171.585 149.497L172.781 159.552C172.281 159.706 162.144 161.006 161.12 161.128C147.156 162.789 141.277 159.003 139.86 147.087L136.959 122.697L123.6 124.286L122.387 114.092L135.746 112.503L133.941 97.3288ZM204.725 93.1574C199.512 93.7775 195.639 90.981 195.063 86.1401C194.487 81.2993 197.596 77.6723 202.809 77.0521C208.023 76.432 211.942 79.223 212.518 84.0638C213.094 88.9047 209.938 92.5372 204.725 93.1574ZM234.002 152.364L189.642 157.64L188.435 147.493L204.913 145.533L201.225 114.533L185.586 116.393L184.373 106.199L212.394 102.866L217.295 144.06L232.795 142.217L234.002 152.364ZM270.395 149.168C255.918 150.89 245.749 143.177 244.082 129.167L243.141 121.254C241.474 107.243 249.551 97.3607 264.027 95.6388C278.503 93.9168 288.673 101.629 290.339 115.64L291.281 123.553C292.947 137.563 284.871 147.446 270.395 149.168ZM265.267 106.065C258.425 106.879 254.776 112.317 255.723 120.277L256.542 127.165C257.484 135.078 262.312 139.555 269.154 138.741C275.997 137.927 279.64 132.443 278.699 124.53L277.879 117.641C276.932 109.681 272.11 105.251 265.267 106.065ZM306.335 143.759L300.228 92.4183L312.563 90.951L313.588 99.5622L314.379 99.4681C316.156 92.9784 321.28 88.8285 328.681 87.9481C339.852 86.6193 346.607 92.6133 348.097 105.134L352.044 138.322L339.291 139.839L335.703 109.677C334.806 102.136 331.354 98.9122 324.884 99.6819C318.367 100.457 314.669 105.476 315.516 112.598L319.043 142.248L306.335 143.759ZM370.907 102.043C368.847 84.728 372.308 68.9746 380.88 56.9088L393.96 55.353C385.716 71.7698 383.134 84.5864 385.011 100.366C386.882 116.099 392.393 127.905 404.258 141.93L391.178 143.486C380.015 133.768 372.961 119.312 370.907 102.043ZM428.583 62.2806L441.057 60.7967L442.862 75.971L461.993 73.6953L463.206 83.8891L444.308 86.137L447.225 110.667C447.685 114.531 450.692 116.392 455.579 115.81C456.789 115.666 465.674 114.562 466.227 114.449L467.423 124.503C466.922 124.657 456.786 125.958 455.762 126.079C441.798 127.74 435.919 123.955 434.502 112.039L431.6 87.6486L418.241 89.2377L417.029 79.0439L430.388 77.4548L428.583 62.2806ZM499.367 58.1092C494.153 58.7293 490.28 55.9328 489.705 51.0919C489.129 46.2511 492.238 42.6241 497.451 42.0039C502.664 41.3838 506.584 44.1747 507.16 49.0156C507.736 53.8565 504.58 57.489 499.367 58.1092ZM528.643 117.316L484.284 122.592L483.077 112.445L499.555 110.485L495.867 79.4847L480.227 81.3451L479.015 71.1513L507.036 67.8181L511.936 109.012L527.436 107.168L528.643 117.316ZM546.439 48.2613L558.914 46.7774L560.719 61.9517L579.85 59.676L581.062 69.8698L562.164 72.1178L565.082 96.648C565.542 100.511 568.548 102.372 573.436 101.791C574.646 101.647 583.531 100.543 584.084 100.43L585.28 110.484C584.779 110.638 574.643 111.938 573.619 112.06C559.655 113.721 553.776 109.936 552.358 98.0199L549.457 73.6293L536.098 75.2184L534.885 65.0246L548.244 63.4356L546.439 48.2613ZM646.5 103.296L602.141 108.573L600.934 98.4256L617.225 96.4877L611.207 45.8913L595.753 47.7295L594.546 37.5823L622.753 34.227L629.979 94.9707L645.293 93.149L646.5 103.296ZM692.168 83.2302L704.177 81.8017C704.186 91.0057 695.879 98.5554 683.963 99.9728C669.022 101.75 659.461 94.3905 657.728 79.8213L656.747 71.5825C655.147 58.1305 663.399 48.1327 677.363 46.4716C690.955 44.8549 700.722 52.7565 702.361 66.5343L703.203 73.6095L670.108 77.5462L670.44 80.339C671.237 87.0417 676.087 90.9022 682.743 90.1104C687.863 89.5014 691.636 86.6923 692.168 83.2302ZM678.304 56.3672C671.695 57.1535 668.264 62.0461 669.139 69.4005L689.945 66.9255C689.071 59.5711 684.728 55.6032 678.304 56.3672ZM737.602 57.6218C731.97 58.2918 726.797 54.0921 726.11 48.3203C725.424 42.5485 729.473 37.2991 735.105 36.6292C740.737 35.9592 745.904 40.1123 746.591 45.8841C747.278 51.6559 743.234 56.9519 737.602 57.6218ZM741.793 92.8578C736.161 93.5278 730.988 89.3281 730.307 83.6029C729.615 77.7845 733.664 72.5351 739.296 71.8652C744.928 71.1952 750.096 75.3483 750.788 81.1666C751.469 86.8919 747.426 92.1878 741.793 92.8578ZM850.622 43.4225L838.055 44.9175L834.24 12.8467L846.807 11.3518L850.622 43.4225ZM872.685 40.7981L860.118 42.293L856.303 10.2222L868.871 8.7273L872.685 40.7981ZM914.139 31.3354L913.394 31.4239L911.072 71.8248L899.436 73.209L881.019 7.28219L893.028 5.85368L898.485 28.7129L904.295 54.929L905.039 54.8404L907.191 19.7469L917.431 18.5288L927.754 52.1384L928.499 52.0498L927.996 25.2025L927.939 1.70105L939.948 0.272545L937.511 68.6799L925.874 70.0641L914.139 31.3354ZM954.361 66.6756L945.928 -4.21529L958.356 -5.69362L961.723 22.6069L962.467 22.5183C964.203 16.0806 969.508 11.862 977.002 10.9706C988.127 9.64731 995.079 15.7123 996.552 28.0937L1000.49 61.1886L987.735 62.7057L984.169 32.7295C983.278 25.2354 979.675 21.9347 973.205 22.7044C966.502 23.5017 962.716 28.5782 963.558 35.6533L967.068 65.164L954.361 66.6756ZM1029.49 58.588C1019.81 59.7397 1012.55 54.2776 1011.45 45.0147C1010.35 35.7519 1016.45 29.5031 1029.01 27.1127L1040.93 24.9394L1040.44 20.8433C1039.91 16.3748 1036.53 14.1336 1031.27 14.7593C1026.84 15.2853 1023.77 17.6334 1023.08 20.9724L1010.7 22.4452C1010.53 13.0251 1018.24 6.01842 1030.43 4.56777C1043.6 3.00085 1051.75 8.40431 1053.09 19.6221L1057.23 54.4392L1045.13 55.8787L1044.31 49.0363L1043.2 49.1692C1041.26 54.3091 1036.2 57.7907 1029.49 58.588ZM1032.66 47.8738C1038.99 47.1208 1043.03 42.5807 1042.35 36.8554L1041.9 33.1317L1032.11 34.9106C1026.19 35.9917 1023.44 38.6324 1023.91 42.5889C1024.36 46.4057 1027.72 48.4607 1032.66 47.8738ZM1076.79 -14.8255L1089.27 -16.3094L1091.07 -1.13509L1110.2 -3.41073L1111.42 6.78303L1092.52 9.03099L1095.44 33.5612C1095.9 37.4246 1098.9 39.2856 1103.79 38.7042C1105 38.5603 1113.89 37.4562 1114.44 37.3432L1115.63 47.3973C1115.13 47.5513 1105 48.8514 1103.97 48.9733C1090.01 50.6343 1084.13 46.8491 1082.71 34.9331L1079.81 10.5425L1066.45 12.1316L1065.24 1.93786L1078.6 0.348788L1076.79 -14.8255ZM1215.67 35.5917L1190.35 38.6038L1182.36 -28.5633L1207.08 -31.5034C1219.97 -33.0371 1228.49 -27.7245 1229.73 -17.2514C1230.6 -9.99011 1226.2 -3.28342 1219.35 -1.38232L1219.44 -0.591023C1228.46 -1.00244 1235.64 4.98831 1236.67 13.6926C1238.07 25.4689 1230.06 33.8809 1215.67 35.5917ZM1196.52 -19.9088L1198.59 -2.45373L1206.23 -3.36178C1213.53 -4.23106 1217.35 -7.89456 1216.7 -13.294C1216.02 -19.0658 1211.78 -21.7249 1204.71 -20.8833L1196.52 -19.9088ZM1202.06 26.6846L1210.34 25.699C1219.56 24.6027 1223.56 20.9636 1222.76 14.1678C1222 7.79088 1217.01 5.17384 1207.94 6.25353L1199.74 7.22801L1202.06 26.6846ZM1263.12 -5.64494L1250.55 -4.14999L1246.74 -36.2208L1259.31 -37.7157L1263.12 -5.64494ZM1285.18 -8.2694L1272.62 -6.77446L1268.8 -38.8452L1281.37 -40.3402L1285.18 -8.2694Z" fill="#00FA92"/>
<path opacity="0.1" d="M772.142 301.104L755.259 299.11L760.547 254.328L777.027 256.274C785.623 257.289 790.315 262.06 789.49 269.042C788.918 273.884 785.025 277.546 780.285 277.71L780.223 278.238C786.13 279.376 789.85 284.378 789.165 290.181C788.238 298.033 781.731 302.236 772.142 301.104ZM768.372 262.143L766.998 273.781L772.088 274.382C776.96 274.957 780.002 273.177 780.427 269.577C780.882 265.729 778.552 263.345 773.834 262.788L768.372 262.143ZM764.704 293.209L770.228 293.861C776.373 294.587 779.536 292.852 780.071 288.321C780.573 284.069 777.749 281.596 771.698 280.881L766.236 280.236L764.704 293.209ZM829.004 273.11L824.962 307.341L816.738 306.37L817.416 300.629L816.889 300.567C814.725 304.496 810.754 306.419 805.819 305.836C798.371 304.957 794.926 300.019 795.912 291.67L798.529 269.512L807.032 270.516L804.657 290.626C804.064 295.654 805.799 298.282 810.113 298.791C814.457 299.304 817.637 296.627 818.194 291.91L820.532 272.11L829.004 273.11ZM847.135 265.339L855.452 266.321L854.257 276.439L867.012 277.945L866.21 284.741L853.61 283.253L851.678 299.609C851.374 302.184 853.033 303.859 856.292 304.244C857.099 304.339 863.03 305.008 863.406 305.021L862.614 311.725C862.266 311.746 855.493 311.009 854.81 310.929C845.5 309.829 842.279 306.46 843.217 298.515L845.137 282.253L836.231 281.201L837.033 274.405L845.94 275.456L847.135 265.339ZM886.424 269.979L894.741 270.961L893.547 281.078L906.302 282.584L905.499 289.381L892.899 287.893L890.968 304.248C890.664 306.824 892.323 308.499 895.581 308.883C896.388 308.979 902.319 309.648 902.695 309.661L901.904 316.364C901.555 316.386 894.782 315.649 894.1 315.568C884.789 314.469 881.568 311.099 882.507 303.154L884.427 286.892L875.52 285.841L876.323 279.044L885.229 280.096L886.424 269.979ZM927.505 320.205C917.853 319.066 912.463 312.482 913.566 303.14L914.189 297.865C915.292 288.523 922.068 283.376 931.719 284.516C941.371 285.656 946.761 292.239 945.658 301.581L945.035 306.856C943.932 316.198 937.157 321.345 927.505 320.205ZM930.899 291.467C926.337 290.929 923.124 293.885 922.497 299.192L921.955 303.785C921.332 309.061 923.764 312.715 928.326 313.254C932.888 313.792 936.104 310.805 936.727 305.529L937.27 300.936C937.896 295.629 935.461 292.006 930.899 291.467ZM951.645 322.301L955.687 288.07L963.911 289.041L963.233 294.782L963.761 294.845C965.924 290.915 969.892 289.023 974.826 289.606C982.274 290.486 985.719 295.424 984.733 303.772L982.12 325.899L973.617 324.895L975.992 304.785C976.585 299.757 974.85 297.13 970.537 296.62C966.192 296.107 963.012 298.784 962.451 303.532L960.117 323.301L951.645 322.301ZM1000 305.323C1001.36 293.778 1006.06 284.106 1013.5 277.621L1022.22 278.651C1014.32 288.007 1010.65 295.913 1009.4 306.433C1008.17 316.923 1009.9 325.435 1015.4 336.375L1006.68 335.345C1000.96 327.306 998.641 316.837 1000 305.323Z" fill="#00FA92"/>
<path opacity="0.1" d="M9.93431 640.884C11.6652 634.424 17.9408 631.77 26.1814 633.978C34.2408 636.138 38.1904 641.078 36.9086 647.432L29.1208 645.345C29.3189 643.037 27.5095 641.096 24.4306 640.271C21.2913 639.43 18.8284 640.29 18.2623 642.403C17.777 644.214 18.8743 645.673 21.9262 647.203L26.8048 649.642C33.164 652.834 35.384 656.503 34.0252 661.574C32.2215 668.305 25.5874 671.089 16.9243 668.768C8.41204 666.487 4.13848 661.427 5.35994 655.058L13.5099 657.241C13.4084 659.673 15.3024 661.539 18.7435 662.461C22.1242 663.367 24.6777 662.531 25.2601 660.357C25.7615 658.486 24.7364 657.241 21.4371 655.548L16.7396 653.157C10.8553 650.124 8.55934 646.015 9.93431 640.884ZM82.7192 649.969L67.1271 681.476L59.9431 679.551L61.4307 656.008L61.1288 655.928L50.646 677.059L43.462 675.135L45.7122 640.053L53.5905 642.164L49.8799 666.275L50.9364 666.558L60.7724 644.218L67.5943 646.045L64.9423 670.311L65.9988 670.594L74.8107 647.85L82.7192 649.969ZM104.733 648.588C101.352 647.682 99.6464 644.993 100.488 641.854C101.329 638.714 104.151 637.238 107.531 638.144C110.912 639.05 112.648 641.747 111.807 644.887C110.966 648.026 108.114 649.494 104.733 648.588ZM108.209 692.483L79.4427 684.776L81.2059 678.195L91.8915 681.058L97.2781 660.955L87.1359 658.237L88.9072 651.627L107.079 656.496L99.9207 683.21L109.972 685.903L108.209 692.483ZM136.31 654.137L144.4 656.305L141.763 666.145L154.169 669.47L152.398 676.08L140.143 672.796L135.88 688.704C135.209 691.209 136.61 693.105 139.779 693.955C140.564 694.165 146.337 695.679 146.708 695.746L144.961 702.266C144.613 702.238 138.016 700.535 137.352 700.357C128.296 697.931 125.593 694.133 127.664 686.405L131.902 670.588L123.239 668.267L125.01 661.657L133.673 663.978L136.31 654.137ZM190.808 691.387L182.718 689.219C183.177 685.33 181.429 682.921 177.837 681.958C173.4 680.769 170.065 683.435 168.431 689.532L167.833 691.766C166.199 697.863 167.754 701.839 172.192 703.028C175.814 703.998 178.448 702.86 179.976 699.452L188.066 701.619C185.214 709.364 179.011 712.231 170.408 709.926C160.598 707.297 156.653 700.287 159.362 690.175L160.3 686.674C163.01 676.562 169.931 672.464 179.741 675.092C188.344 677.397 192.207 683.026 190.808 691.387ZM193.211 715.26L205.529 669.288L213.588 671.447L208.671 689.8L209.154 689.929C211.821 686.373 216.149 685.074 221.008 686.376C228.223 688.309 231.026 693.784 228.875 701.813L223.124 723.275L214.853 721.059L220.062 701.619C221.364 696.76 219.951 693.825 215.755 692.701C211.408 691.536 207.808 693.742 206.579 698.33L201.451 717.468L193.211 715.26ZM289.927 704.94C294.787 706.242 297.479 709.357 297.58 713.688L298.214 713.857L299.751 708.122L308.233 710.395L296.343 754.767L287.74 752.462L292.221 735.739L291.618 735.578C289.433 739.263 285.514 740.607 280.715 739.321C273.078 737.275 269.988 730.817 272.422 721.732L273.959 715.996C276.385 706.941 282.29 702.894 289.927 704.94ZM291.172 712.973C286.915 711.833 283.537 713.936 282.316 718.494L280.836 724.018C279.614 728.576 281.488 732.087 285.744 733.228C290.031 734.376 293.371 732.295 294.6 727.706L296.08 722.183C297.31 717.594 295.458 714.122 291.172 712.973ZM346.538 720.659L337.617 753.953L329.617 751.81L331.114 746.225L330.601 746.088C327.895 749.666 323.688 750.997 318.889 749.711C311.644 747.77 308.945 742.388 311.121 734.268L316.896 712.716L325.167 714.932L319.926 734.492C318.615 739.382 319.955 742.232 324.15 743.357C328.376 744.489 331.908 742.297 333.137 737.709L338.297 718.451L346.538 720.659ZM370.732 752.797L378.519 754.884C376.248 760.584 369.238 763.202 361.51 761.132C351.821 758.535 347.723 751.614 350.254 742.166L351.686 736.823C354.023 728.1 361.605 723.952 370.661 726.378C379.475 728.74 383.566 736.048 381.172 744.983L379.943 749.571L358.481 743.82L357.996 745.632C356.831 749.978 358.878 753.568 363.195 754.724C366.515 755.614 369.546 754.808 370.732 752.797ZM368.795 732.737C364.509 731.589 361.175 733.769 359.897 738.538L373.389 742.153C374.667 737.384 372.961 733.853 368.795 732.737ZM392.079 743.279C393.81 736.819 400.085 734.166 408.326 736.374C416.385 738.533 420.335 743.474 419.053 749.827L411.265 747.74C411.463 745.432 409.654 743.491 406.575 742.666C403.436 741.825 400.973 742.686 400.407 744.799C399.921 746.61 401.019 748.068 404.071 749.598L408.949 752.037C415.308 755.23 417.528 758.898 416.17 763.969C414.366 770.7 407.732 773.484 399.069 771.163C390.556 768.882 386.283 763.823 387.504 757.453L395.654 759.637C395.553 762.068 397.447 763.935 400.888 764.857C404.269 765.762 406.822 764.926 407.404 762.753C407.906 760.881 406.881 759.636 403.582 757.943L398.884 755.552C393 752.52 390.704 748.41 392.079 743.279ZM442.026 736.054L450.115 738.221L447.479 748.062L459.885 751.386L458.113 757.996L445.858 754.713L441.596 770.62C440.924 773.126 442.325 775.021 445.495 775.871C446.28 776.081 452.053 777.596 452.423 777.663L450.676 784.183C450.328 784.154 443.731 782.451 443.067 782.273C434.012 779.847 431.309 776.049 433.379 768.322L437.618 752.505L428.955 750.183L430.726 743.573L439.389 745.894L442.026 736.054ZM486.877 750.983C483.497 750.077 481.791 747.388 482.632 744.249C483.473 741.11 486.295 739.633 489.676 740.539C493.057 741.445 494.793 744.143 493.951 747.282C493.11 750.421 490.258 751.889 486.877 750.983ZM490.354 794.879L461.587 787.171L463.35 780.59L474.036 783.454L479.423 763.35L469.28 760.633L471.052 754.022L489.223 758.891L482.065 785.605L492.117 788.298L490.354 794.879ZM513.674 801.904C504.286 799.388 499.899 792.098 502.333 783.012L503.708 777.881C506.143 768.795 513.587 764.675 522.975 767.191C532.363 769.706 536.75 776.997 534.316 786.082L532.941 791.214C530.506 800.299 523.061 804.419 513.674 801.904ZM521.163 773.952C516.726 772.763 513.122 775.227 511.739 780.389L510.542 784.856C509.167 789.988 511.048 793.953 515.485 795.142C519.923 796.331 523.535 793.837 524.91 788.706L526.107 784.239C527.49 779.077 525.601 775.141 521.163 773.952ZM537.261 807.448L546.183 774.153L554.182 776.297L552.685 781.881L553.198 782.018C555.904 778.441 560.103 777.139 564.902 778.425C572.147 780.366 574.846 785.748 572.67 793.868L566.903 815.39L558.632 813.174L563.874 793.614C565.184 788.724 563.845 785.874 559.649 784.75C555.423 783.617 551.892 785.809 550.654 790.428L545.502 809.656L537.261 807.448ZM582.449 819.556L575.023 817.566L586.694 774.009L594.331 776.055L601.546 809.014L602.06 809.152L609.816 780.204L617.242 782.194L605.57 825.751L597.964 823.713L590.767 790.564L590.254 790.427L582.449 819.556ZM652.253 802.575L643.332 835.869L635.333 833.726L636.829 828.142L636.316 828.004C633.61 831.582 629.404 832.914 624.604 831.628C617.36 829.686 614.661 824.304 616.837 816.185L622.611 794.632L630.882 796.849L625.641 816.409C624.331 821.299 625.67 824.149 629.866 825.273C634.092 826.405 637.623 824.213 638.853 819.625L644.013 800.367L652.253 802.575ZM690.462 820.804L683.539 846.643L676.536 844.766L682.715 821.705C683.354 819.32 682.557 817.586 680.655 817.076C678.693 816.551 676.975 817.772 676.32 820.217L670.197 843.068L663.285 841.215L669.464 818.154C670.103 815.769 669.366 814.051 667.404 813.526C665.412 812.992 663.693 814.214 663.038 816.659L656.915 839.509L649.912 837.632L658.834 804.338L666.048 806.271L664.649 811.493L665.524 811.728C667.306 808.096 670.128 806.62 673.418 807.502C676.437 808.311 677.999 810.929 677.731 814.708L678.607 814.942C680.255 811.566 683.138 810.106 686.307 810.956C690.412 812.056 691.878 815.522 690.462 820.804ZM708.485 853.877C703.625 852.575 700.926 849.49 700.832 845.129L700.228 844.968L698.692 850.703L690.18 848.422L702.498 802.45L711.1 804.755L706.183 823.108L706.817 823.277C709.001 819.592 712.92 818.248 717.689 819.526C725.326 821.572 728.417 828.03 725.99 837.085L724.453 842.821C722.027 851.876 716.122 855.923 708.485 853.877ZM707.233 845.874C711.519 847.022 714.867 844.911 716.096 840.322L717.568 834.829C718.798 830.241 716.946 826.768 712.66 825.62C708.404 824.479 705.033 826.552 703.804 831.141L702.332 836.634C701.103 841.222 702.976 844.733 707.233 845.874ZM752.876 855.192L760.664 857.279C758.392 862.979 751.382 865.598 743.655 863.527C733.965 860.931 729.867 854.009 732.399 844.561L733.83 839.218C736.168 830.495 743.749 826.347 752.805 828.774C761.619 831.135 765.711 838.443 763.317 847.378L762.087 851.966L740.626 846.216L740.14 848.027C738.976 852.373 741.023 855.963 745.339 857.12C748.66 858.009 751.69 857.204 752.876 855.192ZM750.939 835.132C746.653 833.984 743.319 836.164 742.041 840.933L755.534 844.549C756.812 839.779 755.105 836.249 750.939 835.132ZM784.69 857.926L782.361 866.619L792.02 869.207L790.394 875.274L766.488 868.869L768.113 862.801L774.452 864.5L780.114 843.37L773.171 841.51L774.805 835.413L789.717 839.408L787.428 847.951L788.726 848.298C791.946 842.076 796.109 840.183 802.387 841.865C804.259 842.367 805.885 843.061 806.94 843.829L804.538 852.794C803.183 851.816 801.115 850.841 799.243 850.34C791.395 848.237 786.607 850.772 784.69 857.926Z" fill="#00FA92"/>
<rect x="244" y="335" width="252.556" height="178.732" rx="27" fill="#00FA92"/>
<rect x="244" y="335" width="252.556" height="178.732" rx="27" fill="#032718"/>
<path opacity="0.6" d="M344.63 455.53C339.318 455.53 336.099 451.843 336.099 447.061C336.099 445.593 336.474 444.093 337.318 442.686L361.568 400.436C363.162 397.593 365.974 396.155 368.849 396.155C371.724 396.155 374.505 397.593 376.13 400.436L400.38 442.686C401.162 444.061 401.599 445.593 401.599 447.061C401.599 451.843 398.38 455.53 393.068 455.53H344.63Z" fill="#00FA92"/>
<rect x="244" y="544.816" width="252.556" height="178.732" rx="27" fill="#032718"/>
<path opacity="0.6" d="M367.66 667.144C350.254 667.144 335.785 652.676 335.785 635.269C335.785 617.832 350.223 603.394 367.629 603.394C385.066 603.394 399.535 617.832 399.535 635.269C399.535 652.676 385.098 667.144 367.66 667.144Z" fill="#00FA92"/>
<rect x="527.641" y="335" width="252.556" height="178.732" rx="27" fill="#032718"/>
<rect x="527.641" y="544.816" width="252.556" height="178.732" rx="27" fill="#032718"/>
<path opacity="0.6" d="M621.09 432.905C616.465 428.28 616.403 423.718 620.997 419.124L646.184 393.968C650.778 389.374 655.34 389.436 659.965 394.061L684.965 419.061C689.59 423.686 689.622 428.28 685.059 432.843L659.903 458.03C655.309 462.593 650.747 462.561 646.122 457.936L621.09 432.905Z" fill="#00FA92"/>
<path opacity="0.6" d="M635.249 664.082C628.718 664.082 625.437 660.863 625.437 654.394V616.238C625.437 609.769 628.718 606.551 635.249 606.551H673.155C679.718 606.551 682.968 609.801 682.968 616.238V654.394C682.968 660.832 679.718 664.082 673.155 664.082H635.249Z" fill="#00FA92"/>
<path opacity="0.6" d="M483.125 231.125L482.75 228.125C480.375 209 485.5 197.5 502.875 187.5C520.625 177.25 524.75 172.625 524.75 162.625V162.375C524.75 154 517.5 148.375 507.875 148.375C498 148.375 490.875 156 490.875 165V165.75H444.375V165C444.375 131.75 469.875 109.875 511.375 109.875C551.25 109.875 577.125 129.875 577.125 161.25V161.5C577.125 179.5 569 191.875 549.875 202.875C532.375 212.875 527.625 218.375 527.625 228.875V231.125H483.125ZM506.375 293.75C491.75 293.75 479.875 282.75 479.875 268.75C479.875 254.875 491.75 243.875 506.375 243.875C521 243.875 533 254.875 533 268.75C533 282.75 521 293.75 506.375 293.75Z" fill="#00FA92"/>
</g>
<defs>
<clipPath id="clip0_1_172">
<rect width="1024" height="768" fill="white"/>
</clipPath>
</defs>
</svg>
