<?xml version="1.0" encoding="UTF-8"?>
<!--Generator: Apple Native CoreSVG 232.5-->
<!DOCTYPE svg
PUBLIC "-//W3C//DTD SVG 1.1//EN"
       "http://www.w3.org/Graphics/SVG/1.1/DTD/svg11.dtd">
<svg version="1.1" xmlns="http://www.w3.org/2000/svg" xmlns:xlink="http://www.w3.org/1999/xlink" width="269.678" height="269.971">
 <g>
  <rect height="269.971" opacity="0" width="269.678" x="0" y="0"/>
  <path d="M45.9961 269.971L223.682 269.971C254.443 269.971 269.678 254.736 269.678 224.561L269.678 45.7031C269.678 15.5273 254.443 0.292969 223.682 0.292969L45.9961 0.292969C15.3809 0.292969 0 15.3809 0 45.7031L0 224.561C0 254.883 15.3809 269.971 45.9961 269.971ZM46.2891 246.387C31.6406 246.387 23.584 238.623 23.584 223.389L23.584 46.875C23.584 31.6406 31.6406 23.877 46.2891 23.877L223.389 23.877C237.891 23.877 246.094 31.6406 246.094 46.875L246.094 223.389C246.094 238.623 237.891 246.387 223.389 246.387Z" fill="#007aff"/>
  <path d="M135.205 179.736C159.814 179.736 180.176 159.521 180.176 134.766C180.176 110.01 159.814 89.7949 135.205 89.7949C110.449 89.7949 90.0879 110.01 90.0879 134.766C90.0879 159.521 110.449 179.736 135.205 179.736Z" fill="#007aff"/>
 </g>
</svg>
