<?xml version="1.0" encoding="UTF-8"?>
<!--Generator: Apple Native CoreSVG 232.5-->
<!DOCTYPE svg
PUBLIC "-//W3C//DTD SVG 1.1//EN"
       "http://www.w3.org/Graphics/SVG/1.1/DTD/svg11.dtd">
<svg version="1.1" xmlns="http://www.w3.org/2000/svg" xmlns:xlink="http://www.w3.org/1999/xlink" width="298.828" height="298.975">
 <g>
  <rect height="298.975" opacity="0" width="298.828" x="0" y="0"/>
  <path d="M149.414 290.625C190.137 290.625 223.389 230.42 223.389 149.707C223.389 68.5547 190.283 8.34961 149.414 8.34961C108.545 8.34961 75.4395 68.5547 75.4395 149.707C75.4395 230.42 108.691 290.625 149.414 290.625ZM149.414 26.0742C178.125 26.0742 203.76 83.2031 203.76 149.707C203.76 215.039 178.125 272.754 149.414 272.754C120.703 272.754 95.0684 215.039 95.0684 149.707C95.0684 83.2031 120.703 26.0742 149.414 26.0742ZM139.893 10.4004L139.893 287.842L159.082 287.842L159.082 10.4004ZM149.414 204.492C104.297 204.492 64.3066 216.357 43.7988 235.254L58.5938 247.412C77.9297 232.031 109.424 223.682 149.414 223.682C189.404 223.682 220.898 232.031 240.234 247.412L255.029 235.254C234.521 216.357 194.531 204.492 149.414 204.492ZM284.619 139.746L14.209 139.746L14.209 158.936L284.619 158.936ZM149.414 95.0684C194.531 95.0684 234.521 83.2031 255.029 64.3066L240.234 52.1484C220.898 67.3828 189.404 75.8789 149.414 75.8789C109.424 75.8789 77.9297 67.3828 58.5938 52.1484L43.7988 64.3066C64.3066 83.2031 104.297 95.0684 149.414 95.0684ZM149.414 298.828C231.152 298.828 298.828 231.006 298.828 149.414C298.828 67.6758 231.006 0 149.268 0C67.6758 0 0 67.6758 0 149.414C0 231.006 67.8223 298.828 149.414 298.828ZM149.414 278.906C78.6621 278.906 19.9219 220.166 19.9219 149.414C19.9219 78.6621 78.5156 19.9219 149.268 19.9219C220.02 19.9219 278.906 78.6621 278.906 149.414C278.906 220.166 220.166 278.906 149.414 278.906Z" fill="#007aff"/>
 </g>
</svg>
