<?xml version="1.0" encoding="UTF-8"?>
<!--Generator: Apple Native CoreSVG 232.5-->
<!DOCTYPE svg
PUBLIC "-//W3C//DTD SVG 1.1//EN"
       "http://www.w3.org/Graphics/SVG/1.1/DTD/svg11.dtd">
<svg version="1.1" xmlns="http://www.w3.org/2000/svg" xmlns:xlink="http://www.w3.org/1999/xlink" width="310.657" height="313.806">
 <g>
  <rect height="313.806" opacity="0" width="310.657" x="0" y="0"/>
  <path d="M157.159 95.3064L137.677 115.082C157.013 116.693 169.611 122.406 179.132 131.928C204.767 157.562 204.62 193.89 179.279 219.232L131.378 266.986C105.89 292.474 69.8548 292.621 44.22 267.133C18.5852 241.351 18.7317 205.316 44.22 179.828L72.9309 151.117C68.8294 141.888 67.804 130.902 69.4153 121.381L26.3489 164.301C-8.66086 199.457-8.95383 249.262 26.4954 284.711C62.0911 320.306 111.896 320.013 146.906 285.004L197.003 234.76C232.159 199.603 232.452 149.799 196.857 114.349C187.628 105.121 175.909 98.5291 157.159 95.3064ZM153.497 216.01L172.98 196.234C153.644 194.769 141.046 188.91 131.525 179.388C105.89 153.754 106.036 117.426 131.378 92.0838L179.132 44.3299C204.767 18.8416 240.802 18.6951 266.437 44.3299C292.072 69.9646 291.779 106.146 266.437 131.488L237.726 160.199C241.827 169.574 242.706 180.414 241.241 189.935L284.308 147.015C319.318 111.859 319.611 62.201 284.161 26.6053C248.566-8.99045 198.761-8.69748 163.605 26.4588L113.654 76.5564C78.4973 111.713 78.2044 161.517 113.8 196.967C123.029 206.195 134.747 212.787 153.497 216.01Z" fill="#007aff"/>
 </g>
</svg>
