<?xml version="1.0" encoding="UTF-8"?>
<!--Generator: Apple Native CoreSVG 232.5-->
<!DOCTYPE svg
PUBLIC "-//W3C//DTD SVG 1.1//EN"
       "http://www.w3.org/Graphics/SVG/1.1/DTD/svg11.dtd">
<svg version="1.1" xmlns="http://www.w3.org/2000/svg" xmlns:xlink="http://www.w3.org/1999/xlink" width="298.828" height="298.975">
 <g>
  <rect height="298.975" opacity="0" width="298.828" x="0" y="0"/>
  <path d="M149.414 298.828C231.152 298.828 298.828 231.006 298.828 149.414C298.828 67.6758 231.006 0 149.268 0C67.6758 0 0 67.6758 0 149.414C0 231.006 67.8223 298.828 149.414 298.828ZM149.414 273.926C80.2734 273.926 25.0488 218.555 25.0488 149.414C25.0488 80.2734 80.127 24.9023 149.268 24.9023C218.408 24.9023 273.926 80.2734 273.926 149.414C273.926 218.555 218.555 273.926 149.414 273.926Z" fill="#007aff"/>
  <path d="M107.227 225L149.268 194.092L191.309 225C199.951 231.445 208.887 224.707 205.664 214.746L188.965 165.088L231.445 134.766C239.209 129.053 236.865 117.627 226.025 117.773L173.877 118.213L157.91 68.2617C154.834 58.5938 143.701 58.5938 140.625 68.2617L124.658 118.213L72.5098 117.773C61.8164 117.627 59.1797 128.906 67.0898 134.766L109.57 165.088L93.0176 214.746C89.6484 224.707 98.7305 231.445 107.227 225Z" fill="#007aff"/>
 </g>
</svg>
